<?xml version="1.0" encoding="UTF-8"?>
<svg width="509px" height="214px" viewBox="0 0 509 214" version="1.1" xmlns="http://www.w3.org/2000/svg" xmlns:xlink="http://www.w3.org/1999/xlink">
    <!-- Generator: Sketch 63.1 (92452) - https://sketch.com -->
    <title>stage_02_overlay</title>
    <desc>Created with Sketch.</desc>
    <g id="stage_02_overlay" stroke="none" stroke-width="1" fill="none" fill-rule="evenodd">
        <g id="Group-14" transform="translate(441.000000, 1.000000)">
            <rect id="Rectangle" stroke="#E32013" stroke-width="0.677333333" fill="#E32013" x="0.338666667" y="0.338666667" width="66.3226667" height="66.3226667"></rect>
            <path d="M44.8427976,38.4681891 C44.6868497,38.7014143 44.427016,38.8245119 44.1606398,38.8115813 L34.1236725,38.2025781 L34.1236725,52.1512866 C34.1236725,52.5594504 33.8572963,52.9028427 33.4869945,52.9870299 C33.4350515,52.993515 33.3830689,53 33.3310863,53 C33.0322755,53 32.7528937,52.8186158 32.6164938,52.5270646 L22.0792483,29.404437 C21.9493116,29.1193709 21.9818255,28.7824636 22.1572024,28.5233377 C22.3131503,28.2965581 22.572984,28.1734604 22.8393603,28.1864306 L32.8763275,28.7954337 L32.8828303,14.8466857 C32.8828303,14.4385219 33.1427038,14.0951692 33.5130056,14.0174274 C33.8703018,13.9396857 34.227598,14.127555 34.3835062,14.4709472 L44.9207516,37.5870898 C45.0506884,37.872156 45.0181745,38.2155087 44.8427976,38.4681891 Z" id="Path" stroke="#FFFFFF" stroke-width="1.08"></path>
        </g>
        <g id="Group-14" transform="translate(1.000000, 1.000000)">
            <path d="M404.5,-0.5 L-0.5,-0.5 L-0.5,212.5 L404.5,212.5 L404.5,48.9840251 L417.589093,36.3258172 L404.5,23.6659937 L404.5,-0.5 Z" id="Combined-Shape" stroke-opacity="0.25" stroke="#FFFFFF" fill="#000000"></path>
            <path d="M30.968,80 L37.144,58.368 L37.208,58.368 L43.48,80 L45.08,80 L51.64,57.152 L50.136,57.152 L44.28,78.496 L44.216,78.496 L38.072,57.152 L36.312,57.152 L30.264,78.496 L30.2,78.496 L24.248,57.152 L22.808,57.152 L29.4,80 L30.968,80 Z M54.693037,80 L54.693037,71.104 C54.693037,70.1013333 54.8263704,69.1786667 55.093037,68.336 C55.3597037,67.4933333 55.749037,66.768 56.261037,66.16 C56.773037,65.552 57.3917037,65.0773333 58.117037,64.736 C58.8423704,64.3946667 59.6743704,64.224 60.613037,64.224 C61.7223704,64.224 62.5917037,64.4266667 63.221037,64.832 C63.8503704,65.2373333 64.3197037,65.7226667 64.629037,66.288 C64.9383704,66.8533333 65.125037,67.4453333 65.189037,68.064 C65.253037,68.6826667 65.285037,69.1946667 65.285037,69.6 L65.285037,69.6 L65.285037,80 L66.501037,80 L66.501037,69.824 C66.501037,69.4826667 66.4903704,69.0826667 66.469037,68.624 C66.4477037,68.1653333 66.3837037,67.6906667 66.277037,67.2 C66.1703704,66.7093333 65.9943704,66.224 65.749037,65.744 C65.5037037,65.264 65.1677037,64.832 64.741037,64.448 C64.3143704,64.064 63.765037,63.7546667 63.093037,63.52 C62.421037,63.2853333 61.605037,63.168 60.645037,63.168 C60.005037,63.168 59.3757037,63.2533333 58.757037,63.424 C58.1383704,63.5946667 57.5677037,63.8506667 57.045037,64.192 C56.5223704,64.5333333 56.0637037,64.944 55.669037,65.424 C55.2743704,65.904 54.9703704,66.4533333 54.757037,67.072 L54.757037,67.072 L54.693037,67.072 L54.693037,57.152 L53.477037,57.152 L53.477037,80 L54.693037,80 Z M75.0580741,80.384 C75.8474074,80.384 76.5727407,80.288 77.2340741,80.096 C77.8954074,79.904 78.4874074,79.6373333 79.0100741,79.296 C79.5327407,78.9546667 79.9754074,78.5653333 80.3380741,78.128 C80.7007407,77.6906667 80.9780741,77.2266667 81.1700741,76.736 L81.1700741,76.736 L81.2340741,76.736 L81.2340741,77.6 C81.2340741,77.9413333 81.2607407,78.256 81.3140741,78.544 C81.3674074,78.832 81.4687407,79.0826667 81.6180741,79.296 C81.7674074,79.5093333 81.9860741,79.68 82.2740741,79.808 C82.5620741,79.936 82.9514074,80 83.4420741,80 C83.7834074,80 84.1140741,79.9573333 84.4340741,79.872 L84.4340741,79.872 L84.4340741,78.848 C84.0500741,78.912 83.7514074,78.944 83.5380741,78.944 C83.2607407,78.944 83.0474074,78.8853333 82.8980741,78.768 C82.7487407,78.6506667 82.6420741,78.496 82.5780741,78.304 C82.5140741,78.112 82.4767407,77.8986667 82.4660741,77.664 C82.4554074,77.4293333 82.4500741,77.1946667 82.4500741,76.96 L82.4500741,76.96 L82.4500741,67.392 C82.4500741,66.1333333 81.9967407,65.1146667 81.0900741,64.336 C80.1834074,63.5573333 78.7380741,63.168 76.7540741,63.168 C74.7700741,63.168 73.2394074,63.6213333 72.1620741,64.528 C71.0847407,65.4346667 70.5034074,66.7946667 70.4180741,68.608 L70.4180741,68.608 L71.6340741,68.608 C71.7194074,67.136 72.2154074,66.0373333 73.1220741,65.312 C74.0287407,64.5866667 75.2180741,64.224 76.6900741,64.224 C77.5220741,64.224 78.2260741,64.3093333 78.8020741,64.48 C79.3780741,64.6506667 79.8474074,64.8853333 80.2100741,65.184 C80.5727407,65.4826667 80.8394074,65.824 81.0100741,66.208 C81.1807407,66.592 81.2660741,67.008 81.2660741,67.456 C81.2660741,68.032 81.2340741,68.512 81.1700741,68.896 C81.1060741,69.28 80.9460741,69.5946667 80.6900741,69.84 C80.4340741,70.0853333 80.0554074,70.2773333 79.5540741,70.416 C79.0527407,70.5546667 78.3647407,70.656 77.4900741,70.72 L77.4900741,70.72 L75.6020741,70.88 C74.9407407,70.944 74.2527407,71.0506667 73.5380741,71.2 C72.8234074,71.3493333 72.1727407,71.6 71.5860741,71.952 C70.9994074,72.304 70.5140741,72.784 70.1300741,73.392 C69.7460741,74 69.5540741,74.784 69.5540741,75.744 C69.5540741,77.3226667 70.0340741,78.4906667 70.9940741,79.248 C71.9540741,80.0053333 73.3087407,80.384 75.0580741,80.384 Z M75.0900741,79.328 C73.7460741,79.328 72.6900741,79.0346667 71.9220741,78.448 C71.1540741,77.8613333 70.7700741,76.96 70.7700741,75.744 C70.7700741,74.976 70.9194074,74.352 71.2180741,73.872 C71.5167407,73.392 71.9060741,73.0133333 72.3860741,72.736 C72.8660741,72.4586667 73.4047407,72.2613333 74.0020741,72.144 C74.5994074,72.0266667 75.1967407,71.936 75.7940741,71.872 L75.7940741,71.872 L77.8420741,71.68 C78.5887407,71.616 79.2660741,71.52 79.8740741,71.392 C80.4820741,71.264 80.9354074,71.0186667 81.2340741,70.656 L81.2340741,70.656 L81.2340741,73.728 C81.2340741,73.9413333 81.1754074,74.352 81.0580741,74.96 C80.9407407,75.568 80.6687407,76.1973333 80.2420741,76.848 C79.8154074,77.4986667 79.1967407,78.0746667 78.3860741,78.576 C77.5754074,79.0773333 76.4767407,79.328 75.0900741,79.328 Z M90.7671111,79.984 C91.3537778,80.0373333 91.9564444,80.0426667 92.5751111,80 L92.5751111,80 L92.5751111,78.944 C91.9991111,78.9653333 91.4924444,78.9546667 91.0551111,78.912 C90.6177778,78.8693333 90.2444444,78.7466667 89.9351111,78.544 C89.6257778,78.3413333 89.3964444,78.048 89.2471111,77.664 C89.0977778,77.28 89.0231111,76.7573333 89.0231111,76.096 L89.0231111,76.096 L89.0231111,64.608 L92.6071111,64.608 L92.6071111,63.552 L89.0231111,63.552 L89.0231111,58.432 L87.8071111,58.432 L87.8071111,63.552 L84.7671111,63.552 L84.7671111,64.608 L87.8071111,64.608 L87.8071111,76.096 C87.7644444,77.0346667 87.8764444,77.7706667 88.1431111,78.304 C88.4097778,78.8373333 88.7671111,79.2373333 89.2151111,79.504 C89.6631111,79.7706667 90.1804444,79.9306667 90.7671111,79.984 Z M110.233185,80.384 C110.958519,80.384 111.699852,80.3146667 112.457185,80.176 C113.214519,80.0373333 113.902519,79.792 114.521185,79.44 C115.139852,79.088 115.651852,78.624 116.057185,78.048 C116.462519,77.472 116.665185,76.736 116.665185,75.84 C116.665185,74.9866667 116.515852,74.2826667 116.217185,73.728 C115.918519,73.1733333 115.507852,72.72 114.985185,72.368 C114.462519,72.016 113.843852,71.7386667 113.129185,71.536 C112.414519,71.3333333 111.651852,71.1573333 110.841185,71.008 C110.179852,70.8586667 109.523852,70.7093333 108.873185,70.56 C108.222519,70.4106667 107.635852,70.2133333 107.113185,69.968 C106.590519,69.7226667 106.169185,69.3973333 105.849185,68.992 C105.529185,68.5866667 105.369185,68.0533333 105.369185,67.392 C105.369185,66.816 105.513185,66.3253333 105.801185,65.92 C106.089185,65.5146667 106.457185,65.184 106.905185,64.928 C107.353185,64.672 107.859852,64.4906667 108.425185,64.384 C108.990519,64.2773333 109.550519,64.224 110.105185,64.224 C110.787852,64.224 111.427852,64.304 112.025185,64.464 C112.622519,64.624 113.139852,64.8693333 113.577185,65.2 C114.014519,65.5306667 114.355852,65.9626667 114.601185,66.496 C114.846519,67.0293333 114.969185,67.6693333 114.969185,68.416 L114.969185,68.416 L116.185185,68.416 C116.185185,67.4773333 116.030519,66.6773333 115.721185,66.016 C115.411852,65.3546667 114.985185,64.8106667 114.441185,64.384 C113.897185,63.9573333 113.251852,63.648 112.505185,63.456 C111.758519,63.264 110.958519,63.168 110.105185,63.168 C109.401185,63.168 108.697185,63.2373333 107.993185,63.376 C107.289185,63.5146667 106.654519,63.744 106.089185,64.064 C105.523852,64.384 105.059852,64.816 104.697185,65.36 C104.334519,65.904 104.153185,66.5813333 104.153185,67.392 C104.153185,68.5226667 104.430519,69.3813333 104.985185,69.968 C105.539852,70.5546667 106.238519,71.008 107.081185,71.328 C107.923852,71.648 108.830519,71.888 109.801185,72.048 C110.771852,72.208 111.678519,72.416 112.521185,72.672 C113.363852,72.928 114.062519,73.2906667 114.617185,73.76 C115.171852,74.2293333 115.449185,74.9226667 115.449185,75.84 C115.449185,76.544 115.278519,77.1253333 114.937185,77.584 C114.595852,78.0426667 114.163852,78.4 113.641185,78.656 C113.118519,78.912 112.553185,79.088 111.945185,79.184 C111.337185,79.28 110.766519,79.328 110.233185,79.328 C109.486519,79.328 108.793185,79.2213333 108.153185,79.008 C107.513185,78.7946667 106.953185,78.48 106.473185,78.064 C105.993185,77.648 105.603852,77.1466667 105.305185,76.56 C105.006519,75.9733333 104.835852,75.296 104.793185,74.528 L104.793185,74.528 L103.577185,74.528 C103.598519,75.488 103.779852,76.3306667 104.121185,77.056 C104.462519,77.7813333 104.931852,78.3946667 105.529185,78.896 C106.126519,79.3973333 106.825185,79.7706667 107.625185,80.016 C108.425185,80.2613333 109.294519,80.384 110.233185,80.384 Z M124.742222,80 L129.286222,65.088 L129.350222,65.088 L133.862222,80 L135.366222,80 L140.646222,63.552 L139.302222,63.552 L134.694222,78.592 L134.630222,78.592 L130.118222,63.552 L128.486222,63.552 L124.006222,78.592 L123.942222,78.592 L119.302222,63.552 L117.990222,63.552 L123.206222,80 L124.742222,80 Z M144.115259,60.448 L144.115259,57.152 L142.899259,57.152 L142.899259,60.448 L144.115259,60.448 Z M144.115259,80 L144.115259,63.552 L142.899259,63.552 L142.899259,80 L144.115259,80 Z M152.432296,79.984 C153.018963,80.0373333 153.62163,80.0426667 154.240296,80 L154.240296,80 L154.240296,78.944 C153.664296,78.9653333 153.15763,78.9546667 152.720296,78.912 C152.282963,78.8693333 151.90963,78.7466667 151.600296,78.544 C151.290963,78.3413333 151.06163,78.048 150.912296,77.664 C150.762963,77.28 150.688296,76.7573333 150.688296,76.096 L150.688296,76.096 L150.688296,64.608 L154.272296,64.608 L154.272296,63.552 L150.688296,63.552 L150.688296,58.432 L149.472296,58.432 L149.472296,63.552 L146.432296,63.552 L146.432296,64.608 L149.472296,64.608 L149.472296,76.096 C149.42963,77.0346667 149.54163,77.7706667 149.808296,78.304 C150.074963,78.8373333 150.432296,79.2373333 150.880296,79.504 C151.328296,79.7706667 151.84563,79.9306667 152.432296,79.984 Z M163.565333,80.384 C164.44,80.384 165.272,80.2453333 166.061333,79.968 C166.850667,79.6906667 167.554667,79.2906667 168.173333,78.768 C168.792,78.2453333 169.304,77.6 169.709333,76.832 C170.114667,76.064 170.381333,75.1893333 170.509333,74.208 L170.509333,74.208 L169.293333,74.208 C169.186667,74.9546667 168.973333,75.6426667 168.653333,76.272 C168.333333,76.9013333 167.922667,77.44 167.421333,77.888 C166.92,78.336 166.344,78.688 165.693333,78.944 C165.042667,79.2 164.333333,79.328 163.565333,79.328 C162.498667,79.328 161.570667,79.136 160.781333,78.752 C159.992,78.368 159.330667,77.8293333 158.797333,77.136 C158.264,76.4426667 157.869333,75.6266667 157.613333,74.688 C157.357333,73.7493333 157.229333,72.7253333 157.229333,71.616 C157.229333,70.6773333 157.368,69.7653333 157.645333,68.88 C157.922667,67.9946667 158.328,67.2053333 158.861333,66.512 C159.394667,65.8186667 160.056,65.264 160.845333,64.848 C161.634667,64.432 162.541333,64.224 163.565333,64.224 C164.312,64.224 165.010667,64.32 165.661333,64.512 C166.312,64.704 166.882667,64.9813333 167.373333,65.344 C167.864,65.7066667 168.264,66.1653333 168.573333,66.72 C168.882667,67.2746667 169.069333,67.9146667 169.133333,68.64 L169.133333,68.64 L170.349333,68.64 C170.264,67.7226667 170.029333,66.9173333 169.645333,66.224 C169.261333,65.5306667 168.765333,64.96 168.157333,64.512 C167.549333,64.064 166.856,63.728 166.077333,63.504 C165.298667,63.28 164.461333,63.168 163.565333,63.168 C162.349333,63.168 161.272,63.392 160.333333,63.84 C159.394667,64.288 158.605333,64.896 157.965333,65.664 C157.325333,66.432 156.84,67.328 156.509333,68.352 C156.178667,69.376 156.013333,70.464 156.013333,71.616 C156.013333,72.768 156.157333,73.872 156.445333,74.928 C156.733333,75.984 157.181333,76.9173333 157.789333,77.728 C158.397333,78.5386667 159.176,79.184 160.125333,79.664 C161.074667,80.144 162.221333,80.384 163.565333,80.384 Z M174.81037,80 L174.81037,71.104 C174.81037,70.1013333 174.943704,69.1786667 175.21037,68.336 C175.477037,67.4933333 175.86637,66.768 176.37837,66.16 C176.89037,65.552 177.509037,65.0773333 178.23437,64.736 C178.959704,64.3946667 179.791704,64.224 180.73037,64.224 C181.839704,64.224 182.709037,64.4266667 183.33837,64.832 C183.967704,65.2373333 184.437037,65.7226667 184.74637,66.288 C185.055704,66.8533333 185.24237,67.4453333 185.30637,68.064 C185.37037,68.6826667 185.40237,69.1946667 185.40237,69.6 L185.40237,69.6 L185.40237,80 L186.61837,80 L186.61837,69.824 C186.61837,69.4826667 186.607704,69.0826667 186.58637,68.624 C186.565037,68.1653333 186.501037,67.6906667 186.39437,67.2 C186.287704,66.7093333 186.111704,66.224 185.86637,65.744 C185.621037,65.264 185.285037,64.832 184.85837,64.448 C184.431704,64.064 183.88237,63.7546667 183.21037,63.52 C182.53837,63.2853333 181.72237,63.168 180.76237,63.168 C180.12237,63.168 179.493037,63.2533333 178.87437,63.424 C178.255704,63.5946667 177.685037,63.8506667 177.16237,64.192 C176.639704,64.5333333 176.181037,64.944 175.78637,65.424 C175.391704,65.904 175.087704,66.4533333 174.87437,67.072 L174.87437,67.072 L174.81037,67.072 L174.81037,57.152 L173.59437,57.152 L173.59437,80 L174.81037,80 Z M191.943407,60.448 L191.943407,57.152 L190.727407,57.152 L190.727407,60.448 L191.943407,60.448 Z M191.943407,80 L191.943407,63.552 L190.727407,63.552 L190.727407,80 L191.943407,80 Z M197.268444,80 L197.268444,71.104 C197.268444,70.1013333 197.401778,69.1786667 197.668444,68.336 C197.935111,67.4933333 198.324444,66.768 198.836444,66.16 C199.348444,65.552 199.967111,65.0773333 200.692444,64.736 C201.417778,64.3946667 202.249778,64.224 203.188444,64.224 C204.297778,64.224 205.167111,64.4266667 205.796444,64.832 C206.425778,65.2373333 206.895111,65.7226667 207.204444,66.288 C207.513778,66.8533333 207.700444,67.4453333 207.764444,68.064 C207.828444,68.6826667 207.860444,69.1946667 207.860444,69.6 L207.860444,69.6 L207.860444,80 L209.076444,80 L209.076444,69.824 C209.076444,69.4826667 209.065778,69.0826667 209.044444,68.624 C209.023111,68.1653333 208.959111,67.6906667 208.852444,67.2 C208.745778,66.7093333 208.569778,66.224 208.324444,65.744 C208.079111,65.264 207.743111,64.832 207.316444,64.448 C206.889778,64.064 206.340444,63.7546667 205.668444,63.52 C204.996444,63.2853333 204.180444,63.168 203.220444,63.168 C202.580444,63.168 201.951111,63.2533333 201.332444,63.424 C200.713778,63.5946667 200.143111,63.8506667 199.620444,64.192 C199.097778,64.5333333 198.639111,64.944 198.244444,65.424 C197.849778,65.904 197.545778,66.4533333 197.332444,67.072 L197.332444,67.072 L197.268444,67.072 L197.268444,63.552 L196.052444,63.552 L196.052444,80 L197.268444,80 Z M219.425481,86.272 C220.833481,86.272 221.996148,86.0746667 222.913481,85.68 C223.830815,85.2853333 224.550815,84.7573333 225.073481,84.096 C225.596148,83.4346667 225.964148,82.672 226.177481,81.808 C226.390815,80.944 226.497481,80.0533333 226.497481,79.136 L226.497481,79.136 L226.497481,63.552 L225.281481,63.552 L225.281481,66.976 L225.217481,66.976 C224.748148,65.76 223.964148,64.8213333 222.865481,64.16 C221.766815,63.4986667 220.566815,63.168 219.265481,63.168 C218.113481,63.168 217.094815,63.3866667 216.209481,63.824 C215.324148,64.2613333 214.582815,64.848 213.985481,65.584 C213.388148,66.32 212.934815,67.1786667 212.625481,68.16 C212.316148,69.1413333 212.161481,70.176 212.161481,71.264 C212.161481,72.416 212.305481,73.4826667 212.593481,74.464 C212.881481,75.4453333 213.318815,76.304 213.905481,77.04 C214.492148,77.776 215.228148,78.352 216.113481,78.768 C216.998815,79.184 218.049481,79.392 219.265481,79.392 C220.673481,79.392 221.873481,79.072 222.865481,78.432 C223.857481,77.792 224.641481,76.864 225.217481,75.648 L225.217481,75.648 L225.281481,75.648 L225.281481,79.424 C225.281481,80.128 225.190815,80.8266667 225.009481,81.52 C224.828148,82.2133333 224.513481,82.832 224.065481,83.376 C223.617481,83.92 223.014815,84.3626667 222.257481,84.704 C221.500148,85.0453333 220.556148,85.216 219.425481,85.216 C218.742815,85.216 218.102815,85.1413333 217.505481,84.992 C216.908148,84.8426667 216.369481,84.6026667 215.889481,84.272 C215.409481,83.9413333 215.020148,83.52 214.721481,83.008 C214.422815,82.496 214.241481,81.8773333 214.177481,81.152 L214.177481,81.152 L212.961481,81.152 C213.004148,82.112 213.201481,82.9173333 213.553481,83.568 C213.905481,84.2186667 214.369481,84.7413333 214.945481,85.136 C215.521481,85.5306667 216.193481,85.8186667 216.961481,86 C217.729481,86.1813333 218.550815,86.272 219.425481,86.272 Z M219.265481,78.336 C218.305481,78.336 217.457481,78.1493333 216.721481,77.776 C215.985481,77.4026667 215.366815,76.896 214.865481,76.256 C214.364148,75.616 213.990815,74.864 213.745481,74 C213.500148,73.136 213.377481,72.224 213.377481,71.264 C213.377481,70.3893333 213.500148,69.5306667 213.745481,68.688 C213.990815,67.8453333 214.353481,67.0933333 214.833481,66.432 C215.313481,65.7706667 215.921481,65.2373333 216.657481,64.832 C217.393481,64.4266667 218.262815,64.224 219.265481,64.224 C220.268148,64.224 221.142815,64.416 221.889481,64.8 C222.636148,65.184 223.260148,65.7013333 223.761481,66.352 C224.262815,67.0026667 224.636148,67.7546667 224.881481,68.608 C225.126815,69.4613333 225.249481,70.3466667 225.249481,71.264 C225.249481,72.2026667 225.126815,73.0933333 224.881481,73.936 C224.636148,74.7786667 224.262815,75.5306667 223.761481,76.192 C223.260148,76.8533333 222.636148,77.376 221.889481,77.76 C221.142815,78.144 220.268148,78.336 219.265481,78.336 Z M240.667556,80 L240.667556,71.008 C240.688889,70.3893333 240.742222,69.856 240.827556,69.408 C240.912889,68.96 241.030222,68.5546667 241.179556,68.192 C241.328889,67.8293333 241.515556,67.4986667 241.739556,67.2 C241.963556,66.9013333 242.224889,66.592 242.523556,66.272 C243.270222,65.5466667 244.054222,65.0773333 244.875556,64.864 C245.696889,64.6506667 246.427556,64.5866667 247.067556,64.672 L247.067556,64.672 L247.067556,63.456 C246.320889,63.4346667 245.600889,63.5146667 244.907556,63.696 C244.214222,63.8773333 243.584889,64.1386667 243.019556,64.48 C242.454222,64.8213333 241.974222,65.2266667 241.579556,65.696 C241.184889,66.1653333 240.912889,66.6666667 240.763556,67.2 L240.763556,67.2 L240.667556,67.2 L240.667556,63.552 L239.451556,63.552 L239.451556,80 L240.667556,80 Z M252.680593,80.384 C253.469926,80.384 254.195259,80.288 254.856593,80.096 C255.517926,79.904 256.109926,79.6373333 256.632593,79.296 C257.155259,78.9546667 257.597926,78.5653333 257.960593,78.128 C258.323259,77.6906667 258.600593,77.2266667 258.792593,76.736 L258.792593,76.736 L258.856593,76.736 L258.856593,77.6 C258.856593,77.9413333 258.883259,78.256 258.936593,78.544 C258.989926,78.832 259.091259,79.0826667 259.240593,79.296 C259.389926,79.5093333 259.608593,79.68 259.896593,79.808 C260.184593,79.936 260.573926,80 261.064593,80 C261.405926,80 261.736593,79.9573333 262.056593,79.872 L262.056593,79.872 L262.056593,78.848 C261.672593,78.912 261.373926,78.944 261.160593,78.944 C260.883259,78.944 260.669926,78.8853333 260.520593,78.768 C260.371259,78.6506667 260.264593,78.496 260.200593,78.304 C260.136593,78.112 260.099259,77.8986667 260.088593,77.664 C260.077926,77.4293333 260.072593,77.1946667 260.072593,76.96 L260.072593,76.96 L260.072593,67.392 C260.072593,66.1333333 259.619259,65.1146667 258.712593,64.336 C257.805926,63.5573333 256.360593,63.168 254.376593,63.168 C252.392593,63.168 250.861926,63.6213333 249.784593,64.528 C248.707259,65.4346667 248.125926,66.7946667 248.040593,68.608 L248.040593,68.608 L249.256593,68.608 C249.341926,67.136 249.837926,66.0373333 250.744593,65.312 C251.651259,64.5866667 252.840593,64.224 254.312593,64.224 C255.144593,64.224 255.848593,64.3093333 256.424593,64.48 C257.000593,64.6506667 257.469926,64.8853333 257.832593,65.184 C258.195259,65.4826667 258.461926,65.824 258.632593,66.208 C258.803259,66.592 258.888593,67.008 258.888593,67.456 C258.888593,68.032 258.856593,68.512 258.792593,68.896 C258.728593,69.28 258.568593,69.5946667 258.312593,69.84 C258.056593,70.0853333 257.677926,70.2773333 257.176593,70.416 C256.675259,70.5546667 255.987259,70.656 255.112593,70.72 L255.112593,70.72 L253.224593,70.88 C252.563259,70.944 251.875259,71.0506667 251.160593,71.2 C250.445926,71.3493333 249.795259,71.6 249.208593,71.952 C248.621926,72.304 248.136593,72.784 247.752593,73.392 C247.368593,74 247.176593,74.784 247.176593,75.744 C247.176593,77.3226667 247.656593,78.4906667 248.616593,79.248 C249.576593,80.0053333 250.931259,80.384 252.680593,80.384 Z M252.712593,79.328 C251.368593,79.328 250.312593,79.0346667 249.544593,78.448 C248.776593,77.8613333 248.392593,76.96 248.392593,75.744 C248.392593,74.976 248.541926,74.352 248.840593,73.872 C249.139259,73.392 249.528593,73.0133333 250.008593,72.736 C250.488593,72.4586667 251.027259,72.2613333 251.624593,72.144 C252.221926,72.0266667 252.819259,71.936 253.416593,71.872 L253.416593,71.872 L255.464593,71.68 C256.211259,71.616 256.888593,71.52 257.496593,71.392 C258.104593,71.264 258.557926,71.0186667 258.856593,70.656 L258.856593,70.656 L258.856593,73.728 C258.856593,73.9413333 258.797926,74.352 258.680593,74.96 C258.563259,75.568 258.291259,76.1973333 257.864593,76.848 C257.437926,77.4986667 256.819259,78.0746667 256.008593,78.576 C255.197926,79.0773333 254.099259,79.328 252.712593,79.328 Z M268.38963,79.984 C268.976296,80.0373333 269.578963,80.0426667 270.19763,80 L270.19763,80 L270.19763,78.944 C269.62163,78.9653333 269.114963,78.9546667 268.67763,78.912 C268.240296,78.8693333 267.866963,78.7466667 267.55763,78.544 C267.248296,78.3413333 267.018963,78.048 266.86963,77.664 C266.720296,77.28 266.64563,76.7573333 266.64563,76.096 L266.64563,76.096 L266.64563,64.608 L270.22963,64.608 L270.22963,63.552 L266.64563,63.552 L266.64563,58.432 L265.42963,58.432 L265.42963,63.552 L262.38963,63.552 L262.38963,64.608 L265.42963,64.608 L265.42963,76.096 C265.386963,77.0346667 265.498963,77.7706667 265.76563,78.304 C266.032296,78.8373333 266.38963,79.2373333 266.83763,79.504 C267.28563,79.7706667 267.802963,79.9306667 268.38963,79.984 Z M274.210667,60.448 L274.210667,57.152 L272.994667,57.152 L272.994667,60.448 L274.210667,60.448 Z M274.210667,80 L274.210667,63.552 L272.994667,63.552 L272.994667,80 L274.210667,80 Z M279.535704,80 L279.535704,71.104 C279.535704,70.1013333 279.669037,69.1786667 279.935704,68.336 C280.20237,67.4933333 280.591704,66.768 281.103704,66.16 C281.615704,65.552 282.23437,65.0773333 282.959704,64.736 C283.685037,64.3946667 284.517037,64.224 285.455704,64.224 C286.565037,64.224 287.43437,64.4266667 288.063704,64.832 C288.693037,65.2373333 289.16237,65.7226667 289.471704,66.288 C289.781037,66.8533333 289.967704,67.4453333 290.031704,68.064 C290.095704,68.6826667 290.127704,69.1946667 290.127704,69.6 L290.127704,69.6 L290.127704,80 L291.343704,80 L291.343704,69.824 C291.343704,69.4826667 291.333037,69.0826667 291.311704,68.624 C291.29037,68.1653333 291.22637,67.6906667 291.119704,67.2 C291.013037,66.7093333 290.837037,66.224 290.591704,65.744 C290.34637,65.264 290.01037,64.832 289.583704,64.448 C289.157037,64.064 288.607704,63.7546667 287.935704,63.52 C287.263704,63.2853333 286.447704,63.168 285.487704,63.168 C284.847704,63.168 284.21837,63.2533333 283.599704,63.424 C282.981037,63.5946667 282.41037,63.8506667 281.887704,64.192 C281.365037,64.5333333 280.90637,64.944 280.511704,65.424 C280.117037,65.904 279.813037,66.4533333 279.599704,67.072 L279.599704,67.072 L279.535704,67.072 L279.535704,63.552 L278.319704,63.552 L278.319704,80 L279.535704,80 Z M301.692741,86.272 C303.100741,86.272 304.263407,86.0746667 305.180741,85.68 C306.098074,85.2853333 306.818074,84.7573333 307.340741,84.096 C307.863407,83.4346667 308.231407,82.672 308.444741,81.808 C308.658074,80.944 308.764741,80.0533333 308.764741,79.136 L308.764741,79.136 L308.764741,63.552 L307.548741,63.552 L307.548741,66.976 L307.484741,66.976 C307.015407,65.76 306.231407,64.8213333 305.132741,64.16 C304.034074,63.4986667 302.834074,63.168 301.532741,63.168 C300.380741,63.168 299.362074,63.3866667 298.476741,63.824 C297.591407,64.2613333 296.850074,64.848 296.252741,65.584 C295.655407,66.32 295.202074,67.1786667 294.892741,68.16 C294.583407,69.1413333 294.428741,70.176 294.428741,71.264 C294.428741,72.416 294.572741,73.4826667 294.860741,74.464 C295.148741,75.4453333 295.586074,76.304 296.172741,77.04 C296.759407,77.776 297.495407,78.352 298.380741,78.768 C299.266074,79.184 300.316741,79.392 301.532741,79.392 C302.940741,79.392 304.140741,79.072 305.132741,78.432 C306.124741,77.792 306.908741,76.864 307.484741,75.648 L307.484741,75.648 L307.548741,75.648 L307.548741,79.424 C307.548741,80.128 307.458074,80.8266667 307.276741,81.52 C307.095407,82.2133333 306.780741,82.832 306.332741,83.376 C305.884741,83.92 305.282074,84.3626667 304.524741,84.704 C303.767407,85.0453333 302.823407,85.216 301.692741,85.216 C301.010074,85.216 300.370074,85.1413333 299.772741,84.992 C299.175407,84.8426667 298.636741,84.6026667 298.156741,84.272 C297.676741,83.9413333 297.287407,83.52 296.988741,83.008 C296.690074,82.496 296.508741,81.8773333 296.444741,81.152 L296.444741,81.152 L295.228741,81.152 C295.271407,82.112 295.468741,82.9173333 295.820741,83.568 C296.172741,84.2186667 296.636741,84.7413333 297.212741,85.136 C297.788741,85.5306667 298.460741,85.8186667 299.228741,86 C299.996741,86.1813333 300.818074,86.272 301.692741,86.272 Z M301.532741,78.336 C300.572741,78.336 299.724741,78.1493333 298.988741,77.776 C298.252741,77.4026667 297.634074,76.896 297.132741,76.256 C296.631407,75.616 296.258074,74.864 296.012741,74 C295.767407,73.136 295.644741,72.224 295.644741,71.264 C295.644741,70.3893333 295.767407,69.5306667 296.012741,68.688 C296.258074,67.8453333 296.620741,67.0933333 297.100741,66.432 C297.580741,65.7706667 298.188741,65.2373333 298.924741,64.832 C299.660741,64.4266667 300.530074,64.224 301.532741,64.224 C302.535407,64.224 303.410074,64.416 304.156741,64.8 C304.903407,65.184 305.527407,65.7013333 306.028741,66.352 C306.530074,67.0026667 306.903407,67.7546667 307.148741,68.608 C307.394074,69.4613333 307.516741,70.3466667 307.516741,71.264 C307.516741,72.2026667 307.394074,73.0933333 307.148741,73.936 C306.903407,74.7786667 306.530074,75.5306667 306.028741,76.192 C305.527407,76.8533333 304.903407,77.376 304.156741,77.76 C303.410074,78.144 302.535407,78.336 301.532741,78.336 Z M30.808,116.384 C31.5333333,116.384 32.2746667,116.314667 33.032,116.176 C33.7893333,116.037333 34.4773333,115.792 35.096,115.44 C35.7146667,115.088 36.2266667,114.624 36.632,114.048 C37.0373333,113.472 37.24,112.736 37.24,111.84 C37.24,110.986667 37.0906667,110.282667 36.792,109.728 C36.4933333,109.173333 36.0826667,108.72 35.56,108.368 C35.0373333,108.016 34.4186667,107.738667 33.704,107.536 C32.9893333,107.333333 32.2266667,107.157333 31.416,107.008 C30.7546667,106.858667 30.0986667,106.709333 29.448,106.56 C28.7973333,106.410667 28.2106667,106.213333 27.688,105.968 C27.1653333,105.722667 26.744,105.397333 26.424,104.992 C26.104,104.586667 25.944,104.053333 25.944,103.392 C25.944,102.816 26.088,102.325333 26.376,101.92 C26.664,101.514667 27.032,101.184 27.48,100.928 C27.928,100.672 28.4346667,100.490667 29,100.384 C29.5653333,100.277333 30.1253333,100.224 30.68,100.224 C31.3626667,100.224 32.0026667,100.304 32.6,100.464 C33.1973333,100.624 33.7146667,100.869333 34.152,101.2 C34.5893333,101.530667 34.9306667,101.962667 35.176,102.496 C35.4213333,103.029333 35.544,103.669333 35.544,104.416 L35.544,104.416 L36.76,104.416 C36.76,103.477333 36.6053333,102.677333 36.296,102.016 C35.9866667,101.354667 35.56,100.810667 35.016,100.384 C34.472,99.9573333 33.8266667,99.648 33.08,99.456 C32.3333333,99.264 31.5333333,99.168 30.68,99.168 C29.976,99.168 29.272,99.2373333 28.568,99.376 C27.864,99.5146667 27.2293333,99.744 26.664,100.064 C26.0986667,100.384 25.6346667,100.816 25.272,101.36 C24.9093333,101.904 24.728,102.581333 24.728,103.392 C24.728,104.522667 25.0053333,105.381333 25.56,105.968 C26.1146667,106.554667 26.8133333,107.008 27.656,107.328 C28.4986667,107.648 29.4053333,107.888 30.376,108.048 C31.3466667,108.208 32.2533333,108.416 33.096,108.672 C33.9386667,108.928 34.6373333,109.290667 35.192,109.76 C35.7466667,110.229333 36.024,110.922667 36.024,111.84 C36.024,112.544 35.8533333,113.125333 35.512,113.584 C35.1706667,114.042667 34.7386667,114.4 34.216,114.656 C33.6933333,114.912 33.128,115.088 32.52,115.184 C31.912,115.28 31.3413333,115.328 30.808,115.328 C30.0613333,115.328 29.368,115.221333 28.728,115.008 C28.088,114.794667 27.528,114.48 27.048,114.064 C26.568,113.648 26.1786667,113.146667 25.88,112.56 C25.5813333,111.973333 25.4106667,111.296 25.368,110.528 L25.368,110.528 L24.152,110.528 C24.1733333,111.488 24.3546667,112.330667 24.696,113.056 C25.0373333,113.781333 25.5066667,114.394667 26.104,114.896 C26.7013333,115.397333 27.4,115.770667 28.2,116.016 C29,116.261333 29.8693333,116.384 30.808,116.384 Z M41.637037,116 L41.637037,107.104 C41.637037,106.101333 41.7703704,105.178667 42.037037,104.336 C42.3037037,103.493333 42.693037,102.768 43.205037,102.16 C43.717037,101.552 44.3357037,101.077333 45.061037,100.736 C45.7863704,100.394667 46.6183704,100.224 47.557037,100.224 C48.6663704,100.224 49.5357037,100.426667 50.165037,100.832 C50.7943704,101.237333 51.2637037,101.722667 51.573037,102.288 C51.8823704,102.853333 52.069037,103.445333 52.133037,104.064 C52.197037,104.682667 52.229037,105.194667 52.229037,105.6 L52.229037,105.6 L52.229037,116 L53.445037,116 L53.445037,105.824 C53.445037,105.482667 53.4343704,105.082667 53.413037,104.624 C53.3917037,104.165333 53.3277037,103.690667 53.221037,103.2 C53.1143704,102.709333 52.9383704,102.224 52.693037,101.744 C52.4477037,101.264 52.1117037,100.832 51.685037,100.448 C51.2583704,100.064 50.709037,99.7546667 50.037037,99.52 C49.365037,99.2853333 48.549037,99.168 47.589037,99.168 C46.949037,99.168 46.3197037,99.2533333 45.701037,99.424 C45.0823704,99.5946667 44.5117037,99.8506667 43.989037,100.192 C43.4663704,100.533333 43.0077037,100.944 42.613037,101.424 C42.2183704,101.904 41.9143704,102.453333 41.701037,103.072 L41.701037,103.072 L41.637037,103.072 L41.637037,93.152 L40.421037,93.152 L40.421037,116 L41.637037,116 Z M64.0500741,116.384 C65.2660741,116.384 66.3434074,116.154667 67.2820741,115.696 C68.2207407,115.237333 69.0100741,114.618667 69.6500741,113.84 C70.2900741,113.061333 70.7754074,112.149333 71.1060741,111.104 C71.4367407,110.058667 71.6020741,108.949333 71.6020741,107.776 C71.6020741,106.602667 71.4367407,105.498667 71.1060741,104.464 C70.7754074,103.429333 70.2900741,102.517333 69.6500741,101.728 C69.0100741,100.938667 68.2207407,100.314667 67.2820741,99.856 C66.3434074,99.3973333 65.2660741,99.168 64.0500741,99.168 C62.8340741,99.168 61.7567407,99.3973333 60.8180741,99.856 C59.8794074,100.314667 59.0900741,100.938667 58.4500741,101.728 C57.8100741,102.517333 57.3247407,103.429333 56.9940741,104.464 C56.6634074,105.498667 56.4980741,106.602667 56.4980741,107.776 C56.4980741,108.949333 56.6634074,110.058667 56.9940741,111.104 C57.3247407,112.149333 57.8100741,113.061333 58.4500741,113.84 C59.0900741,114.618667 59.8794074,115.237333 60.8180741,115.696 C61.7567407,116.154667 62.8340741,116.384 64.0500741,116.384 Z M64.0500741,115.328 C63.0260741,115.328 62.1194074,115.12 61.3300741,114.704 C60.5407407,114.288 59.8794074,113.728 59.3460741,113.024 C58.8127407,112.32 58.4074074,111.514667 58.1300741,110.608 C57.8527407,109.701333 57.7140741,108.757333 57.7140741,107.776 C57.7140741,106.794667 57.8527407,105.850667 58.1300741,104.944 C58.4074074,104.037333 58.8127407,103.232 59.3460741,102.528 C59.8794074,101.824 60.5407407,101.264 61.3300741,100.848 C62.1194074,100.432 63.0260741,100.224 64.0500741,100.224 C65.0740741,100.224 65.9807407,100.432 66.7700741,100.848 C67.5594074,101.264 68.2207407,101.824 68.7540741,102.528 C69.2874074,103.232 69.6927407,104.037333 69.9700741,104.944 C70.2474074,105.850667 70.3860741,106.794667 70.3860741,107.776 C70.3860741,108.757333 70.2474074,109.701333 69.9700741,110.608 C69.6927407,111.514667 69.2874074,112.32 68.7540741,113.024 C68.2207407,113.728 67.5594074,114.288 66.7700741,114.704 C65.9807407,115.12 65.0740741,115.328 64.0500741,115.328 Z M80.5431111,116.384 C81.1831111,116.384 81.8124444,116.298667 82.4311111,116.128 C83.0497778,115.957333 83.6204444,115.701333 84.1431111,115.36 C84.6657778,115.018667 85.1244444,114.608 85.5191111,114.128 C85.9137778,113.648 86.2177778,113.098667 86.4311111,112.48 L86.4311111,112.48 L86.4951111,112.48 L86.4951111,116 L87.7111111,116 L87.7111111,99.552 L86.4951111,99.552 L86.4951111,108.448 C86.4951111,109.450667 86.3617778,110.373333 86.0951111,111.216 C85.8284444,112.058667 85.4391111,112.784 84.9271111,113.392 C84.4151111,114 83.7911111,114.474667 83.0551111,114.816 C82.3191111,115.157333 81.4924444,115.328 80.5751111,115.328 C79.4444444,115.328 78.5697778,115.125333 77.9511111,114.72 C77.3324444,114.314667 76.8684444,113.829333 76.5591111,113.264 C76.2497778,112.698667 76.0631111,112.112 75.9991111,111.504 C75.9351111,110.896 75.9031111,110.378667 75.9031111,109.952 L75.9031111,109.952 L75.9031111,99.552 L74.6871111,99.552 L74.6871111,109.728 C74.6871111,110.069333 74.6977778,110.469333 74.7191111,110.928 C74.7404444,111.386667 74.8044444,111.861333 74.9111111,112.352 C75.0177778,112.842667 75.1937778,113.328 75.4391111,113.808 C75.6844444,114.288 76.0204444,114.72 76.4471111,115.104 C76.8737778,115.488 77.4231111,115.797333 78.0951111,116.032 C78.7671111,116.266667 79.5831111,116.384 80.5431111,116.384 Z M93.0361481,116 L93.0361481,93.152 L91.8201481,93.152 L91.8201481,116 L93.0361481,116 Z M103.481185,116.384 C104.953185,116.384 106.201185,116.058667 107.225185,115.408 C108.249185,114.757333 109.102519,113.781333 109.785185,112.48 L109.785185,112.48 L109.849185,112.48 L109.849185,116 L111.065185,116 L111.065185,93.152 L109.849185,93.152 L109.849185,103.232 L109.785185,103.232 C109.571852,102.592 109.262519,102.016 108.857185,101.504 C108.451852,100.992 107.977185,100.565333 107.433185,100.224 C106.889185,99.8826667 106.297185,99.6213333 105.657185,99.44 C105.017185,99.2586667 104.366519,99.168 103.705185,99.168 C102.467852,99.168 101.390519,99.392 100.473185,99.84 C99.5558519,100.288 98.7931852,100.896 98.1851852,101.664 C97.5771852,102.432 97.1238519,103.344 96.8251852,104.4 C96.5265185,105.456 96.3771852,106.592 96.3771852,107.808 C96.3771852,108.938667 96.5158519,110.021333 96.7931852,111.056 C97.0705185,112.090667 97.4971852,113.002667 98.0731852,113.792 C98.6491852,114.581333 99.3851852,115.210667 100.281185,115.68 C101.177185,116.149333 102.243852,116.384 103.481185,116.384 Z M103.737185,115.328 C102.670519,115.328 101.753185,115.12 100.985185,114.704 C100.217185,114.288 99.5825185,113.728 99.0811852,113.024 C98.5798519,112.32 98.2065185,111.514667 97.9611852,110.608 C97.7158519,109.701333 97.5931852,108.768 97.5931852,107.808 C97.5931852,106.826667 97.7051852,105.877333 97.9291852,104.96 C98.1531852,104.042667 98.5158519,103.232 99.0171852,102.528 C99.5185185,101.824 100.153185,101.264 100.921185,100.848 C101.689185,100.432 102.617185,100.224 103.705185,100.224 C104.750519,100.224 105.662519,100.437333 106.441185,100.864 C107.219852,101.290667 107.854519,101.861333 108.345185,102.576 C108.835852,103.290667 109.203852,104.101333 109.449185,105.008 C109.694519,105.914667 109.817185,106.848 109.817185,107.808 C109.817185,108.746667 109.694519,109.669333 109.449185,110.576 C109.203852,111.482667 108.830519,112.288 108.329185,112.992 C107.827852,113.696 107.198519,114.261333 106.441185,114.688 C105.683852,115.114667 104.782519,115.328 103.737185,115.328 Z M124.083259,121.888 C125.043259,121.888 125.816593,121.850667 126.403259,121.776 C126.989926,121.701333 127.496593,121.493333 127.923259,121.152 C128.285926,120.874667 128.611259,120.442667 128.899259,119.856 C129.187259,119.269333 129.501926,118.570667 129.843259,117.76 L129.843259,117.76 L136.883259,99.552 L135.507259,99.552 L129.875259,114.56 L123.763259,99.552 L122.323259,99.552 L129.203259,115.904 C128.819259,116.992 128.499259,117.850667 128.243259,118.48 C127.987259,119.109333 127.741926,119.541333 127.507259,119.776 C127.080593,120.202667 126.621926,120.485333 126.131259,120.624 C125.640593,120.762667 124.957926,120.832 124.083259,120.832 L124.083259,120.832 L124.083259,121.888 Z M145.536296,116.384 C146.752296,116.384 147.82963,116.154667 148.768296,115.696 C149.706963,115.237333 150.496296,114.618667 151.136296,113.84 C151.776296,113.061333 152.26163,112.149333 152.592296,111.104 C152.922963,110.058667 153.088296,108.949333 153.088296,107.776 C153.088296,106.602667 152.922963,105.498667 152.592296,104.464 C152.26163,103.429333 151.776296,102.517333 151.136296,101.728 C150.496296,100.938667 149.706963,100.314667 148.768296,99.856 C147.82963,99.3973333 146.752296,99.168 145.536296,99.168 C144.320296,99.168 143.242963,99.3973333 142.304296,99.856 C141.36563,100.314667 140.576296,100.938667 139.936296,101.728 C139.296296,102.517333 138.810963,103.429333 138.480296,104.464 C138.14963,105.498667 137.984296,106.602667 137.984296,107.776 C137.984296,108.949333 138.14963,110.058667 138.480296,111.104 C138.810963,112.149333 139.296296,113.061333 139.936296,113.84 C140.576296,114.618667 141.36563,115.237333 142.304296,115.696 C143.242963,116.154667 144.320296,116.384 145.536296,116.384 Z M145.536296,115.328 C144.512296,115.328 143.60563,115.12 142.816296,114.704 C142.026963,114.288 141.36563,113.728 140.832296,113.024 C140.298963,112.32 139.89363,111.514667 139.616296,110.608 C139.338963,109.701333 139.200296,108.757333 139.200296,107.776 C139.200296,106.794667 139.338963,105.850667 139.616296,104.944 C139.89363,104.037333 140.298963,103.232 140.832296,102.528 C141.36563,101.824 142.026963,101.264 142.816296,100.848 C143.60563,100.432 144.512296,100.224 145.536296,100.224 C146.560296,100.224 147.466963,100.432 148.256296,100.848 C149.04563,101.264 149.706963,101.824 150.240296,102.528 C150.77363,103.232 151.178963,104.037333 151.456296,104.944 C151.73363,105.850667 151.872296,106.794667 151.872296,107.776 C151.872296,108.757333 151.73363,109.701333 151.456296,110.608 C151.178963,111.514667 150.77363,112.32 150.240296,113.024 C149.706963,113.728 149.04563,114.288 148.256296,114.704 C147.466963,115.12 146.560296,115.328 145.536296,115.328 Z M162.029333,116.384 C162.669333,116.384 163.298667,116.298667 163.917333,116.128 C164.536,115.957333 165.106667,115.701333 165.629333,115.36 C166.152,115.018667 166.610667,114.608 167.005333,114.128 C167.4,113.648 167.704,113.098667 167.917333,112.48 L167.917333,112.48 L167.981333,112.48 L167.981333,116 L169.197333,116 L169.197333,99.552 L167.981333,99.552 L167.981333,108.448 C167.981333,109.450667 167.848,110.373333 167.581333,111.216 C167.314667,112.058667 166.925333,112.784 166.413333,113.392 C165.901333,114 165.277333,114.474667 164.541333,114.816 C163.805333,115.157333 162.978667,115.328 162.061333,115.328 C160.930667,115.328 160.056,115.125333 159.437333,114.72 C158.818667,114.314667 158.354667,113.829333 158.045333,113.264 C157.736,112.698667 157.549333,112.112 157.485333,111.504 C157.421333,110.896 157.389333,110.378667 157.389333,109.952 L157.389333,109.952 L157.389333,99.552 L156.173333,99.552 L156.173333,109.728 C156.173333,110.069333 156.184,110.469333 156.205333,110.928 C156.226667,111.386667 156.290667,111.861333 156.397333,112.352 C156.504,112.842667 156.68,113.328 156.925333,113.808 C157.170667,114.288 157.506667,114.72 157.933333,115.104 C158.36,115.488 158.909333,115.797333 159.581333,116.032 C160.253333,116.266667 161.069333,116.384 162.029333,116.384 Z M174.23437,116 L174.23437,107.008 C174.255704,106.389333 174.309037,105.856 174.39437,105.408 C174.479704,104.96 174.597037,104.554667 174.74637,104.192 C174.895704,103.829333 175.08237,103.498667 175.30637,103.2 C175.53037,102.901333 175.791704,102.592 176.09037,102.272 C176.837037,101.546667 177.621037,101.077333 178.44237,100.864 C179.263704,100.650667 179.99437,100.586667 180.63437,100.672 L180.63437,100.672 L180.63437,99.456 C179.887704,99.4346667 179.167704,99.5146667 178.47437,99.696 C177.781037,99.8773333 177.151704,100.138667 176.58637,100.48 C176.021037,100.821333 175.541037,101.226667 175.14637,101.696 C174.751704,102.165333 174.479704,102.666667 174.33037,103.2 L174.33037,103.2 L174.23437,103.2 L174.23437,99.552 L173.01837,99.552 L173.01837,116 L174.23437,116 Z M207.028444,116 L207.028444,114.784 L192.916444,114.784 L192.916444,104.736 L206.036444,104.736 L206.036444,103.52 L192.916444,103.52 L192.916444,94.368 L206.868444,94.368 L206.868444,93.152 L191.508444,93.152 L191.508444,116 L207.028444,116 Z M216.705481,107.904 L216.705481,106.688 L209.857481,106.688 L209.857481,107.904 L216.705481,107.904 Z M230.030519,116.544 C230.905185,116.544 231.817185,116.432 232.766519,116.208 C233.715852,115.984 234.579852,115.616 235.358519,115.104 C236.137185,114.592 236.782519,113.930667 237.294519,113.12 C237.806519,112.309333 238.062519,111.306667 238.062519,110.112 C238.062519,109.002667 237.838519,108.08 237.390519,107.344 C236.942519,106.608 236.350519,106.010667 235.614519,105.552 C234.878519,105.093333 234.046519,104.730667 233.118519,104.464 C232.190519,104.197333 231.235852,103.968 230.254519,103.776 C229.294519,103.584 228.345185,103.381333 227.406519,103.168 C226.467852,102.954667 225.635852,102.672 224.910519,102.32 C224.185185,101.968 223.598519,101.504 223.150519,100.928 C222.702519,100.352 222.478519,99.6053333 222.478519,98.688 C222.478519,97.7493333 222.681185,96.9653333 223.086519,96.336 C223.491852,95.7066667 224.009185,95.2053333 224.638519,94.832 C225.267852,94.4586667 225.950519,94.1973333 226.686519,94.048 C227.422519,93.8986667 228.110519,93.824 228.750519,93.824 C229.795852,93.824 230.761185,93.9466667 231.646519,94.192 C232.531852,94.4373333 233.294519,94.8053333 233.934519,95.296 C234.574519,95.7866667 235.081185,96.3946667 235.454519,97.12 C235.827852,97.8453333 236.035852,98.6986667 236.078519,99.68 L236.078519,99.68 L237.486519,99.68 C237.422519,98.4213333 237.155852,97.344 236.686519,96.448 C236.217185,95.552 235.593185,94.8213333 234.814519,94.256 C234.035852,93.6906667 233.129185,93.2746667 232.094519,93.008 C231.059852,92.7413333 229.945185,92.608 228.750519,92.608 C227.854519,92.608 226.947852,92.72 226.030519,92.944 C225.113185,93.168 224.286519,93.52 223.550519,94 C222.814519,94.48 222.217185,95.1093333 221.758519,95.888 C221.299852,96.6666667 221.070519,97.6 221.070519,98.688 C221.070519,99.776 221.294519,100.666667 221.742519,101.36 C222.190519,102.053333 222.777185,102.618667 223.502519,103.056 C224.227852,103.493333 225.059852,103.84 225.998519,104.096 C226.937185,104.352 227.886519,104.576 228.846519,104.768 C229.827852,104.96 230.782519,105.168 231.710519,105.392 C232.638519,105.616 233.470519,105.914667 234.206519,106.288 C234.942519,106.661333 235.534519,107.152 235.982519,107.76 C236.430519,108.368 236.654519,109.152 236.654519,110.112 C236.654519,111.114667 236.435852,111.946667 235.998519,112.608 C235.561185,113.269333 235.017185,113.802667 234.366519,114.208 C233.715852,114.613333 233.001185,114.901333 232.222519,115.072 C231.443852,115.242667 230.713185,115.328 230.030519,115.328 C228.899852,115.328 227.822519,115.205333 226.798519,114.96 C225.774519,114.714667 224.883852,114.314667 224.126519,113.76 C223.369185,113.205333 222.777185,112.496 222.350519,111.632 C221.923852,110.768 221.742519,109.706667 221.806519,108.448 L221.806519,108.448 L220.398519,108.448 C220.377185,109.92 220.617185,111.168 221.118519,112.192 C221.619852,113.216 222.307852,114.053333 223.182519,114.704 C224.057185,115.354667 225.081185,115.824 226.254519,116.112 C227.427852,116.4 228.686519,116.544 230.030519,116.544 Z M245.419556,115.984 C246.006222,116.037333 246.608889,116.042667 247.227556,116 L247.227556,116 L247.227556,114.944 C246.651556,114.965333 246.144889,114.954667 245.707556,114.912 C245.270222,114.869333 244.896889,114.746667 244.587556,114.544 C244.278222,114.341333 244.048889,114.048 243.899556,113.664 C243.750222,113.28 243.675556,112.757333 243.675556,112.096 L243.675556,112.096 L243.675556,100.608 L247.259556,100.608 L247.259556,99.552 L243.675556,99.552 L243.675556,94.432 L242.459556,94.432 L242.459556,99.552 L239.419556,99.552 L239.419556,100.608 L242.459556,100.608 L242.459556,112.096 C242.416889,113.034667 242.528889,113.770667 242.795556,114.304 C243.062222,114.837333 243.419556,115.237333 243.867556,115.504 C244.315556,115.770667 244.832889,115.930667 245.419556,115.984 Z M256.072593,116.384 C257.288593,116.384 258.365926,116.154667 259.304593,115.696 C260.243259,115.237333 261.032593,114.618667 261.672593,113.84 C262.312593,113.061333 262.797926,112.149333 263.128593,111.104 C263.459259,110.058667 263.624593,108.949333 263.624593,107.776 C263.624593,106.602667 263.459259,105.498667 263.128593,104.464 C262.797926,103.429333 262.312593,102.517333 261.672593,101.728 C261.032593,100.938667 260.243259,100.314667 259.304593,99.856 C258.365926,99.3973333 257.288593,99.168 256.072593,99.168 C254.856593,99.168 253.779259,99.3973333 252.840593,99.856 C251.901926,100.314667 251.112593,100.938667 250.472593,101.728 C249.832593,102.517333 249.347259,103.429333 249.016593,104.464 C248.685926,105.498667 248.520593,106.602667 248.520593,107.776 C248.520593,108.949333 248.685926,110.058667 249.016593,111.104 C249.347259,112.149333 249.832593,113.061333 250.472593,113.84 C251.112593,114.618667 251.901926,115.237333 252.840593,115.696 C253.779259,116.154667 254.856593,116.384 256.072593,116.384 Z M256.072593,115.328 C255.048593,115.328 254.141926,115.12 253.352593,114.704 C252.563259,114.288 251.901926,113.728 251.368593,113.024 C250.835259,112.32 250.429926,111.514667 250.152593,110.608 C249.875259,109.701333 249.736593,108.757333 249.736593,107.776 C249.736593,106.794667 249.875259,105.850667 250.152593,104.944 C250.429926,104.037333 250.835259,103.232 251.368593,102.528 C251.901926,101.824 252.563259,101.264 253.352593,100.848 C254.141926,100.432 255.048593,100.224 256.072593,100.224 C257.096593,100.224 258.003259,100.432 258.792593,100.848 C259.581926,101.264 260.243259,101.824 260.776593,102.528 C261.309926,103.232 261.715259,104.037333 261.992593,104.944 C262.269926,105.850667 262.408593,106.794667 262.408593,107.776 C262.408593,108.757333 262.269926,109.701333 261.992593,110.608 C261.715259,111.514667 261.309926,112.32 260.776593,113.024 C260.243259,113.728 259.581926,114.288 258.792593,114.704 C258.003259,115.12 257.096593,115.328 256.072593,115.328 Z M268.21363,121.888 L268.21363,112.576 L268.27763,112.576 C268.768296,113.92 269.546963,114.890667 270.61363,115.488 C271.680296,116.085333 272.896296,116.384 274.26163,116.384 C275.520296,116.384 276.61363,116.170667 277.54163,115.744 C278.46963,115.317333 279.23763,114.725333 279.84563,113.968 C280.45363,113.210667 280.906963,112.309333 281.20563,111.264 C281.504296,110.218667 281.65363,109.066667 281.65363,107.808 C281.65363,106.656 281.504296,105.557333 281.20563,104.512 C280.906963,103.466667 280.45363,102.549333 279.84563,101.76 C279.23763,100.970667 278.46963,100.341333 277.54163,99.872 C276.61363,99.4026667 275.520296,99.168 274.26163,99.168 C273.36563,99.168 272.570963,99.3066667 271.87763,99.584 C271.184296,99.8613333 270.592296,100.208 270.10163,100.624 C269.610963,101.04 269.216296,101.493333 268.91763,101.984 C268.618963,102.474667 268.40563,102.922667 268.27763,103.328 L268.27763,103.328 L268.21363,103.328 L268.21363,99.552 L266.99763,99.552 L266.99763,121.888 L268.21363,121.888 Z M274.26163,115.328 C273.10963,115.328 272.144296,115.12 271.36563,114.704 C270.586963,114.288 269.968296,113.733333 269.50963,113.04 C269.050963,112.346667 268.72563,111.546667 268.53363,110.64 C268.34163,109.733333 268.24563,108.789333 268.24563,107.808 C268.24563,106.826667 268.352296,105.882667 268.56563,104.976 C268.778963,104.069333 269.12563,103.264 269.60563,102.56 C270.08563,101.856 270.70963,101.290667 271.47763,100.864 C272.24563,100.437333 273.17363,100.224 274.26163,100.224 C275.370963,100.224 276.314963,100.442667 277.09363,100.88 C277.872296,101.317333 278.506963,101.893333 278.99763,102.608 C279.488296,103.322667 279.850963,104.133333 280.08563,105.04 C280.320296,105.946667 280.43763,106.869333 280.43763,107.808 C280.43763,108.832 280.314963,109.797333 280.06963,110.704 C279.824296,111.610667 279.450963,112.405333 278.94963,113.088 C278.448296,113.770667 277.808296,114.314667 277.02963,114.72 C276.250963,115.125333 275.328296,115.328 274.26163,115.328 Z M295.087704,116 L295.087704,107.104 C295.087704,106.101333 295.221037,105.178667 295.487704,104.336 C295.75437,103.493333 296.143704,102.768 296.655704,102.16 C297.167704,101.552 297.78637,101.077333 298.511704,100.736 C299.237037,100.394667 300.069037,100.224 301.007704,100.224 C302.117037,100.224 302.98637,100.426667 303.615704,100.832 C304.245037,101.237333 304.71437,101.722667 305.023704,102.288 C305.333037,102.853333 305.519704,103.445333 305.583704,104.064 C305.647704,104.682667 305.679704,105.194667 305.679704,105.6 L305.679704,105.6 L305.679704,116 L306.895704,116 L306.895704,105.824 C306.895704,105.482667 306.885037,105.082667 306.863704,104.624 C306.84237,104.165333 306.77837,103.690667 306.671704,103.2 C306.565037,102.709333 306.389037,102.224 306.143704,101.744 C305.89837,101.264 305.56237,100.832 305.135704,100.448 C304.709037,100.064 304.159704,99.7546667 303.487704,99.52 C302.815704,99.2853333 301.999704,99.168 301.039704,99.168 C300.399704,99.168 299.77037,99.2533333 299.151704,99.424 C298.533037,99.5946667 297.96237,99.8506667 297.439704,100.192 C296.917037,100.533333 296.45837,100.944 296.063704,101.424 C295.669037,101.904 295.365037,102.453333 295.151704,103.072 L295.151704,103.072 L295.087704,103.072 L295.087704,93.152 L293.871704,93.152 L293.871704,116 L295.087704,116 Z M315.452741,116.384 C316.242074,116.384 316.967407,116.288 317.628741,116.096 C318.290074,115.904 318.882074,115.637333 319.404741,115.296 C319.927407,114.954667 320.370074,114.565333 320.732741,114.128 C321.095407,113.690667 321.372741,113.226667 321.564741,112.736 L321.564741,112.736 L321.628741,112.736 L321.628741,113.6 C321.628741,113.941333 321.655407,114.256 321.708741,114.544 C321.762074,114.832 321.863407,115.082667 322.012741,115.296 C322.162074,115.509333 322.380741,115.68 322.668741,115.808 C322.956741,115.936 323.346074,116 323.836741,116 C324.178074,116 324.508741,115.957333 324.828741,115.872 L324.828741,115.872 L324.828741,114.848 C324.444741,114.912 324.146074,114.944 323.932741,114.944 C323.655407,114.944 323.442074,114.885333 323.292741,114.768 C323.143407,114.650667 323.036741,114.496 322.972741,114.304 C322.908741,114.112 322.871407,113.898667 322.860741,113.664 C322.850074,113.429333 322.844741,113.194667 322.844741,112.96 L322.844741,112.96 L322.844741,103.392 C322.844741,102.133333 322.391407,101.114667 321.484741,100.336 C320.578074,99.5573333 319.132741,99.168 317.148741,99.168 C315.164741,99.168 313.634074,99.6213333 312.556741,100.528 C311.479407,101.434667 310.898074,102.794667 310.812741,104.608 L310.812741,104.608 L312.028741,104.608 C312.114074,103.136 312.610074,102.037333 313.516741,101.312 C314.423407,100.586667 315.612741,100.224 317.084741,100.224 C317.916741,100.224 318.620741,100.309333 319.196741,100.48 C319.772741,100.650667 320.242074,100.885333 320.604741,101.184 C320.967407,101.482667 321.234074,101.824 321.404741,102.208 C321.575407,102.592 321.660741,103.008 321.660741,103.456 C321.660741,104.032 321.628741,104.512 321.564741,104.896 C321.500741,105.28 321.340741,105.594667 321.084741,105.84 C320.828741,106.085333 320.450074,106.277333 319.948741,106.416 C319.447407,106.554667 318.759407,106.656 317.884741,106.72 L317.884741,106.72 L315.996741,106.88 C315.335407,106.944 314.647407,107.050667 313.932741,107.2 C313.218074,107.349333 312.567407,107.6 311.980741,107.952 C311.394074,108.304 310.908741,108.784 310.524741,109.392 C310.140741,110 309.948741,110.784 309.948741,111.744 C309.948741,113.322667 310.428741,114.490667 311.388741,115.248 C312.348741,116.005333 313.703407,116.384 315.452741,116.384 Z M315.484741,115.328 C314.140741,115.328 313.084741,115.034667 312.316741,114.448 C311.548741,113.861333 311.164741,112.96 311.164741,111.744 C311.164741,110.976 311.314074,110.352 311.612741,109.872 C311.911407,109.392 312.300741,109.013333 312.780741,108.736 C313.260741,108.458667 313.799407,108.261333 314.396741,108.144 C314.994074,108.026667 315.591407,107.936 316.188741,107.872 L316.188741,107.872 L318.236741,107.68 C318.983407,107.616 319.660741,107.52 320.268741,107.392 C320.876741,107.264 321.330074,107.018667 321.628741,106.656 L321.628741,106.656 L321.628741,109.728 C321.628741,109.941333 321.570074,110.352 321.452741,110.96 C321.335407,111.568 321.063407,112.197333 320.636741,112.848 C320.210074,113.498667 319.591407,114.074667 318.780741,114.576 C317.970074,115.077333 316.871407,115.328 315.484741,115.328 Z M333.225778,116 L339.433778,99.552 L338.089778,99.552 L332.521778,114.592 L332.457778,114.592 L326.505778,99.552 L325.097778,99.552 L331.721778,116 L333.225778,116 Z M347.894815,116.384 C349.878815,116.384 351.473481,115.872 352.678815,114.848 C353.884148,113.824 354.668148,112.352 355.030815,110.432 L355.030815,110.432 L353.814815,110.432 C353.452148,111.968 352.790815,113.168 351.830815,114.032 C350.870815,114.896 349.569481,115.328 347.926815,115.328 C346.924148,115.328 346.044148,115.136 345.286815,114.752 C344.529481,114.368 343.900148,113.845333 343.398815,113.184 C342.897481,112.522667 342.518815,111.754667 342.262815,110.88 C342.006815,110.005333 341.878815,109.088 341.878815,108.128 L341.878815,108.128 L341.878815,107.936 L355.158815,107.936 C355.158815,107.850667 355.164148,107.738667 355.174815,107.6 C355.185481,107.461333 355.190815,107.338667 355.190815,107.232 C355.190815,106.122667 355.036148,105.082667 354.726815,104.112 C354.417481,103.141333 353.964148,102.288 353.366815,101.552 C352.769481,100.816 352.028148,100.234667 351.142815,99.808 C350.257481,99.3813333 349.238815,99.168 348.086815,99.168 C346.828148,99.168 345.734815,99.408 344.806815,99.888 C343.878815,100.368 343.105481,101.008 342.486815,101.808 C341.868148,102.608 341.404148,103.536 341.094815,104.592 C340.785481,105.648 340.630815,106.752 340.630815,107.904 C340.630815,109.098667 340.780148,110.213333 341.078815,111.248 C341.377481,112.282667 341.830815,113.178667 342.438815,113.936 C343.046815,114.693333 343.804148,115.290667 344.710815,115.728 C345.617481,116.165333 346.678815,116.384 347.894815,116.384 Z M353.942815,106.88 L341.910815,106.88 C341.974815,106.026667 342.145481,105.194667 342.422815,104.384 C342.700148,103.573333 343.094815,102.864 343.606815,102.256 C344.118815,101.648 344.748148,101.157333 345.494815,100.784 C346.241481,100.410667 347.105481,100.224 348.086815,100.224 C349.004148,100.224 349.820148,100.405333 350.534815,100.768 C351.249481,101.130667 351.857481,101.616 352.358815,102.224 C352.860148,102.832 353.238815,103.536 353.494815,104.336 C353.750815,105.136 353.900148,105.984 353.942815,106.88 L353.942815,106.88 Z M365.219852,110.208 C365.219852,109.269333 365.315852,108.464 365.507852,107.792 C365.699852,107.12 365.945185,106.538667 366.243852,106.048 C366.542519,105.557333 366.878519,105.136 367.251852,104.784 C367.625185,104.432 367.993185,104.096 368.355852,103.776 C368.718519,103.434667 369.070519,103.088 369.411852,102.736 C369.753185,102.384 370.057185,101.994667 370.323852,101.568 C370.590519,101.141333 370.803852,100.666667 370.963852,100.144 C371.123852,99.6213333 371.203852,99.0186667 371.203852,98.336 C371.203852,97.376 371.038519,96.5333333 370.707852,95.808 C370.377185,95.0826667 369.923852,94.4853333 369.347852,94.016 C368.771852,93.5466667 368.105185,93.1946667 367.347852,92.96 C366.590519,92.7253333 365.785185,92.608 364.931852,92.608 C363.779852,92.608 362.761185,92.7893333 361.875852,93.152 C360.990519,93.5146667 360.249185,94.032 359.651852,94.704 C359.054519,95.376 358.601185,96.1813333 358.291852,97.12 C357.982519,98.0586667 357.827852,99.0933333 357.827852,100.224 L357.827852,100.224 L359.043852,100.224 C359.043852,99.3066667 359.166519,98.4586667 359.411852,97.68 C359.657185,96.9013333 360.019852,96.224 360.499852,95.648 C360.979852,95.072 361.582519,94.624 362.307852,94.304 C363.033185,93.984 363.875852,93.824 364.835852,93.824 C365.497185,93.824 366.137185,93.9093333 366.755852,94.08 C367.374519,94.2506667 367.923852,94.5226667 368.403852,94.896 C368.883852,95.2693333 369.267852,95.7386667 369.555852,96.304 C369.843852,96.8693333 369.987852,97.5466667 369.987852,98.336 C369.987852,98.8906667 369.897185,99.4133333 369.715852,99.904 C369.534519,100.394667 369.294519,100.853333 368.995852,101.28 C368.697185,101.706667 368.355852,102.117333 367.971852,102.512 C367.587852,102.906667 367.203852,103.285333 366.819852,103.648 C366.435852,104.010667 366.073185,104.4 365.731852,104.816 C365.390519,105.232 365.091852,105.696 364.835852,106.208 C364.579852,106.72 364.377185,107.301333 364.227852,107.952 C364.078519,108.602667 364.003852,109.354667 364.003852,110.208 L364.003852,110.208 L365.219852,110.208 Z M365.475852,116 L365.475852,112.704 L363.843852,112.704 L363.843852,116 L365.475852,116 Z" id="WhatswitchingratingshouldyourE-Stophave?" fill="#FFFFFF" fill-rule="nonzero"></path>
            <path d="M28.248,39.256 C29.0266667,39.256 29.712,39.1653333 30.304,38.984 C30.896,38.8026667 31.392,38.5493333 31.792,38.224 C32.192,37.8986667 32.4933333,37.512 32.696,37.064 C32.8986667,36.616 33,36.1306667 33,35.608 C33,34.968 32.864,34.4426667 32.592,34.032 C32.32,33.6213333 31.9973333,33.2933333 31.624,33.048 C31.2506667,32.8026667 30.8746667,32.624 30.496,32.512 C30.1173333,32.4 29.8213333,32.3226667 29.608,32.28 C28.8933333,32.0986667 28.3146667,31.9493333 27.872,31.832 C27.4293333,31.7146667 27.0826667,31.5973333 26.832,31.48 C26.5813333,31.3626667 26.4133333,31.2346667 26.328,31.096 C26.2426667,30.9573333 26.2,30.776 26.2,30.552 C26.2,30.3066667 26.2533333,30.104 26.36,29.944 C26.4666667,29.784 26.6026667,29.6506667 26.768,29.544 C26.9333333,29.4373333 27.1173333,29.3626667 27.32,29.32 C27.5226667,29.2773333 27.7253333,29.256 27.928,29.256 C28.2373333,29.256 28.5226667,29.2826667 28.784,29.336 C29.0453333,29.3893333 29.2773333,29.48 29.48,29.608 C29.6826667,29.736 29.8453333,29.912 29.968,30.136 C30.0906667,30.36 30.1626667,30.6426667 30.184,30.984 L32.616,30.984 C32.616,30.3226667 32.4906667,29.76 32.24,29.296 C31.9893333,28.832 31.6506667,28.4506667 31.224,28.152 C30.7973333,27.8533333 30.3093333,27.6373333 29.76,27.504 C29.2106667,27.3706667 28.6373333,27.304 28.04,27.304 C27.528,27.304 27.016,27.3733333 26.504,27.512 C25.992,27.6506667 25.5333333,27.864 25.128,28.152 C24.7226667,28.44 24.3946667,28.8 24.144,29.232 C23.8933333,29.664 23.768,30.1733333 23.768,30.76 C23.768,31.2826667 23.8666667,31.728 24.064,32.096 C24.2613333,32.464 24.52,32.7706667 24.84,33.016 C25.16,33.2613333 25.5226667,33.4613333 25.928,33.616 C26.3333333,33.7706667 26.7493333,33.9013333 27.176,34.008 C27.592,34.1253333 28.0026667,34.232 28.408,34.328 C28.8133333,34.424 29.176,34.536 29.496,34.664 C29.816,34.792 30.0746667,34.952 30.272,35.144 C30.4693333,35.336 30.568,35.5866667 30.568,35.896 C30.568,36.184 30.4933333,36.4213333 30.344,36.608 C30.1946667,36.7946667 30.008,36.9413333 29.784,37.048 C29.56,37.1546667 29.32,37.2266667 29.064,37.264 C28.808,37.3013333 28.568,37.32 28.344,37.32 C28.0133333,37.32 27.6933333,37.28 27.384,37.2 C27.0746667,37.12 26.8053333,36.9973333 26.576,36.832 C26.3466667,36.6666667 26.1626667,36.4506667 26.024,36.184 C25.8853333,35.9173333 25.816,35.592 25.816,35.208 L23.384,35.208 C23.3733333,35.912 23.5013333,36.52 23.768,37.032 C24.0346667,37.544 24.3946667,37.9653333 24.848,38.296 C25.3013333,38.6266667 25.824,38.8693333 26.416,39.024 C27.008,39.1786667 27.6186667,39.256 28.248,39.256 Z M38.956,39 L40.364,33.448 L40.396,33.448 L41.868,39 L44.204,39 L46.812,30.728 L44.476,30.728 L42.956,36.328 L42.924,36.328 L41.516,30.728 L39.308,30.728 L37.932,36.344 L37.9,36.344 L36.38,30.728 L33.98,30.728 L36.604,39 L38.956,39 Z M50.608,29.448 L50.608,27.576 L48.336,27.576 L48.336,29.448 L50.608,29.448 Z M50.608,39 L50.608,30.728 L48.336,30.728 L48.336,39 L50.608,39 Z M56.116,39.08 C56.34,39.08 56.5693333,39.0746667 56.804,39.064 C57.0386667,39.0533333 57.252,39.032 57.444,39 L57.444,37.24 C57.3373333,37.2613333 57.2253333,37.2773333 57.108,37.288 C56.9906667,37.2986667 56.868,37.304 56.74,37.304 C56.356,37.304 56.1,37.24 55.972,37.112 C55.844,36.984 55.78,36.728 55.78,36.344 L55.78,32.248 L57.444,32.248 L57.444,30.728 L55.78,30.728 L55.78,28.248 L53.508,28.248 L53.508,30.728 L52.132,30.728 L52.132,32.248 L53.508,32.248 L53.508,37.128 C53.508,37.544 53.5773333,37.88 53.716,38.136 C53.8546667,38.392 54.044,38.5893333 54.284,38.728 C54.524,38.8666667 54.8013333,38.96 55.116,39.008 C55.4306667,39.056 55.764,39.08 56.116,39.08 Z M62.952,39.208 C64.0506667,39.208 64.952,38.92 65.656,38.344 C66.36,37.768 66.7866667,36.9306667 66.936,35.832 L64.744,35.832 C64.6693333,36.344 64.4853333,36.752 64.192,37.056 C63.8986667,37.36 63.48,37.512 62.936,37.512 C62.584,37.512 62.2853333,37.432 62.04,37.272 C61.7946667,37.112 61.6,36.9066667 61.456,36.656 C61.312,36.4053333 61.208,36.1253333 61.144,35.816 C61.08,35.5066667 61.048,35.2026667 61.048,34.904 C61.048,34.5946667 61.08,34.2826667 61.144,33.968 C61.208,33.6533333 61.3173333,33.3653333 61.472,33.104 C61.6266667,32.8426667 61.8266667,32.6293333 62.072,32.464 C62.3173333,32.2986667 62.6213333,32.216 62.984,32.216 C63.9546667,32.216 64.5146667,32.6906667 64.664,33.64 L66.888,33.64 C66.856,33.1066667 66.728,32.6453333 66.504,32.256 C66.28,31.8666667 65.9893333,31.5413333 65.632,31.28 C65.2746667,31.0186667 64.8693333,30.824 64.416,30.696 C63.9626667,30.568 63.4906667,30.504 63,30.504 C62.328,30.504 61.7306667,30.616 61.208,30.84 C60.6853333,31.064 60.2426667,31.376 59.88,31.776 C59.5173333,32.176 59.2426667,32.6506667 59.056,33.2 C58.8693333,33.7493333 58.776,34.344 58.776,34.984 C58.776,35.6026667 58.8773333,36.1706667 59.08,36.688 C59.2826667,37.2053333 59.5653333,37.6506667 59.928,38.024 C60.2906667,38.3973333 60.7306667,38.688 61.248,38.896 C61.7653333,39.104 62.3333333,39.208 62.952,39.208 Z M70.988,39 L70.988,34.664 C70.988,33.8213333 71.1266667,33.216 71.404,32.848 C71.6813333,32.48 72.1293333,32.296 72.748,32.296 C73.292,32.296 73.6706667,32.464 73.884,32.8 C74.0973333,33.136 74.204,33.6453333 74.204,34.328 L74.204,39 L76.476,39 L76.476,33.912 C76.476,33.4 76.4306667,32.9333333 76.34,32.512 C76.2493333,32.0906667 76.092,31.7333333 75.868,31.44 C75.644,31.1466667 75.3373333,30.9173333 74.948,30.752 C74.5586667,30.5866667 74.06,30.504 73.452,30.504 C73.0253333,30.504 72.588,30.6133333 72.14,30.832 C71.692,31.0506667 71.324,31.4 71.036,31.88 L70.988,31.88 L70.988,27.576 L68.716,27.576 L68.716,39 L70.988,39 Z M81.04,29.448 L81.04,27.576 L78.768,27.576 L78.768,29.448 L81.04,29.448 Z M81.04,39 L81.04,30.728 L78.768,30.728 L78.768,39 L81.04,39 Z M85.604,39 L85.604,34.664 C85.604,33.8213333 85.7426667,33.216 86.02,32.848 C86.2973333,32.48 86.7453333,32.296 87.364,32.296 C87.908,32.296 88.2866667,32.464 88.5,32.8 C88.7133333,33.136 88.82,33.6453333 88.82,34.328 L88.82,39 L91.092,39 L91.092,33.912 C91.092,33.4 91.0466667,32.9333333 90.956,32.512 C90.8653333,32.0906667 90.708,31.7333333 90.484,31.44 C90.26,31.1466667 89.9533333,30.9173333 89.564,30.752 C89.1746667,30.5866667 88.676,30.504 88.068,30.504 C87.588,30.504 87.1186667,30.6133333 86.66,30.832 C86.2013333,31.0506667 85.828,31.4 85.54,31.88 L85.492,31.88 L85.492,30.728 L83.332,30.728 L83.332,39 L85.604,39 Z M96.984,42.12 C97.9333333,42.12 98.6906667,41.992 99.256,41.736 C99.8213333,41.48 100.253333,41.168 100.552,40.8 C100.850667,40.432 101.045333,40.0346667 101.136,39.608 C101.226667,39.1813333 101.272,38.8026667 101.272,38.472 L101.272,30.728 L99.112,30.728 L99.112,31.832 L99.08,31.832 C98.8026667,31.352 98.4586667,31.0106667 98.048,30.808 C97.6373333,30.6053333 97.16,30.504 96.616,30.504 C96.04,30.504 95.5306667,30.616 95.088,30.84 C94.6453333,31.064 94.2746667,31.3653333 93.976,31.744 C93.6773333,32.1226667 93.4506667,32.56 93.296,33.056 C93.1413333,33.552 93.064,34.0666667 93.064,34.6 C93.064,35.1653333 93.1306667,35.7013333 93.264,36.208 C93.3973333,36.7146667 93.608,37.1573333 93.896,37.536 C94.184,37.9146667 94.552,38.2133333 95,38.432 C95.448,38.6506667 95.9813333,38.76 96.6,38.76 C97.1013333,38.76 97.5786667,38.656 98.032,38.448 C98.4853333,38.24 98.8346667,37.9173333 99.08,37.48 L99.112,37.48 L99.112,38.568 C99.1226667,39.1546667 98.9813333,39.64 98.688,40.024 C98.3946667,40.408 97.928,40.6 97.288,40.6 C96.8826667,40.6 96.5253333,40.5173333 96.216,40.352 C95.9066667,40.1866667 95.6986667,39.8906667 95.592,39.464 L93.336,39.464 C93.368,39.9333333 93.4986667,40.336 93.728,40.672 C93.9573333,41.008 94.2453333,41.2826667 94.592,41.496 C94.9386667,41.7093333 95.3226667,41.8666667 95.744,41.968 C96.1653333,42.0693333 96.5786667,42.12 96.984,42.12 Z M97.176,37.048 C96.824,37.048 96.5306667,36.9733333 96.296,36.824 C96.0613333,36.6746667 95.872,36.4826667 95.728,36.248 C95.584,36.0133333 95.4826667,35.7493333 95.424,35.456 C95.3653333,35.1626667 95.336,34.8666667 95.336,34.568 C95.336,34.2586667 95.3706667,33.9626667 95.44,33.68 C95.5093333,33.3973333 95.6213333,33.1466667 95.776,32.928 C95.9306667,32.7093333 96.1226667,32.536 96.352,32.408 C96.5813333,32.28 96.856,32.216 97.176,32.216 C97.5493333,32.216 97.8586667,32.2853333 98.104,32.424 C98.3493333,32.5626667 98.5466667,32.7493333 98.696,32.984 C98.8453333,33.2186667 98.952,33.488 99.016,33.792 C99.08,34.096 99.112,34.4186667 99.112,34.76 C99.112,35.0586667 99.072,35.344 98.992,35.616 C98.912,35.888 98.792,36.1306667 98.632,36.344 C98.472,36.5573333 98.2693333,36.728 98.024,36.856 C97.7786667,36.984 97.496,37.048 97.176,37.048 Z M110.816,39 L110.816,35.272 C110.816,34.8986667 110.853333,34.552 110.928,34.232 C111.002667,33.912 111.128,33.632 111.304,33.392 C111.48,33.152 111.712,32.9626667 112,32.824 C112.288,32.6853333 112.64,32.616 113.056,32.616 C113.194667,32.616 113.338667,32.624 113.488,32.64 C113.637333,32.656 113.765333,32.6746667 113.872,32.696 L113.872,30.584 C113.690667,30.5306667 113.525333,30.504 113.376,30.504 C113.088,30.504 112.810667,30.5466667 112.544,30.632 C112.277333,30.7173333 112.026667,30.8373333 111.792,30.992 C111.557333,31.1466667 111.349333,31.3333333 111.168,31.552 C110.986667,31.7706667 110.842667,32.008 110.736,32.264 L110.704,32.264 L110.704,30.728 L108.544,30.728 L108.544,39 L110.816,39 Z M117.732,39.208 C118.244,39.208 118.745333,39.1333333 119.236,38.984 C119.726667,38.8346667 120.153333,38.5733333 120.516,38.2 C120.526667,38.3386667 120.545333,38.4746667 120.572,38.608 C120.598667,38.7413333 120.633333,38.872 120.676,39 L120.676,39 L122.98,39 C122.873333,38.8293333 122.798667,38.5733333 122.756,38.232 C122.713333,37.8906667 122.692,37.5333333 122.692,37.16 L122.692,37.16 L122.692,32.856 C122.692,32.3546667 122.58,31.952 122.356,31.648 C122.132,31.344 121.844,31.1066667 121.492,30.936 C121.14,30.7653333 120.750667,30.6506667 120.324,30.592 C119.897333,30.5333333 119.476,30.504 119.06,30.504 C118.601333,30.504 118.145333,30.5493333 117.692,30.64 C117.238667,30.7306667 116.830667,30.8826667 116.468,31.096 C116.105333,31.3093333 115.806667,31.592 115.572,31.944 C115.337333,32.296 115.204,32.7386667 115.172,33.272 L115.172,33.272 L117.444,33.272 C117.486667,32.824 117.636,32.504 117.892,32.312 C118.148,32.12 118.5,32.024 118.948,32.024 C119.150667,32.024 119.34,32.0373333 119.516,32.064 C119.692,32.0906667 119.846667,32.144 119.98,32.224 C120.113333,32.304 120.22,32.416 120.3,32.56 C120.38,32.704 120.42,32.8986667 120.42,33.144 C120.430667,33.3786667 120.361333,33.5573333 120.212,33.68 C120.062667,33.8026667 119.86,33.896 119.604,33.96 C119.348,34.024 119.054667,34.072 118.724,34.104 C118.393333,34.136 118.057333,34.1786667 117.716,34.232 C117.374667,34.2853333 117.036,34.3573333 116.7,34.448 C116.364,34.5386667 116.065333,34.6746667 115.804,34.856 C115.542667,35.0373333 115.329333,35.28 115.164,35.584 C114.998667,35.888 114.916,36.2746667 114.916,36.744 C114.916,37.1706667 114.988,37.5386667 115.132,37.848 C115.276,38.1573333 115.476,38.4133333 115.732,38.616 C115.988,38.8186667 116.286667,38.968 116.628,39.064 C116.969333,39.16 117.337333,39.208 117.732,39.208 Z M118.58,37.704 C118.398667,37.704 118.222667,37.688 118.052,37.656 C117.881333,37.624 117.732,37.568 117.604,37.488 C117.476,37.408 117.374667,37.2986667 117.3,37.16 C117.225333,37.0213333 117.188,36.8506667 117.188,36.648 C117.188,36.4346667 117.225333,36.2586667 117.3,36.12 C117.374667,35.9813333 117.473333,35.8666667 117.596,35.776 C117.718667,35.6853333 117.862667,35.6133333 118.028,35.56 C118.193333,35.5066667 118.361333,35.464 118.532,35.432 C118.713333,35.4 118.894667,35.3733333 119.076,35.352 C119.257333,35.3306667 119.430667,35.304 119.596,35.272 C119.761333,35.24 119.916,35.2 120.06,35.152 C120.204,35.104 120.324,35.0373333 120.42,34.952 L120.42,34.952 L120.42,35.8 C120.42,35.928 120.406667,36.0986667 120.38,36.312 C120.353333,36.5253333 120.281333,36.736 120.164,36.944 C120.046667,37.152 119.865333,37.3306667 119.62,37.48 C119.374667,37.6293333 119.028,37.704 118.58,37.704 Z M128.168,39.08 C128.392,39.08 128.621333,39.0746667 128.856,39.064 C129.090667,39.0533333 129.304,39.032 129.496,39 L129.496,37.24 C129.389333,37.2613333 129.277333,37.2773333 129.16,37.288 C129.042667,37.2986667 128.92,37.304 128.792,37.304 C128.408,37.304 128.152,37.24 128.024,37.112 C127.896,36.984 127.832,36.728 127.832,36.344 L127.832,32.248 L129.496,32.248 L129.496,30.728 L127.832,30.728 L127.832,28.248 L125.56,28.248 L125.56,30.728 L124.184,30.728 L124.184,32.248 L125.56,32.248 L125.56,37.128 C125.56,37.544 125.629333,37.88 125.768,38.136 C125.906667,38.392 126.096,38.5893333 126.336,38.728 C126.576,38.8666667 126.853333,38.96 127.168,39.008 C127.482667,39.056 127.816,39.08 128.168,39.08 Z M133.42,29.448 L133.42,27.576 L131.148,27.576 L131.148,29.448 L133.42,29.448 Z M133.42,39 L133.42,30.728 L131.148,30.728 L131.148,39 L133.42,39 Z M137.984,39 L137.984,34.664 C137.984,33.8213333 138.122667,33.216 138.4,32.848 C138.677333,32.48 139.125333,32.296 139.744,32.296 C140.288,32.296 140.666667,32.464 140.88,32.8 C141.093333,33.136 141.2,33.6453333 141.2,34.328 L141.2,39 L143.472,39 L143.472,33.912 C143.472,33.4 143.426667,32.9333333 143.336,32.512 C143.245333,32.0906667 143.088,31.7333333 142.864,31.44 C142.64,31.1466667 142.333333,30.9173333 141.944,30.752 C141.554667,30.5866667 141.056,30.504 140.448,30.504 C139.968,30.504 139.498667,30.6133333 139.04,30.832 C138.581333,31.0506667 138.208,31.4 137.92,31.88 L137.872,31.88 L137.872,30.728 L135.712,30.728 L135.712,39 L137.984,39 Z M149.364,42.12 C150.313333,42.12 151.070667,41.992 151.636,41.736 C152.201333,41.48 152.633333,41.168 152.932,40.8 C153.230667,40.432 153.425333,40.0346667 153.516,39.608 C153.606667,39.1813333 153.652,38.8026667 153.652,38.472 L153.652,30.728 L151.492,30.728 L151.492,31.832 L151.46,31.832 C151.182667,31.352 150.838667,31.0106667 150.428,30.808 C150.017333,30.6053333 149.54,30.504 148.996,30.504 C148.42,30.504 147.910667,30.616 147.468,30.84 C147.025333,31.064 146.654667,31.3653333 146.356,31.744 C146.057333,32.1226667 145.830667,32.56 145.676,33.056 C145.521333,33.552 145.444,34.0666667 145.444,34.6 C145.444,35.1653333 145.510667,35.7013333 145.644,36.208 C145.777333,36.7146667 145.988,37.1573333 146.276,37.536 C146.564,37.9146667 146.932,38.2133333 147.38,38.432 C147.828,38.6506667 148.361333,38.76 148.98,38.76 C149.481333,38.76 149.958667,38.656 150.412,38.448 C150.865333,38.24 151.214667,37.9173333 151.46,37.48 L151.492,37.48 L151.492,38.568 C151.502667,39.1546667 151.361333,39.64 151.068,40.024 C150.774667,40.408 150.308,40.6 149.668,40.6 C149.262667,40.6 148.905333,40.5173333 148.596,40.352 C148.286667,40.1866667 148.078667,39.8906667 147.972,39.464 L145.716,39.464 C145.748,39.9333333 145.878667,40.336 146.108,40.672 C146.337333,41.008 146.625333,41.2826667 146.972,41.496 C147.318667,41.7093333 147.702667,41.8666667 148.124,41.968 C148.545333,42.0693333 148.958667,42.12 149.364,42.12 Z M149.556,37.048 C149.204,37.048 148.910667,36.9733333 148.676,36.824 C148.441333,36.6746667 148.252,36.4826667 148.108,36.248 C147.964,36.0133333 147.862667,35.7493333 147.804,35.456 C147.745333,35.1626667 147.716,34.8666667 147.716,34.568 C147.716,34.2586667 147.750667,33.9626667 147.82,33.68 C147.889333,33.3973333 148.001333,33.1466667 148.156,32.928 C148.310667,32.7093333 148.502667,32.536 148.732,32.408 C148.961333,32.28 149.236,32.216 149.556,32.216 C149.929333,32.216 150.238667,32.2853333 150.484,32.424 C150.729333,32.5626667 150.926667,32.7493333 151.076,32.984 C151.225333,33.2186667 151.332,33.488 151.396,33.792 C151.46,34.096 151.492,34.4186667 151.492,34.76 C151.492,35.0586667 151.452,35.344 151.372,35.616 C151.292,35.888 151.172,36.1306667 151.012,36.344 C150.852,36.5573333 150.649333,36.728 150.404,36.856 C150.158667,36.984 149.876,37.048 149.556,37.048 Z M163.26,39 L163.26,34.2 C163.26,33.7946667 163.318667,33.4666667 163.436,33.216 C163.553333,32.9653333 163.694667,32.7733333 163.86,32.64 C164.025333,32.5066667 164.196,32.416 164.372,32.368 C164.548,32.32 164.689333,32.296 164.796,32.296 C165.158667,32.296 165.433333,32.3573333 165.62,32.48 C165.806667,32.6026667 165.94,32.7653333 166.02,32.968 C166.1,33.1706667 166.145333,33.392 166.156,33.632 C166.166667,33.872 166.172,34.1146667 166.172,34.36 L166.172,39 L168.444,39 L168.444,34.392 C168.444,34.136 168.462667,33.8826667 168.5,33.632 C168.537333,33.3813333 168.612,33.1573333 168.724,32.96 C168.836,32.7626667 168.990667,32.6026667 169.188,32.48 C169.385333,32.3573333 169.644,32.296 169.964,32.296 C170.284,32.296 170.537333,32.3493333 170.724,32.456 C170.910667,32.5626667 171.052,32.7066667 171.148,32.888 C171.244,33.0693333 171.302667,33.2826667 171.324,33.528 C171.345333,33.7733333 171.356,34.0346667 171.356,34.312 L171.356,39 L173.628,39 L173.628,33.464 C173.628,32.9306667 173.553333,32.4746667 173.404,32.096 C173.254667,31.7173333 173.046667,31.4106667 172.78,31.176 C172.513333,30.9413333 172.193333,30.7706667 171.82,30.664 C171.446667,30.5573333 171.041333,30.504 170.604,30.504 C170.028,30.504 169.529333,30.6426667 169.108,30.92 C168.686667,31.1973333 168.353333,31.5173333 168.108,31.88 C167.884,31.368 167.556,31.0106667 167.124,30.808 C166.692,30.6053333 166.214667,30.504 165.692,30.504 C165.148,30.504 164.665333,30.6213333 164.244,30.856 C163.822667,31.0906667 163.462667,31.4213333 163.164,31.848 L163.132,31.848 L163.132,30.728 L160.988,30.728 L160.988,39 L163.26,39 Z M178.384,39.208 C178.896,39.208 179.397333,39.1333333 179.888,38.984 C180.378667,38.8346667 180.805333,38.5733333 181.168,38.2 C181.178667,38.3386667 181.197333,38.4746667 181.224,38.608 C181.250667,38.7413333 181.285333,38.872 181.328,39 L181.328,39 L183.632,39 C183.525333,38.8293333 183.450667,38.5733333 183.408,38.232 C183.365333,37.8906667 183.344,37.5333333 183.344,37.16 L183.344,37.16 L183.344,32.856 C183.344,32.3546667 183.232,31.952 183.008,31.648 C182.784,31.344 182.496,31.1066667 182.144,30.936 C181.792,30.7653333 181.402667,30.6506667 180.976,30.592 C180.549333,30.5333333 180.128,30.504 179.712,30.504 C179.253333,30.504 178.797333,30.5493333 178.344,30.64 C177.890667,30.7306667 177.482667,30.8826667 177.12,31.096 C176.757333,31.3093333 176.458667,31.592 176.224,31.944 C175.989333,32.296 175.856,32.7386667 175.824,33.272 L175.824,33.272 L178.096,33.272 C178.138667,32.824 178.288,32.504 178.544,32.312 C178.8,32.12 179.152,32.024 179.6,32.024 C179.802667,32.024 179.992,32.0373333 180.168,32.064 C180.344,32.0906667 180.498667,32.144 180.632,32.224 C180.765333,32.304 180.872,32.416 180.952,32.56 C181.032,32.704 181.072,32.8986667 181.072,33.144 C181.082667,33.3786667 181.013333,33.5573333 180.864,33.68 C180.714667,33.8026667 180.512,33.896 180.256,33.96 C180,34.024 179.706667,34.072 179.376,34.104 C179.045333,34.136 178.709333,34.1786667 178.368,34.232 C178.026667,34.2853333 177.688,34.3573333 177.352,34.448 C177.016,34.5386667 176.717333,34.6746667 176.456,34.856 C176.194667,35.0373333 175.981333,35.28 175.816,35.584 C175.650667,35.888 175.568,36.2746667 175.568,36.744 C175.568,37.1706667 175.64,37.5386667 175.784,37.848 C175.928,38.1573333 176.128,38.4133333 176.384,38.616 C176.64,38.8186667 176.938667,38.968 177.28,39.064 C177.621333,39.16 177.989333,39.208 178.384,39.208 Z M179.232,37.704 C179.050667,37.704 178.874667,37.688 178.704,37.656 C178.533333,37.624 178.384,37.568 178.256,37.488 C178.128,37.408 178.026667,37.2986667 177.952,37.16 C177.877333,37.0213333 177.84,36.8506667 177.84,36.648 C177.84,36.4346667 177.877333,36.2586667 177.952,36.12 C178.026667,35.9813333 178.125333,35.8666667 178.248,35.776 C178.370667,35.6853333 178.514667,35.6133333 178.68,35.56 C178.845333,35.5066667 179.013333,35.464 179.184,35.432 C179.365333,35.4 179.546667,35.3733333 179.728,35.352 C179.909333,35.3306667 180.082667,35.304 180.248,35.272 C180.413333,35.24 180.568,35.2 180.712,35.152 C180.856,35.104 180.976,35.0373333 181.072,34.952 L181.072,34.952 L181.072,35.8 C181.072,35.928 181.058667,36.0986667 181.032,36.312 C181.005333,36.5253333 180.933333,36.736 180.816,36.944 C180.698667,37.152 180.517333,37.3306667 180.272,37.48 C180.026667,37.6293333 179.68,37.704 179.232,37.704 Z M187.284,39 L189.012,36.392 L190.74,39 L193.332,39 L190.276,34.6 L192.996,30.728 L190.484,30.728 L189.044,32.888 L187.588,30.728 L184.996,30.728 L187.716,34.648 L184.74,39 L187.284,39 Z M197.304,39 L197.304,36.536 L194.792,36.536 L194.792,39 L197.304,39 Z" id="Switchingratingmax." fill="#FFFFFF" fill-rule="nonzero"></path>
            <g id="Group-3" transform="translate(25.000000, 148.000000)">
                <rect id="Rectangle" fill-opacity="0.15" fill="#FFFFFF" x="0" y="0" width="355" height="40"></rect>
                <g id="Group-8" transform="translate(8.000000, 7.000000)">
                    <rect id="Rectangle" fill="#FFFFFF" opacity="0.649999976" x="0" y="0" width="127" height="27"></rect>
                    <path d="M13.336,18.156 C13.76,18.164 14.16,18.094 14.536,17.946 C14.912,17.798 15.242,17.588 15.526,17.316 C15.81,17.044 16.036,16.722 16.204,16.35 C16.372,15.978 16.456,15.576 16.456,15.144 C16.456,14.752 16.398,14.382 16.282,14.034 C16.166,13.686 15.998,13.384 15.778,13.128 C15.558,12.872 15.288,12.668 14.968,12.516 C14.648,12.364 14.28,12.288 13.864,12.288 C13.528,12.288 13.228,12.338 12.964,12.438 C12.7,12.538 12.452,12.704 12.22,12.936 L12.196,12.912 L12.532,11.004 L16,11.004 L16,9.6 L11.308,9.6 L10.48,14.244 L12.016,14.244 C12.184,14.012 12.364,13.842 12.556,13.734 C12.748,13.626 12.996,13.572 13.3,13.572 C13.532,13.572 13.736,13.612 13.912,13.692 C14.088,13.772 14.24,13.884 14.368,14.028 C14.496,14.172 14.592,14.34 14.656,14.532 C14.72,14.724 14.752,14.928 14.752,15.144 C14.752,15.352 14.718,15.554 14.65,15.75 C14.582,15.946 14.486,16.118 14.362,16.266 C14.238,16.414 14.086,16.534 13.906,16.626 C13.726,16.718 13.524,16.764 13.3,16.764 C12.916,16.764 12.6,16.65 12.352,16.422 C12.104,16.194 11.96,15.888 11.92,15.504 L10.216,15.504 C10.224,15.944 10.314,16.33 10.486,16.662 C10.658,16.994 10.888,17.272 11.176,17.496 C11.464,17.72 11.794,17.886 12.166,17.994 C12.538,18.102 12.928,18.156 13.336,18.156 Z M19.996,18.156 C20.42,18.156 20.818,18.084 21.19,17.94 C21.562,17.796 21.89,17.556 22.174,17.22 C22.458,16.884 22.682,16.434 22.846,15.87 C23.01,15.306 23.092,14.604 23.092,13.764 C23.092,12.948 23.01,12.262 22.846,11.706 C22.682,11.15 22.458,10.704 22.174,10.368 C21.89,10.032 21.562,9.792 21.19,9.648 C20.818,9.504 20.42,9.432 19.996,9.432 C19.58,9.432 19.186,9.504 18.814,9.648 C18.442,9.792 18.116,10.032 17.836,10.368 C17.556,10.704 17.334,11.15 17.17,11.706 C17.006,12.262 16.924,12.948 16.924,13.764 C16.924,14.604 17.006,15.306 17.17,15.87 C17.334,16.434 17.556,16.884 17.836,17.22 C18.116,17.556 18.442,17.796 18.814,17.94 C19.186,18.084 19.58,18.156 19.996,18.156 Z M19.996,16.764 C19.652,16.764 19.388,16.652 19.204,16.428 C19.02,16.204 18.886,15.934 18.802,15.618 C18.718,15.302 18.668,14.974 18.652,14.634 C18.636,14.294 18.628,14.004 18.628,13.764 C18.628,13.62 18.63,13.446 18.634,13.242 C18.638,13.038 18.652,12.828 18.676,12.612 C18.7,12.396 18.74,12.182 18.796,11.97 C18.852,11.758 18.93,11.568 19.03,11.4 C19.13,11.232 19.258,11.096 19.414,10.992 C19.57,10.888 19.764,10.836 19.996,10.836 C20.228,10.836 20.424,10.888 20.584,10.992 C20.744,11.096 20.876,11.232 20.98,11.4 C21.084,11.568 21.162,11.758 21.214,11.97 C21.266,12.182 21.306,12.396 21.334,12.612 C21.362,12.828 21.378,13.038 21.382,13.242 C21.386,13.446 21.388,13.62 21.388,13.764 C21.388,14.004 21.38,14.294 21.364,14.634 C21.348,14.974 21.298,15.302 21.214,15.618 C21.13,15.934 20.994,16.204 20.806,16.428 C20.618,16.652 20.348,16.764 19.996,16.764 Z M26.668,18.156 C27.092,18.156 27.49,18.084 27.862,17.94 C28.234,17.796 28.562,17.556 28.846,17.22 C29.13,16.884 29.354,16.434 29.518,15.87 C29.682,15.306 29.764,14.604 29.764,13.764 C29.764,12.948 29.682,12.262 29.518,11.706 C29.354,11.15 29.13,10.704 28.846,10.368 C28.562,10.032 28.234,9.792 27.862,9.648 C27.49,9.504 27.092,9.432 26.668,9.432 C26.252,9.432 25.858,9.504 25.486,9.648 C25.114,9.792 24.788,10.032 24.508,10.368 C24.228,10.704 24.006,11.15 23.842,11.706 C23.678,12.262 23.596,12.948 23.596,13.764 C23.596,14.604 23.678,15.306 23.842,15.87 C24.006,16.434 24.228,16.884 24.508,17.22 C24.788,17.556 25.114,17.796 25.486,17.94 C25.858,18.084 26.252,18.156 26.668,18.156 Z M26.668,16.764 C26.324,16.764 26.06,16.652 25.876,16.428 C25.692,16.204 25.558,15.934 25.474,15.618 C25.39,15.302 25.34,14.974 25.324,14.634 C25.308,14.294 25.3,14.004 25.3,13.764 C25.3,13.62 25.302,13.446 25.306,13.242 C25.31,13.038 25.324,12.828 25.348,12.612 C25.372,12.396 25.412,12.182 25.468,11.97 C25.524,11.758 25.602,11.568 25.702,11.4 C25.802,11.232 25.93,11.096 26.086,10.992 C26.242,10.888 26.436,10.836 26.668,10.836 C26.9,10.836 27.096,10.888 27.256,10.992 C27.416,11.096 27.548,11.232 27.652,11.4 C27.756,11.568 27.834,11.758 27.886,11.97 C27.938,12.182 27.978,12.396 28.006,12.612 C28.034,12.828 28.05,13.038 28.054,13.242 C28.058,13.446 28.06,13.62 28.06,13.764 C28.06,14.004 28.052,14.294 28.036,14.634 C28.02,14.974 27.97,15.302 27.886,15.618 C27.802,15.934 27.666,16.204 27.478,16.428 C27.29,16.652 27.02,16.764 26.668,16.764 Z M38.164,18 L41.008,9.432 L39.064,9.432 L37.132,15.456 L37.108,15.456 L35.2,9.432 L33.268,9.432 L36.04,18 L38.164,18 Z M46.072,18 L46.744,16.092 L49.948,16.092 L50.596,18 L52.552,18 L49.348,9.432 L47.416,9.432 L44.176,18 L46.072,18 Z M49.456,14.688 L47.236,14.688 L48.352,11.544 L48.376,11.544 L49.456,14.688 Z M57.136,18.192 C57.664,18.192 58.148,18.112 58.588,17.952 C59.028,17.792 59.412,17.56 59.74,17.256 C60.068,16.952 60.332,16.584 60.532,16.152 C60.732,15.72 60.856,15.236 60.904,14.7 L59.08,14.7 C59.008,15.276 58.81,15.74 58.486,16.092 C58.162,16.444 57.712,16.62 57.136,16.62 C56.712,16.62 56.352,16.538 56.056,16.374 C55.76,16.21 55.52,15.992 55.336,15.72 C55.152,15.448 55.018,15.142 54.934,14.802 C54.85,14.462 54.808,14.112 54.808,13.752 C54.808,13.376 54.85,13.012 54.934,12.66 C55.018,12.308 55.152,11.994 55.336,11.718 C55.52,11.442 55.76,11.222 56.056,11.058 C56.352,10.894 56.712,10.812 57.136,10.812 C57.368,10.812 57.59,10.85 57.802,10.926 C58.014,11.002 58.204,11.108 58.372,11.244 C58.54,11.38 58.68,11.538 58.792,11.718 C58.904,11.898 58.976,12.096 59.008,12.312 L60.832,12.312 C60.776,11.816 60.64,11.376 60.424,10.992 C60.208,10.608 59.934,10.286 59.602,10.026 C59.27,9.766 58.894,9.568 58.474,9.432 C58.054,9.296 57.608,9.228 57.136,9.228 C56.48,9.228 55.89,9.344 55.366,9.576 C54.842,9.808 54.4,10.128 54.04,10.536 C53.68,10.944 53.404,11.422 53.212,11.97 C53.02,12.518 52.924,13.112 52.924,13.752 C52.924,14.376 53.02,14.958 53.212,15.498 C53.404,16.038 53.68,16.508 54.04,16.908 C54.4,17.308 54.842,17.622 55.366,17.85 C55.89,18.078 56.48,18.192 57.136,18.192 Z M69.748,18.192 C70.5,18.192 71.196,18.026 71.836,17.694 C72.476,17.362 73,16.884 73.408,16.26 L72.4,16.26 C72.088,16.572 71.706,16.814 71.254,16.986 C70.802,17.158 70.324,17.244 69.82,17.244 C69.308,17.244 68.834,17.16 68.398,16.992 C67.962,16.824 67.588,16.586 67.276,16.278 C66.964,15.97 66.72,15.602 66.544,15.174 C66.368,14.746 66.28,14.268 66.28,13.74 C66.28,13.236 66.36,12.766 66.52,12.33 C66.68,11.894 66.908,11.518 67.204,11.202 C67.5,10.886 67.858,10.638 68.278,10.458 C68.698,10.278 69.164,10.188 69.676,10.188 C70.132,10.188 70.558,10.252 70.954,10.38 C71.35,10.508 71.694,10.698 71.986,10.95 C72.278,11.202 72.508,11.51 72.676,11.874 C72.844,12.238 72.928,12.66 72.928,13.14 C72.928,13.46 72.886,13.756 72.802,14.028 C72.718,14.3 72.61,14.534 72.478,14.73 C72.346,14.926 72.194,15.078 72.022,15.186 C71.85,15.294 71.68,15.348 71.512,15.348 C71.44,15.348 71.388,15.322 71.356,15.27 C71.324,15.218 71.308,15.152 71.308,15.072 C71.308,14.992 71.318,14.906 71.338,14.814 C71.358,14.722 71.38,14.636 71.404,14.556 L72.16,11.46 L71.176,11.46 L70.984,12.108 C70.848,11.796 70.644,11.578 70.372,11.454 C70.1,11.33 69.836,11.268 69.58,11.268 C69.188,11.268 68.83,11.356 68.506,11.532 C68.182,11.708 67.906,11.94 67.678,12.228 C67.45,12.516 67.274,12.844 67.15,13.212 C67.026,13.58 66.964,13.952 66.964,14.328 C66.964,14.608 67.014,14.872 67.114,15.12 C67.214,15.368 67.35,15.586 67.522,15.774 C67.694,15.962 67.894,16.11 68.122,16.218 C68.35,16.326 68.592,16.38 68.848,16.38 C69.104,16.38 69.348,16.324 69.58,16.212 C69.812,16.1 70,15.924 70.144,15.684 L70.168,15.684 C70.184,15.884 70.27,16.048 70.426,16.176 C70.582,16.304 70.788,16.368 71.044,16.368 C71.236,16.368 71.49,16.302 71.806,16.17 C72.122,16.038 72.434,15.832 72.742,15.552 C73.05,15.272 73.314,14.912 73.534,14.472 C73.754,14.032 73.864,13.504 73.864,12.888 C73.864,12.336 73.748,11.834 73.516,11.382 C73.284,10.93 72.976,10.546 72.592,10.23 C72.208,9.914 71.764,9.668 71.26,9.492 C70.756,9.316 70.232,9.228 69.688,9.228 C69.064,9.228 68.476,9.344 67.924,9.576 C67.372,9.808 66.888,10.124 66.472,10.524 C66.056,10.924 65.728,11.398 65.488,11.946 C65.248,12.494 65.128,13.084 65.128,13.716 C65.128,14.356 65.248,14.95 65.488,15.498 C65.728,16.046 66.058,16.52 66.478,16.92 C66.898,17.32 67.388,17.632 67.948,17.856 C68.508,18.08 69.108,18.192 69.748,18.192 Z M69.124,15.24 C68.844,15.24 68.618,15.142 68.446,14.946 C68.274,14.75 68.188,14.492 68.188,14.172 C68.188,13.972 68.224,13.768 68.296,13.56 C68.368,13.352 68.47,13.162 68.602,12.99 C68.734,12.818 68.892,12.678 69.076,12.57 C69.26,12.462 69.46,12.408 69.676,12.408 C69.932,12.408 70.15,12.504 70.33,12.696 C70.51,12.888 70.6,13.132 70.6,13.428 C70.6,13.636 70.564,13.848 70.492,14.064 C70.42,14.28 70.318,14.474 70.186,14.646 C70.054,14.818 69.898,14.96 69.718,15.072 C69.538,15.184 69.34,15.24 69.124,15.24 Z M82.336,18 L82.336,9.6 L80.98,9.6 C80.932,9.92 80.832,10.188 80.68,10.404 C80.528,10.62 80.342,10.794 80.122,10.926 C79.902,11.058 79.654,11.15 79.378,11.202 C79.102,11.254 78.816,11.276 78.52,11.268 L78.52,12.552 L80.632,12.552 L80.632,18 L82.336,18 Z M87.628,18.156 C88.052,18.156 88.45,18.084 88.822,17.94 C89.194,17.796 89.522,17.556 89.806,17.22 C90.09,16.884 90.314,16.434 90.478,15.87 C90.642,15.306 90.724,14.604 90.724,13.764 C90.724,12.948 90.642,12.262 90.478,11.706 C90.314,11.15 90.09,10.704 89.806,10.368 C89.522,10.032 89.194,9.792 88.822,9.648 C88.45,9.504 88.052,9.432 87.628,9.432 C87.212,9.432 86.818,9.504 86.446,9.648 C86.074,9.792 85.748,10.032 85.468,10.368 C85.188,10.704 84.966,11.15 84.802,11.706 C84.638,12.262 84.556,12.948 84.556,13.764 C84.556,14.604 84.638,15.306 84.802,15.87 C84.966,16.434 85.188,16.884 85.468,17.22 C85.748,17.556 86.074,17.796 86.446,17.94 C86.818,18.084 87.212,18.156 87.628,18.156 Z M87.628,16.764 C87.284,16.764 87.02,16.652 86.836,16.428 C86.652,16.204 86.518,15.934 86.434,15.618 C86.35,15.302 86.3,14.974 86.284,14.634 C86.268,14.294 86.26,14.004 86.26,13.764 C86.26,13.62 86.262,13.446 86.266,13.242 C86.27,13.038 86.284,12.828 86.308,12.612 C86.332,12.396 86.372,12.182 86.428,11.97 C86.484,11.758 86.562,11.568 86.662,11.4 C86.762,11.232 86.89,11.096 87.046,10.992 C87.202,10.888 87.396,10.836 87.628,10.836 C87.86,10.836 88.056,10.888 88.216,10.992 C88.376,11.096 88.508,11.232 88.612,11.4 C88.716,11.568 88.794,11.758 88.846,11.97 C88.898,12.182 88.938,12.396 88.966,12.612 C88.994,12.828 89.01,13.038 89.014,13.242 C89.018,13.446 89.02,13.62 89.02,13.764 C89.02,14.004 89.012,14.294 88.996,14.634 C88.98,14.974 88.93,15.302 88.846,15.618 C88.762,15.934 88.626,16.204 88.438,16.428 C88.25,16.652 87.98,16.764 87.628,16.764 Z M96.136,18 L96.808,16.092 L100.012,16.092 L100.66,18 L102.616,18 L99.412,9.432 L97.48,9.432 L94.24,18 L96.136,18 Z M99.52,14.688 L97.3,14.688 L98.416,11.544 L98.44,11.544 L99.52,14.688 Z" id="500VAC@10A" fill="#000000" fill-rule="nonzero"></path>
                    <g id="Group-6" transform="translate(110.000000, 9.000000)" fill="#E32013">
                        <polygon id="Rectangle" points="8.48528137 2.55140025e-16 9.19238816 0.707106781 0.707106781 9.19238816 0 8.48528137"></polygon>
                        <polygon id="Rectangle" points="8.48528137 9.19238816 9.19238816 8.48528137 0.707106781 -1.33226763e-13 -1.27897692e-13 0.707106781"></polygon>
                    </g>
                </g>
                <g id="Group-9" transform="translate(325.000000, 16.000000)" fill="#FFFFFF">
                    <rect id="Rectangle" transform="translate(4.500000, 4.000000) scale(1, -1) rotate(45.000000) translate(-4.500000, -4.000000) " x="4" y="-1" width="1" height="10"></rect>
                    <rect id="Rectangle" transform="translate(11.378680, 4.000000) rotate(45.000000) translate(-11.378680, -4.000000) " x="10.8786797" y="-1" width="1" height="10"></rect>
                </g>
            </g>
        </g>
    </g>
</svg>