<?xml version="1.0" encoding="UTF-8"?>
<svg width="509px" height="214px" viewBox="0 0 509 214" version="1.1" xmlns="http://www.w3.org/2000/svg" xmlns:xlink="http://www.w3.org/1999/xlink">
    <!-- Generator: Sketch 63.1 (92452) - https://sketch.com -->
    <title>stage_01_overlay</title>
    <desc>Created with Sketch.</desc>
    <g id="stage_01_overlay" stroke="none" stroke-width="1" fill="none" fill-rule="evenodd">
        <g id="Group-14" transform="translate(441.000000, 1.000000)">
            <rect id="Rectangle" stroke="#E32013" stroke-width="0.677333333" fill="#E32013" x="0.338666667" y="0.338666667" width="66.3226667" height="66.3226667"></rect>
            <g id="Group-7" transform="translate(17.000000, 14.000000)" stroke="#FFFFFF" stroke-linecap="round" stroke-linejoin="round" stroke-width="1.08">
                <path d="M13.7542847,13.4565657 L21.1008479,0 L33.009742,21.8121212 C33.6467617,23.369697 34,25.0767677 34,26.8686869 C34,34.1212121 28.2251488,40 21.1008479,40 C17.5486199,40 14.3317698,38.5393939 12,36.1737374" id="Stroke-1"></path>
                <path d="M21,35 C25.418,35 29,31.418 29,27" id="Stroke-3"></path>
                <path d="M14.4245271,22.5418223 C14.7956079,23.4368106 15,24.4177017 15,25.4485364 C15,29.6178233 11.642413,33 7.50099219,33 C3.35758698,33 0,29.6178233 0,25.4485364 C0,24.4196995 0.204392115,23.4388083 0.575472946,22.54382 L7.50099219,10 L14.4245271,22.5418223 Z" id="Stroke-5"></path>
            </g>
        </g>
        <g id="Group-14" transform="translate(1.000000, 1.000000)">
            <path d="M404.5,-0.5 L-0.5,-0.5 L-0.5,212.5 L404.5,212.5 L404.5,48.9840251 L417.589093,36.3258172 L404.5,23.6659937 L404.5,-0.5 Z" id="Combined-Shape" stroke-opacity="0.25" stroke="#FFFFFF" fill="#000000"></path>
            <path d="M26.424,80 L26.424,68.736 L41.016,68.736 L41.016,80 L42.424,80 L42.424,57.152 L41.016,57.152 L41.016,67.52 L26.424,67.52 L26.424,57.152 L25.016,57.152 L25.016,80 L26.424,80 Z M53.253037,80.384 C54.469037,80.384 55.5463704,80.1546667 56.485037,79.696 C57.4237037,79.2373333 58.213037,78.6186667 58.853037,77.84 C59.493037,77.0613333 59.9783704,76.1493333 60.309037,75.104 C60.6397037,74.0586667 60.805037,72.9493333 60.805037,71.776 C60.805037,70.6026667 60.6397037,69.4986667 60.309037,68.464 C59.9783704,67.4293333 59.493037,66.5173333 58.853037,65.728 C58.213037,64.9386667 57.4237037,64.3146667 56.485037,63.856 C55.5463704,63.3973333 54.469037,63.168 53.253037,63.168 C52.037037,63.168 50.9597037,63.3973333 50.021037,63.856 C49.0823704,64.3146667 48.293037,64.9386667 47.653037,65.728 C47.013037,66.5173333 46.5277037,67.4293333 46.197037,68.464 C45.8663704,69.4986667 45.701037,70.6026667 45.701037,71.776 C45.701037,72.9493333 45.8663704,74.0586667 46.197037,75.104 C46.5277037,76.1493333 47.013037,77.0613333 47.653037,77.84 C48.293037,78.6186667 49.0823704,79.2373333 50.021037,79.696 C50.9597037,80.1546667 52.037037,80.384 53.253037,80.384 Z M53.253037,79.328 C52.229037,79.328 51.3223704,79.12 50.533037,78.704 C49.7437037,78.288 49.0823704,77.728 48.549037,77.024 C48.0157037,76.32 47.6103704,75.5146667 47.333037,74.608 C47.0557037,73.7013333 46.917037,72.7573333 46.917037,71.776 C46.917037,70.7946667 47.0557037,69.8506667 47.333037,68.944 C47.6103704,68.0373333 48.0157037,67.232 48.549037,66.528 C49.0823704,65.824 49.7437037,65.264 50.533037,64.848 C51.3223704,64.432 52.229037,64.224 53.253037,64.224 C54.277037,64.224 55.1837037,64.432 55.973037,64.848 C56.7623704,65.264 57.4237037,65.824 57.957037,66.528 C58.4903704,67.232 58.8957037,68.0373333 59.173037,68.944 C59.4503704,69.8506667 59.589037,70.7946667 59.589037,71.776 C59.589037,72.7573333 59.4503704,73.7013333 59.173037,74.608 C58.8957037,75.5146667 58.4903704,76.32 57.957037,77.024 C57.4237037,77.728 56.7623704,78.288 55.973037,78.704 C55.1837037,79.12 54.277037,79.328 53.253037,79.328 Z M68.7860741,80 L73.3300741,65.088 L73.3940741,65.088 L77.9060741,80 L79.4100741,80 L84.6900741,63.552 L83.3460741,63.552 L78.7380741,78.592 L78.6740741,78.592 L74.1620741,63.552 L72.5300741,63.552 L68.0500741,78.592 L67.9860741,78.592 L63.3460741,63.552 L62.0340741,63.552 L67.2500741,80 L68.7860741,80 Z M97.0041481,80 L97.0041481,71.008 C97.0254815,70.3893333 97.0788148,69.856 97.1641481,69.408 C97.2494815,68.96 97.3668148,68.5546667 97.5161481,68.192 C97.6654815,67.8293333 97.8521481,67.4986667 98.0761481,67.2 C98.3001481,66.9013333 98.5614815,66.592 98.8601481,66.272 C99.6068148,65.5466667 100.390815,65.0773333 101.212148,64.864 C102.033481,64.6506667 102.764148,64.5866667 103.404148,64.672 L103.404148,64.672 L103.404148,63.456 C102.657481,63.4346667 101.937481,63.5146667 101.244148,63.696 C100.550815,63.8773333 99.9214815,64.1386667 99.3561481,64.48 C98.7908148,64.8213333 98.3108148,65.2266667 97.9161481,65.696 C97.5214815,66.1653333 97.2494815,66.6666667 97.1001481,67.2 L97.1001481,67.2 L97.0041481,67.2 L97.0041481,63.552 L95.7881481,63.552 L95.7881481,80 L97.0041481,80 Z M111.033185,80.384 C113.017185,80.384 114.611852,79.872 115.817185,78.848 C117.022519,77.824 117.806519,76.352 118.169185,74.432 L118.169185,74.432 L116.953185,74.432 C116.590519,75.968 115.929185,77.168 114.969185,78.032 C114.009185,78.896 112.707852,79.328 111.065185,79.328 C110.062519,79.328 109.182519,79.136 108.425185,78.752 C107.667852,78.368 107.038519,77.8453333 106.537185,77.184 C106.035852,76.5226667 105.657185,75.7546667 105.401185,74.88 C105.145185,74.0053333 105.017185,73.088 105.017185,72.128 L105.017185,72.128 L105.017185,71.936 L118.297185,71.936 C118.297185,71.8506667 118.302519,71.7386667 118.313185,71.6 C118.323852,71.4613333 118.329185,71.3386667 118.329185,71.232 C118.329185,70.1226667 118.174519,69.0826667 117.865185,68.112 C117.555852,67.1413333 117.102519,66.288 116.505185,65.552 C115.907852,64.816 115.166519,64.2346667 114.281185,63.808 C113.395852,63.3813333 112.377185,63.168 111.225185,63.168 C109.966519,63.168 108.873185,63.408 107.945185,63.888 C107.017185,64.368 106.243852,65.008 105.625185,65.808 C105.006519,66.608 104.542519,67.536 104.233185,68.592 C103.923852,69.648 103.769185,70.752 103.769185,71.904 C103.769185,73.0986667 103.918519,74.2133333 104.217185,75.248 C104.515852,76.2826667 104.969185,77.1786667 105.577185,77.936 C106.185185,78.6933333 106.942519,79.2906667 107.849185,79.728 C108.755852,80.1653333 109.817185,80.384 111.033185,80.384 Z M117.081185,70.88 L105.049185,70.88 C105.113185,70.0266667 105.283852,69.1946667 105.561185,68.384 C105.838519,67.5733333 106.233185,66.864 106.745185,66.256 C107.257185,65.648 107.886519,65.1573333 108.633185,64.784 C109.379852,64.4106667 110.243852,64.224 111.225185,64.224 C112.142519,64.224 112.958519,64.4053333 113.673185,64.768 C114.387852,65.1306667 114.995852,65.616 115.497185,66.224 C115.998519,66.832 116.377185,67.536 116.633185,68.336 C116.889185,69.136 117.038519,69.984 117.081185,70.88 L117.081185,70.88 Z M127.398222,80.384 C128.123556,80.384 128.864889,80.3146667 129.622222,80.176 C130.379556,80.0373333 131.067556,79.792 131.686222,79.44 C132.304889,79.088 132.816889,78.624 133.222222,78.048 C133.627556,77.472 133.830222,76.736 133.830222,75.84 C133.830222,74.9866667 133.680889,74.2826667 133.382222,73.728 C133.083556,73.1733333 132.672889,72.72 132.150222,72.368 C131.627556,72.016 131.008889,71.7386667 130.294222,71.536 C129.579556,71.3333333 128.816889,71.1573333 128.006222,71.008 C127.344889,70.8586667 126.688889,70.7093333 126.038222,70.56 C125.387556,70.4106667 124.800889,70.2133333 124.278222,69.968 C123.755556,69.7226667 123.334222,69.3973333 123.014222,68.992 C122.694222,68.5866667 122.534222,68.0533333 122.534222,67.392 C122.534222,66.816 122.678222,66.3253333 122.966222,65.92 C123.254222,65.5146667 123.622222,65.184 124.070222,64.928 C124.518222,64.672 125.024889,64.4906667 125.590222,64.384 C126.155556,64.2773333 126.715556,64.224 127.270222,64.224 C127.952889,64.224 128.592889,64.304 129.190222,64.464 C129.787556,64.624 130.304889,64.8693333 130.742222,65.2 C131.179556,65.5306667 131.520889,65.9626667 131.766222,66.496 C132.011556,67.0293333 132.134222,67.6693333 132.134222,68.416 L132.134222,68.416 L133.350222,68.416 C133.350222,67.4773333 133.195556,66.6773333 132.886222,66.016 C132.576889,65.3546667 132.150222,64.8106667 131.606222,64.384 C131.062222,63.9573333 130.416889,63.648 129.670222,63.456 C128.923556,63.264 128.123556,63.168 127.270222,63.168 C126.566222,63.168 125.862222,63.2373333 125.158222,63.376 C124.454222,63.5146667 123.819556,63.744 123.254222,64.064 C122.688889,64.384 122.224889,64.816 121.862222,65.36 C121.499556,65.904 121.318222,66.5813333 121.318222,67.392 C121.318222,68.5226667 121.595556,69.3813333 122.150222,69.968 C122.704889,70.5546667 123.403556,71.008 124.246222,71.328 C125.088889,71.648 125.995556,71.888 126.966222,72.048 C127.936889,72.208 128.843556,72.416 129.686222,72.672 C130.528889,72.928 131.227556,73.2906667 131.782222,73.76 C132.336889,74.2293333 132.614222,74.9226667 132.614222,75.84 C132.614222,76.544 132.443556,77.1253333 132.102222,77.584 C131.760889,78.0426667 131.328889,78.4 130.806222,78.656 C130.283556,78.912 129.718222,79.088 129.110222,79.184 C128.502222,79.28 127.931556,79.328 127.398222,79.328 C126.651556,79.328 125.958222,79.2213333 125.318222,79.008 C124.678222,78.7946667 124.118222,78.48 123.638222,78.064 C123.158222,77.648 122.768889,77.1466667 122.470222,76.56 C122.171556,75.9733333 122.000889,75.296 121.958222,74.528 L121.958222,74.528 L120.742222,74.528 C120.763556,75.488 120.944889,76.3306667 121.286222,77.056 C121.627556,77.7813333 122.096889,78.3946667 122.694222,78.896 C123.291556,79.3973333 123.990222,79.7706667 124.790222,80.016 C125.590222,80.2613333 126.459556,80.384 127.398222,80.384 Z M138.515259,60.448 L138.515259,57.152 L137.299259,57.152 L137.299259,60.448 L138.515259,60.448 Z M138.515259,80 L138.515259,63.552 L137.299259,63.552 L137.299259,80 L138.515259,80 Z M148.640296,80.384 C149.36563,80.384 150.106963,80.3146667 150.864296,80.176 C151.62163,80.0373333 152.30963,79.792 152.928296,79.44 C153.546963,79.088 154.058963,78.624 154.464296,78.048 C154.86963,77.472 155.072296,76.736 155.072296,75.84 C155.072296,74.9866667 154.922963,74.2826667 154.624296,73.728 C154.32563,73.1733333 153.914963,72.72 153.392296,72.368 C152.86963,72.016 152.250963,71.7386667 151.536296,71.536 C150.82163,71.3333333 150.058963,71.1573333 149.248296,71.008 C148.586963,70.8586667 147.930963,70.7093333 147.280296,70.56 C146.62963,70.4106667 146.042963,70.2133333 145.520296,69.968 C144.99763,69.7226667 144.576296,69.3973333 144.256296,68.992 C143.936296,68.5866667 143.776296,68.0533333 143.776296,67.392 C143.776296,66.816 143.920296,66.3253333 144.208296,65.92 C144.496296,65.5146667 144.864296,65.184 145.312296,64.928 C145.760296,64.672 146.266963,64.4906667 146.832296,64.384 C147.39763,64.2773333 147.95763,64.224 148.512296,64.224 C149.194963,64.224 149.834963,64.304 150.432296,64.464 C151.02963,64.624 151.546963,64.8693333 151.984296,65.2 C152.42163,65.5306667 152.762963,65.9626667 153.008296,66.496 C153.25363,67.0293333 153.376296,67.6693333 153.376296,68.416 L153.376296,68.416 L154.592296,68.416 C154.592296,67.4773333 154.43763,66.6773333 154.128296,66.016 C153.818963,65.3546667 153.392296,64.8106667 152.848296,64.384 C152.304296,63.9573333 151.658963,63.648 150.912296,63.456 C150.16563,63.264 149.36563,63.168 148.512296,63.168 C147.808296,63.168 147.104296,63.2373333 146.400296,63.376 C145.696296,63.5146667 145.06163,63.744 144.496296,64.064 C143.930963,64.384 143.466963,64.816 143.104296,65.36 C142.74163,65.904 142.560296,66.5813333 142.560296,67.392 C142.560296,68.5226667 142.83763,69.3813333 143.392296,69.968 C143.946963,70.5546667 144.64563,71.008 145.488296,71.328 C146.330963,71.648 147.23763,71.888 148.208296,72.048 C149.178963,72.208 150.08563,72.416 150.928296,72.672 C151.770963,72.928 152.46963,73.2906667 153.024296,73.76 C153.578963,74.2293333 153.856296,74.9226667 153.856296,75.84 C153.856296,76.544 153.68563,77.1253333 153.344296,77.584 C153.002963,78.0426667 152.570963,78.4 152.048296,78.656 C151.52563,78.912 150.960296,79.088 150.352296,79.184 C149.744296,79.28 149.17363,79.328 148.640296,79.328 C147.89363,79.328 147.200296,79.2213333 146.560296,79.008 C145.920296,78.7946667 145.360296,78.48 144.880296,78.064 C144.400296,77.648 144.010963,77.1466667 143.712296,76.56 C143.41363,75.9733333 143.242963,75.296 143.200296,74.528 L143.200296,74.528 L141.984296,74.528 C142.00563,75.488 142.186963,76.3306667 142.528296,77.056 C142.86963,77.7813333 143.338963,78.3946667 143.936296,78.896 C144.53363,79.3973333 145.232296,79.7706667 146.032296,80.016 C146.832296,80.2613333 147.70163,80.384 148.640296,80.384 Z M162.461333,79.984 C163.048,80.0373333 163.650667,80.0426667 164.269333,80 L164.269333,80 L164.269333,78.944 C163.693333,78.9653333 163.186667,78.9546667 162.749333,78.912 C162.312,78.8693333 161.938667,78.7466667 161.629333,78.544 C161.32,78.3413333 161.090667,78.048 160.941333,77.664 C160.792,77.28 160.717333,76.7573333 160.717333,76.096 L160.717333,76.096 L160.717333,64.608 L164.301333,64.608 L164.301333,63.552 L160.717333,63.552 L160.717333,58.432 L159.501333,58.432 L159.501333,63.552 L156.461333,63.552 L156.461333,64.608 L159.501333,64.608 L159.501333,76.096 C159.458667,77.0346667 159.570667,77.7706667 159.837333,78.304 C160.104,78.8373333 160.461333,79.2373333 160.909333,79.504 C161.357333,79.7706667 161.874667,79.9306667 162.461333,79.984 Z M171.51437,80.384 C172.303704,80.384 173.029037,80.288 173.69037,80.096 C174.351704,79.904 174.943704,79.6373333 175.46637,79.296 C175.989037,78.9546667 176.431704,78.5653333 176.79437,78.128 C177.157037,77.6906667 177.43437,77.2266667 177.62637,76.736 L177.62637,76.736 L177.69037,76.736 L177.69037,77.6 C177.69037,77.9413333 177.717037,78.256 177.77037,78.544 C177.823704,78.832 177.925037,79.0826667 178.07437,79.296 C178.223704,79.5093333 178.44237,79.68 178.73037,79.808 C179.01837,79.936 179.407704,80 179.89837,80 C180.239704,80 180.57037,79.9573333 180.89037,79.872 L180.89037,79.872 L180.89037,78.848 C180.50637,78.912 180.207704,78.944 179.99437,78.944 C179.717037,78.944 179.503704,78.8853333 179.35437,78.768 C179.205037,78.6506667 179.09837,78.496 179.03437,78.304 C178.97037,78.112 178.933037,77.8986667 178.92237,77.664 C178.911704,77.4293333 178.90637,77.1946667 178.90637,76.96 L178.90637,76.96 L178.90637,67.392 C178.90637,66.1333333 178.453037,65.1146667 177.54637,64.336 C176.639704,63.5573333 175.19437,63.168 173.21037,63.168 C171.22637,63.168 169.695704,63.6213333 168.61837,64.528 C167.541037,65.4346667 166.959704,66.7946667 166.87437,68.608 L166.87437,68.608 L168.09037,68.608 C168.175704,67.136 168.671704,66.0373333 169.57837,65.312 C170.485037,64.5866667 171.67437,64.224 173.14637,64.224 C173.97837,64.224 174.68237,64.3093333 175.25837,64.48 C175.83437,64.6506667 176.303704,64.8853333 176.66637,65.184 C177.029037,65.4826667 177.295704,65.824 177.46637,66.208 C177.637037,66.592 177.72237,67.008 177.72237,67.456 C177.72237,68.032 177.69037,68.512 177.62637,68.896 C177.56237,69.28 177.40237,69.5946667 177.14637,69.84 C176.89037,70.0853333 176.511704,70.2773333 176.01037,70.416 C175.509037,70.5546667 174.821037,70.656 173.94637,70.72 L173.94637,70.72 L172.05837,70.88 C171.397037,70.944 170.709037,71.0506667 169.99437,71.2 C169.279704,71.3493333 168.629037,71.6 168.04237,71.952 C167.455704,72.304 166.97037,72.784 166.58637,73.392 C166.20237,74 166.01037,74.784 166.01037,75.744 C166.01037,77.3226667 166.49037,78.4906667 167.45037,79.248 C168.41037,80.0053333 169.765037,80.384 171.51437,80.384 Z M171.54637,79.328 C170.20237,79.328 169.14637,79.0346667 168.37837,78.448 C167.61037,77.8613333 167.22637,76.96 167.22637,75.744 C167.22637,74.976 167.375704,74.352 167.67437,73.872 C167.973037,73.392 168.36237,73.0133333 168.84237,72.736 C169.32237,72.4586667 169.861037,72.2613333 170.45837,72.144 C171.055704,72.0266667 171.653037,71.936 172.25037,71.872 L172.25037,71.872 L174.29837,71.68 C175.045037,71.616 175.72237,71.52 176.33037,71.392 C176.93837,71.264 177.391704,71.0186667 177.69037,70.656 L177.69037,70.656 L177.69037,73.728 C177.69037,73.9413333 177.631704,74.352 177.51437,74.96 C177.397037,75.568 177.125037,76.1973333 176.69837,76.848 C176.271704,77.4986667 175.653037,78.0746667 174.84237,78.576 C174.031704,79.0773333 172.933037,79.328 171.54637,79.328 Z M184.231407,80 L184.231407,71.104 C184.231407,70.1013333 184.364741,69.1786667 184.631407,68.336 C184.898074,67.4933333 185.287407,66.768 185.799407,66.16 C186.311407,65.552 186.930074,65.0773333 187.655407,64.736 C188.380741,64.3946667 189.212741,64.224 190.151407,64.224 C191.260741,64.224 192.130074,64.4266667 192.759407,64.832 C193.388741,65.2373333 193.858074,65.7226667 194.167407,66.288 C194.476741,66.8533333 194.663407,67.4453333 194.727407,68.064 C194.791407,68.6826667 194.823407,69.1946667 194.823407,69.6 L194.823407,69.6 L194.823407,80 L196.039407,80 L196.039407,69.824 C196.039407,69.4826667 196.028741,69.0826667 196.007407,68.624 C195.986074,68.1653333 195.922074,67.6906667 195.815407,67.2 C195.708741,66.7093333 195.532741,66.224 195.287407,65.744 C195.042074,65.264 194.706074,64.832 194.279407,64.448 C193.852741,64.064 193.303407,63.7546667 192.631407,63.52 C191.959407,63.2853333 191.143407,63.168 190.183407,63.168 C189.543407,63.168 188.914074,63.2533333 188.295407,63.424 C187.676741,63.5946667 187.106074,63.8506667 186.583407,64.192 C186.060741,64.5333333 185.602074,64.944 185.207407,65.424 C184.812741,65.904 184.508741,66.4533333 184.295407,67.072 L184.295407,67.072 L184.231407,67.072 L184.231407,63.552 L183.015407,63.552 L183.015407,80 L184.231407,80 Z M204.068444,79.984 C204.655111,80.0373333 205.257778,80.0426667 205.876444,80 L205.876444,80 L205.876444,78.944 C205.300444,78.9653333 204.793778,78.9546667 204.356444,78.912 C203.919111,78.8693333 203.545778,78.7466667 203.236444,78.544 C202.927111,78.3413333 202.697778,78.048 202.548444,77.664 C202.399111,77.28 202.324444,76.7573333 202.324444,76.096 L202.324444,76.096 L202.324444,64.608 L205.908444,64.608 L205.908444,63.552 L202.324444,63.552 L202.324444,58.432 L201.108444,58.432 L201.108444,63.552 L198.068444,63.552 L198.068444,64.608 L201.108444,64.608 L201.108444,76.096 C201.065778,77.0346667 201.177778,77.7706667 201.444444,78.304 C201.711111,78.8373333 202.068444,79.2373333 202.516444,79.504 C202.964444,79.7706667 203.481778,79.9306667 204.068444,79.984 Z M223.534519,80.384 C224.259852,80.384 225.001185,80.3146667 225.758519,80.176 C226.515852,80.0373333 227.203852,79.792 227.822519,79.44 C228.441185,79.088 228.953185,78.624 229.358519,78.048 C229.763852,77.472 229.966519,76.736 229.966519,75.84 C229.966519,74.9866667 229.817185,74.2826667 229.518519,73.728 C229.219852,73.1733333 228.809185,72.72 228.286519,72.368 C227.763852,72.016 227.145185,71.7386667 226.430519,71.536 C225.715852,71.3333333 224.953185,71.1573333 224.142519,71.008 C223.481185,70.8586667 222.825185,70.7093333 222.174519,70.56 C221.523852,70.4106667 220.937185,70.2133333 220.414519,69.968 C219.891852,69.7226667 219.470519,69.3973333 219.150519,68.992 C218.830519,68.5866667 218.670519,68.0533333 218.670519,67.392 C218.670519,66.816 218.814519,66.3253333 219.102519,65.92 C219.390519,65.5146667 219.758519,65.184 220.206519,64.928 C220.654519,64.672 221.161185,64.4906667 221.726519,64.384 C222.291852,64.2773333 222.851852,64.224 223.406519,64.224 C224.089185,64.224 224.729185,64.304 225.326519,64.464 C225.923852,64.624 226.441185,64.8693333 226.878519,65.2 C227.315852,65.5306667 227.657185,65.9626667 227.902519,66.496 C228.147852,67.0293333 228.270519,67.6693333 228.270519,68.416 L228.270519,68.416 L229.486519,68.416 C229.486519,67.4773333 229.331852,66.6773333 229.022519,66.016 C228.713185,65.3546667 228.286519,64.8106667 227.742519,64.384 C227.198519,63.9573333 226.553185,63.648 225.806519,63.456 C225.059852,63.264 224.259852,63.168 223.406519,63.168 C222.702519,63.168 221.998519,63.2373333 221.294519,63.376 C220.590519,63.5146667 219.955852,63.744 219.390519,64.064 C218.825185,64.384 218.361185,64.816 217.998519,65.36 C217.635852,65.904 217.454519,66.5813333 217.454519,67.392 C217.454519,68.5226667 217.731852,69.3813333 218.286519,69.968 C218.841185,70.5546667 219.539852,71.008 220.382519,71.328 C221.225185,71.648 222.131852,71.888 223.102519,72.048 C224.073185,72.208 224.979852,72.416 225.822519,72.672 C226.665185,72.928 227.363852,73.2906667 227.918519,73.76 C228.473185,74.2293333 228.750519,74.9226667 228.750519,75.84 C228.750519,76.544 228.579852,77.1253333 228.238519,77.584 C227.897185,78.0426667 227.465185,78.4 226.942519,78.656 C226.419852,78.912 225.854519,79.088 225.246519,79.184 C224.638519,79.28 224.067852,79.328 223.534519,79.328 C222.787852,79.328 222.094519,79.2213333 221.454519,79.008 C220.814519,78.7946667 220.254519,78.48 219.774519,78.064 C219.294519,77.648 218.905185,77.1466667 218.606519,76.56 C218.307852,75.9733333 218.137185,75.296 218.094519,74.528 L218.094519,74.528 L216.878519,74.528 C216.899852,75.488 217.081185,76.3306667 217.422519,77.056 C217.763852,77.7813333 218.233185,78.3946667 218.830519,78.896 C219.427852,79.3973333 220.126519,79.7706667 220.926519,80.016 C221.726519,80.2613333 222.595852,80.384 223.534519,80.384 Z M234.363556,80 L234.363556,71.104 C234.363556,70.1013333 234.496889,69.1786667 234.763556,68.336 C235.030222,67.4933333 235.419556,66.768 235.931556,66.16 C236.443556,65.552 237.062222,65.0773333 237.787556,64.736 C238.512889,64.3946667 239.344889,64.224 240.283556,64.224 C241.392889,64.224 242.262222,64.4266667 242.891556,64.832 C243.520889,65.2373333 243.990222,65.7226667 244.299556,66.288 C244.608889,66.8533333 244.795556,67.4453333 244.859556,68.064 C244.923556,68.6826667 244.955556,69.1946667 244.955556,69.6 L244.955556,69.6 L244.955556,80 L246.171556,80 L246.171556,69.824 C246.171556,69.4826667 246.160889,69.0826667 246.139556,68.624 C246.118222,68.1653333 246.054222,67.6906667 245.947556,67.2 C245.840889,66.7093333 245.664889,66.224 245.419556,65.744 C245.174222,65.264 244.838222,64.832 244.411556,64.448 C243.984889,64.064 243.435556,63.7546667 242.763556,63.52 C242.091556,63.2853333 241.275556,63.168 240.315556,63.168 C239.675556,63.168 239.046222,63.2533333 238.427556,63.424 C237.808889,63.5946667 237.238222,63.8506667 236.715556,64.192 C236.192889,64.5333333 235.734222,64.944 235.339556,65.424 C234.944889,65.904 234.640889,66.4533333 234.427556,67.072 L234.427556,67.072 L234.363556,67.072 L234.363556,57.152 L233.147556,57.152 L233.147556,80 L234.363556,80 Z M256.776593,80.384 C257.992593,80.384 259.069926,80.1546667 260.008593,79.696 C260.947259,79.2373333 261.736593,78.6186667 262.376593,77.84 C263.016593,77.0613333 263.501926,76.1493333 263.832593,75.104 C264.163259,74.0586667 264.328593,72.9493333 264.328593,71.776 C264.328593,70.6026667 264.163259,69.4986667 263.832593,68.464 C263.501926,67.4293333 263.016593,66.5173333 262.376593,65.728 C261.736593,64.9386667 260.947259,64.3146667 260.008593,63.856 C259.069926,63.3973333 257.992593,63.168 256.776593,63.168 C255.560593,63.168 254.483259,63.3973333 253.544593,63.856 C252.605926,64.3146667 251.816593,64.9386667 251.176593,65.728 C250.536593,66.5173333 250.051259,67.4293333 249.720593,68.464 C249.389926,69.4986667 249.224593,70.6026667 249.224593,71.776 C249.224593,72.9493333 249.389926,74.0586667 249.720593,75.104 C250.051259,76.1493333 250.536593,77.0613333 251.176593,77.84 C251.816593,78.6186667 252.605926,79.2373333 253.544593,79.696 C254.483259,80.1546667 255.560593,80.384 256.776593,80.384 Z M256.776593,79.328 C255.752593,79.328 254.845926,79.12 254.056593,78.704 C253.267259,78.288 252.605926,77.728 252.072593,77.024 C251.539259,76.32 251.133926,75.5146667 250.856593,74.608 C250.579259,73.7013333 250.440593,72.7573333 250.440593,71.776 C250.440593,70.7946667 250.579259,69.8506667 250.856593,68.944 C251.133926,68.0373333 251.539259,67.232 252.072593,66.528 C252.605926,65.824 253.267259,65.264 254.056593,64.848 C254.845926,64.432 255.752593,64.224 256.776593,64.224 C257.800593,64.224 258.707259,64.432 259.496593,64.848 C260.285926,65.264 260.947259,65.824 261.480593,66.528 C262.013926,67.232 262.419259,68.0373333 262.696593,68.944 C262.973926,69.8506667 263.112593,70.7946667 263.112593,71.776 C263.112593,72.7573333 262.973926,73.7013333 262.696593,74.608 C262.419259,75.5146667 262.013926,76.32 261.480593,77.024 C260.947259,77.728 260.285926,78.288 259.496593,78.704 C258.707259,79.12 257.800593,79.328 256.776593,79.328 Z M273.26963,80.384 C273.90963,80.384 274.538963,80.2986667 275.15763,80.128 C275.776296,79.9573333 276.346963,79.7013333 276.86963,79.36 C277.392296,79.0186667 277.850963,78.608 278.24563,78.128 C278.640296,77.648 278.944296,77.0986667 279.15763,76.48 L279.15763,76.48 L279.22163,76.48 L279.22163,80 L280.43763,80 L280.43763,63.552 L279.22163,63.552 L279.22163,72.448 C279.22163,73.4506667 279.088296,74.3733333 278.82163,75.216 C278.554963,76.0586667 278.16563,76.784 277.65363,77.392 C277.14163,78 276.51763,78.4746667 275.78163,78.816 C275.04563,79.1573333 274.218963,79.328 273.30163,79.328 C272.170963,79.328 271.296296,79.1253333 270.67763,78.72 C270.058963,78.3146667 269.594963,77.8293333 269.28563,77.264 C268.976296,76.6986667 268.78963,76.112 268.72563,75.504 C268.66163,74.896 268.62963,74.3786667 268.62963,73.952 L268.62963,73.952 L268.62963,63.552 L267.41363,63.552 L267.41363,73.728 C267.41363,74.0693333 267.424296,74.4693333 267.44563,74.928 C267.466963,75.3866667 267.530963,75.8613333 267.63763,76.352 C267.744296,76.8426667 267.920296,77.328 268.16563,77.808 C268.410963,78.288 268.746963,78.72 269.17363,79.104 C269.600296,79.488 270.14963,79.7973333 270.82163,80.032 C271.49363,80.2666667 272.30963,80.384 273.26963,80.384 Z M285.762667,80 L285.762667,57.152 L284.546667,57.152 L284.546667,80 L285.762667,80 Z M296.207704,80.384 C297.679704,80.384 298.927704,80.0586667 299.951704,79.408 C300.975704,78.7573333 301.829037,77.7813333 302.511704,76.48 L302.511704,76.48 L302.575704,76.48 L302.575704,80 L303.791704,80 L303.791704,57.152 L302.575704,57.152 L302.575704,67.232 L302.511704,67.232 C302.29837,66.592 301.989037,66.016 301.583704,65.504 C301.17837,64.992 300.703704,64.5653333 300.159704,64.224 C299.615704,63.8826667 299.023704,63.6213333 298.383704,63.44 C297.743704,63.2586667 297.093037,63.168 296.431704,63.168 C295.19437,63.168 294.117037,63.392 293.199704,63.84 C292.28237,64.288 291.519704,64.896 290.911704,65.664 C290.303704,66.432 289.85037,67.344 289.551704,68.4 C289.253037,69.456 289.103704,70.592 289.103704,71.808 C289.103704,72.9386667 289.24237,74.0213333 289.519704,75.056 C289.797037,76.0906667 290.223704,77.0026667 290.799704,77.792 C291.375704,78.5813333 292.111704,79.2106667 293.007704,79.68 C293.903704,80.1493333 294.97037,80.384 296.207704,80.384 Z M296.463704,79.328 C295.397037,79.328 294.479704,79.12 293.711704,78.704 C292.943704,78.288 292.309037,77.728 291.807704,77.024 C291.30637,76.32 290.933037,75.5146667 290.687704,74.608 C290.44237,73.7013333 290.319704,72.768 290.319704,71.808 C290.319704,70.8266667 290.431704,69.8773333 290.655704,68.96 C290.879704,68.0426667 291.24237,67.232 291.743704,66.528 C292.245037,65.824 292.879704,65.264 293.647704,64.848 C294.415704,64.432 295.343704,64.224 296.431704,64.224 C297.477037,64.224 298.389037,64.4373333 299.167704,64.864 C299.94637,65.2906667 300.581037,65.8613333 301.071704,66.576 C301.56237,67.2906667 301.93037,68.1013333 302.175704,69.008 C302.421037,69.9146667 302.543704,70.848 302.543704,71.808 C302.543704,72.7466667 302.421037,73.6693333 302.175704,74.576 C301.93037,75.4826667 301.557037,76.288 301.055704,76.992 C300.55437,77.696 299.925037,78.2613333 299.167704,78.688 C298.41037,79.1146667 297.509037,79.328 296.463704,79.328 Z M316.809778,85.888 C317.769778,85.888 318.543111,85.8506667 319.129778,85.776 C319.716444,85.7013333 320.223111,85.4933333 320.649778,85.152 C321.012444,84.8746667 321.337778,84.4426667 321.625778,83.856 C321.913778,83.2693333 322.228444,82.5706667 322.569778,81.76 L322.569778,81.76 L329.609778,63.552 L328.233778,63.552 L322.601778,78.56 L316.489778,63.552 L315.049778,63.552 L321.929778,79.904 C321.545778,80.992 321.225778,81.8506667 320.969778,82.48 C320.713778,83.1093333 320.468444,83.5413333 320.233778,83.776 C319.807111,84.2026667 319.348444,84.4853333 318.857778,84.624 C318.367111,84.7626667 317.684444,84.832 316.809778,84.832 L316.809778,84.832 L316.809778,85.888 Z M338.262815,80.384 C339.478815,80.384 340.556148,80.1546667 341.494815,79.696 C342.433481,79.2373333 343.222815,78.6186667 343.862815,77.84 C344.502815,77.0613333 344.988148,76.1493333 345.318815,75.104 C345.649481,74.0586667 345.814815,72.9493333 345.814815,71.776 C345.814815,70.6026667 345.649481,69.4986667 345.318815,68.464 C344.988148,67.4293333 344.502815,66.5173333 343.862815,65.728 C343.222815,64.9386667 342.433481,64.3146667 341.494815,63.856 C340.556148,63.3973333 339.478815,63.168 338.262815,63.168 C337.046815,63.168 335.969481,63.3973333 335.030815,63.856 C334.092148,64.3146667 333.302815,64.9386667 332.662815,65.728 C332.022815,66.5173333 331.537481,67.4293333 331.206815,68.464 C330.876148,69.4986667 330.710815,70.6026667 330.710815,71.776 C330.710815,72.9493333 330.876148,74.0586667 331.206815,75.104 C331.537481,76.1493333 332.022815,77.0613333 332.662815,77.84 C333.302815,78.6186667 334.092148,79.2373333 335.030815,79.696 C335.969481,80.1546667 337.046815,80.384 338.262815,80.384 Z M338.262815,79.328 C337.238815,79.328 336.332148,79.12 335.542815,78.704 C334.753481,78.288 334.092148,77.728 333.558815,77.024 C333.025481,76.32 332.620148,75.5146667 332.342815,74.608 C332.065481,73.7013333 331.926815,72.7573333 331.926815,71.776 C331.926815,70.7946667 332.065481,69.8506667 332.342815,68.944 C332.620148,68.0373333 333.025481,67.232 333.558815,66.528 C334.092148,65.824 334.753481,65.264 335.542815,64.848 C336.332148,64.432 337.238815,64.224 338.262815,64.224 C339.286815,64.224 340.193481,64.432 340.982815,64.848 C341.772148,65.264 342.433481,65.824 342.966815,66.528 C343.500148,67.232 343.905481,68.0373333 344.182815,68.944 C344.460148,69.8506667 344.598815,70.7946667 344.598815,71.776 C344.598815,72.7573333 344.460148,73.7013333 344.182815,74.608 C343.905481,75.5146667 343.500148,76.32 342.966815,77.024 C342.433481,77.728 341.772148,78.288 340.982815,78.704 C340.193481,79.12 339.286815,79.328 338.262815,79.328 Z M354.755852,80.384 C355.395852,80.384 356.025185,80.2986667 356.643852,80.128 C357.262519,79.9573333 357.833185,79.7013333 358.355852,79.36 C358.878519,79.0186667 359.337185,78.608 359.731852,78.128 C360.126519,77.648 360.430519,77.0986667 360.643852,76.48 L360.643852,76.48 L360.707852,76.48 L360.707852,80 L361.923852,80 L361.923852,63.552 L360.707852,63.552 L360.707852,72.448 C360.707852,73.4506667 360.574519,74.3733333 360.307852,75.216 C360.041185,76.0586667 359.651852,76.784 359.139852,77.392 C358.627852,78 358.003852,78.4746667 357.267852,78.816 C356.531852,79.1573333 355.705185,79.328 354.787852,79.328 C353.657185,79.328 352.782519,79.1253333 352.163852,78.72 C351.545185,78.3146667 351.081185,77.8293333 350.771852,77.264 C350.462519,76.6986667 350.275852,76.112 350.211852,75.504 C350.147852,74.896 350.115852,74.3786667 350.115852,73.952 L350.115852,73.952 L350.115852,63.552 L348.899852,63.552 L348.899852,73.728 C348.899852,74.0693333 348.910519,74.4693333 348.931852,74.928 C348.953185,75.3866667 349.017185,75.8613333 349.123852,76.352 C349.230519,76.8426667 349.406519,77.328 349.651852,77.808 C349.897185,78.288 350.233185,78.72 350.659852,79.104 C351.086519,79.488 351.635852,79.7973333 352.307852,80.032 C352.979852,80.2666667 353.795852,80.384 354.755852,80.384 Z M366.960889,80 L366.960889,71.008 C366.982222,70.3893333 367.035556,69.856 367.120889,69.408 C367.206222,68.96 367.323556,68.5546667 367.472889,68.192 C367.622222,67.8293333 367.808889,67.4986667 368.032889,67.2 C368.256889,66.9013333 368.518222,66.592 368.816889,66.272 C369.563556,65.5466667 370.347556,65.0773333 371.168889,64.864 C371.990222,64.6506667 372.720889,64.5866667 373.360889,64.672 L373.360889,64.672 L373.360889,63.456 C372.614222,63.4346667 371.894222,63.5146667 371.200889,63.696 C370.507556,63.8773333 369.878222,64.1386667 369.312889,64.48 C368.747556,64.8213333 368.267556,65.2266667 367.872889,65.696 C367.478222,66.1653333 367.206222,66.6666667 367.056889,67.2 L367.056889,67.2 L366.960889,67.2 L366.960889,63.552 L365.744889,63.552 L365.744889,80 L366.960889,80 Z M40.536,116 L40.536,114.784 L26.424,114.784 L26.424,104.736 L39.544,104.736 L39.544,103.52 L26.424,103.52 L26.424,94.368 L40.376,94.368 L40.376,93.152 L25.016,93.152 L25.016,116 L40.536,116 Z M50.213037,107.904 L50.213037,106.688 L43.365037,106.688 L43.365037,107.904 L50.213037,107.904 Z M63.5380741,116.544 C64.4127407,116.544 65.3247407,116.432 66.2740741,116.208 C67.2234074,115.984 68.0874074,115.616 68.8660741,115.104 C69.6447407,114.592 70.2900741,113.930667 70.8020741,113.12 C71.3140741,112.309333 71.5700741,111.306667 71.5700741,110.112 C71.5700741,109.002667 71.3460741,108.08 70.8980741,107.344 C70.4500741,106.608 69.8580741,106.010667 69.1220741,105.552 C68.3860741,105.093333 67.5540741,104.730667 66.6260741,104.464 C65.6980741,104.197333 64.7434074,103.968 63.7620741,103.776 C62.8020741,103.584 61.8527407,103.381333 60.9140741,103.168 C59.9754074,102.954667 59.1434074,102.672 58.4180741,102.32 C57.6927407,101.968 57.1060741,101.504 56.6580741,100.928 C56.2100741,100.352 55.9860741,99.6053333 55.9860741,98.688 C55.9860741,97.7493333 56.1887407,96.9653333 56.5940741,96.336 C56.9994074,95.7066667 57.5167407,95.2053333 58.1460741,94.832 C58.7754074,94.4586667 59.4580741,94.1973333 60.1940741,94.048 C60.9300741,93.8986667 61.6180741,93.824 62.2580741,93.824 C63.3034074,93.824 64.2687407,93.9466667 65.1540741,94.192 C66.0394074,94.4373333 66.8020741,94.8053333 67.4420741,95.296 C68.0820741,95.7866667 68.5887407,96.3946667 68.9620741,97.12 C69.3354074,97.8453333 69.5434074,98.6986667 69.5860741,99.68 L69.5860741,99.68 L70.9940741,99.68 C70.9300741,98.4213333 70.6634074,97.344 70.1940741,96.448 C69.7247407,95.552 69.1007407,94.8213333 68.3220741,94.256 C67.5434074,93.6906667 66.6367407,93.2746667 65.6020741,93.008 C64.5674074,92.7413333 63.4527407,92.608 62.2580741,92.608 C61.3620741,92.608 60.4554074,92.72 59.5380741,92.944 C58.6207407,93.168 57.7940741,93.52 57.0580741,94 C56.3220741,94.48 55.7247407,95.1093333 55.2660741,95.888 C54.8074074,96.6666667 54.5780741,97.6 54.5780741,98.688 C54.5780741,99.776 54.8020741,100.666667 55.2500741,101.36 C55.6980741,102.053333 56.2847407,102.618667 57.0100741,103.056 C57.7354074,103.493333 58.5674074,103.84 59.5060741,104.096 C60.4447407,104.352 61.3940741,104.576 62.3540741,104.768 C63.3354074,104.96 64.2900741,105.168 65.2180741,105.392 C66.1460741,105.616 66.9780741,105.914667 67.7140741,106.288 C68.4500741,106.661333 69.0420741,107.152 69.4900741,107.76 C69.9380741,108.368 70.1620741,109.152 70.1620741,110.112 C70.1620741,111.114667 69.9434074,111.946667 69.5060741,112.608 C69.0687407,113.269333 68.5247407,113.802667 67.8740741,114.208 C67.2234074,114.613333 66.5087407,114.901333 65.7300741,115.072 C64.9514074,115.242667 64.2207407,115.328 63.5380741,115.328 C62.4074074,115.328 61.3300741,115.205333 60.3060741,114.96 C59.2820741,114.714667 58.3914074,114.314667 57.6340741,113.76 C56.8767407,113.205333 56.2847407,112.496 55.8580741,111.632 C55.4314074,110.768 55.2500741,109.706667 55.3140741,108.448 L55.3140741,108.448 L53.9060741,108.448 C53.8847407,109.92 54.1247407,111.168 54.6260741,112.192 C55.1274074,113.216 55.8154074,114.053333 56.6900741,114.704 C57.5647407,115.354667 58.5887407,115.824 59.7620741,116.112 C60.9354074,116.4 62.1940741,116.544 63.5380741,116.544 Z M78.9271111,115.984 C79.5137778,116.037333 80.1164444,116.042667 80.7351111,116 L80.7351111,116 L80.7351111,114.944 C80.1591111,114.965333 79.6524444,114.954667 79.2151111,114.912 C78.7777778,114.869333 78.4044444,114.746667 78.0951111,114.544 C77.7857778,114.341333 77.5564444,114.048 77.4071111,113.664 C77.2577778,113.28 77.1831111,112.757333 77.1831111,112.096 L77.1831111,112.096 L77.1831111,100.608 L80.7671111,100.608 L80.7671111,99.552 L77.1831111,99.552 L77.1831111,94.432 L75.9671111,94.432 L75.9671111,99.552 L72.9271111,99.552 L72.9271111,100.608 L75.9671111,100.608 L75.9671111,112.096 C75.9244444,113.034667 76.0364444,113.770667 76.3031111,114.304 C76.5697778,114.837333 76.9271111,115.237333 77.3751111,115.504 C77.8231111,115.770667 78.3404444,115.930667 78.9271111,115.984 Z M89.5801481,116.384 C90.7961481,116.384 91.8734815,116.154667 92.8121481,115.696 C93.7508148,115.237333 94.5401481,114.618667 95.1801481,113.84 C95.8201481,113.061333 96.3054815,112.149333 96.6361481,111.104 C96.9668148,110.058667 97.1321481,108.949333 97.1321481,107.776 C97.1321481,106.602667 96.9668148,105.498667 96.6361481,104.464 C96.3054815,103.429333 95.8201481,102.517333 95.1801481,101.728 C94.5401481,100.938667 93.7508148,100.314667 92.8121481,99.856 C91.8734815,99.3973333 90.7961481,99.168 89.5801481,99.168 C88.3641481,99.168 87.2868148,99.3973333 86.3481481,99.856 C85.4094815,100.314667 84.6201481,100.938667 83.9801481,101.728 C83.3401481,102.517333 82.8548148,103.429333 82.5241481,104.464 C82.1934815,105.498667 82.0281481,106.602667 82.0281481,107.776 C82.0281481,108.949333 82.1934815,110.058667 82.5241481,111.104 C82.8548148,112.149333 83.3401481,113.061333 83.9801481,113.84 C84.6201481,114.618667 85.4094815,115.237333 86.3481481,115.696 C87.2868148,116.154667 88.3641481,116.384 89.5801481,116.384 Z M89.5801481,115.328 C88.5561481,115.328 87.6494815,115.12 86.8601481,114.704 C86.0708148,114.288 85.4094815,113.728 84.8761481,113.024 C84.3428148,112.32 83.9374815,111.514667 83.6601481,110.608 C83.3828148,109.701333 83.2441481,108.757333 83.2441481,107.776 C83.2441481,106.794667 83.3828148,105.850667 83.6601481,104.944 C83.9374815,104.037333 84.3428148,103.232 84.8761481,102.528 C85.4094815,101.824 86.0708148,101.264 86.8601481,100.848 C87.6494815,100.432 88.5561481,100.224 89.5801481,100.224 C90.6041481,100.224 91.5108148,100.432 92.3001481,100.848 C93.0894815,101.264 93.7508148,101.824 94.2841481,102.528 C94.8174815,103.232 95.2228148,104.037333 95.5001481,104.944 C95.7774815,105.850667 95.9161481,106.794667 95.9161481,107.776 C95.9161481,108.757333 95.7774815,109.701333 95.5001481,110.608 C95.2228148,111.514667 94.8174815,112.32 94.2841481,113.024 C93.7508148,113.728 93.0894815,114.288 92.3001481,114.704 C91.5108148,115.12 90.6041481,115.328 89.5801481,115.328 Z M101.721185,121.888 L101.721185,112.576 L101.785185,112.576 C102.275852,113.92 103.054519,114.890667 104.121185,115.488 C105.187852,116.085333 106.403852,116.384 107.769185,116.384 C109.027852,116.384 110.121185,116.170667 111.049185,115.744 C111.977185,115.317333 112.745185,114.725333 113.353185,113.968 C113.961185,113.210667 114.414519,112.309333 114.713185,111.264 C115.011852,110.218667 115.161185,109.066667 115.161185,107.808 C115.161185,106.656 115.011852,105.557333 114.713185,104.512 C114.414519,103.466667 113.961185,102.549333 113.353185,101.76 C112.745185,100.970667 111.977185,100.341333 111.049185,99.872 C110.121185,99.4026667 109.027852,99.168 107.769185,99.168 C106.873185,99.168 106.078519,99.3066667 105.385185,99.584 C104.691852,99.8613333 104.099852,100.208 103.609185,100.624 C103.118519,101.04 102.723852,101.493333 102.425185,101.984 C102.126519,102.474667 101.913185,102.922667 101.785185,103.328 L101.785185,103.328 L101.721185,103.328 L101.721185,99.552 L100.505185,99.552 L100.505185,121.888 L101.721185,121.888 Z M107.769185,115.328 C106.617185,115.328 105.651852,115.12 104.873185,114.704 C104.094519,114.288 103.475852,113.733333 103.017185,113.04 C102.558519,112.346667 102.233185,111.546667 102.041185,110.64 C101.849185,109.733333 101.753185,108.789333 101.753185,107.808 C101.753185,106.826667 101.859852,105.882667 102.073185,104.976 C102.286519,104.069333 102.633185,103.264 103.113185,102.56 C103.593185,101.856 104.217185,101.290667 104.985185,100.864 C105.753185,100.437333 106.681185,100.224 107.769185,100.224 C108.878519,100.224 109.822519,100.442667 110.601185,100.88 C111.379852,101.317333 112.014519,101.893333 112.505185,102.608 C112.995852,103.322667 113.358519,104.133333 113.593185,105.04 C113.827852,105.946667 113.945185,106.869333 113.945185,107.808 C113.945185,108.832 113.822519,109.797333 113.577185,110.704 C113.331852,111.610667 112.958519,112.405333 112.457185,113.088 C111.955852,113.770667 111.315852,114.314667 110.537185,114.72 C109.758519,115.125333 108.835852,115.328 107.769185,115.328 Z M135.187259,116.384 C135.763259,116.384 136.456593,116.282667 137.267259,116.08 C138.077926,115.877333 138.856593,115.461333 139.603259,114.832 C140.349926,114.202667 140.989926,113.296 141.523259,112.112 C142.056593,110.928 142.323259,109.354667 142.323259,107.392 C142.323259,106.24 142.179259,105.168 141.891259,104.176 C141.603259,103.184 141.160593,102.314667 140.563259,101.568 C139.965926,100.821333 139.224593,100.234667 138.339259,99.808 C137.453926,99.3813333 136.403259,99.168 135.187259,99.168 C134.504593,99.168 133.843259,99.248 133.203259,99.408 C132.563259,99.568 131.965926,99.8133333 131.411259,100.144 C130.856593,100.474667 130.365926,100.88 129.939259,101.36 C129.512593,101.84 129.181926,102.4 128.947259,103.04 L128.947259,103.04 L128.883259,103.04 L128.883259,93.152 L127.667259,93.152 L127.667259,116 L128.883259,116 L128.883259,112.32 L128.947259,112.32 C129.011259,112.533333 129.171259,112.864 129.427259,113.312 C129.683259,113.76 130.056593,114.213333 130.547259,114.672 C131.037926,115.130667 131.661926,115.530667 132.419259,115.872 C133.176593,116.213333 134.099259,116.384 135.187259,116.384 Z M135.187259,115.328 C134.056593,115.328 133.096593,115.104 132.307259,114.656 C131.517926,114.208 130.872593,113.616 130.371259,112.88 C129.869926,112.144 129.501926,111.296 129.267259,110.336 C129.032593,109.376 128.915259,108.394667 128.915259,107.392 C128.915259,106.368 129.043259,105.418667 129.299259,104.544 C129.555259,103.669333 129.939259,102.912 130.451259,102.272 C130.963259,101.632 131.613926,101.130667 132.403259,100.768 C133.192593,100.405333 134.120593,100.224 135.187259,100.224 C136.168593,100.224 137.027259,100.426667 137.763259,100.832 C138.499259,101.237333 139.117926,101.776 139.619259,102.448 C140.120593,103.12 140.493926,103.882667 140.739259,104.736 C140.984593,105.589333 141.107259,106.474667 141.107259,107.392 C141.107259,108.330667 141.000593,109.274667 140.787259,110.224 C140.573926,111.173333 140.232593,112.026667 139.763259,112.784 C139.293926,113.541333 138.685926,114.154667 137.939259,114.624 C137.192593,115.093333 136.275259,115.328 135.187259,115.328 Z M151.904296,116.384 C153.888296,116.384 155.482963,115.872 156.688296,114.848 C157.89363,113.824 158.67763,112.352 159.040296,110.432 L159.040296,110.432 L157.824296,110.432 C157.46163,111.968 156.800296,113.168 155.840296,114.032 C154.880296,114.896 153.578963,115.328 151.936296,115.328 C150.93363,115.328 150.05363,115.136 149.296296,114.752 C148.538963,114.368 147.90963,113.845333 147.408296,113.184 C146.906963,112.522667 146.528296,111.754667 146.272296,110.88 C146.016296,110.005333 145.888296,109.088 145.888296,108.128 L145.888296,108.128 L145.888296,107.936 L159.168296,107.936 C159.168296,107.850667 159.17363,107.738667 159.184296,107.6 C159.194963,107.461333 159.200296,107.338667 159.200296,107.232 C159.200296,106.122667 159.04563,105.082667 158.736296,104.112 C158.426963,103.141333 157.97363,102.288 157.376296,101.552 C156.778963,100.816 156.03763,100.234667 155.152296,99.808 C154.266963,99.3813333 153.248296,99.168 152.096296,99.168 C150.83763,99.168 149.744296,99.408 148.816296,99.888 C147.888296,100.368 147.114963,101.008 146.496296,101.808 C145.87763,102.608 145.41363,103.536 145.104296,104.592 C144.794963,105.648 144.640296,106.752 144.640296,107.904 C144.640296,109.098667 144.78963,110.213333 145.088296,111.248 C145.386963,112.282667 145.840296,113.178667 146.448296,113.936 C147.056296,114.693333 147.81363,115.290667 148.720296,115.728 C149.626963,116.165333 150.688296,116.384 151.904296,116.384 Z M157.952296,106.88 L145.920296,106.88 C145.984296,106.026667 146.154963,105.194667 146.432296,104.384 C146.70963,103.573333 147.104296,102.864 147.616296,102.256 C148.128296,101.648 148.75763,101.157333 149.504296,100.784 C150.250963,100.410667 151.114963,100.224 152.096296,100.224 C153.01363,100.224 153.82963,100.405333 154.544296,100.768 C155.258963,101.130667 155.866963,101.616 156.368296,102.224 C156.86963,102.832 157.248296,103.536 157.504296,104.336 C157.760296,105.136 157.90963,105.984 157.952296,106.88 L157.952296,106.88 Z M169.229333,110.208 C169.229333,109.269333 169.325333,108.464 169.517333,107.792 C169.709333,107.12 169.954667,106.538667 170.253333,106.048 C170.552,105.557333 170.888,105.136 171.261333,104.784 C171.634667,104.432 172.002667,104.096 172.365333,103.776 C172.728,103.434667 173.08,103.088 173.421333,102.736 C173.762667,102.384 174.066667,101.994667 174.333333,101.568 C174.6,101.141333 174.813333,100.666667 174.973333,100.144 C175.133333,99.6213333 175.213333,99.0186667 175.213333,98.336 C175.213333,97.376 175.048,96.5333333 174.717333,95.808 C174.386667,95.0826667 173.933333,94.4853333 173.357333,94.016 C172.781333,93.5466667 172.114667,93.1946667 171.357333,92.96 C170.6,92.7253333 169.794667,92.608 168.941333,92.608 C167.789333,92.608 166.770667,92.7893333 165.885333,93.152 C165,93.5146667 164.258667,94.032 163.661333,94.704 C163.064,95.376 162.610667,96.1813333 162.301333,97.12 C161.992,98.0586667 161.837333,99.0933333 161.837333,100.224 L161.837333,100.224 L163.053333,100.224 C163.053333,99.3066667 163.176,98.4586667 163.421333,97.68 C163.666667,96.9013333 164.029333,96.224 164.509333,95.648 C164.989333,95.072 165.592,94.624 166.317333,94.304 C167.042667,93.984 167.885333,93.824 168.845333,93.824 C169.506667,93.824 170.146667,93.9093333 170.765333,94.08 C171.384,94.2506667 171.933333,94.5226667 172.413333,94.896 C172.893333,95.2693333 173.277333,95.7386667 173.565333,96.304 C173.853333,96.8693333 173.997333,97.5466667 173.997333,98.336 C173.997333,98.8906667 173.906667,99.4133333 173.725333,99.904 C173.544,100.394667 173.304,100.853333 173.005333,101.28 C172.706667,101.706667 172.365333,102.117333 171.981333,102.512 C171.597333,102.906667 171.213333,103.285333 170.829333,103.648 C170.445333,104.010667 170.082667,104.4 169.741333,104.816 C169.4,105.232 169.101333,105.696 168.845333,106.208 C168.589333,106.72 168.386667,107.301333 168.237333,107.952 C168.088,108.602667 168.013333,109.354667 168.013333,110.208 L168.013333,110.208 L169.229333,110.208 Z M169.485333,116 L169.485333,112.704 L167.853333,112.704 L167.853333,116 L169.485333,116 Z" id="HowresistantshouldyourE-Stopbe?" fill="#FFFFFF" fill-rule="nonzero"></path>
            <path d="M26.616,39 L26.616,27.576 L24.104,27.576 L24.104,39 L26.616,39 Z M31.836,39 L31.836,34.904 L34.476,34.904 C35.1906667,34.904 35.7986667,34.8 36.3,34.592 C36.8013333,34.384 37.2093333,34.1093333 37.524,33.768 C37.8386667,33.4266667 38.068,33.0346667 38.212,32.592 C38.356,32.1493333 38.428,31.6986667 38.428,31.24 C38.428,30.7706667 38.356,30.3173333 38.212,29.88 C38.068,29.4426667 37.8386667,29.0533333 37.524,28.712 C37.2093333,28.3706667 36.8013333,28.096 36.3,27.888 C35.7986667,27.68 35.1906667,27.576 34.476,27.576 L29.324,27.576 L29.324,39 L31.836,39 Z M33.788,32.952 L31.836,32.952 L31.836,29.528 L33.788,29.528 C34.076,29.528 34.3533333,29.5493333 34.62,29.592 C34.8866667,29.6346667 35.1213333,29.7173333 35.324,29.84 C35.5266667,29.9626667 35.6893333,30.136 35.812,30.36 C35.9346667,30.584 35.996,30.8773333 35.996,31.24 C35.996,31.6026667 35.9346667,31.896 35.812,32.12 C35.6893333,32.344 35.5266667,32.5173333 35.324,32.64 C35.1213333,32.7626667 34.8866667,32.8453333 34.62,32.888 C34.3533333,32.9306667 34.076,32.952 33.788,32.952 Z M47.972,39 L47.972,32.248 L49.54,32.248 L49.54,30.728 L47.972,30.728 L47.972,30.232 C47.972,29.8906667 48.0386667,29.648 48.172,29.504 C48.3053333,29.36 48.5266667,29.288 48.836,29.288 C49.124,29.288 49.4013333,29.304 49.668,29.336 L49.668,27.64 C49.476,27.6293333 49.2786667,27.616 49.076,27.6 C48.8733333,27.584 48.6706667,27.576 48.468,27.576 C47.54,27.576 46.8466667,27.8106667 46.388,28.28 C45.9293333,28.7493333 45.7,29.352 45.7,30.088 L45.7,30.728 L44.34,30.728 L44.34,32.248 L45.7,32.248 L45.7,39 L47.972,39 Z M53.304,39 L53.304,35.272 C53.304,34.8986667 53.3413333,34.552 53.416,34.232 C53.4906667,33.912 53.616,33.632 53.792,33.392 C53.968,33.152 54.2,32.9626667 54.488,32.824 C54.776,32.6853333 55.128,32.616 55.544,32.616 C55.6826667,32.616 55.8266667,32.624 55.976,32.64 C56.1253333,32.656 56.2533333,32.6746667 56.36,32.696 L56.36,30.584 C56.1786667,30.5306667 56.0133333,30.504 55.864,30.504 C55.576,30.504 55.2986667,30.5466667 55.032,30.632 C54.7653333,30.7173333 54.5146667,30.8373333 54.28,30.992 C54.0453333,31.1466667 53.8373333,31.3333333 53.656,31.552 C53.4746667,31.7706667 53.3306667,32.008 53.224,32.264 L53.192,32.264 L53.192,30.728 L51.032,30.728 L51.032,39 L53.304,39 Z M61.484,39.208 C62.1346667,39.208 62.724,39.1066667 63.252,38.904 C63.78,38.7013333 64.2306667,38.4106667 64.604,38.032 C64.9773333,37.6533333 65.2653333,37.1973333 65.468,36.664 C65.6706667,36.1306667 65.772,35.5333333 65.772,34.872 C65.772,34.2106667 65.6706667,33.6106667 65.468,33.072 C65.2653333,32.5333333 64.9773333,32.0746667 64.604,31.696 C64.2306667,31.3173333 63.78,31.024 63.252,30.816 C62.724,30.608 62.1346667,30.504 61.484,30.504 C60.8333333,30.504 60.2466667,30.608 59.724,30.816 C59.2013333,31.024 58.7533333,31.3173333 58.38,31.696 C58.0066667,32.0746667 57.7186667,32.5333333 57.516,33.072 C57.3133333,33.6106667 57.212,34.2106667 57.212,34.872 C57.212,35.5333333 57.3133333,36.1306667 57.516,36.664 C57.7186667,37.1973333 58.0066667,37.6533333 58.38,38.032 C58.7533333,38.4106667 59.2013333,38.7013333 59.724,38.904 C60.2466667,39.1066667 60.8333333,39.208 61.484,39.208 Z M61.484,37.512 C61.1,37.512 60.78,37.4373333 60.524,37.288 C60.268,37.1386667 60.0626667,36.9386667 59.908,36.688 C59.7533333,36.4373333 59.644,36.1546667 59.58,35.84 C59.516,35.5253333 59.484,35.2026667 59.484,34.872 C59.484,34.5413333 59.516,34.216 59.58,33.896 C59.644,33.576 59.7533333,33.2933333 59.908,33.048 C60.0626667,32.8026667 60.268,32.6026667 60.524,32.448 C60.78,32.2933333 61.1,32.216 61.484,32.216 C61.868,32.216 62.1906667,32.2933333 62.452,32.448 C62.7133333,32.6026667 62.9213333,32.8026667 63.076,33.048 C63.2306667,33.2933333 63.34,33.576 63.404,33.896 C63.468,34.216 63.5,34.5413333 63.5,34.872 C63.5,35.2026667 63.468,35.5253333 63.404,35.84 C63.34,36.1546667 63.2306667,36.4373333 63.076,36.688 C62.9213333,36.9386667 62.7133333,37.1386667 62.452,37.288 C62.1906667,37.4373333 61.868,37.512 61.484,37.512 Z M70.016,39 L70.016,34.664 C70.016,33.8213333 70.1546667,33.216 70.432,32.848 C70.7093333,32.48 71.1573333,32.296 71.776,32.296 C72.32,32.296 72.6986667,32.464 72.912,32.8 C73.1253333,33.136 73.232,33.6453333 73.232,34.328 L73.232,39 L75.504,39 L75.504,33.912 C75.504,33.4 75.4586667,32.9333333 75.368,32.512 C75.2773333,32.0906667 75.12,31.7333333 74.896,31.44 C74.672,31.1466667 74.3653333,30.9173333 73.976,30.752 C73.5866667,30.5866667 73.088,30.504 72.48,30.504 C72,30.504 71.5306667,30.6133333 71.072,30.832 C70.6133333,31.0506667 70.24,31.4 69.952,31.88 L69.904,31.88 L69.904,30.728 L67.744,30.728 L67.744,39 L70.016,39 Z M80.948,39.08 C81.172,39.08 81.4013333,39.0746667 81.636,39.064 C81.8706667,39.0533333 82.084,39.032 82.276,39 L82.276,37.24 C82.1693333,37.2613333 82.0573333,37.2773333 81.94,37.288 C81.8226667,37.2986667 81.7,37.304 81.572,37.304 C81.188,37.304 80.932,37.24 80.804,37.112 C80.676,36.984 80.612,36.728 80.612,36.344 L80.612,32.248 L82.276,32.248 L82.276,30.728 L80.612,30.728 L80.612,28.248 L78.34,28.248 L78.34,30.728 L76.964,30.728 L76.964,32.248 L78.34,32.248 L78.34,37.128 C78.34,37.544 78.4093333,37.88 78.548,38.136 C78.6866667,38.392 78.876,38.5893333 79.116,38.728 C79.356,38.8666667 79.6333333,38.96 79.948,39.008 C80.2626667,39.056 80.596,39.08 80.948,39.08 Z M91.084,41.896 L91.084,37.976 L91.116,37.976 C91.3933333,38.3813333 91.748,38.688 92.18,38.896 C92.612,39.104 93.084,39.208 93.596,39.208 C94.204,39.208 94.7346667,39.0906667 95.188,38.856 C95.6413333,38.6213333 96.02,38.3066667 96.324,37.912 C96.628,37.5173333 96.8546667,37.064 97.004,36.552 C97.1533333,36.04 97.228,35.5066667 97.228,34.952 C97.228,34.3653333 97.1533333,33.8026667 97.004,33.264 C96.8546667,32.7253333 96.6253333,32.2533333 96.316,31.848 C96.0066667,31.4426667 95.6173333,31.1173333 95.148,30.872 C94.6786667,30.6266667 94.1186667,30.504 93.468,30.504 C92.956,30.504 92.4866667,30.6053333 92.06,30.808 C91.6333333,31.0106667 91.2813333,31.336 91.004,31.784 L90.972,31.784 L90.972,30.728 L88.812,30.728 L88.812,41.896 L91.084,41.896 Z M92.988,37.512 C92.6253333,37.512 92.316,37.4373333 92.06,37.288 C91.804,37.1386667 91.5986667,36.944 91.444,36.704 C91.2893333,36.464 91.1773333,36.184 91.108,35.864 C91.0386667,35.544 91.004,35.2186667 91.004,34.888 C91.004,34.5466667 91.036,34.216 91.1,33.896 C91.164,33.576 91.2733333,33.2933333 91.428,33.048 C91.5826667,32.8026667 91.7853333,32.6026667 92.036,32.448 C92.2866667,32.2933333 92.5986667,32.216 92.972,32.216 C93.3346667,32.216 93.6413333,32.2933333 93.892,32.448 C94.1426667,32.6026667 94.348,32.8053333 94.508,33.056 C94.668,33.3066667 94.7826667,33.592 94.852,33.912 C94.9213333,34.232 94.956,34.5573333 94.956,34.888 C94.956,35.2186667 94.924,35.544 94.86,35.864 C94.796,36.184 94.6866667,36.464 94.532,36.704 C94.3773333,36.944 94.1746667,37.1386667 93.924,37.288 C93.6733333,37.4373333 93.3613333,37.512 92.988,37.512 Z M101.36,39 L101.36,35.272 C101.36,34.8986667 101.397333,34.552 101.472,34.232 C101.546667,33.912 101.672,33.632 101.848,33.392 C102.024,33.152 102.256,32.9626667 102.544,32.824 C102.832,32.6853333 103.184,32.616 103.6,32.616 C103.738667,32.616 103.882667,32.624 104.032,32.64 C104.181333,32.656 104.309333,32.6746667 104.416,32.696 L104.416,30.584 C104.234667,30.5306667 104.069333,30.504 103.92,30.504 C103.632,30.504 103.354667,30.5466667 103.088,30.632 C102.821333,30.7173333 102.570667,30.8373333 102.336,30.992 C102.101333,31.1466667 101.893333,31.3333333 101.712,31.552 C101.530667,31.7706667 101.386667,32.008 101.28,32.264 L101.248,32.264 L101.248,30.728 L99.088,30.728 L99.088,39 L101.36,39 Z M109.54,39.208 C110.190667,39.208 110.78,39.1066667 111.308,38.904 C111.836,38.7013333 112.286667,38.4106667 112.66,38.032 C113.033333,37.6533333 113.321333,37.1973333 113.524,36.664 C113.726667,36.1306667 113.828,35.5333333 113.828,34.872 C113.828,34.2106667 113.726667,33.6106667 113.524,33.072 C113.321333,32.5333333 113.033333,32.0746667 112.66,31.696 C112.286667,31.3173333 111.836,31.024 111.308,30.816 C110.78,30.608 110.190667,30.504 109.54,30.504 C108.889333,30.504 108.302667,30.608 107.78,30.816 C107.257333,31.024 106.809333,31.3173333 106.436,31.696 C106.062667,32.0746667 105.774667,32.5333333 105.572,33.072 C105.369333,33.6106667 105.268,34.2106667 105.268,34.872 C105.268,35.5333333 105.369333,36.1306667 105.572,36.664 C105.774667,37.1973333 106.062667,37.6533333 106.436,38.032 C106.809333,38.4106667 107.257333,38.7013333 107.78,38.904 C108.302667,39.1066667 108.889333,39.208 109.54,39.208 Z M109.54,37.512 C109.156,37.512 108.836,37.4373333 108.58,37.288 C108.324,37.1386667 108.118667,36.9386667 107.964,36.688 C107.809333,36.4373333 107.7,36.1546667 107.636,35.84 C107.572,35.5253333 107.54,35.2026667 107.54,34.872 C107.54,34.5413333 107.572,34.216 107.636,33.896 C107.7,33.576 107.809333,33.2933333 107.964,33.048 C108.118667,32.8026667 108.324,32.6026667 108.58,32.448 C108.836,32.2933333 109.156,32.216 109.54,32.216 C109.924,32.216 110.246667,32.2933333 110.508,32.448 C110.769333,32.6026667 110.977333,32.8026667 111.132,33.048 C111.286667,33.2933333 111.396,33.576 111.46,33.896 C111.524,34.216 111.556,34.5413333 111.556,34.872 C111.556,35.2026667 111.524,35.5253333 111.46,35.84 C111.396,36.1546667 111.286667,36.4373333 111.132,36.688 C110.977333,36.9386667 110.769333,37.1386667 110.508,37.288 C110.246667,37.4373333 109.924,37.512 109.54,37.512 Z M119.016,39.08 C119.24,39.08 119.469333,39.0746667 119.704,39.064 C119.938667,39.0533333 120.152,39.032 120.344,39 L120.344,37.24 C120.237333,37.2613333 120.125333,37.2773333 120.008,37.288 C119.890667,37.2986667 119.768,37.304 119.64,37.304 C119.256,37.304 119,37.24 118.872,37.112 C118.744,36.984 118.68,36.728 118.68,36.344 L118.68,32.248 L120.344,32.248 L120.344,30.728 L118.68,30.728 L118.68,28.248 L116.408,28.248 L116.408,30.728 L115.032,30.728 L115.032,32.248 L116.408,32.248 L116.408,37.128 C116.408,37.544 116.477333,37.88 116.616,38.136 C116.754667,38.392 116.944,38.5893333 117.184,38.728 C117.424,38.8666667 117.701333,38.96 118.016,39.008 C118.330667,39.056 118.664,39.08 119.016,39.08 Z M125.756,39.208 C126.694667,39.208 127.494667,38.9946667 128.156,38.568 C128.817333,38.1413333 129.308,37.432 129.628,36.44 L127.628,36.44 C127.553333,36.696 127.350667,36.9386667 127.02,37.168 C126.689333,37.3973333 126.294667,37.512 125.836,37.512 C125.196,37.512 124.705333,37.3466667 124.364,37.016 C124.022667,36.6853333 123.836,36.152 123.804,35.416 L129.772,35.416 C129.814667,34.776 129.761333,34.1626667 129.612,33.576 C129.462667,32.9893333 129.22,32.4666667 128.884,32.008 C128.548,31.5493333 128.118667,31.184 127.596,30.912 C127.073333,30.64 126.46,30.504 125.756,30.504 C125.126667,30.504 124.553333,30.616 124.036,30.84 C123.518667,31.064 123.073333,31.3706667 122.7,31.76 C122.326667,32.1493333 122.038667,32.6106667 121.836,33.144 C121.633333,33.6773333 121.532,34.2533333 121.532,34.872 C121.532,35.512 121.630667,36.0986667 121.828,36.632 C122.025333,37.1653333 122.305333,37.624 122.668,38.008 C123.030667,38.392 123.473333,38.688 123.996,38.896 C124.518667,39.104 125.105333,39.208 125.756,39.208 Z M127.5,33.976 L123.804,33.976 C123.814667,33.816 123.849333,33.6346667 123.908,33.432 C123.966667,33.2293333 124.068,33.0373333 124.212,32.856 C124.356,32.6746667 124.548,32.5226667 124.788,32.4 C125.028,32.2773333 125.329333,32.216 125.692,32.216 C126.246667,32.216 126.66,32.3653333 126.932,32.664 C127.204,32.9626667 127.393333,33.4 127.5,33.976 Z M135.536,39.208 C136.634667,39.208 137.536,38.92 138.24,38.344 C138.944,37.768 139.370667,36.9306667 139.52,35.832 L137.328,35.832 C137.253333,36.344 137.069333,36.752 136.776,37.056 C136.482667,37.36 136.064,37.512 135.52,37.512 C135.168,37.512 134.869333,37.432 134.624,37.272 C134.378667,37.112 134.184,36.9066667 134.04,36.656 C133.896,36.4053333 133.792,36.1253333 133.728,35.816 C133.664,35.5066667 133.632,35.2026667 133.632,34.904 C133.632,34.5946667 133.664,34.2826667 133.728,33.968 C133.792,33.6533333 133.901333,33.3653333 134.056,33.104 C134.210667,32.8426667 134.410667,32.6293333 134.656,32.464 C134.901333,32.2986667 135.205333,32.216 135.568,32.216 C136.538667,32.216 137.098667,32.6906667 137.248,33.64 L139.472,33.64 C139.44,33.1066667 139.312,32.6453333 139.088,32.256 C138.864,31.8666667 138.573333,31.5413333 138.216,31.28 C137.858667,31.0186667 137.453333,30.824 137,30.696 C136.546667,30.568 136.074667,30.504 135.584,30.504 C134.912,30.504 134.314667,30.616 133.792,30.84 C133.269333,31.064 132.826667,31.376 132.464,31.776 C132.101333,32.176 131.826667,32.6506667 131.64,33.2 C131.453333,33.7493333 131.36,34.344 131.36,34.984 C131.36,35.6026667 131.461333,36.1706667 131.664,36.688 C131.866667,37.2053333 132.149333,37.6506667 132.512,38.024 C132.874667,38.3973333 133.314667,38.688 133.832,38.896 C134.349333,39.104 134.917333,39.208 135.536,39.208 Z M144.516,39.08 C144.74,39.08 144.969333,39.0746667 145.204,39.064 C145.438667,39.0533333 145.652,39.032 145.844,39 L145.844,37.24 C145.737333,37.2613333 145.625333,37.2773333 145.508,37.288 C145.390667,37.2986667 145.268,37.304 145.14,37.304 C144.756,37.304 144.5,37.24 144.372,37.112 C144.244,36.984 144.18,36.728 144.18,36.344 L144.18,32.248 L145.844,32.248 L145.844,30.728 L144.18,30.728 L144.18,28.248 L141.908,28.248 L141.908,30.728 L140.532,30.728 L140.532,32.248 L141.908,32.248 L141.908,37.128 C141.908,37.544 141.977333,37.88 142.116,38.136 C142.254667,38.392 142.444,38.5893333 142.684,38.728 C142.924,38.8666667 143.201333,38.96 143.516,39.008 C143.830667,39.056 144.164,39.08 144.516,39.08 Z M149.768,29.448 L149.768,27.576 L147.496,27.576 L147.496,29.448 L149.768,29.448 Z M149.768,39 L149.768,30.728 L147.496,30.728 L147.496,39 L149.768,39 Z M156.076,39.208 C156.726667,39.208 157.316,39.1066667 157.844,38.904 C158.372,38.7013333 158.822667,38.4106667 159.196,38.032 C159.569333,37.6533333 159.857333,37.1973333 160.06,36.664 C160.262667,36.1306667 160.364,35.5333333 160.364,34.872 C160.364,34.2106667 160.262667,33.6106667 160.06,33.072 C159.857333,32.5333333 159.569333,32.0746667 159.196,31.696 C158.822667,31.3173333 158.372,31.024 157.844,30.816 C157.316,30.608 156.726667,30.504 156.076,30.504 C155.425333,30.504 154.838667,30.608 154.316,30.816 C153.793333,31.024 153.345333,31.3173333 152.972,31.696 C152.598667,32.0746667 152.310667,32.5333333 152.108,33.072 C151.905333,33.6106667 151.804,34.2106667 151.804,34.872 C151.804,35.5333333 151.905333,36.1306667 152.108,36.664 C152.310667,37.1973333 152.598667,37.6533333 152.972,38.032 C153.345333,38.4106667 153.793333,38.7013333 154.316,38.904 C154.838667,39.1066667 155.425333,39.208 156.076,39.208 Z M156.076,37.512 C155.692,37.512 155.372,37.4373333 155.116,37.288 C154.86,37.1386667 154.654667,36.9386667 154.5,36.688 C154.345333,36.4373333 154.236,36.1546667 154.172,35.84 C154.108,35.5253333 154.076,35.2026667 154.076,34.872 C154.076,34.5413333 154.108,34.216 154.172,33.896 C154.236,33.576 154.345333,33.2933333 154.5,33.048 C154.654667,32.8026667 154.86,32.6026667 155.116,32.448 C155.372,32.2933333 155.692,32.216 156.076,32.216 C156.46,32.216 156.782667,32.2933333 157.044,32.448 C157.305333,32.6026667 157.513333,32.8026667 157.668,33.048 C157.822667,33.2933333 157.932,33.576 157.996,33.896 C158.06,34.216 158.092,34.5413333 158.092,34.872 C158.092,35.2026667 158.06,35.5253333 157.996,35.84 C157.932,36.1546667 157.822667,36.4373333 157.668,36.688 C157.513333,36.9386667 157.305333,37.1386667 157.044,37.288 C156.782667,37.4373333 156.46,37.512 156.076,37.512 Z M164.608,39 L164.608,34.664 C164.608,33.8213333 164.746667,33.216 165.024,32.848 C165.301333,32.48 165.749333,32.296 166.368,32.296 C166.912,32.296 167.290667,32.464 167.504,32.8 C167.717333,33.136 167.824,33.6453333 167.824,34.328 L167.824,39 L170.096,39 L170.096,33.912 C170.096,33.4 170.050667,32.9333333 169.96,32.512 C169.869333,32.0906667 169.712,31.7333333 169.488,31.44 C169.264,31.1466667 168.957333,30.9173333 168.568,30.752 C168.178667,30.5866667 167.68,30.504 167.072,30.504 C166.592,30.504 166.122667,30.6133333 165.664,30.832 C165.205333,31.0506667 164.832,31.4 164.544,31.88 L164.496,31.88 L164.496,30.728 L162.336,30.728 L162.336,39 L164.608,39 Z" id="IPfrontprotection" fill="#FFFFFF" fill-rule="nonzero"></path>
            <g id="Group-3" transform="translate(25.000000, 148.000000)">
                <rect id="Rectangle" fill-opacity="0.15" fill="#FFFFFF" x="0" y="0" width="355" height="40"></rect>
                <g id="Group-8" transform="translate(8.000000, 7.000000)">
                    <rect id="Rectangle" fill="#FFFFFF" opacity="0.649999976" x="0" y="0" width="63" height="27"></rect>
                    <path d="M12.712,18 L12.712,9.432 L10.828,9.432 L10.828,18 L12.712,18 Z M16.252,18 L16.252,14.928 L18.232,14.928 C18.768,14.928 19.224,14.85 19.6,14.694 C19.976,14.538 20.282,14.332 20.518,14.076 C20.754,13.82 20.926,13.526 21.034,13.194 C21.142,12.862 21.196,12.524 21.196,12.18 C21.196,11.828 21.142,11.488 21.034,11.16 C20.926,10.832 20.754,10.54 20.518,10.284 C20.282,10.028 19.976,9.822 19.6,9.666 C19.224,9.51 18.768,9.432 18.232,9.432 L14.368,9.432 L14.368,18 L16.252,18 Z M17.716,13.464 L16.252,13.464 L16.252,10.896 L17.716,10.896 C17.932,10.896 18.14,10.912 18.34,10.944 C18.54,10.976 18.716,11.038 18.868,11.13 C19.02,11.222 19.142,11.352 19.234,11.52 C19.326,11.688 19.372,11.908 19.372,12.18 C19.372,12.452 19.326,12.672 19.234,12.84 C19.142,13.008 19.02,13.138 18.868,13.23 C18.716,13.322 18.54,13.384 18.34,13.416 C18.14,13.448 17.932,13.464 17.716,13.464 Z M25.024,18.156 C25.464,18.156 25.864,18.078 26.224,17.922 C26.584,17.766 26.894,17.55 27.154,17.274 C27.414,16.998 27.614,16.674 27.754,16.302 C27.894,15.93 27.964,15.528 27.964,15.096 C27.964,14.76 27.912,14.428 27.808,14.1 C27.704,13.772 27.54,13.48 27.316,13.224 C27.076,12.96 26.784,12.75 26.44,12.594 C26.096,12.438 25.744,12.36 25.384,12.36 C24.976,12.36 24.616,12.432 24.304,12.576 C23.992,12.72 23.72,12.96 23.488,13.296 L23.464,13.272 C23.472,13.04 23.504,12.776 23.56,12.48 C23.616,12.184 23.704,11.906 23.824,11.646 C23.944,11.386 24.106,11.166 24.31,10.986 C24.514,10.806 24.768,10.716 25.072,10.716 C25.368,10.716 25.616,10.82 25.816,11.028 C26.016,11.236 26.144,11.48 26.2,11.76 L27.82,11.76 C27.772,11.384 27.672,11.052 27.52,10.764 C27.368,10.476 27.172,10.234 26.932,10.038 C26.692,9.842 26.416,9.692 26.104,9.588 C25.792,9.484 25.456,9.432 25.096,9.432 C24.496,9.432 23.988,9.564 23.572,9.828 C23.156,10.092 22.816,10.434 22.552,10.854 C22.288,11.274 22.096,11.744 21.976,12.264 C21.856,12.784 21.796,13.304 21.796,13.824 C21.796,14.36 21.844,14.886 21.94,15.402 C22.036,15.918 22.208,16.38 22.456,16.788 C22.704,17.196 23.036,17.526 23.452,17.778 C23.868,18.03 24.392,18.156 25.024,18.156 Z M24.976,16.764 C24.76,16.764 24.568,16.72 24.4,16.632 C24.232,16.544 24.09,16.426 23.974,16.278 C23.858,16.13 23.77,15.962 23.71,15.774 C23.65,15.586 23.62,15.396 23.62,15.204 C23.62,14.996 23.648,14.798 23.704,14.61 C23.76,14.422 23.844,14.256 23.956,14.112 C24.068,13.968 24.21,13.854 24.382,13.77 C24.554,13.686 24.752,13.644 24.976,13.644 C25.192,13.644 25.382,13.69 25.546,13.782 C25.71,13.874 25.844,13.994 25.948,14.142 C26.052,14.29 26.13,14.458 26.182,14.646 C26.234,14.834 26.26,15.028 26.26,15.228 C26.26,15.42 26.232,15.608 26.176,15.792 C26.12,15.976 26.036,16.14 25.924,16.284 C25.812,16.428 25.678,16.544 25.522,16.632 C25.366,16.72 25.184,16.764 24.976,16.764 Z M31.696,18.156 C32.136,18.156 32.536,18.078 32.896,17.922 C33.256,17.766 33.566,17.55 33.826,17.274 C34.086,16.998 34.286,16.674 34.426,16.302 C34.566,15.93 34.636,15.528 34.636,15.096 C34.636,14.76 34.584,14.428 34.48,14.1 C34.376,13.772 34.212,13.48 33.988,13.224 C33.748,12.96 33.456,12.75 33.112,12.594 C32.768,12.438 32.416,12.36 32.056,12.36 C31.648,12.36 31.288,12.432 30.976,12.576 C30.664,12.72 30.392,12.96 30.16,13.296 L30.136,13.272 C30.144,13.04 30.176,12.776 30.232,12.48 C30.288,12.184 30.376,11.906 30.496,11.646 C30.616,11.386 30.778,11.166 30.982,10.986 C31.186,10.806 31.44,10.716 31.744,10.716 C32.04,10.716 32.288,10.82 32.488,11.028 C32.688,11.236 32.816,11.48 32.872,11.76 L34.492,11.76 C34.444,11.384 34.344,11.052 34.192,10.764 C34.04,10.476 33.844,10.234 33.604,10.038 C33.364,9.842 33.088,9.692 32.776,9.588 C32.464,9.484 32.128,9.432 31.768,9.432 C31.168,9.432 30.66,9.564 30.244,9.828 C29.828,10.092 29.488,10.434 29.224,10.854 C28.96,11.274 28.768,11.744 28.648,12.264 C28.528,12.784 28.468,13.304 28.468,13.824 C28.468,14.36 28.516,14.886 28.612,15.402 C28.708,15.918 28.88,16.38 29.128,16.788 C29.376,17.196 29.708,17.526 30.124,17.778 C30.54,18.03 31.064,18.156 31.696,18.156 Z M31.648,16.764 C31.432,16.764 31.24,16.72 31.072,16.632 C30.904,16.544 30.762,16.426 30.646,16.278 C30.53,16.13 30.442,15.962 30.382,15.774 C30.322,15.586 30.292,15.396 30.292,15.204 C30.292,14.996 30.32,14.798 30.376,14.61 C30.432,14.422 30.516,14.256 30.628,14.112 C30.74,13.968 30.882,13.854 31.054,13.77 C31.226,13.686 31.424,13.644 31.648,13.644 C31.864,13.644 32.054,13.69 32.218,13.782 C32.382,13.874 32.516,13.994 32.62,14.142 C32.724,14.29 32.802,14.458 32.854,14.646 C32.906,14.834 32.932,15.028 32.932,15.228 C32.932,15.42 32.904,15.608 32.848,15.792 C32.792,15.976 32.708,16.14 32.596,16.284 C32.484,16.428 32.35,16.544 32.194,16.632 C32.038,16.72 31.856,16.764 31.648,16.764 Z" id="IP66" fill="#000000" fill-rule="nonzero"></path>
                    <g id="Group-6" transform="translate(45.000000, 9.000000)" fill="#E32013">
                        <polygon id="Rectangle" points="8.48528137 2.55140025e-16 9.19238816 0.707106781 0.707106781 9.19238816 0 8.48528137"></polygon>
                        <polygon id="Rectangle" points="8.48528137 9.19238816 9.19238816 8.48528137 0.707106781 -1.33226763e-13 -1.27897692e-13 0.707106781"></polygon>
                    </g>
                </g>
                <g id="Group-8" transform="translate(79.000000, 7.000000)">
                    <rect id="Rectangle" fill="#FFFFFF" opacity="0.649999976" x="0" y="0" width="63" height="27"></rect>
                    <path d="M12.712,18 L12.712,9.432 L10.828,9.432 L10.828,18 L12.712,18 Z M16.252,18 L16.252,14.928 L18.232,14.928 C18.768,14.928 19.224,14.85 19.6,14.694 C19.976,14.538 20.282,14.332 20.518,14.076 C20.754,13.82 20.926,13.526 21.034,13.194 C21.142,12.862 21.196,12.524 21.196,12.18 C21.196,11.828 21.142,11.488 21.034,11.16 C20.926,10.832 20.754,10.54 20.518,10.284 C20.282,10.028 19.976,9.822 19.6,9.666 C19.224,9.51 18.768,9.432 18.232,9.432 L14.368,9.432 L14.368,18 L16.252,18 Z M17.716,13.464 L16.252,13.464 L16.252,10.896 L17.716,10.896 C17.932,10.896 18.14,10.912 18.34,10.944 C18.54,10.976 18.716,11.038 18.868,11.13 C19.02,11.222 19.142,11.352 19.234,11.52 C19.326,11.688 19.372,11.908 19.372,12.18 C19.372,12.452 19.326,12.672 19.234,12.84 C19.142,13.008 19.02,13.138 18.868,13.23 C18.716,13.322 18.54,13.384 18.34,13.416 C18.14,13.448 17.932,13.464 17.716,13.464 Z M25.024,18.156 C25.464,18.156 25.864,18.078 26.224,17.922 C26.584,17.766 26.894,17.55 27.154,17.274 C27.414,16.998 27.614,16.674 27.754,16.302 C27.894,15.93 27.964,15.528 27.964,15.096 C27.964,14.76 27.912,14.428 27.808,14.1 C27.704,13.772 27.54,13.48 27.316,13.224 C27.076,12.96 26.784,12.75 26.44,12.594 C26.096,12.438 25.744,12.36 25.384,12.36 C24.976,12.36 24.616,12.432 24.304,12.576 C23.992,12.72 23.72,12.96 23.488,13.296 L23.464,13.272 C23.472,13.04 23.504,12.776 23.56,12.48 C23.616,12.184 23.704,11.906 23.824,11.646 C23.944,11.386 24.106,11.166 24.31,10.986 C24.514,10.806 24.768,10.716 25.072,10.716 C25.368,10.716 25.616,10.82 25.816,11.028 C26.016,11.236 26.144,11.48 26.2,11.76 L27.82,11.76 C27.772,11.384 27.672,11.052 27.52,10.764 C27.368,10.476 27.172,10.234 26.932,10.038 C26.692,9.842 26.416,9.692 26.104,9.588 C25.792,9.484 25.456,9.432 25.096,9.432 C24.496,9.432 23.988,9.564 23.572,9.828 C23.156,10.092 22.816,10.434 22.552,10.854 C22.288,11.274 22.096,11.744 21.976,12.264 C21.856,12.784 21.796,13.304 21.796,13.824 C21.796,14.36 21.844,14.886 21.94,15.402 C22.036,15.918 22.208,16.38 22.456,16.788 C22.704,17.196 23.036,17.526 23.452,17.778 C23.868,18.03 24.392,18.156 25.024,18.156 Z M24.976,16.764 C24.76,16.764 24.568,16.72 24.4,16.632 C24.232,16.544 24.09,16.426 23.974,16.278 C23.858,16.13 23.77,15.962 23.71,15.774 C23.65,15.586 23.62,15.396 23.62,15.204 C23.62,14.996 23.648,14.798 23.704,14.61 C23.76,14.422 23.844,14.256 23.956,14.112 C24.068,13.968 24.21,13.854 24.382,13.77 C24.554,13.686 24.752,13.644 24.976,13.644 C25.192,13.644 25.382,13.69 25.546,13.782 C25.71,13.874 25.844,13.994 25.948,14.142 C26.052,14.29 26.13,14.458 26.182,14.646 C26.234,14.834 26.26,15.028 26.26,15.228 C26.26,15.42 26.232,15.608 26.176,15.792 C26.12,15.976 26.036,16.14 25.924,16.284 C25.812,16.428 25.678,16.544 25.522,16.632 C25.366,16.72 25.184,16.764 24.976,16.764 Z M31.672,18 C31.68,17.44 31.746,16.836 31.87,16.188 C31.994,15.54 32.17,14.9 32.398,14.268 C32.626,13.636 32.91,13.04 33.25,12.48 C33.59,11.92 33.98,11.448 34.42,11.064 L34.42,9.6 L28.684,9.6 L28.684,11.184 L32.668,11.184 C31.868,12.152 31.222,13.216 30.73,14.376 C30.238,15.536 29.944,16.744 29.848,18 L31.672,18 Z" id="IP67" fill="#000000" fill-rule="nonzero"></path>
                    <g id="Group-6" transform="translate(45.000000, 9.000000)" fill="#E32013">
                        <polygon id="Rectangle" points="8.48528137 2.55140025e-16 9.19238816 0.707106781 0.707106781 9.19238816 0 8.48528137"></polygon>
                        <polygon id="Rectangle" points="8.48528137 9.19238816 9.19238816 8.48528137 0.707106781 -1.33226763e-13 -1.27897692e-13 0.707106781"></polygon>
                    </g>
                </g>
                <g id="Group-9" transform="translate(325.000000, 16.000000)" fill="#FFFFFF">
                    <rect id="Rectangle" transform="translate(4.500000, 4.000000) scale(1, -1) rotate(45.000000) translate(-4.500000, -4.000000) " x="4" y="-1" width="1" height="10"></rect>
                    <rect id="Rectangle" transform="translate(11.378680, 4.000000) rotate(45.000000) translate(-11.378680, -4.000000) " x="10.8786797" y="-1" width="1" height="10"></rect>
                </g>
            </g>
        </g>
    </g>
</svg>