<?xml version="1.0" encoding="UTF-8"?>
<svg width="700px" height="400px" viewBox="0 0 700 400" version="1.1" xmlns="http://www.w3.org/2000/svg" xmlns:xlink="http://www.w3.org/1999/xlink">
    <!-- Generator: Sketch 63.1 (92452) - https://sketch.com -->
    <title>pom_logo_02</title>
    <desc>Created with Sketch.</desc>
    <g id="pom_logo_02" stroke="none" stroke-width="1" fill="none" fill-rule="evenodd">
        <rect fill="#FFFFFF" x="0" y="0" width="700" height="400"></rect>
        <g id="pomplus" transform="translate(116.369595, 153.265372)" fill-rule="nonzero">
            <path d="M12.7585291,95.5358655 L12.7585291,69.1001933 C17.0453948,73.9994685 22.8632841,76.4491061 30.2121968,76.4491061 C35.5197449,76.4491061 40.2659177,75.2923328 44.4507152,72.9787862 C48.6355127,70.6652396 51.9187076,67.3820448 54.3002996,63.1292017 C56.6818917,58.8763587 57.8726878,53.9940949 57.8726878,48.4824104 C57.8726878,42.9707258 56.6818917,38.1054734 54.3002996,33.8866532 C51.9187076,29.6678329 48.6355127,26.4016494 44.4507152,24.0881028 C40.2659177,21.7745562 35.5197449,20.6177829 30.2121968,20.6177829 C26.4696949,20.6177829 23.0504092,21.2642151 19.9543394,22.5570794 C16.8582697,23.8499436 14.2555298,25.7892401 12.1461197,28.3749686 L12.1461197,28.3749686 L12.1461197,21.2301923 L0,21.2301923 L0,95.5358655 L12.7585291,95.5358655 Z M28.7832415,65.5278052 C25.7211946,65.5278052 22.9653523,64.830339 20.5157147,63.4354064 C18.0660771,62.0404739 16.1267807,60.0501434 14.6978255,57.4644148 C13.2688702,54.8786863 12.5543926,51.8846848 12.5543926,48.4824104 C12.5543926,45.080136 13.2688702,42.0861345 14.6978255,39.5004059 C16.1267807,36.9146774 18.0660771,34.9243469 20.5157147,33.5294143 C22.9653523,32.1344818 25.7211946,31.4370156 28.7832415,31.4370156 C33.4783802,31.4370156 37.3399617,33.0020618 40.3679859,36.1321543 C43.3960101,39.2622467 44.9100223,43.3789988 44.9100223,48.4824104 C44.9100223,53.585822 43.3960101,57.7025741 40.3679859,60.8326665 C37.3399617,63.962759 33.4783802,65.5278052 28.7832415,65.5278052 Z M94.5151832,76.4491061 C100.094913,76.4491061 105.096257,75.25831 109.519213,72.8767179 C113.94217,70.4951259 117.395479,67.1779083 119.879139,62.9250653 C122.362799,58.6722223 123.604629,53.858004 123.604629,48.4824104 C123.604629,43.1068168 122.362799,38.3096099 119.879139,34.0907896 C117.395479,29.8719694 113.94217,26.5717632 109.519213,24.1901711 C105.096257,21.808579 100.094913,20.6177829 94.5151832,20.6177829 C89.0034987,20.6177829 84.036178,21.808579 79.6132213,24.1901711 C75.1902645,26.5717632 71.736956,29.8719694 69.2532957,34.0907896 C66.7696354,38.3096099 65.5278052,43.1068168 65.5278052,48.4824104 C65.5278052,53.858004 66.7696354,58.6722223 69.2532957,62.9250653 C71.736956,67.1779083 75.1902645,70.4951259 79.6132213,72.8767179 C84.036178,75.25831 89.0034987,76.4491061 94.5151832,76.4491061 Z M94.5151832,65.5278052 C89.8200445,65.5278052 85.9584631,63.962759 82.9304388,60.8326665 C79.9024146,57.7025741 78.3884025,53.585822 78.3884025,48.4824104 C78.3884025,43.3789988 79.9024146,39.2622467 82.9304388,36.1321543 C85.9584631,33.0020618 89.8200445,31.4370156 94.5151832,31.4370156 C99.2103219,31.4370156 103.088915,33.0020618 106.150962,36.1321543 C109.213009,39.2622467 110.744032,43.3789988 110.744032,48.4824104 C110.744032,53.585822 109.213009,57.7025741 106.150962,60.8326665 C103.088915,63.962759 99.2103219,65.5278052 94.5151832,65.5278052 Z M148.611346,75.7346284 L148.611346,48.0741375 C148.611346,42.7665894 149.887199,38.7178828 152.438905,35.9280178 C154.990611,33.1381528 158.443919,31.7432203 162.798831,31.7432203 C166.745469,31.7432203 169.773493,32.9510277 171.882903,35.3666425 C173.992314,37.7822574 175.047019,41.3716569 175.047019,46.134841 L175.047019,46.134841 L175.047019,75.7346284 L187.805548,75.7346284 L187.805548,48.0741375 C187.805548,42.8346349 189.098412,38.8029397 191.68414,35.9790519 C194.269869,33.1551642 197.706166,31.7432203 201.993032,31.7432203 C205.93967,31.7432203 208.967694,32.9510277 211.077105,35.3666425 C213.186515,37.7822574 214.24122,41.3716569 214.24122,46.134841 L214.24122,46.134841 L214.24122,75.7346284 L226.999749,75.7346284 L226.999749,44.5017493 C226.999749,36.5404272 224.992407,30.5694356 220.977723,26.5887745 C216.963039,22.6081135 211.5194,20.6177829 204.646806,20.6177829 C200.35994,20.6177829 196.447325,21.4173174 192.908959,23.0163864 C189.370594,24.6154554 186.478661,26.8439451 184.233159,29.7018556 C182.395931,26.7078541 179.89526,24.4453417 176.731144,22.9143182 C173.567029,21.3832947 169.943607,20.6177829 165.860878,20.6177829 C162.118376,20.6177829 158.716101,21.2642151 155.654054,22.5570794 C152.592007,23.8499436 150.040302,25.7211946 147.998937,28.1708321 L147.998937,28.1708321 L147.998937,21.2301923 L135.852817,21.2301923 L135.852817,75.7346284 L148.611346,75.7346284 Z" id="pom" fill="#000000"></path>
            <path d="M256.089195,95.5358655 L256.089195,69.1001933 C260.376061,73.9994685 266.19395,76.4491061 273.542863,76.4491061 C278.850411,76.4491061 283.596584,75.2923328 287.781381,72.9787862 C291.966179,70.6652396 295.249374,67.3820448 297.630966,63.1292017 C300.012558,58.8763587 301.203354,53.9940949 301.203354,48.4824104 C301.203354,42.9707258 300.012558,38.1054734 297.630966,33.8866532 C295.249374,29.6678329 291.966179,26.4016494 287.781381,24.0881028 C283.596584,21.7745562 278.850411,20.6177829 273.542863,20.6177829 C269.800361,20.6177829 266.381075,21.2642151 263.285006,22.5570794 C260.188936,23.8499436 257.586196,25.7892401 255.476786,28.3749686 L255.476786,28.3749686 L255.476786,21.2301923 L243.330666,21.2301923 L243.330666,95.5358655 L256.089195,95.5358655 Z M272.113908,65.5278052 C269.051861,65.5278052 266.296018,64.830339 263.846381,63.4354064 C261.396743,62.0404739 259.457447,60.0501434 258.028492,57.4644148 C256.599536,54.8786863 255.885059,51.8846848 255.885059,48.4824104 C255.885059,45.080136 256.599536,42.0861345 258.028492,39.5004059 C259.457447,36.9146774 261.396743,34.9243469 263.846381,33.5294143 C266.296018,32.1344818 269.051861,31.4370156 272.113908,31.4370156 C276.809046,31.4370156 280.670628,33.0020618 283.698652,36.1321543 C286.726676,39.2622467 288.240688,43.3789988 288.240688,48.4824104 C288.240688,53.585822 286.726676,57.7025741 283.698652,60.8326665 C280.670628,63.962759 276.809046,65.5278052 272.113908,65.5278052 Z M326.108003,75.7346284 L326.108003,-2.55795385e-13 L313.349473,-2.55795385e-13 L313.349473,75.7346284 L326.108003,75.7346284 Z M365.914613,76.4491061 C369.452979,76.4491061 372.753185,75.7856626 375.815232,74.4587755 C378.877279,73.1318885 381.428985,71.2436262 383.470349,68.7939886 L383.470349,68.7939886 L383.470349,75.7346284 L395.616469,75.7346284 L395.616469,21.2301923 L382.85794,21.2301923 L382.85794,48.7886151 C382.85794,54.0961632 381.514041,58.1618811 378.826245,60.9857689 C376.138448,63.8096566 372.515026,65.2216005 367.955978,65.2216005 C363.873249,65.2216005 360.726145,64.0137931 358.514666,61.5981783 C356.303188,59.1825634 355.197449,55.5251184 355.197449,50.6258433 L355.197449,50.6258433 L355.197449,21.2301923 L342.43892,21.2301923 L342.43892,52.3610032 C342.43892,60.3223254 344.531318,66.3273397 348.716116,70.3760462 C352.900914,74.4247528 358.633746,76.4491061 365.914613,76.4491061 Z M429.196917,76.4491061 C436.818012,76.4491061 442.840038,74.9180826 447.262994,71.8560356 C451.685951,68.7939886 453.89743,64.7112593 453.89743,59.6078477 C453.89743,55.7292549 452.893759,52.7352534 450.886417,50.6258433 C448.879075,48.5164331 446.480471,47.0194324 443.690606,46.134841 C440.900741,45.2502497 437.328353,44.4677266 432.973442,43.7872717 C428.618531,43.0387713 425.403381,42.2392368 423.327994,41.3886682 C421.252607,40.5380996 420.214913,39.092133 420.214913,37.0507684 C420.214913,35.2135402 421.184561,33.7335508 423.123857,32.6108003 C425.063154,31.4880497 427.904053,30.9266744 431.646555,30.9266744 C437.430421,30.9266744 442.635901,32.2875842 447.262994,35.0094037 L447.262994,35.0094037 L452.16227,25.3129216 C449.780677,23.8839664 446.718631,22.7442045 442.976129,21.8936359 C439.233627,21.0430672 435.491125,20.6177829 431.748623,20.6177829 C424.39971,20.6177829 418.56481,22.1658178 414.243921,25.2618875 C409.923033,28.3579572 407.762588,32.4917207 407.762588,37.6631778 C407.762588,41.6098161 408.800282,44.6888744 410.87567,46.9003528 C412.951057,49.1118312 415.400695,50.659866 418.224582,51.5444574 C421.04847,52.4290487 424.705915,53.2115718 429.196917,53.8920267 C433.483783,54.5724816 436.596864,55.2869592 438.536161,56.0354596 C440.475457,56.78396 441.445105,58.110847 441.445105,60.0161207 C441.445105,64.0308045 437.634558,66.0381464 430.013463,66.0381464 C426.679234,66.0381464 423.293971,65.5448166 419.857674,64.558157 C416.421377,63.5714974 413.478409,62.2616218 411.028772,60.6285301 L411.028772,60.6285301 L406.129497,70.3250121 C408.64718,72.0941948 412.015431,73.5571728 416.234252,74.7139461 C420.453072,75.8707194 424.773961,76.4491061 429.196917,76.4491061 Z" id="plus" fill="#13D96B"></path>
        </g>
    </g>
</svg>