<?xml version="1.0" encoding="UTF-8"?>
<svg width="700px" height="400px" viewBox="0 0 700 400" version="1.1" xmlns="http://www.w3.org/2000/svg" xmlns:xlink="http://www.w3.org/1999/xlink">
    <!-- Generator: Sketch 63.1 (92452) - https://sketch.com -->
    <title>pom_logo_03</title>
    <desc>Created with Sketch.</desc>
    <defs>
        <linearGradient x1="0.533085106%" y1="54.6277116%" x2="99.4053723%" y2="45.366197%" id="linearGradient-1">
            <stop stop-color="#46E7D7" offset="0%"></stop>
            <stop stop-color="#31E1AA" offset="21.81%"></stop>
            <stop stop-color="#21DD88" offset="42.11%"></stop>
            <stop stop-color="#17DA73" offset="58.77%"></stop>
            <stop stop-color="#13D96B" offset="69.72%"></stop>
        </linearGradient>
    </defs>
    <g id="pom_logo_03" stroke="none" stroke-width="1" fill="none" fill-rule="evenodd">
        <rect fill="#FFFFFF" x="0" y="0" width="700" height="400"></rect>
        <g id="Group" transform="translate(171.000000, 144.000000)" fill-rule="nonzero">
            <polygon id="Path" fill="url(#linearGradient-1)" points="0 109 341.81383 109 359 0 17.1861702 0"></polygon>
            <path d="M76.307391,27 C93.4753959,27 102.059398,42.0681818 99.5795753,58.2954545 C97.290508,73.1704545 85.6544159,87.4659091 68.2956555,87.4659091 C58.9486306,87.4659091 53.416718,83.4090909 50.3646282,78.5795455 L45.2142268,112 L29,112 L41.9713814,28.9318182 L56.4688077,28.9318182 L55.1335184,37.4318182 C59.3301418,31.25 66.578855,27 76.307391,27 Z M71.5385008,40.7159091 C63.9082765,40.7159091 57.804097,45.7386364 54.5612516,50.7613636 L52.4629399,64.2840909 C53.7982292,69.1136364 58.3763638,73.1704545 65.0528101,73.1704545 C74.7813462,73.1704545 81.8393037,65.8295455 83.3653486,56.3636364 C84.5098822,48.25 80.5040144,40.7159091 71.5385008,40.7159091 Z" id="Shape" fill="#FFFFFF"></path>
            <path d="M141.924553,85 C124.998475,85 111.185239,73.8817891 114.492633,53.5623003 C117.605475,34.3929712 133.947895,25 150.290315,25 C166.24363,25 180.835076,36.1182109 177.527682,56.4376997 C174.41484,75.6070288 157.294209,85 141.924553,85 Z M143.286421,70.4313099 C152.819499,70.4313099 159.434288,64.1054313 160.990709,54.9041534 C162.158025,46.6613419 158.266973,39.7603834 148.928447,39.7603834 C139.395369,39.7603834 132.586027,46.086262 131.029606,55.2875399 C129.667738,63.5303514 133.55879,70.4313099 143.286421,70.4313099 Z" id="Shape" fill="#FFFFFF"></path>
            <path d="M263.640945,26 C279.045205,26 283.229078,38.8250825 281.707669,48.7788779 L276.002388,84 L259.837424,84 L265.542706,48.3960396 C266.30341,42.8448845 263.260593,39.9735974 258.316016,39.9735974 C253.371439,39.9735974 248.807214,43.2277228 245.954573,46.0990099 C245.954573,47.0561056 245.764397,47.8217822 245.764397,48.7788779 L240.059116,84 L223.894152,84 L229.599434,48.3960396 C230.360138,42.8448845 227.317321,39.9735974 222.372744,39.9735974 C216.857639,39.9735974 211.722886,43.9933993 208.870245,47.4389439 L203.164964,84 L187,84 L195.938274,27.5313531 L210.201477,27.5313531 L209.060421,34.4224422 C212.863942,30.4026403 220.280807,26 228.458377,26 C236.445771,26 241.200172,29.2541254 243.862637,34.2310231 C249.187566,29.6369637 256.22408,26 263.640945,26 Z" id="Path" fill="#FFFFFF"></path>
            <polygon id="Path" fill="#FFFFFF" points="351.495017 62.0726644 330.684385 62.0726644 327.408638 83 313.534884 83 316.810631 62.0726644 296 62.0726644 298.312292 47.9273356 319.122924 47.9273356 322.398671 27 336.465116 27 333.189369 47.9273356 354 47.9273356"></polygon>
        </g>
    </g>
</svg>