<?xml version="1.0" encoding="UTF-8"?>
<svg width="700px" height="400px" viewBox="0 0 700 400" version="1.1" xmlns="http://www.w3.org/2000/svg" xmlns:xlink="http://www.w3.org/1999/xlink">
    <!-- Generator: Sketch 63.1 (92452) - https://sketch.com -->
    <title>pom_logo_05</title>
    <desc>Created with Sketch.</desc>
    <defs>
        <linearGradient x1="-0.0233183857%" y1="50.1239583%" x2="99.9632287%" y2="50.1239583%" id="linearGradient-1">
            <stop stop-color="#46E7D7" offset="0%"></stop>
            <stop stop-color="#31E1AA" offset="21.81%"></stop>
            <stop stop-color="#21DD88" offset="42.11%"></stop>
            <stop stop-color="#17DA73" offset="58.77%"></stop>
            <stop stop-color="#13D96B" offset="69.72%"></stop>
        </linearGradient>
    </defs>
    <g id="pom_logo_05" stroke="none" stroke-width="1" fill="none" fill-rule="evenodd">
        <rect fill="#FFFFFF" x="0" y="0" width="700" height="400"></rect>
        <g id="Group" transform="translate(153.000000, 163.000000)" fill-rule="nonzero">
            <polygon id="Path" fill="url(#linearGradient-1)" points="374.573991 67 310 67 320.089686 2 385 2"></polygon>
            <path d="M56.8174432,0 C77.1093872,0 86.240762,18.1258741 83.5351695,35.5804196 C81.167776,51.3566434 69.3308087,68.4755245 48.0242675,68.4755245 C38.5546936,68.4755245 32.4671104,64.7832168 28.7469207,60.0839161 L22.9975365,96 L0,96 L14.8807589,2.01398601 L35.1727029,2.01398601 L33.8199067,10.4055944 C38.2164945,5.03496503 45.9950731,0 56.8174432,0 Z M49.3770637,18.7972028 C42.6130824,18.7972028 36.8636983,23.4965035 33.8199067,27.5244755 L31.4525132,42.2937063 C32.8053095,46.3216783 36.5254992,49.6783217 42.2748833,49.6783217 C52.4208553,49.6783217 58.5084386,41.6223776 59.8612348,33.5664336 C61.2140311,26.8531469 58.8466376,18.7972028 49.3770637,18.7972028 Z" id="Shape" fill="#000000"></path>
            <path d="M129.194111,68 C109.384047,68 93.6031487,55.3333333 97.6323142,32 C100.989952,10 119.121197,0 137.92397,0 C156.390978,0 173.179168,12.6666667 169.485766,36 C165.792364,58 146.653828,68 129.194111,68 Z M130.87293,48 C139.938552,48 144.975009,42 146.318064,34 C147.325356,27.6666667 145.646537,20 135.909387,20 C126.508001,20 121.471544,26 120.128488,34 C119.456961,40.6666667 121.13578,48 130.87293,48 Z" id="Shape" fill="#000000"></path>
            <path d="M268.133376,0.336683417 C286.425208,0.336683417 290.083575,16.4974874 288.75326,26.2613065 L282.434263,67 L259.818906,67 L266.137903,26.2613065 C266.80306,21.8844221 263.809851,19.8643216 260.151485,19.8643216 C256.16054,19.8643216 252.169594,21.8844221 249.508964,24.5778894 C249.508964,25.2512563 249.508964,25.5879397 249.508964,25.9246231 L243.189967,66.6633166 L220.574611,66.6633166 L226.893607,25.9246231 C227.558765,21.5477387 224.565556,19.5276382 220.907189,19.5276382 C216.251087,19.5276382 211.594984,22.5577889 208.934353,26.2613065 L202.615357,66.6633166 L180,66.6633166 L189.977363,2.0201005 L209.93209,2.0201005 L208.601775,9.09045226 C213.257878,4.37688442 221.239768,0 230.219395,0 C239.199022,0 244.187704,3.70351759 246.848334,8.75376884 C252.834752,4.04020101 260.151485,0.336683417 268.133376,0.336683417 Z" id="Path" fill="#000000"></path>
            <polygon id="Path" fill="#FFFFFF" points="381.986425 44 355.868778 44 351.850679 68 333.099548 68 337.117647 44 311 44 314.013575 25.3333333 340.131222 25.3333333 344.149321 1 362.900452 1 358.882353 25.3333333 385 25.3333333"></polygon>
        </g>
    </g>
</svg>