<?xml version="1.0" encoding="UTF-8"?>
<svg width="700px" height="400px" viewBox="0 0 700 400" version="1.1" xmlns="http://www.w3.org/2000/svg" xmlns:xlink="http://www.w3.org/1999/xlink">
    <!-- Generator: Sketch 63.1 (92452) - https://sketch.com -->
    <title>pom_logo_06</title>
    <desc>Created with Sketch.</desc>
    <defs>
        <polygon id="path-1" points="0.0464449541 0.229846154 74.447133 0.229846154 74.447133 71.9818615 0.0464449541 71.9818615 0.0464449541 0.229846154"></polygon>
        <polygon id="path-3" points="106.811961 0.22995671 0.157648639 0.22995671 0.157648639 70.0389957 106.811961 70.0389957 106.811961 0.22995671"></polygon>
    </defs>
    <g id="pom_logo_06" stroke="none" stroke-width="1" fill="none" fill-rule="evenodd">
        <rect fill="#FFFFFF" x="0" y="0" width="700" height="400"></rect>
        <g id="logo" transform="translate(166.000000, 160.000000)">
            <g id="Group-3" transform="translate(0.000000, 0.500000)" fill="#000000">
                <path d="M36.9212615,16.7411651 C28.3581881,16.7411651 22.0409862,22.1073089 19.3740138,28.034487 L19.3740138,44.12185 C22.0409862,50.0497199 28.3581881,55.4158637 36.9212615,55.4158637 C48.0102523,55.4158637 54.6088761,46.6620692 54.6088761,36.0785144 C54.6088761,25.4949596 48.0102523,16.7411651 36.9212615,16.7411651 M41.6930505,0.229740411 C63.0308945,0.229740411 74.5416743,17.5892884 74.5416743,36.0785144 C74.5416743,54.5677404 63.0308945,71.9265966 41.6930505,71.9265966 C31.0251606,71.9265966 23.8643807,67.55385 19.5143807,62.7528911 L19.5143807,101.000069 L-6.88073394e-05,101.000069 L-6.88073394e-05,2.20477466 L17.2657569,2.20477466 L17.2657569,12.0854801 C21.4788303,6.01648699 29.1983257,0.229740411 41.6930505,0.229740411" id="Fill-1"></path>
            </g>
            <g id="Group-6" transform="translate(89.000000, 0.500000)">
                <mask id="mask-2" fill="white">
                    <use xlink:href="#path-1"></use>
                </mask>
                <g id="Clip-5"></g>
                <path d="M37.2450688,17.7437077 C26.156078,17.7437077 19.9792431,25.6519385 19.9792431,36.1057846 C19.9792431,46.5596308 26.156078,54.4678615 37.2450688,54.4678615 C48.4744266,54.4678615 54.6519495,46.5596308 54.6519495,36.1057846 C54.6519495,25.6519385 48.4744266,17.7437077 37.2450688,17.7437077 M37.2450688,0.229707692 C56.9005734,0.229707692 74.447133,12.3769385 74.447133,36.1057846 C74.447133,59.8346308 56.9005734,71.9818615 37.2450688,71.9818615 C17.7340596,71.9818615 0.0464449541,59.8346308 0.0464449541,36.1057846 C0.0464449541,12.3769385 17.7340596,0.229707692 37.2450688,0.229707692" id="Fill-4" fill="#000000" mask="url(#mask-2)"></path>
            </g>
            <g id="Group-9" transform="translate(179.000000, 0.500000)">
                <mask id="mask-4" fill="white">
                    <use xlink:href="#path-3"></use>
                </mask>
                <g id="Clip-8"></g>
                <path d="M0.157648639,2.20730736 L17.3720842,2.20730736 L17.3720842,10.1228052 C20.8721858,5.88245887 28.572135,0.229818182 38.7870534,0.229818182 C48.8661387,0.229818182 55.4451223,4.47085714 59.3616414,10.2641039 C64.9630388,4.75068398 72.5196087,0.229818182 81.7569408,0.229818182 C100.653511,0.229818182 106.811961,15.0675671 106.811961,27.079342 L106.811961,70.0389957 L87.4955434,70.0389957 L87.4955434,28.3524156 C87.4955434,21.2854026 83.1550606,17.186355 76.9966105,17.186355 C71.6785416,17.186355 66.9209554,20.295619 63.7021241,23.9700779 C63.8420733,24.9605541 63.8420733,25.9475671 63.8420733,27.079342 L63.8420733,70.0389957 L44.5256559,70.0389957 L44.5256559,28.3524156 C44.5256559,21.2854026 40.1886033,17.186355 34.0301532,17.186355 C28.1516015,17.186355 22.8335325,21.1441039 19.6140152,25.3851429 L19.6140152,70.0389957 L0.157648639,70.0389957 L0.157648639,2.20730736 Z" id="Fill-7" fill="#000000" mask="url(#mask-4)"></path>
            </g>
            <polygon id="Fill-10" fill="#13D96B" points="379 44.8055753 353.309026 44.8055753 353.309026 70.5 336.694425 70.5 336.694425 44.8055753 311 44.8055753 311 28.1944247 336.694425 28.1944247 336.694425 2.5 353.309026 2.5 353.309026 28.1944247 379 28.1944247"></polygon>
        </g>
    </g>
</svg>