<?xml version="1.0" encoding="UTF-8"?>
<svg width="700px" height="400px" viewBox="0 0 700 400" version="1.1" xmlns="http://www.w3.org/2000/svg" xmlns:xlink="http://www.w3.org/1999/xlink">
    <!-- Generator: Sketch 63.1 (92452) - https://sketch.com -->
    <title>pom_logo_01</title>
    <desc>Created with Sketch.</desc>
    <defs>
        <polygon id="path-1" points="0.0408325175 0.458061286 82.5190353 0.458061286 82.5190353 82.2373368 0.0408325175 82.2373368"></polygon>
    </defs>
    <g id="pom_logo_01" stroke="none" stroke-width="1" fill="none" fill-rule="evenodd">
        <rect fill="#FFFFFF" x="0" y="0" width="700" height="400"></rect>
        <rect id="Rectangle" fill="#000000" opacity="0.100000001" x="0" y="0" width="700" height="400"></rect>
        <g id="Group-10" transform="translate(178.500000, 158.000000)">
            <g id="Group-3" transform="translate(262.500000, 0.000000)">
                <mask id="mask-2" fill="white">
                    <use xlink:href="#path-1"></use>
                </mask>
                <g id="Clip-2"></g>
                <path d="M41.2825458,0.457532464 C44.4847206,0.457532464 47.0861612,3.09635831 47.0861612,6.33539806 L47.0861612,35.4761793 L76.712808,35.4761793 C79.9149829,35.4761793 82.5190353,38.112361 82.5190353,41.356689 C82.5190353,44.5877964 79.9149829,47.2266223 76.712808,47.2266223 L47.0861612,47.2266223 L47.0861612,76.3621153 C47.0861612,79.6090874 44.4847206,82.2373368 41.2825458,82.2373368 C38.080371,82.2373368 35.4737066,79.6090874 35.4737066,76.3621153 L35.4737066,47.2266223 L5.85228357,47.2266223 C2.64749685,47.2266223 0.0408325175,44.5877964 0.0408325175,41.356689 C0.0408325175,38.112361 2.64749685,35.4761793 5.85228357,35.4761793 L35.4737066,35.4761793 L35.4737066,6.33539806 C35.4737066,3.09635831 38.080371,0.457532464 41.2825458,0.457532464" id="Fill-1" fill="#00A24E" mask="url(#mask-2)"></path>
            </g>
            <path d="M194.357924,17.5962107 L194.894077,18.563037 L195.487768,17.6248767 L197.028228,15.1074799 C202.685296,6.84906325 209.804362,3 219.428962,3 C226.568951,3 232.066481,5.1499507 236.711397,9.7703902 C241.876773,14.9276659 244.5,21.7449641 244.5,30.0268348 L244.5,77 L234.885861,77 L234.885861,31.8380054 C234.885861,18.461403 228.875717,11.3861107 217.514503,11.3861107 C206.427905,11.3861107 199.810993,18.5734611 199.810993,30.623609 L199.810993,77 L190.191623,77 L190.191623,30.623609 C190.189007,18.5734611 183.572095,11.3861107 172.485497,11.3861107 C161.119053,11.3861107 155.114139,18.461403 155.114139,31.8380054 L155.114139,77 L145.5,77 L145.5,30.0268348 C145.5,21.7449641 148.120611,14.9276659 153.283373,9.76257219 C157.933519,5.1499507 163.425818,3 170.571038,3 C180.198254,3 187.31732,6.84906325 192.971772,15.1074799 C192.971772,15.1179039 194.357924,17.5962107 194.357924,17.5962107" id="Fill-4" fill="#000000"></path>
            <path d="M123.53693,70.7127648 C131.432843,62.7177748 132.5,51.453293 132.5,41.4986953 C132.5,31.5362697 131.432843,20.2796159 123.53693,12.2820165 C118.074977,6.86243607 110.802011,4 102.501314,4 C94.1953608,4 86.925023,6.86243607 81.468327,12.2794072 C73.5645288,20.2796159 72.5,31.5362697 72.5,41.4986953 C72.5,51.453293 73.5645288,62.7177748 81.4604416,70.7049369 C86.925023,76.1297359 94.1953608,79 102.501314,79 C110.802011,79 118.072349,76.1297359 123.53693,70.7127648 M88.4705612,64.9617994 C82.9428966,59.4743764 82.1832698,50.4434819 82.1832698,41.4986953 C82.1832698,32.5460808 82.9428966,23.5177956 88.4705612,18.0329819 C92.1320147,14.4007932 97.1155868,12.3916084 102.501314,12.3916084 C107.981666,12.3916084 113.023065,14.4007932 116.68189,18.0329819 C122.343606,23.6534808 122.819359,33.0940403 122.819359,41.4986953 C122.819359,49.900741 122.343606,59.3413005 116.68189,64.9617994 C113.023065,68.5939881 107.981666,70.595345 102.501314,70.595345 C97.1155868,70.595345 92.1320147,68.5939881 88.4705612,64.9617994" id="Fill-6" fill="#000000"></path>
            <path d="M10.1782666,71.7732475 L11.2419567,72.6864779 C16.5341431,77.1581582 23.0187131,79.4333617 30.5249508,79.4333617 C38.8217334,79.4333617 46.0915955,76.5467136 51.5439921,71.0961973 C59.4363099,63.0529462 60.5,51.7294132 60.5,41.7127445 C60.5,31.6960758 59.4363099,20.3751671 51.5466185,12.3397886 C46.0915955,6.88402381 38.8217334,4 30.5249508,4 C22.2307945,4 14.9609324,6.88402381 9.50328299,12.3319159 C3.52298096,18.4253675 0.854563362,26.4686186 0.5,39.2013607 L0.5,112 L10.1782666,112 L10.1782666,71.7732475 Z M16.5052528,65.3124043 C10.9845699,59.7989066 10.2229153,50.7112137 10.2229153,41.7127445 C10.2229153,32.7195238 10.9845699,23.6292067 16.5052528,18.1235816 C20.1690742,14.4575386 25.1434668,12.4447576 30.5249508,12.4447576 C36.0036113,12.4447576 41.0357846,14.4575386 44.6969796,18.1235816 C50.3542351,23.7709148 50.8269862,33.2548658 50.8269862,41.7127445 C50.8269862,50.167999 50.3542351,59.6598226 44.6969796,65.3124043 C41.0357846,68.9758231 36.0036113,70.9781072 30.5249508,70.9781072 C25.1434668,70.9781072 20.1690742,68.9758231 16.5052528,65.3124043 L16.5052528,65.3124043 Z" id="Fill-8" fill="#000000"></path>
        </g>
        <text id="Das-ursprüngliche-Lo" font-family="OpenSans-Light, Open Sans" font-size="28" font-weight="300" line-spacing="36" fill="#000000">
            <tspan x="27" y="47">Das ursprüngliche Logo</tspan>
        </text>
    </g>
</svg>