<?xml version="1.0" encoding="UTF-8"?>
<svg width="700px" height="400px" viewBox="0 0 700 400" version="1.1" xmlns="http://www.w3.org/2000/svg" xmlns:xlink="http://www.w3.org/1999/xlink">
    <!-- Generator: Sketch 63.1 (92452) - https://sketch.com -->
    <title>pom_logo_04</title>
    <desc>Created with Sketch.</desc>
    <defs>
        <linearGradient x1="-0.0525462963%" y1="49.9180556%" x2="99.9849537%" y2="49.9180556%" id="linearGradient-1">
            <stop stop-color="#46E7D7" offset="0%"></stop>
            <stop stop-color="#31E1AA" offset="21.81%"></stop>
            <stop stop-color="#21DD88" offset="42.11%"></stop>
            <stop stop-color="#17DA73" offset="58.77%"></stop>
            <stop stop-color="#13D96B" offset="69.72%"></stop>
        </linearGradient>
    </defs>
    <g id="pom_logo_04" stroke="none" stroke-width="1" fill="none" fill-rule="evenodd">
        <rect fill="#FFFFFF" x="0" y="0" width="700" height="400"></rect>
        <g id="Group" transform="translate(171.000000, 159.000000)" fill-rule="nonzero">
            <path d="M70.5,31.0301311 C70.5,53.2593743 55.0669291,60.2404589 35.0406824,60.2404589 L26.5892388,60.2404589 L26.5892388,81 L0.5,81 L0.5,2.00351609 L35.0406824,2.00351609 C55.0669291,1.81980333 70.5,8.80088796 70.5,31.0301311 Z M34.6732283,23.1304827 L26.4055118,23.1304827 L26.4055118,38.562354 L34.6732283,38.562354 C40.7362205,38.562354 44.5944882,36.357801 44.5944882,30.8464184 C44.5944882,25.5187485 40.7362205,23.1304827 34.6732283,23.1304827 Z" id="Shape" fill="#000000"></path>
            <path d="M121.5,0 C148.774678,0 162.5,17.9555556 162.5,40 C162.5,62.0444444 148.774678,80 121.5,80 C94.2253219,80 80.5,62.0444444 80.5,40 C80.5,17.9555556 94.2253219,0 121.5,0 Z M122,23 C112.201149,23 106.5,29.6597938 106.5,40 C106.5,50.3402062 112.201149,57 122,57 C131.798851,57 137.5,50.3402062 137.5,40 C137.5,29.6597938 131.798851,23 122,23 Z" id="Shape" fill="#000000"></path>
            <polygon id="Path" fill="#000000" points="264.5 80 239.256098 80 239.256098 43.8909513 226.268293 63.8700696 212.731707 63.8700696 199.743902 43.7076566 199.743902 79.8167053 174.5 79.8167053 174.5 1 197.365854 1 219.317073 35.4593968 241.45122 1 264.5 1 264.5 80"></polygon>
            <rect id="Rectangle" fill="url(#linearGradient-1)" x="277.5" y="2" width="79" height="79"></rect>
            <polygon id="Path" fill="#FFFFFF" points="341.5 43 319.5 43 319.5 65 315.5 65 315.5 43 293.5 43 293.5 39 315.5 39 315.5 17 319.5 17 319.5 39 341.5 39"></polygon>
        </g>
    </g>
</svg>