<?xml version="1.0" standalone="no"?>
<!DOCTYPE svg PUBLIC "-//W3C//DTD SVG 20010904//EN"
 "http://www.w3.org/TR/2001/REC-SVG-20010904/DTD/svg10.dtd">
<svg version="1.0" xmlns="http://www.w3.org/2000/svg"
 width="260.000000pt" height="260.000000pt" viewBox="0 0 260.000000 260.000000"
 preserveAspectRatio="xMidYMid meet">
<metadata>
Created by potrace 1.11, written by Peter Selinger 2001-2013
</metadata>
<g transform="translate(0.000000,260.000000) scale(0.100000,-0.100000)"
fill="#000000" stroke="none">
<path d="M651 2590 c-4 -3 -8 -472 -8 -1043 l0 -1039 486 5 c483 4 487 4 583
30 53 14 114 33 135 43 107 48 133 62 198 106 246 167 406 436 432 731 33 361
-61 649 -283 871 -152 151 -353 252 -569 287 -80 12 -956 21 -974 9z m854
-424 c232 -20 424 -179 489 -406 23 -80 28 -116 30 -202 3 -104 -18 -198 -64
-293 -81 -166 -197 -264 -367 -311 -41 -11 -123 -17 -278 -21 l-220 -5 0 618
0 619 25 5 c29 7 296 3 385 -4z"/>
<path d="M100 1044 l0 -1043 483 3 c454 3 487 5 567 25 153 39 286 99 388 176
56 43 170 153 183 178 9 16 6 17 -33 11 -24 -3 -60 -10 -82 -14 -21 -5 -279
-9 -572 -10 l-534 -1 0 763 c1 420 0 806 0 859 l0 95 -200 0 -200 0 0 -1042z"/>
</g>
</svg>
