<?xml version="1.0" standalone="no"?>
<!DOCTYPE svg PUBLIC "-//W3C//DTD SVG 20010904//EN"
 "http://www.w3.org/TR/2001/REC-SVG-20010904/DTD/svg10.dtd">
<svg version="1.0" xmlns="http://www.w3.org/2000/svg"
 width="512.000000pt" height="512.000000pt" viewBox="0 0 512.000000 512.000000"
 preserveAspectRatio="xMidYMid meet">
<metadata>
Created by potrace 1.11, written by Peter Selinger 2001-2013
</metadata>
<g transform="translate(0.000000,512.000000) scale(0.100000,-0.100000)"
fill="#000000" stroke="none">
<path d="M3622 4385 c-304 -51 -573 -96 -598 -100 l-44 -6 0 -295 c0 -162 -1
-294 -3 -294 -1 0 -27 9 -57 19 -82 29 -204 58 -298 72 -125 18 -430 6 -557
-21 -633 -135 -1089 -589 -1215 -1208 -39 -192 -44 -444 -14 -622 83 -486 388
-900 819 -1114 141 -70 257 -110 414 -143 111 -23 149 -27 326 -27 218 -1 339
16 495 69 40 14 77 25 81 25 5 0 9 -28 11 -62 l3 -63 605 0 605 0 3 1933 c2
1543 0 1932 -10 1931 -7 -1 -262 -43 -566 -94z"/>
</g>
</svg>
