<?xml version="1.0" encoding="UTF-8"?>
<svg width="800px" height="633px" viewBox="0 0 800 633" version="1.1" xmlns="http://www.w3.org/2000/svg" xmlns:xlink="http://www.w3.org/1999/xlink">
    <!-- Generator: Sketch 63.1 (92452) - https://sketch.com -->
    <title>claim_02</title>
    <desc>Created with Sketch.</desc>
    <g id="claim_02" stroke="none" stroke-width="1" fill="none" fill-rule="evenodd">
        <rect fill="#FFFFFF" x="0" y="0" width="800" height="633"></rect>
        <text id="Porny-News" font-family="OpenSans-Bold, Open Sans" font-size="19.7226502" font-weight="bold" fill="#000000">
            <tspan x="341" y="220">PORNY NEWS</tspan>
        </text>
        <path d="M81.4870526,330.125387 L81.4870526,310.448017 L87.0403959,304.80412 L105.374036,330.125387 L118.915065,330.125387 L95.2563011,296.414544 L114.731039,276.737175 L113.666015,276.737175 L81.4870526,309.380253 L81.4870526,276.737175 L70,276.737175 L70,330.125387 L81.4870526,330.125387 Z M141.584877,330.888075 C146.098554,330.888075 149.851498,329.8076 152.84371,327.646648 C155.835923,325.485697 157.839184,322.447653 158.853493,318.532518 L158.853493,318.532518 L158.092761,318.303711 C157.230598,321.761233 155.595024,324.48149 153.18604,326.464481 C150.777055,328.447471 147.975026,329.438967 144.779952,329.438967 C141.027007,329.438967 138.224978,327.989858 136.373864,325.091641 C134.522749,322.193424 133.597192,317.820675 133.597192,311.973395 L133.597192,311.973395 L133.597192,309.837866 L159.081713,309.837866 C159.081713,307.29557 158.66331,304.905812 157.826505,302.668592 C156.9897,300.431372 155.810565,298.499227 154.289101,296.872158 C152.666206,295.194242 150.764376,293.923094 148.583611,293.058714 C146.402847,292.194333 143.993862,291.762143 141.356658,291.762143 C138.719454,291.762143 136.196359,292.257891 133.787375,293.249386 C131.37839,294.240881 129.286377,295.651856 127.511336,297.482309 C125.736295,299.312762 124.379656,301.435578 123.44142,303.85076 C122.503184,306.265941 122.034066,308.871794 122.034066,311.668319 C122.034066,314.363153 122.528542,316.880025 123.517493,319.218938 C124.506445,321.55785 125.913799,323.617109 127.739556,325.396716 C129.565312,327.125478 131.695362,328.472894 134.129704,329.438967 C136.564046,330.405039 139.049104,330.888075 141.584877,330.888075 Z M148.355392,309.075177 L133.597192,309.075177 C133.749338,303.431281 134.459355,299.249204 135.727241,296.528948 C136.995128,293.808691 138.8716,292.448563 141.356658,292.448563 C143.841716,292.448563 145.629436,293.706999 146.719818,296.223872 C147.810201,298.740745 148.355392,303.024513 148.355392,309.075177 L148.355392,309.075177 Z M176.502474,285.88944 L176.502474,274.906722 L165.471861,274.906722 L165.471861,285.88944 L176.502474,285.88944 Z M176.502474,330.125387 L176.502474,292.524832 L165.547934,292.524832 L165.547934,330.125387 L176.502474,330.125387 Z M196.585798,330.125387 L196.585798,305.566809 C196.585798,304.193969 196.78866,302.859264 197.194384,301.562693 C197.600107,300.266122 198.183335,299.083955 198.944067,298.016191 C199.80623,296.745043 200.807861,295.753547 201.948958,295.041705 C203.090056,294.329862 204.243833,293.97394 205.410289,293.97394 C207.286761,293.97394 208.681436,294.57138 209.594315,295.766259 C210.507193,296.961138 210.963632,298.778879 210.963632,301.219483 L210.963632,301.219483 L210.963632,330.125387 L221.918172,330.125387 L221.918172,304.80412 C221.918172,300.838139 220.815111,297.672981 218.608988,295.308646 C216.402866,292.944311 213.397974,291.762143 209.594315,291.762143 C206.348525,291.762143 203.571853,292.626524 201.2643,294.355285 C198.956746,296.084046 197.397246,298.473804 196.585798,301.524559 L196.585798,301.524559 L196.281505,292.524832 L185.631258,292.524832 L185.631258,330.125387 L196.585798,330.125387 Z M247.554839,330.888075 C252.068516,330.888075 255.82146,329.8076 258.813672,327.646648 C261.805885,325.485697 263.809146,322.447653 264.823455,318.532518 L264.823455,318.532518 L264.062723,318.303711 C263.20056,321.761233 261.564986,324.48149 259.156002,326.464481 C256.747017,328.447471 253.944988,329.438967 250.749914,329.438967 C246.996969,329.438967 244.19494,327.989858 242.343826,325.091641 C240.492711,322.193424 239.567154,317.820675 239.567154,311.973395 L239.567154,311.973395 L239.567154,309.837866 L265.051675,309.837866 C265.051675,307.29557 264.633272,304.905812 263.796467,302.668592 C262.959662,300.431372 261.780527,298.499227 260.259063,296.872158 C258.636168,295.194242 256.734338,293.923094 254.553573,293.058714 C252.372809,292.194333 249.963824,291.762143 247.32662,291.762143 C244.689416,291.762143 242.166321,292.257891 239.757337,293.249386 C237.348352,294.240881 235.256339,295.651856 233.481298,297.482309 C231.706257,299.312762 230.349618,301.435578 229.411382,303.85076 C228.473146,306.265941 228.004028,308.871794 228.004028,311.668319 C228.004028,314.363153 228.498504,316.880025 229.487455,319.218938 C230.476407,321.55785 231.883761,323.617109 233.709518,325.396716 C235.535274,327.125478 237.665324,328.472894 240.099666,329.438967 C242.534009,330.405039 245.019066,330.888075 247.554839,330.888075 Z M254.325354,309.075177 L239.567154,309.075177 C239.7193,303.431281 240.429317,299.249204 241.697203,296.528948 C242.96509,293.808691 244.841562,292.448563 247.32662,292.448563 C249.811678,292.448563 251.599398,293.706999 252.68978,296.223872 C253.780163,298.740745 254.325354,303.024513 254.325354,309.075177 L254.325354,309.075177 Z M282.472436,330.125387 L282.472436,305.566809 C282.472436,304.193969 282.675298,302.859264 283.081022,301.562693 C283.486746,300.266122 284.069974,299.083955 284.830705,298.016191 C285.692868,296.745043 286.694499,295.753547 287.835597,295.041705 C288.976695,294.329862 290.130471,293.97394 291.296927,293.97394 C293.173399,293.97394 294.568075,294.57138 295.480953,295.766259 C296.393831,296.961138 296.85027,298.778879 296.85027,301.219483 L296.85027,301.219483 L296.85027,330.125387 L307.804811,330.125387 L307.804811,304.80412 C307.804811,300.838139 306.701749,297.672981 304.495627,295.308646 C302.289504,292.944311 299.284613,291.762143 295.480953,291.762143 C292.235163,291.762143 289.458492,292.626524 287.150938,294.355285 C284.843384,296.084046 283.283884,298.473804 282.472436,301.524559 L282.472436,301.524559 L282.168144,292.524832 L271.517896,292.524832 L271.517896,330.125387 L282.472436,330.125387 Z M347.286799,330.125387 L347.286799,302.973667 L374.216711,302.973667 L374.216711,330.125387 L385.703763,330.125387 L385.703763,276.737175 L374.216711,276.737175 L374.216711,302.13471 L347.286799,302.13471 L347.286799,276.737175 L335.799747,276.737175 L335.799747,330.125387 L347.286799,330.125387 Z M410.883991,285.88944 L410.883991,274.906722 L402.059501,274.906722 L402.059501,285.88944 L410.883991,285.88944 Z M424.272874,285.88944 L424.272874,274.906722 L415.448383,274.906722 L415.448383,285.88944 L424.272874,285.88944 Z M413.166187,330.888075 C415.854107,330.888075 418.415238,330.405039 420.84958,329.438967 C423.283922,328.472894 425.439329,327.100055 427.315802,325.320448 C429.242989,323.54084 430.713738,321.443446 431.728047,319.028265 C432.742356,316.613084 433.249511,314.058077 433.249511,311.363244 C433.249511,308.66841 432.742356,306.113403 431.728047,303.698222 C430.713738,301.283041 429.242989,299.160224 427.315802,297.329771 C425.439329,295.550164 423.283922,294.177324 420.84958,293.211252 C418.415238,292.245179 415.854107,291.762143 413.166187,291.762143 C410.478268,291.762143 407.904458,292.245179 405.444758,293.211252 C402.985058,294.177324 400.842329,295.550164 399.016573,297.329771 C397.089385,299.160224 395.618637,301.283041 394.604327,303.698222 C393.590018,306.113403 393.082863,308.66841 393.082863,311.363244 C393.082863,314.058077 393.590018,316.613084 394.604327,319.028265 C395.618637,321.443446 397.089385,323.54084 399.016573,325.320448 C400.842329,327.100055 402.985058,328.472894 405.444758,329.438967 C407.904458,330.405039 410.478268,330.888075 413.166187,330.888075 Z M413.166187,330.201655 C410.123259,330.201655 407.942494,328.714412 406.623892,325.739926 C405.30529,322.76544 404.645989,317.973213 404.645989,311.363244 C404.645989,304.702429 405.30529,299.884778 406.623892,296.910292 C407.942494,293.935806 410.123259,292.448563 413.166187,292.448563 C416.209115,292.448563 418.38988,293.935806 419.708482,296.910292 C421.027084,299.884778 421.686385,304.702429 421.686385,311.363244 C421.686385,317.973213 421.027084,322.76544 419.708482,325.739926 C418.38988,328.714412 416.209115,330.201655 413.166187,330.201655 Z M450.670273,330.125387 L450.670273,305.566809 C450.670273,304.193969 450.873135,302.859264 451.278858,301.562693 C451.684582,300.266122 452.26781,299.083955 453.028542,298.016191 C453.890705,296.745043 454.892335,295.753547 456.033433,295.041705 C457.174531,294.329862 458.328308,293.97394 459.494763,293.97394 C461.371236,293.97394 462.765911,294.57138 463.678789,295.766259 C464.591668,296.961138 465.048107,298.778879 465.048107,301.219483 L465.048107,301.219483 L465.048107,330.125387 L476.002647,330.125387 L476.002647,304.80412 C476.002647,300.838139 474.899586,297.672981 472.693463,295.308646 C470.48734,292.944311 467.482449,291.762143 463.678789,291.762143 C460.433,291.762143 457.656328,292.626524 455.348774,294.355285 C453.041221,296.084046 451.48172,298.473804 450.670273,301.524559 L450.670273,301.524559 L450.670273,273 L439.715733,273 L439.715733,330.125387 L450.670273,330.125387 Z M501.639314,330.888075 C506.15299,330.888075 509.905935,329.8076 512.898147,327.646648 C515.890359,325.485697 517.89362,322.447653 518.90793,318.532518 L518.90793,318.532518 L518.147198,318.303711 C517.285035,321.761233 515.649461,324.48149 513.240476,326.464481 C510.831492,328.447471 508.029463,329.438967 504.834388,329.438967 C501.081444,329.438967 498.279415,327.989858 496.4283,325.091641 C494.577186,322.193424 493.651628,317.820675 493.651628,311.973395 L493.651628,311.973395 L493.651628,309.837866 L519.136149,309.837866 C519.136149,307.29557 518.717747,304.905812 517.880941,302.668592 C517.044136,300.431372 515.865002,298.499227 514.343538,296.872158 C512.720643,295.194242 510.818813,293.923094 508.638048,293.058714 C506.457283,292.194333 504.048299,291.762143 501.411094,291.762143 C498.77389,291.762143 496.250796,292.257891 493.841811,293.249386 C491.432827,294.240881 489.340814,295.651856 487.565773,297.482309 C485.790732,299.312762 484.434093,301.435578 483.495857,303.85076 C482.557621,306.265941 482.088503,308.871794 482.088503,311.668319 C482.088503,314.363153 482.582978,316.880025 483.57193,319.218938 C484.560882,321.55785 485.968236,323.617109 487.793992,325.396716 C489.619749,327.125478 491.749799,328.472894 494.184141,329.438967 C496.618483,330.405039 499.103541,330.888075 501.639314,330.888075 Z M508.409829,309.075177 L493.651628,309.075177 C493.803775,303.431281 494.513791,299.249204 495.781678,296.528948 C497.049565,293.808691 498.926037,292.448563 501.411094,292.448563 C503.896152,292.448563 505.683872,293.706999 506.774255,296.223872 C507.864637,298.740745 508.409829,303.024513 508.409829,309.075177 L508.409829,309.075177 Z M536.556911,346.523194 L536.556911,321.278197 C537.368358,324.22726 538.91518,326.566172 541.197376,328.294934 C543.479572,330.023695 546.167491,330.888075 549.261135,330.888075 C551.644762,330.888075 553.888921,330.32877 555.993613,329.21016 C558.098304,328.09155 559.886024,326.489904 561.356773,324.405221 C562.675375,322.625614 563.677005,320.579066 564.361664,318.265577 C565.046323,315.952088 565.388652,313.498772 565.388652,310.90563 C565.388652,308.363335 565.046323,305.973576 564.361664,303.736356 C563.677005,301.499136 562.675375,299.541568 561.356773,297.863653 C559.835309,295.931508 558.03491,294.431554 555.955576,293.363789 C553.876242,292.296025 551.695477,291.762143 549.413281,291.762143 C546.268922,291.762143 543.542966,292.639235 541.235413,294.393419 C538.927859,296.147603 537.368358,298.52465 536.556911,301.524559 L536.556911,301.524559 L536.252618,292.524832 L525.602371,292.524832 L525.602371,346.523194 L536.556911,346.523194 Z M545.381402,328.52374 C542.997775,328.52374 540.943799,327.379707 539.219473,325.091641 C537.495147,322.803575 536.582269,320.007049 536.480838,316.702065 L536.480838,316.702065 L536.480838,306.024422 C536.531553,304.549891 536.759773,303.151628 537.165497,301.829634 C537.57122,300.507641 538.12909,299.312762 538.839107,298.244997 C539.70127,296.923003 540.715579,295.906085 541.882035,295.194242 C543.04849,294.482399 544.265662,294.126478 545.533548,294.126478 C548.120037,294.126478 550.135977,295.626433 551.581367,298.626342 C553.026758,301.626251 553.749453,305.795616 553.749453,311.134437 C553.749453,316.473258 553.0014,320.706181 551.505294,323.833204 C550.009188,326.960228 547.96789,328.52374 545.381402,328.52374 Z M583.722293,330.888075 C586.917367,330.888075 589.617965,330.036406 591.824088,328.333068 C594.030211,326.62973 595.564353,324.22726 596.426516,321.125659 L596.426516,321.125659 L596.730809,330.125387 L607.381057,330.125387 L607.381057,292.524832 L596.426516,292.524832 L596.426516,317.083409 C596.375801,318.456249 596.172939,319.778243 595.817931,321.049391 C595.462922,322.320538 594.93041,323.489995 594.220394,324.557759 C593.408946,325.879753 592.445352,326.896671 591.329612,327.608514 C590.213872,328.320357 589.072774,328.676278 587.906318,328.676278 C586.080562,328.676278 584.711244,328.053415 583.798366,326.807691 C582.885487,325.561966 582.429048,323.744224 582.429048,321.354466 L582.429048,321.354466 L582.429048,292.524832 L571.474508,292.524832 L571.474508,317.769829 C571.474508,321.73581 572.56489,324.91368 574.745655,327.303438 C576.92642,329.693196 579.918633,330.888075 583.722293,330.888075 Z M627.388307,330.125387 L627.388307,305.566809 C627.388307,304.193969 627.591169,302.859264 627.996893,301.562693 C628.402616,300.266122 628.985844,299.083955 629.746576,298.016191 C630.608739,296.745043 631.610369,295.753547 632.751467,295.041705 C633.892565,294.329862 635.046342,293.97394 636.212798,293.97394 C638.08927,293.97394 639.483945,294.57138 640.396824,295.766259 C641.309702,296.961138 641.766141,298.778879 641.766141,301.219483 L641.766141,301.219483 L641.766141,330.125387 L652.720681,330.125387 L652.720681,304.80412 C652.720681,300.838139 651.61762,297.672981 649.411497,295.308646 C647.205375,292.944311 644.200483,291.762143 640.396824,291.762143 C637.151034,291.762143 634.374362,292.626524 632.066809,294.355285 C629.759255,296.084046 628.199754,298.473804 627.388307,301.524559 L627.388307,301.524559 L627.084014,292.524832 L616.433767,292.524832 L616.433767,330.125387 L627.388307,330.125387 Z M672.423639,330.125387 L672.423639,316.930871 L676.988031,312.812352 L688.018644,330.125387 L700.114282,330.125387 L684.82357,305.643078 L699.125331,292.524832 L698.136379,292.524832 L672.423639,316.015645 L672.423639,273 L661.469099,273 L661.469099,330.125387 L672.423639,330.125387 Z M718.371849,330.888075 C722.378371,330.888075 725.446657,329.731331 727.576706,327.417842 C729.706756,325.104352 730.847854,321.659542 731,317.083409 L731,317.083409 L730.163195,317.00714 C730.112479,320.769738 729.313711,323.744224 727.766889,325.930599 C726.220068,328.116973 724.204128,329.21016 721.71907,329.21016 C720.146891,329.21016 718.955077,328.676278 718.14363,327.608514 C717.332182,326.540749 716.926459,324.989949 716.926459,322.956112 L716.926459,322.956112 L716.926459,293.28752 L729.32639,293.28752 L729.706756,292.524832 L716.926459,292.524832 L716.926459,280.093005 L706.047992,284.135256 L706.047992,292.524832 L700.875014,292.524832 L700.875014,293.28752 L706.047992,293.28752 L706.047992,318.532518 C706.047992,322.447653 707.138374,325.485697 709.319139,327.646648 C711.499904,329.8076 714.517474,330.888075 718.371849,330.888075 Z M237.779434,413.136074 L255.276269,375.001637 L254.439464,375.001637 L242.343826,401.161861 L230.172114,375.001637 L218.456842,375.001637 L237.475141,413.136074 L237.779434,413.136074 Z M277.033203,413.364881 C281.546879,413.364881 285.299824,412.284405 288.292036,410.123454 C291.284248,407.962502 293.287509,404.924459 294.301818,401.009323 L294.301818,401.009323 L293.541086,400.780517 C292.678924,404.238039 291.04335,406.958295 288.634365,408.941286 C286.225381,410.924277 283.423351,411.915772 280.228277,411.915772 C276.475333,411.915772 273.673303,410.466664 271.822189,407.568446 C269.971075,404.670229 269.045517,400.29748 269.045517,394.4502 L269.045517,394.4502 L269.045517,392.314672 L294.530038,392.314672 C294.530038,389.772376 294.111635,387.382618 293.27483,385.145397 C292.438025,382.908177 291.258891,380.976032 289.737427,379.348963 C288.114532,377.671048 286.212702,376.3999 284.031937,375.535519 C281.851172,374.671139 279.442187,374.238949 276.804983,374.238949 C274.167779,374.238949 271.644685,374.734696 269.2357,375.726192 C266.826716,376.717687 264.734703,378.128661 262.959662,379.959114 C261.18462,381.789567 259.827982,383.912384 258.889746,386.327565 C257.95151,388.742746 257.482392,391.348599 257.482392,394.145125 C257.482392,396.839958 257.976867,399.356831 258.965819,401.695743 C259.95477,404.034655 261.362125,406.093915 263.187881,407.873522 C265.013638,409.602283 267.143687,410.9497 269.57803,411.915772 C272.012372,412.881845 274.49743,413.364881 277.033203,413.364881 Z M283.803717,391.551983 L269.045517,391.551983 C269.197664,385.908086 269.90768,381.72601 271.175567,379.005753 C272.443453,376.285497 274.319926,374.925368 276.804983,374.925368 C279.290041,374.925368 281.077761,376.183805 282.168144,378.700678 C283.258526,381.21755 283.803717,385.501319 283.803717,391.551983 L283.803717,391.551983 Z M311.9508,412.602192 L311.9508,389.950337 C312.052231,388.272421 312.407239,386.569083 313.015825,384.840322 C313.62441,383.111561 314.385142,381.56076 315.29802,380.187921 C316.363045,378.510005 317.605574,377.226146 319.025607,376.336343 C320.44564,375.446539 321.967104,375.001637 323.589999,375.001637 C325.770764,375.001637 327.507768,375.637211 328.801013,376.908359 C330.094257,378.179507 330.740879,379.908268 330.740879,382.094643 C330.740879,383.314945 330.51266,384.433555 330.056221,385.450473 C329.599781,386.467391 328.915123,387.408041 328.002244,388.272421 L328.002244,388.272421 L328.534757,388.806303 C329.549066,387.840231 330.297119,386.810601 330.778916,385.717414 C331.260713,384.624227 331.501611,383.416636 331.501611,382.094643 C331.501611,379.704884 330.791595,377.798163 329.371562,376.374477 C327.951529,374.950791 326.024341,374.238949 323.589999,374.238949 C320.902079,374.238949 318.493095,375.332136 316.363045,377.51851 C314.232996,379.704884 312.73689,382.577679 311.874727,386.136893 L311.874727,386.136893 L311.646507,375.001637 L300.99626,375.001637 L300.99626,412.602192 L311.9508,412.602192 Z M348.465934,429 L348.465934,403.755003 C349.277381,406.704066 350.824203,409.042978 353.106399,410.771739 C355.388595,412.5005 358.076514,413.364881 361.170158,413.364881 C363.553784,413.364881 365.797944,412.805576 367.902636,411.686966 C370.007327,410.568355 371.795047,408.966709 373.265796,406.882027 C374.584398,405.10242 375.586028,403.055871 376.270687,400.742382 C376.955346,398.428893 377.297675,395.975578 377.297675,393.382436 C377.297675,390.84014 376.955346,388.450382 376.270687,386.213162 C375.586028,383.975941 374.584398,382.018374 373.265796,380.340458 C371.744332,378.408314 369.943933,376.908359 367.864599,375.840595 C365.785265,374.772831 363.6045,374.238949 361.322304,374.238949 C358.177945,374.238949 355.451989,375.116041 353.144435,376.870225 C350.836882,378.624409 349.277381,381.001455 348.465934,384.001364 L348.465934,384.001364 L348.161641,375.001637 L337.511394,375.001637 L337.511394,429 L348.465934,429 Z M357.290425,411.000546 C354.906798,411.000546 352.852822,409.856513 351.128496,407.568446 C349.40417,405.28038 348.491292,402.483855 348.389861,399.17887 L348.389861,399.17887 L348.389861,388.501228 C348.440576,387.026696 348.668796,385.628434 349.07452,384.30644 C349.480243,382.984446 350.038113,381.789567 350.74813,380.721803 C351.610293,379.399809 352.624602,378.382891 353.791058,377.671048 C354.957513,376.959205 356.174684,376.603284 357.442571,376.603284 C360.02906,376.603284 362.044999,378.103238 363.49039,381.103147 C364.935781,384.103056 365.658476,388.272421 365.658476,393.611242 C365.658476,398.950064 364.910423,403.182986 363.414317,406.31001 C361.918211,409.437034 359.876913,411.000546 357.290425,411.000546 Z M392.208022,413.364881 C395.504527,413.364881 398.344593,412.424231 400.72822,410.542933 C403.111846,408.661634 404.63331,406.246453 405.292611,403.297389 L405.292611,403.297389 L406.053343,412.602192 L415.942859,412.602192 L415.942859,388.958841 C415.942859,384.128479 414.484789,380.467573 411.56865,377.976123 C408.652511,375.484673 404.354375,374.238949 398.674243,374.238949 C394.059136,374.238949 390.445659,375.166886 387.833813,377.022762 C385.221966,378.878638 383.916043,381.3828 383.916043,384.535246 C383.916043,385.85724 384.182299,387.052119 384.714812,388.119884 C385.247324,389.187648 386.020735,390.052028 387.035044,390.713025 L387.035044,390.713025 L387.491483,390.179143 C386.477174,389.416454 385.754479,388.60292 385.323397,387.738539 C384.892316,386.874159 384.676775,385.806394 384.676775,384.535246 C384.676775,381.840413 385.754479,379.628616 387.909886,377.899854 C390.065293,376.171093 392.765892,375.306713 396.011681,375.306713 C398.953178,375.306713 401.210016,376.107536 402.782196,377.709182 C404.354375,379.310829 405.140465,381.637029 405.140465,384.687784 L405.140465,384.687784 L405.140465,391.399445 L395.479169,393.07736 C390.458338,393.941741 386.794146,395.263735 384.486592,397.043342 C382.179039,398.822949 381.025262,401.111015 381.025262,403.90754 C381.025262,406.754912 382.05225,409.042978 384.106226,410.771739 C386.160203,412.5005 388.860801,413.364881 392.208022,413.364881 Z M397.076706,410.542933 C395.403096,410.542933 394.084494,409.805667 393.1209,408.331135 C392.157306,406.856604 391.675509,404.797344 391.675509,402.153356 C391.675509,399.407677 392.258737,397.335706 393.425193,395.937443 C394.591648,394.53918 396.493478,393.58582 399.130682,393.07736 L399.130682,393.07736 L405.140465,392.085865 L405.140465,401.314399 C404.785457,403.958386 403.847221,406.157472 402.325757,407.911656 C400.804293,409.66584 399.054609,410.542933 397.076706,410.542933 Z M437.851939,413.364881 C442.720624,413.364881 446.663751,412.15729 449.681321,409.742109 C452.698891,407.326928 454.207676,404.16177 454.207676,400.246635 C454.207676,397.450109 453.345513,395.187466 451.621188,393.458705 C449.896862,391.729944 447.00608,390.306258 442.948843,389.187648 L442.948843,389.187648 L435.49367,387.204657 C432.957897,386.54366 431.195535,385.755548 430.206583,384.840322 C429.217631,383.925096 428.723156,382.704794 428.723156,381.179416 C428.723156,379.348963 429.57264,377.86172 431.271608,376.717687 C432.970576,375.573654 435.189377,375.001637 437.928012,375.001637 C441.275233,375.001637 444.064584,375.662634 446.296064,376.984628 C448.527544,378.306622 450.150439,380.238767 451.164749,382.781062 L451.164749,382.781062 L451.92548,382.475987 C450.911171,379.831999 449.186845,377.798163 446.752503,376.374477 C444.318161,374.950791 441.376664,374.238949 437.928012,374.238949 C433.465052,374.238949 429.775502,375.421116 426.859362,377.785451 C423.943223,380.149786 422.485154,383.162407 422.485154,386.823313 C422.485154,389.518146 423.321959,391.729944 424.995569,393.458705 C426.669179,395.187466 429.23031,396.484037 432.678962,397.348417 L432.678962,397.348417 L440.134135,399.255139 C442.720624,399.916136 444.559059,400.742382 445.649442,401.733878 C446.739824,402.725373 447.285016,404.009232 447.285016,405.585456 C447.285016,407.720984 446.422853,409.424322 444.698527,410.69547 C442.974201,411.966618 440.692005,412.602192 437.851939,412.602192 C434.048279,412.602192 430.663022,411.699677 427.696168,409.894647 C424.729313,408.089617 422.86552,405.687148 422.104788,402.687238 L422.104788,402.687238 L421.344056,402.992314 C422.155503,406.093915 424.09537,408.598076 427.163655,410.504798 C430.231941,412.41152 433.794702,413.364881 437.851939,413.364881 Z M473.910634,413.364881 C478.779319,413.364881 482.722446,412.15729 485.740016,409.742109 C488.757586,407.326928 490.266371,404.16177 490.266371,400.246635 C490.266371,397.450109 489.404208,395.187466 487.679883,393.458705 C485.955557,391.729944 483.064775,390.306258 479.007538,389.187648 L479.007538,389.187648 L471.552365,387.204657 C469.016592,386.54366 467.254229,385.755548 466.265278,384.840322 C465.276326,383.925096 464.781851,382.704794 464.781851,381.179416 C464.781851,379.348963 465.631335,377.86172 467.330303,376.717687 C469.029271,375.573654 471.248072,375.001637 473.986707,375.001637 C477.333928,375.001637 480.123278,375.662634 482.354759,376.984628 C484.586239,378.306622 486.209134,380.238767 487.223443,382.781062 L487.223443,382.781062 L487.984175,382.475987 C486.969866,379.831999 485.24554,377.798163 482.811198,376.374477 C480.376856,374.950791 477.435359,374.238949 473.986707,374.238949 C469.523746,374.238949 465.834196,375.421116 462.918057,377.785451 C460.001918,380.149786 458.543849,383.162407 458.543849,386.823313 C458.543849,389.518146 459.380654,391.729944 461.054264,393.458705 C462.727874,395.187466 465.289005,396.484037 468.737657,397.348417 L468.737657,397.348417 L476.19283,399.255139 C478.779319,399.916136 480.617754,400.742382 481.708137,401.733878 C482.798519,402.725373 483.34371,404.009232 483.34371,405.585456 C483.34371,407.720984 482.481548,409.424322 480.757222,410.69547 C479.032896,411.966618 476.7507,412.602192 473.910634,412.602192 C470.106974,412.602192 466.721717,411.699677 463.754862,409.894647 C460.788008,408.089617 458.924215,405.687148 458.163483,402.687238 L458.163483,402.687238 L457.402751,402.992314 C458.214198,406.093915 460.154065,408.598076 463.22235,410.504798 C466.290636,412.41152 469.853397,413.364881 473.910634,413.364881 Z M513.772989,413.364881 C518.286665,413.364881 522.039609,412.284405 525.031822,410.123454 C528.024034,407.962502 530.027295,404.924459 531.041604,401.009323 L531.041604,401.009323 L530.280872,400.780517 C529.418709,404.238039 527.783136,406.958295 525.374151,408.941286 C522.965167,410.924277 520.163137,411.915772 516.968063,411.915772 C513.215119,411.915772 510.413089,410.466664 508.561975,407.568446 C506.71086,404.670229 505.785303,400.29748 505.785303,394.4502 L505.785303,394.4502 L505.785303,392.314672 L531.269824,392.314672 C531.269824,389.772376 530.851421,387.382618 530.014616,385.145397 C529.177811,382.908177 527.998676,380.976032 526.477213,379.348963 C524.854318,377.671048 522.952488,376.3999 520.771723,375.535519 C518.590958,374.671139 516.181973,374.238949 513.544769,374.238949 C510.907565,374.238949 508.384471,374.734696 505.975486,375.726192 C503.566502,376.717687 501.474489,378.128661 499.699448,379.959114 C497.924406,381.789567 496.567768,383.912384 495.629532,386.327565 C494.691296,388.742746 494.222177,391.348599 494.222177,394.145125 C494.222177,396.839958 494.716653,399.356831 495.705605,401.695743 C496.694556,404.034655 498.10191,406.093915 499.927667,407.873522 C501.753424,409.602283 503.883473,410.9497 506.317816,411.915772 C508.752158,412.881845 511.237216,413.364881 513.772989,413.364881 Z M520.543503,391.551983 L505.785303,391.551983 C505.93745,385.908086 506.647466,381.72601 507.915353,379.005753 C509.183239,376.285497 511.059712,374.925368 513.544769,374.925368 C516.029827,374.925368 517.817547,376.183805 518.90793,378.700678 C519.998312,381.21755 520.543503,385.501319 520.543503,391.551983 L520.543503,391.551983 Z M548.690586,412.602192 L548.690586,388.043615 C548.690586,386.670775 548.893448,385.33607 549.299171,384.039499 C549.704895,382.742928 550.288123,381.56076 551.048855,380.492996 C551.911018,379.221848 552.912648,378.230353 554.053746,377.51851 C555.194844,376.806667 556.348621,376.450746 557.515077,376.450746 C559.391549,376.450746 560.786224,377.048185 561.699102,378.243064 C562.611981,379.437943 563.06842,381.255685 563.06842,383.696289 L563.06842,383.696289 L563.06842,412.602192 L574.02296,412.602192 L574.02296,387.280926 C574.02296,383.314945 572.919899,380.149786 570.713776,377.785451 C568.507653,375.421116 565.502762,374.238949 561.699102,374.238949 C558.453313,374.238949 555.676641,375.103329 553.369087,376.83209 C551.061534,378.560851 549.502033,380.950609 548.690586,384.001364 L548.690586,384.001364 L548.386293,375.001637 L537.736046,375.001637 L537.736046,412.602192 L548.690586,412.602192 Z" id="KeinenHöhepunktverpassen" stroke="#000000" stroke-width="0.95441042" fill="#000000" fill-rule="nonzero"></path>
    </g>
</svg>