<?xml version="1.0" encoding="UTF-8"?>
<svg width="800px" height="633px" viewBox="0 0 800 633" version="1.1" xmlns="http://www.w3.org/2000/svg" xmlns:xlink="http://www.w3.org/1999/xlink">
    <!-- Generator: Sketch 63.1 (92452) - https://sketch.com -->
    <title>claim_01</title>
    <desc>Created with Sketch.</desc>
    <g id="claim_01" stroke="none" stroke-width="1" fill="none" fill-rule="evenodd">
        <rect fill="#1A1A1A" x="0" y="0" width="800" height="633"></rect>
        <text id="PORNY-DAYS-–-FILM-KU" font-family="OpenSans-Bold, Open Sans" font-size="19.7226502" font-weight="bold" fill="#FAD1D1">
            <tspan x="221" y="220">PORNY DAYS – FILM KUNST FESTIVAL</tspan>
        </text>
        <path d="M112.3367,329.010299 L112.3367,271.8203 L100,271.8203 L100,329.010299 L112.3367,329.010299 Z M135.8663,329.010299 L135.8663,289.5492 L146.323899,289.5492 L146.732399,288.7322 L135.8663,288.7322 L135.8663,278.7648 C135.8663,275.387867 136.506283,272.814317 137.78625,271.04415 C139.066216,269.273983 140.958933,268.3889 143.464399,268.3889 C146.078799,268.3889 148.162149,269.096967 149.714449,270.5131 C151.266749,271.929233 152.042899,273.808333 152.042899,276.1504 C152.042899,277.239733 151.852266,278.23375 151.470999,279.13245 C151.089733,280.03115 150.490599,280.861766 149.673599,281.6243 L149.673599,281.6243 L150.245499,282.1145 C151.062499,281.4609 151.702483,280.60305 152.165449,279.54095 C152.628416,278.47885 152.859899,277.348667 152.859899,276.1504 C152.859899,273.3726 151.825033,271.153083 149.755299,269.49185 C147.685566,267.830617 144.880533,267 141.340199,267 C138.834733,267 136.533516,267.422117 134.43655,268.26635 C132.339583,269.110583 130.501333,270.322467 128.9218,271.902 C127.342266,273.481533 126.144,275.3334 125.327,277.4576 C124.51,279.5818 124.1015,281.8694 124.1015,284.3204 L124.1015,284.3204 L124.1015,288.7322 L118.4642,288.7322 L118.4642,289.5492 L124.1015,289.5492 L124.1015,329.010299 L135.8663,329.010299 Z M171.487499,347.392799 C173.175966,347.392799 174.728266,346.957066 176.144399,346.085599 C177.560532,345.214132 178.922199,343.852466 180.229399,342.000599 C180.937466,340.965732 181.686382,339.726616 182.476149,338.283249 C183.265916,336.839882 184.205466,334.919932 185.294799,332.523399 L185.294799,332.523399 L205.638099,288.7322 L204.657699,288.7322 L191.422299,317.245499 L178.268599,288.7322 L165.686799,288.7322 L185.866699,329.337099 L184.396099,332.523399 C183.306766,334.865466 182.394449,336.703716 181.659149,338.038149 C180.923849,339.372582 180.229399,340.502766 179.575799,341.428699 C178.377532,343.226099 177.124799,344.533299 175.817599,345.350299 C174.510399,346.167299 173.067032,346.575799 171.487499,346.575799 C169.254366,346.575799 167.470582,345.881349 166.136149,344.492449 C164.801716,343.103549 164.134499,341.265299 164.134499,338.977699 C164.134499,338.215166 164.257049,337.466249 164.502149,336.730949 C164.747249,335.995649 165.142133,335.165032 165.686799,334.239099 L165.686799,334.239099 L164.869799,333.912299 C164.325133,334.783766 163.930249,335.627999 163.685149,336.444999 C163.440049,337.261999 163.317499,338.106232 163.317499,338.977699 C163.317499,341.537632 164.066416,343.580132 165.564249,345.105199 C167.062082,346.630266 169.036499,347.392799 171.487499,347.392799 Z M229.576198,329.827299 C232.462932,329.827299 235.213498,329.309866 237.827898,328.274999 C240.442298,327.240133 242.757132,325.769533 244.772398,323.863199 C246.842131,321.956866 248.421665,319.710116 249.510998,317.122949 C250.600331,314.535783 251.144998,311.798833 251.144998,308.912099 C251.144998,306.025366 250.600331,303.288416 249.510998,300.70125 C248.421665,298.114083 246.842131,295.8401 244.772398,293.8793 C242.757132,291.972966 240.442298,290.502366 237.827898,289.4675 C235.213498,288.432633 232.462932,287.9152 229.576198,287.9152 C226.689465,287.9152 223.925282,288.432633 221.283648,289.4675 C218.642015,290.502366 216.340799,291.972966 214.379999,293.8793 C212.310265,295.8401 210.730732,298.114083 209.641399,300.70125 C208.552065,303.288416 208.007399,306.025366 208.007399,308.912099 C208.007399,311.798833 208.552065,314.535783 209.641399,317.122949 C210.730732,319.710116 212.310265,321.956866 214.379999,323.863199 C216.340799,325.769533 218.642015,327.240133 221.283648,328.274999 C223.925282,329.309866 226.689465,329.827299 229.576198,329.827299 Z M229.576198,329.091999 C226.308198,329.091999 223.966132,327.498849 222.549998,324.312549 C221.133865,321.126249 220.425798,315.992766 220.425798,308.912099 C220.425798,301.776966 221.133865,296.61625 222.549998,293.42995 C223.966132,290.24365 226.308198,288.6505 229.576198,288.6505 C232.844198,288.6505 235.186265,290.24365 236.602398,293.42995 C238.018532,296.61625 238.726598,301.776966 238.726598,308.912099 C238.726598,315.992766 238.018532,321.126249 236.602398,324.312549 C235.186265,327.498849 232.844198,329.091999 229.576198,329.091999 Z M270.834698,329.827299 C274.266098,329.827299 277.166448,328.914983 279.535748,327.090349 C281.905048,325.265716 283.552664,322.692166 284.478598,319.369699 L284.478598,319.369699 L284.805398,329.010299 L296.243398,329.010299 L296.243398,288.7322 L284.478598,288.7322 L284.478598,315.039599 C284.424131,316.510199 284.206264,317.926333 283.824998,319.287999 C283.443731,320.649666 282.871831,321.902399 282.109298,323.046199 C281.237831,324.462333 280.202964,325.551666 279.004698,326.314199 C277.806431,327.076733 276.580931,327.457999 275.328198,327.457999 C273.367398,327.457999 271.896798,326.790783 270.916398,325.456349 C269.935998,324.121916 269.445798,322.174733 269.445798,319.614799 L269.445798,319.614799 L269.445798,288.7322 L257.680998,288.7322 L257.680998,315.774899 C257.680998,320.023299 258.852031,323.427466 261.194098,325.987399 C263.536165,328.547333 266.749698,329.827299 270.834698,329.827299 Z M343.139197,329.827299 C347.82333,329.827299 351.676847,328.669883 354.699747,326.355049 C357.722647,324.040216 359.66983,320.785833 360.541297,316.591899 L360.541297,316.591899 L359.724297,316.346799 C359.070697,319.941599 357.559247,322.787483 355.189947,324.884449 C352.820647,326.981416 350.083697,328.029899 346.979097,328.029899 C343.16643,328.029899 340.238847,326.395899 338.196347,323.127899 C336.153847,319.859899 335.132597,315.202999 335.132597,309.157199 C335.132597,303.1114 336.30363,298.345566 338.645697,294.8597 C340.987764,291.373833 344.119597,289.6309 348.041197,289.6309 C351.036864,289.6309 353.487863,290.584066 355.394197,292.4904 C357.30053,294.396733 358.253697,296.847733 358.253697,299.8434 C358.253697,301.368466 357.981363,302.716516 357.436697,303.88755 C356.89203,305.058583 356.102263,306.0526 355.067397,306.869599 L355.067397,306.869599 L355.557597,307.441499 C356.64693,306.678966 357.50478,305.616866 358.131147,304.2552 C358.757513,302.893533 359.070697,301.422933 359.070697,299.8434 C359.070697,296.2486 357.74988,293.361866 355.108247,291.1832 C352.466613,289.004533 348.912664,287.9152 344.446397,287.9152 C341.559664,287.9152 338.781864,288.44625 336.112997,289.50835 C333.44413,290.57045 331.102064,292.0819 329.086797,294.0427 C327.017064,296.057966 325.451147,298.3728 324.389047,300.9872 C323.326947,303.6016 322.795897,306.406633 322.795897,309.402299 C322.795897,312.289033 323.299714,314.971516 324.307347,317.449749 C325.314981,319.927983 326.771964,322.093033 328.678297,323.944899 C330.58463,325.851233 332.79053,327.308216 335.295997,328.315849 C337.801464,329.323483 340.415864,329.827299 343.139197,329.827299 Z M385.541496,329.827299 C388.42823,329.827299 391.178796,329.309866 393.793196,328.274999 C396.407596,327.240133 398.72243,325.769533 400.737696,323.863199 C402.80743,321.956866 404.386963,319.710116 405.476296,317.122949 C406.565629,314.535783 407.110296,311.798833 407.110296,308.912099 C407.110296,306.025366 406.565629,303.288416 405.476296,300.70125 C404.386963,298.114083 402.80743,295.8401 400.737696,293.8793 C398.72243,291.972966 396.407596,290.502366 393.793196,289.4675 C391.178796,288.432633 388.42823,287.9152 385.541496,287.9152 C382.654763,287.9152 379.89058,288.432633 377.248947,289.4675 C374.607313,290.502366 372.306097,291.972966 370.345297,293.8793 C368.275563,295.8401 366.69603,298.114083 365.606697,300.70125 C364.517363,303.288416 363.972697,306.025366 363.972697,308.912099 C363.972697,311.798833 364.517363,314.535783 365.606697,317.122949 C366.69603,319.710116 368.275563,321.956866 370.345297,323.863199 C372.306097,325.769533 374.607313,327.240133 377.248947,328.274999 C379.89058,329.309866 382.654763,329.827299 385.541496,329.827299 Z M385.541496,329.091999 C382.273496,329.091999 379.93143,327.498849 378.515297,324.312549 C377.099163,321.126249 376.391097,315.992766 376.391097,308.912099 C376.391097,301.776966 377.099163,296.61625 378.515297,293.42995 C379.93143,290.24365 382.273496,288.6505 385.541496,288.6505 C388.809496,288.6505 391.151563,290.24365 392.567696,293.42995 C393.98383,296.61625 394.691896,301.776966 394.691896,308.912099 C394.691896,315.992766 393.98383,321.126249 392.567696,324.312549 C391.151563,327.498849 388.809496,329.091999 385.541496,329.091999 Z M425.819596,329.010299 L425.819596,302.5395 C425.874063,301.0689 426.091929,299.666383 426.473196,298.33195 C426.854463,296.997516 427.371896,295.785633 428.025496,294.6963 C428.896963,293.3891 429.904596,292.354233 431.048396,291.5917 C432.192196,290.829166 433.390462,290.4479 434.643196,290.4479 C436.549529,290.4479 437.979279,291.087883 438.932446,292.36785 C439.885612,293.647816 440.362196,295.567766 440.362196,298.1277 L440.362196,298.1277 L440.362196,329.010299 L452.126996,329.010299 L452.126996,302.5395 C452.181462,301.0689 452.399329,299.666383 452.780596,298.33195 C453.161862,296.997516 453.679296,295.785633 454.332896,294.6963 C455.204362,293.3891 456.211996,292.354233 457.355796,291.5917 C458.499596,290.829166 459.697862,290.4479 460.950595,290.4479 C462.856929,290.4479 464.286679,291.087883 465.239845,292.36785 C466.193012,293.647816 466.669595,295.567766 466.669595,298.1277 L466.669595,298.1277 L466.669595,329.010299 L478.434395,329.010299 L478.434395,302.131 C478.434395,297.7192 477.317829,294.24695 475.084695,291.71425 C472.851562,289.18155 469.719729,287.9152 465.689195,287.9152 C462.148862,287.9152 459.180429,288.868366 456.783896,290.7747 C454.387362,292.681033 452.753362,295.377133 451.881896,298.863 C451.391696,295.4316 450.057262,292.749116 447.878596,290.81555 C445.699929,288.881983 442.867662,287.9152 439.381796,287.9152 C435.895929,287.9152 432.981962,288.8139 430.639896,290.6113 C428.297829,292.4087 426.691063,294.968633 425.819596,298.2911 L425.819596,298.2911 L425.492796,288.7322 L414.054796,288.7322 L414.054796,329.010299 L425.819596,329.010299 Z M505.967295,329.827299 C510.814828,329.827299 514.845361,328.669883 518.058895,326.355049 C521.272428,324.040216 523.423861,320.785833 524.513195,316.591899 L524.513195,316.591899 L523.696195,316.346799 C522.770261,320.050533 521.013711,322.964499 518.426545,325.088699 C515.839378,327.212899 512.830095,328.274999 509.398695,328.274999 C505.368162,328.274999 502.358878,326.722699 500.370845,323.618099 C498.382812,320.513499 497.388795,315.829366 497.388795,309.565699 L497.388795,309.565699 L497.388795,307.278099 L524.758295,307.278099 C524.758295,304.554766 524.308945,301.994833 523.410245,299.5983 C522.511545,297.201766 521.245195,295.132033 519.611195,293.3891 C517.868261,291.5917 515.825761,290.230033 513.483695,289.3041 C511.141628,288.378166 508.554462,287.9152 505.722195,287.9152 C502.889928,287.9152 500.180212,288.44625 497.593045,289.50835 C495.005878,290.57045 492.759128,292.0819 490.852795,294.0427 C488.946462,296.0035 487.489478,298.277483 486.481845,300.86465 C485.474212,303.451816 484.970395,306.243233 484.970395,309.238899 C484.970395,312.125633 485.501445,314.821733 486.563545,317.327199 C487.625645,319.832666 489.137095,322.038566 491.097895,323.944899 C493.058695,325.796766 495.346295,327.240133 497.960695,328.274999 C500.575095,329.309866 503.243962,329.827299 505.967295,329.827299 Z M513.238595,306.4611 L497.388795,306.4611 C497.552195,300.4153 498.314728,295.935416 499.676395,293.02145 C501.038062,290.107483 503.053328,288.6505 505.722195,288.6505 C508.391062,288.6505 510.311012,289.99855 511.482045,292.69465 C512.653078,295.39075 513.238595,299.979566 513.238595,306.4611 L513.238595,306.4611 Z M530.068795,342.817599 C534.698461,342.817599 538.170711,341.714649 540.485544,339.508749 C542.800378,337.302849 543.957794,333.993999 543.957794,329.582199 L543.957794,329.582199 L543.957794,316.183399 L531.294295,316.183399 L531.294295,329.010299 L543.140794,329.010299 L543.140794,329.663899 C543.140794,333.803366 542.051461,336.894349 539.872794,338.936849 C537.694128,340.979349 534.426128,342.000599 530.068795,342.000599 L530.068795,342.000599 L530.068795,342.817599 Z M574.350194,347.392799 C576.038661,347.392799 577.590961,346.957066 579.007094,346.085599 C580.423227,345.214132 581.784894,343.852466 583.092094,342.000599 C583.800161,340.965732 584.549077,339.726616 585.338844,338.283249 C586.128611,336.839882 587.068161,334.919932 588.157494,332.523399 L588.157494,332.523399 L608.500794,288.7322 L607.520394,288.7322 L594.284994,317.245499 L581.131294,288.7322 L568.549494,288.7322 L588.729394,329.337099 L587.258794,332.523399 C586.169461,334.865466 585.257144,336.703716 584.521844,338.038149 C583.786544,339.372582 583.092094,340.502766 582.438494,341.428699 C581.240227,343.226099 579.987494,344.533299 578.680294,345.350299 C577.373094,346.167299 575.929727,346.575799 574.350194,346.575799 C572.117061,346.575799 570.333277,345.881349 568.998844,344.492449 C567.664411,343.103549 566.997194,341.265299 566.997194,338.977699 C566.997194,338.215166 567.119744,337.466249 567.364844,336.730949 C567.609944,335.995649 568.004827,335.165032 568.549494,334.239099 L568.549494,334.239099 L567.732494,333.912299 C567.187827,334.783766 566.792944,335.627999 566.547844,336.444999 C566.302744,337.261999 566.180194,338.106232 566.180194,338.977699 C566.180194,341.537632 566.929111,343.580132 568.426944,345.105199 C569.924777,346.630266 571.899194,347.392799 574.350194,347.392799 Z M632.438893,329.827299 C635.325627,329.827299 638.076193,329.309866 640.690593,328.274999 C643.304993,327.240133 645.619826,325.769533 647.635093,323.863199 C649.704826,321.956866 651.28436,319.710116 652.373693,317.122949 C653.463026,314.535783 654.007693,311.798833 654.007693,308.912099 C654.007693,306.025366 653.463026,303.288416 652.373693,300.70125 C651.28436,298.114083 649.704826,295.8401 647.635093,293.8793 C645.619826,291.972966 643.304993,290.502366 640.690593,289.4675 C638.076193,288.432633 635.325627,287.9152 632.438893,287.9152 C629.55216,287.9152 626.787977,288.432633 624.146343,289.4675 C621.50471,290.502366 619.203493,291.972966 617.242694,293.8793 C615.17296,295.8401 613.593427,298.114083 612.504094,300.70125 C611.41476,303.288416 610.870094,306.025366 610.870094,308.912099 C610.870094,311.798833 611.41476,314.535783 612.504094,317.122949 C613.593427,319.710116 615.17296,321.956866 617.242694,323.863199 C619.203493,325.769533 621.50471,327.240133 624.146343,328.274999 C626.787977,329.309866 629.55216,329.827299 632.438893,329.827299 Z M632.438893,329.091999 C629.170893,329.091999 626.828827,327.498849 625.412693,324.312549 C623.99656,321.126249 623.288493,315.992766 623.288493,308.912099 C623.288493,301.776966 623.99656,296.61625 625.412693,293.42995 C626.828827,290.24365 629.170893,288.6505 632.438893,288.6505 C635.706893,288.6505 638.04896,290.24365 639.465093,293.42995 C640.881227,296.61625 641.589293,301.776966 641.589293,308.912099 C641.589293,315.992766 640.881227,321.126249 639.465093,324.312549 C638.04896,327.498849 635.706893,329.091999 632.438893,329.091999 Z M673.697393,329.827299 C677.128793,329.827299 680.029143,328.914983 682.398443,327.090349 C684.767743,325.265716 686.415359,322.692166 687.341293,319.369699 L687.341293,319.369699 L687.668093,329.010299 L699.106092,329.010299 L699.106092,288.7322 L687.341293,288.7322 L687.341293,315.039599 C687.286826,316.510199 687.068959,317.926333 686.687693,319.287999 C686.306426,320.649666 685.734526,321.902399 684.971993,323.046199 C684.100526,324.462333 683.065659,325.551666 681.867393,326.314199 C680.669126,327.076733 679.443626,327.457999 678.190893,327.457999 C676.230093,327.457999 674.759493,326.790783 673.779093,325.456349 C672.798693,324.121916 672.308493,322.174733 672.308493,319.614799 L672.308493,319.614799 L672.308493,288.7322 L660.543693,288.7322 L660.543693,315.774899 C660.543693,320.023299 661.714726,323.427466 664.056793,325.987399 C666.39886,328.547333 669.612393,329.827299 673.697393,329.827299 Z M120.7518,417.932198 L132.1081,391.134598 L144.036299,417.932198 L144.363099,417.932198 L161.520099,377.082199 L160.621399,377.082199 L149.183399,404.369998 L137.9905,377.082199 L125.8989,377.082199 L131.6996,390.154198 L125.6538,404.369998 L113.8073,377.082199 L101.634,377.082199 L120.425,417.932198 L120.7518,417.932198 Z M178.513699,369.974299 L178.513699,358.209499 L166.667199,358.209499 L166.667199,369.974299 L178.513699,369.974299 Z M178.513699,417.360298 L178.513699,377.082199 L166.748899,377.082199 L166.748899,417.360298 L178.513699,417.360298 Z M200.082499,417.360298 L200.082499,356.166999 L188.317699,356.166999 L188.317699,417.360298 L200.082499,417.360298 Z M221.651298,417.360298 L221.651298,356.166999 L209.886499,356.166999 L209.886499,417.360298 L221.651298,417.360298 Z M268.628798,418.177298 C273.312931,418.177298 277.166448,417.019881 280.189348,414.705048 C283.212248,412.390215 285.159431,409.135832 286.030898,404.941898 L286.030898,404.941898 L285.213898,404.696798 C284.560298,408.291598 283.048848,411.137482 280.679548,413.234448 C278.310248,415.331415 275.573298,416.379898 272.468698,416.379898 C268.656031,416.379898 265.728448,414.745898 263.685948,411.477898 C261.643448,408.209898 260.622198,403.552998 260.622198,397.507198 C260.622198,391.461398 261.793231,386.695565 264.135298,383.209699 C266.477365,379.723832 269.609198,377.980899 273.530798,377.980899 C276.526464,377.980899 278.977464,378.934065 280.883798,380.840399 C282.790131,382.746732 283.743298,385.197732 283.743298,388.193398 C283.743298,389.718465 283.470964,391.066515 282.926298,392.237548 C282.381631,393.408582 281.591864,394.402598 280.556998,395.219598 L280.556998,395.219598 L281.047198,395.791498 C282.136531,395.028965 282.994381,393.966865 283.620748,392.605198 C284.247114,391.243532 284.560298,389.772932 284.560298,388.193398 C284.560298,384.598599 283.239481,381.711865 280.597848,379.533199 C277.956214,377.354532 274.402264,376.265199 269.935998,376.265199 C267.049265,376.265199 264.271465,376.796249 261.602598,377.858349 C258.933731,378.920449 256.591665,380.431899 254.576398,382.392699 C252.506665,384.407965 250.940748,386.722798 249.878648,389.337198 C248.816548,391.951598 248.285498,394.756632 248.285498,397.752298 C248.285498,400.639032 248.789315,403.321515 249.796948,405.799748 C250.804581,408.277982 252.261565,410.443032 254.167898,412.294898 C256.074231,414.201231 258.280131,415.658215 260.785598,416.665848 C263.291065,417.673481 265.905465,418.177298 268.628798,418.177298 Z M311.031097,418.177298 C313.917831,418.177298 316.668397,417.659865 319.282797,416.624998 C321.897197,415.590131 324.212031,414.119531 326.227297,412.213198 C328.29703,410.306865 329.876564,408.060115 330.965897,405.472948 C332.05523,402.885782 332.599897,400.148832 332.599897,397.262098 C332.599897,394.375365 332.05523,391.638415 330.965897,389.051248 C329.876564,386.464082 328.29703,384.190099 326.227297,382.229299 C324.212031,380.322965 321.897197,378.852365 319.282797,377.817499 C316.668397,376.782632 313.917831,376.265199 311.031097,376.265199 C308.144364,376.265199 305.380181,376.782632 302.738547,377.817499 C300.096914,378.852365 297.795698,380.322965 295.834898,382.229299 C293.765164,384.190099 292.185631,386.464082 291.096298,389.051248 C290.006964,391.638415 289.462298,394.375365 289.462298,397.262098 C289.462298,400.148832 290.006964,402.885782 291.096298,405.472948 C292.185631,408.060115 293.765164,410.306865 295.834898,412.213198 C297.795698,414.119531 300.096914,415.590131 302.738547,416.624998 C305.380181,417.659865 308.144364,418.177298 311.031097,418.177298 Z M311.031097,417.441998 C307.763097,417.441998 305.421031,415.848848 304.004897,412.662548 C302.588764,409.476248 301.880697,404.342765 301.880697,397.262098 C301.880697,390.126965 302.588764,384.966249 304.004897,381.779949 C305.421031,378.593649 307.763097,377.000499 311.031097,377.000499 C314.299097,377.000499 316.641164,378.593649 318.057297,381.779949 C319.473431,384.966249 320.181497,390.126965 320.181497,397.262098 C320.181497,404.342765 319.473431,409.476248 318.057297,412.662548 C316.641164,415.848848 314.299097,417.441998 311.031097,417.441998 Z M351.309197,417.360298 L351.309197,390.889498 C351.363664,389.418898 351.58153,388.016382 351.962797,386.681948 C352.344064,385.347515 352.861497,384.135632 353.515097,383.046299 C354.386563,381.739099 355.394197,380.704232 356.537997,379.941699 C357.681797,379.179165 358.880063,378.797899 360.132797,378.797899 C362.03913,378.797899 363.46888,379.437882 364.422047,380.717849 C365.375213,381.997815 365.851797,383.917765 365.851797,386.477699 L365.851797,386.477699 L365.851797,417.360298 L377.616597,417.360298 L377.616597,390.889498 C377.671063,389.418898 377.88893,388.016382 378.270197,386.681948 C378.651463,385.347515 379.168896,384.135632 379.822496,383.046299 C380.693963,381.739099 381.701596,380.704232 382.845396,379.941699 C383.989196,379.179165 385.187463,378.797899 386.440196,378.797899 C388.34653,378.797899 389.77628,379.437882 390.729446,380.717849 C391.682613,381.997815 392.159196,383.917765 392.159196,386.477699 L392.159196,386.477699 L392.159196,417.360298 L403.923996,417.360298 L403.923996,390.480998 C403.923996,386.069199 402.80743,382.596949 400.574296,380.064249 C398.341163,377.531549 395.20933,376.265199 391.178796,376.265199 C387.638463,376.265199 384.67003,377.218365 382.273496,379.124699 C379.876963,381.031032 378.242963,383.727132 377.371497,387.212998 C376.881297,383.781599 375.546863,381.099115 373.368197,379.165549 C371.18953,377.231982 368.357263,376.265199 364.871397,376.265199 C361.38553,376.265199 358.471563,377.163899 356.129497,378.961299 C353.78743,380.758699 352.180664,383.318632 351.309197,386.641098 L351.309197,386.641098 L350.982397,377.082199 L339.544397,377.082199 L339.544397,417.360298 L351.309197,417.360298 Z M431.456896,418.177298 C436.304429,418.177298 440.334962,417.019881 443.548496,414.705048 C446.762029,412.390215 448.913462,409.135832 450.002796,404.941898 L450.002796,404.941898 L449.185796,404.696798 C448.259862,408.400532 446.503312,411.314498 443.916146,413.438698 C441.328979,415.562898 438.319696,416.624998 434.888296,416.624998 C430.857763,416.624998 427.848479,415.072698 425.860446,411.968098 C423.872413,408.863498 422.878396,404.179365 422.878396,397.915698 L422.878396,397.915698 L422.878396,395.628098 L450.247896,395.628098 C450.247896,392.904765 449.798546,390.344832 448.899846,387.948298 C448.001146,385.551765 446.734796,383.482032 445.100796,381.739099 C443.357862,379.941699 441.315362,378.580032 438.973296,377.654099 C436.631229,376.728165 434.044062,376.265199 431.211796,376.265199 C428.379529,376.265199 425.669813,376.796249 423.082646,377.858349 C420.495479,378.920449 418.248729,380.431899 416.342396,382.392699 C414.436063,384.353499 412.979079,386.627482 411.971446,389.214648 C410.963813,391.801815 410.459996,394.593232 410.459996,397.588898 C410.459996,400.475632 410.991046,403.171732 412.053146,405.677198 C413.115246,408.182665 414.626696,410.388565 416.587496,412.294898 C418.548296,414.146765 420.835896,415.590131 423.450296,416.624998 C426.064696,417.659865 428.733563,418.177298 431.456896,418.177298 Z M438.728196,394.811098 L422.878396,394.811098 C423.041796,388.765298 423.804329,384.285415 425.165996,381.371449 C426.527663,378.457482 428.542929,377.000499 431.211796,377.000499 C433.880662,377.000499 435.800612,378.348549 436.971646,381.044649 C438.142679,383.740749 438.728196,388.329565 438.728196,394.811098 L438.728196,394.811098 Z M485.950795,418.177298 C489.491128,418.177298 492.541262,417.169665 495.101195,415.154398 C497.661128,413.139131 499.295128,410.551965 500.003195,407.392898 L500.003195,407.392898 L500.820195,417.360298 L511.441195,417.360298 L511.441195,392.033298 C511.441195,386.858965 509.875278,382.937365 506.743445,380.268499 C503.611612,377.599632 498.995562,376.265199 492.895295,376.265199 C487.938828,376.265199 484.058079,377.259215 481.253045,379.247249 C478.448012,381.235282 477.045495,383.917765 477.045495,387.294698 C477.045495,388.710832 477.331445,389.990798 477.903345,391.134598 C478.475245,392.278398 479.305862,393.204332 480.395195,393.912398 L480.395195,393.912398 L480.885395,393.340498 C479.796062,392.523498 479.019912,391.652032 478.556945,390.726098 C478.093979,389.800165 477.862495,388.656365 477.862495,387.294698 C477.862495,384.407965 479.019912,382.038665 481.334745,380.186799 C483.649579,378.334932 486.549928,377.408999 490.035795,377.408999 C493.194862,377.408999 495.618628,378.266849 497.307095,379.982549 C498.995562,381.698249 499.839795,384.190099 499.839795,387.458098 L499.839795,387.458098 L499.839795,394.647698 L489.463895,396.445098 C484.071695,397.371032 480.136479,398.787165 477.658245,400.693498 C475.180012,402.599832 473.940895,405.050832 473.940895,408.046498 C473.940895,411.096632 475.043845,413.547631 477.249745,415.399498 C479.455645,417.251365 482.355995,418.177298 485.950795,418.177298 Z M491.179595,415.154398 C489.382195,415.154398 487.966062,414.364631 486.931195,412.785098 C485.896328,411.205565 485.378895,408.999665 485.378895,406.167398 C485.378895,403.226198 486.005262,401.006682 487.257995,399.508848 C488.510728,398.011015 490.553228,396.989765 493.385495,396.445098 L493.385495,396.445098 L499.839795,395.382998 L499.839795,405.268698 C499.458528,408.100965 498.450895,410.456648 496.816895,412.335748 C495.182895,414.214848 493.303795,415.154398 491.179595,415.154398 Z M536.277995,435.742798 C539.219194,435.742798 542.051461,435.443231 544.774794,434.844098 C547.498128,434.244965 549.921894,433.373498 552.046094,432.229698 C554.878361,430.759098 557.029794,428.934465 558.500394,426.755798 C559.970994,424.577131 560.706294,422.153365 560.706294,419.484498 C560.706294,415.726298 559.426328,412.853182 556.866394,410.865148 C554.306461,408.877115 550.657194,407.883098 545.918594,407.883098 L545.918594,407.883098 L527.127595,407.883098 C525.656995,407.883098 524.526811,407.637998 523.737045,407.147798 C522.947278,406.657598 522.552395,405.922298 522.552395,404.941898 C522.552395,404.124898 522.920045,403.362365 523.655345,402.654298 C524.390645,401.946232 525.493595,401.319865 526.964195,400.775198 C528.380328,401.428798 529.919011,401.932615 531.580245,402.286648 C533.241478,402.640682 535.025261,402.817698 536.931595,402.817698 C539.273661,402.817698 541.438711,402.558982 543.426744,402.041548 C545.414778,401.524115 547.198561,400.747965 548.778094,399.713098 C550.684428,398.514832 552.141411,397.030615 553.149044,395.260448 C554.156678,393.490282 554.660494,391.570332 554.660494,389.500598 C554.660494,387.267465 554.074978,385.224965 552.903944,383.373099 C551.732911,381.521232 550.058061,379.996165 547.879394,378.797899 C549.077661,376.837099 550.357628,375.366499 551.719294,374.386099 C553.080961,373.405699 554.551561,372.915499 556.131094,372.915499 C557.982961,372.915499 559.426328,373.405699 560.461194,374.386099 C561.496061,375.366499 562.013494,376.728165 562.013494,378.471099 C562.013494,379.397032 561.850094,380.254882 561.523294,381.044649 C561.196494,381.834415 560.651828,382.637799 559.889294,383.454799 L559.889294,383.454799 L560.461194,383.944999 C561.223728,383.182465 561.809244,382.338232 562.217744,381.412299 C562.626244,380.486365 562.830494,379.505965 562.830494,378.471099 C562.830494,376.510299 562.231361,374.957999 561.033094,373.814199 C559.834828,372.670399 558.200828,372.098499 556.131094,372.098499 C554.388161,372.098499 552.795011,372.602315 551.351644,373.609949 C549.908278,374.617582 548.505761,376.210732 547.144094,378.389399 C545.673494,377.681332 544.080344,377.150282 542.364644,376.796249 C540.648944,376.442215 538.837928,376.265199 536.931595,376.265199 C534.643995,376.265199 532.492561,376.523915 530.477295,377.041349 C528.462028,377.558782 526.691861,378.307699 525.166795,379.288099 C523.260461,380.540832 521.803478,382.038665 520.795845,383.781599 C519.788211,385.524532 519.284395,387.430865 519.284395,389.500598 C519.284395,391.788198 519.883528,393.885165 521.081795,395.791498 C522.280061,397.697832 523.995761,399.222898 526.228895,400.366698 C523.832361,401.292632 521.980495,402.558982 520.673295,404.165748 C519.366095,405.772515 518.712495,407.610765 518.712495,409.680498 C518.712495,411.804698 519.366095,413.642948 520.673295,415.195248 C521.980495,416.747548 523.777895,417.768798 526.065495,418.258998 C523.287695,418.258998 520.959245,418.967065 519.080145,420.383198 C517.201045,421.799331 516.261495,423.623965 516.261495,425.857098 C516.261495,429.016165 518.031661,431.453548 521.571995,433.169248 C525.112328,434.884948 530.014328,435.742798 536.277995,435.742798 Z M536.931595,402.082398 C534.643995,402.082398 533.023611,401.101998 532.070445,399.141198 C531.117278,397.180398 530.640695,393.966865 530.640695,389.500598 C530.640695,385.088799 531.130895,381.902499 532.111295,379.941699 C533.091695,377.980899 534.698461,377.000499 536.931595,377.000499 C539.164728,377.000499 540.771494,377.967282 541.751894,379.900849 C542.732294,381.834415 543.222494,385.034332 543.222494,389.500598 C543.222494,394.021332 542.745911,397.248482 541.792744,399.182048 C540.839578,401.115615 539.219194,402.082398 536.931595,402.082398 Z M536.277995,434.925798 C530.286661,434.925798 525.588911,434.136031 522.184745,432.556498 C518.780578,430.976965 517.078495,428.743831 517.078495,425.857098 C517.078495,423.732898 518.031661,422.017198 519.937995,420.709998 C521.844328,419.402798 524.240861,418.749198 527.127595,418.749198 L527.127595,418.749198 L548.614694,418.749198 C551.229094,418.749198 553.189894,419.212165 554.497094,420.138098 C555.804294,421.064031 556.457894,422.452931 556.457894,424.304798 C556.457894,426.102198 555.777061,427.736198 554.415394,429.206798 C553.053728,430.677398 551.092928,431.902898 548.532994,432.883298 C546.790061,433.536898 544.870111,434.040715 542.773144,434.394748 C540.676178,434.748781 538.511128,434.925798 536.277995,434.925798 Z M575.085494,418.177298 C578.625827,418.177298 581.675961,417.169665 584.235894,415.154398 C586.795827,413.139131 588.429827,410.551965 589.137894,407.392898 L589.137894,407.392898 L589.954894,417.360298 L600.575894,417.360298 L600.575894,392.033298 C600.575894,386.858965 599.009977,382.937365 595.878144,380.268499 C592.74631,377.599632 588.130261,376.265199 582.029994,376.265199 C577.073527,376.265199 573.192777,377.259215 570.387744,379.247249 C567.582711,381.235282 566.180194,383.917765 566.180194,387.294698 C566.180194,388.710832 566.466144,389.990798 567.038044,391.134598 C567.609944,392.278398 568.440561,393.204332 569.529894,393.912398 L569.529894,393.912398 L570.020094,393.340498 C568.930761,392.523498 568.154611,391.652032 567.691644,390.726098 C567.228677,389.800165 566.997194,388.656365 566.997194,387.294698 C566.997194,384.407965 568.154611,382.038665 570.469444,380.186799 C572.784277,378.334932 575.684627,377.408999 579.170494,377.408999 C582.329561,377.408999 584.753327,378.266849 586.441794,379.982549 C588.130261,381.698249 588.974494,384.190099 588.974494,387.458098 L588.974494,387.458098 L588.974494,394.647698 L578.598594,396.445098 C573.206394,397.371032 569.271177,398.787165 566.792944,400.693498 C564.314711,402.599832 563.075594,405.050832 563.075594,408.046498 C563.075594,411.096632 564.178544,413.547631 566.384444,415.399498 C568.590344,417.251365 571.490694,418.177298 575.085494,418.177298 Z M580.314294,415.154398 C578.516894,415.154398 577.100761,414.364631 576.065894,412.785098 C575.031027,411.205565 574.513594,408.999665 574.513594,406.167398 C574.513594,403.226198 575.139961,401.006682 576.392694,399.508848 C577.645427,398.011015 579.687927,396.989765 582.520194,396.445098 L582.520194,396.445098 L588.974494,395.382998 L588.974494,405.268698 C588.593227,408.100965 587.585594,410.456648 585.951594,412.335748 C584.317594,414.214848 582.438494,415.154398 580.314294,415.154398 Z M621.817893,369.974299 L621.817893,358.209499 L609.971394,358.209499 L609.971394,369.974299 L621.817893,369.974299 Z M621.817893,417.360298 L621.817893,377.082199 L610.053094,377.082199 L610.053094,417.360298 L621.817893,417.360298 Z M643.386693,417.360298 L643.386693,391.052898 C643.386693,389.582298 643.60456,388.152548 644.040293,386.763648 C644.476027,385.374749 645.102393,384.108399 645.919393,382.964599 C646.845326,381.602932 647.921043,380.540832 649.146543,379.778299 C650.372043,379.015765 651.61116,378.634499 652.863893,378.634499 C654.87916,378.634499 656.376993,379.274482 657.357393,380.554449 C658.337793,381.834415 658.827993,383.781599 658.827993,386.395999 L658.827993,386.395999 L658.827993,417.360298 L670.592793,417.360298 L670.592793,390.235898 C670.592793,385.987499 669.408143,382.596949 667.038843,380.064249 C664.669543,377.531549 661.442393,376.265199 657.357393,376.265199 C653.871526,376.265199 650.889476,377.191132 648.411243,379.042999 C645.93301,380.894865 644.25816,383.454799 643.386693,386.722798 L643.386693,386.722798 L643.059893,377.082199 L631.621893,377.082199 L631.621893,417.360298 L643.386693,417.360298 Z M692.243293,417.360298 L692.243293,404.533398 L679.579793,404.533398 L679.579793,417.360298 L692.243293,417.360298 Z" id="Ifyoucome,youwillcomeagain." stroke="#FAD1D1" stroke-width="0.887601698" fill="#FAD1D1" fill-rule="nonzero"></path>
    </g>
</svg>