<?xml version="1.0" encoding="UTF-8"?>
<svg width="800px" height="633px" viewBox="0 0 800 633" version="1.1" xmlns="http://www.w3.org/2000/svg" xmlns:xlink="http://www.w3.org/1999/xlink">
    <!-- Generator: Sketch 63.1 (92452) - https://sketch.com -->
    <title>claim_04</title>
    <desc>Created with Sketch.</desc>
    <g id="claim_04" stroke="none" stroke-width="1" fill="none" fill-rule="evenodd">
        <rect fill="#FFFFFF" x="0" y="0" width="800" height="633"></rect>
        <text id="NEWSLETTER" font-family="OpenSans-Bold, Open Sans" font-size="19.7226502" font-weight="bold" fill="#000000">
            <tspan x="344" y="220">NEWSLETTER</tspan>
        </text>
        <path d="M115.836727,328.861708 L121.164737,315.495015 L121.820492,313.946435 L121.820492,313.86493 L131.083034,290.554722 L147.231005,328.861708 L147.558882,328.861708 L170.264405,270.993707 L169.280772,270.993707 L152.722954,313.294401 L135.509381,270.993707 L122.886094,270.993707 L130.591218,289.332158 L121.328676,312.642367 L104.033134,270.993707 L91,270.993707 L115.508849,328.861708 L115.836727,328.861708 Z M185.346773,328.861708 C188.89878,328.861708 191.958971,327.856489 194.527345,325.846052 C197.09572,323.835614 198.735108,321.254647 199.445509,318.10315 L199.445509,318.10315 L200.265203,328.046666 L210.921224,328.046666 L210.921224,302.780356 C210.921224,297.618421 209.350144,293.706218 206.207984,291.043747 C203.065824,288.381276 198.434553,287.05004 192.314172,287.05004 C187.341362,287.05004 183.447815,288.041675 180.633533,290.024944 C177.81925,292.008214 176.412109,294.684269 176.412109,298.05311 C176.412109,299.46585 176.699002,300.74275 177.272788,301.883809 C177.846574,303.024868 178.679929,303.948583 179.772854,304.654953 L179.772854,304.654953 L180.264671,304.084423 C179.171745,303.269381 178.393036,302.400003 177.928543,301.476288 C177.46405,300.552573 177.231803,299.411514 177.231803,298.05311 C177.231803,295.173294 178.393036,292.809672 180.715502,290.962243 C183.037969,289.114814 185.947882,288.191099 189.445243,288.191099 C192.614726,288.191099 195.046485,289.046893 196.740519,290.758482 C198.434553,292.470071 199.28157,294.95595 199.28157,298.216119 L199.28157,298.216119 L199.28157,305.388491 L188.871457,307.181584 C183.461477,308.105298 179.513285,309.518038 177.02688,311.419804 C174.540475,313.321569 173.297272,315.766696 173.297272,318.755184 C173.297272,321.798009 174.403859,324.243135 176.617033,326.090564 C178.830206,327.937994 181.74012,328.861708 185.346773,328.861708 Z M190.592814,325.846052 C188.789488,325.846052 187.368685,325.058178 186.330406,323.482429 C185.292127,321.906681 184.772987,319.706067 184.772987,316.880587 C184.772987,313.946435 185.401419,311.732237 186.658283,310.237992 C187.915147,308.743748 189.964382,307.724945 192.805988,307.181584 L192.805988,307.181584 L199.28157,306.122029 L199.28157,315.98404 C198.899046,318.80952 197.88809,321.159559 196.248703,323.034156 C194.609315,324.908753 192.724019,325.846052 190.592814,325.846052 Z M232.233267,328.046666 L232.233267,303.839911 C232.342559,302.046818 232.725083,300.226556 233.380838,298.379127 C234.036593,296.531698 234.856287,294.874446 235.83992,293.407369 C236.987492,291.614277 238.326325,290.242289 239.85642,289.291406 C241.386516,288.340523 243.025904,287.865082 244.774584,287.865082 C247.124373,287.865082 248.996008,288.544284 250.389488,289.902688 C251.782967,291.261092 252.479707,293.108521 252.479707,295.444975 C252.479707,296.749043 252.233799,297.944438 251.741983,299.031161 C251.250166,300.117884 250.512442,301.123103 249.528809,302.046818 L249.528809,302.046818 L250.102595,302.617347 C251.19552,301.58496 252.001552,300.484653 252.520692,299.316426 C253.039831,298.148199 253.299401,296.857715 253.299401,295.444975 C253.299401,292.891176 252.534354,290.85357 251.004258,289.332158 C249.474163,287.810746 247.397605,287.05004 244.774584,287.05004 C241.878332,287.05004 239.282635,288.218267 236.987492,290.554722 C234.692349,292.891176 233.080284,295.961169 232.151297,299.764699 L232.151297,299.764699 L231.905389,287.865082 L220.429674,287.865082 L220.429674,328.046666 L232.233267,328.046666 Z M258.545442,296.260017 C262.589266,296.260017 265.786072,295.214047 268.135862,293.122105 C270.485651,291.030163 271.660546,288.109595 271.660546,284.3604 L271.660546,284.3604 L271.660546,270.993707 L258.87332,270.993707 L258.87332,283.789871 L270.840852,283.789871 L270.840852,284.441905 C270.840852,287.919418 269.734265,290.622642 267.521091,292.551575 C265.307917,294.480508 262.316035,295.444975 258.545442,295.444975 L258.545442,295.444975 L258.545442,296.260017 Z M294.693945,328.861708 C299.939987,328.861708 304.188734,327.571225 307.440186,324.990257 C310.691639,322.40929 312.317365,319.026865 312.317365,314.842981 C312.317365,311.854493 311.388379,309.436534 309.530406,307.589105 C307.672433,305.741676 304.557596,304.220264 300.185895,303.024868 L300.185895,303.024868 L292.152894,300.905758 C289.420581,300.199388 287.521623,299.357178 286.456021,298.379127 C285.390419,297.401077 284.857618,296.097009 284.857618,294.466924 C284.857618,292.510823 285.772943,290.921491 287.603593,289.698927 C289.434243,288.476364 291.825017,287.865082 294.775915,287.865082 C298.382568,287.865082 301.388113,288.571452 303.792548,289.984192 C306.196984,291.396932 307.945664,293.461706 309.038589,296.178513 L309.038589,296.178513 L309.858283,295.852496 C308.765358,293.027016 306.907385,290.85357 304.284365,289.332158 C301.661344,287.810746 298.491861,287.05004 294.775915,287.05004 C289.967044,287.05004 285.991528,288.313355 282.849368,290.839986 C279.707208,293.366617 278.136128,296.586034 278.136128,300.498237 C278.136128,303.378053 279.037791,305.741676 280.841118,307.589105 C282.644444,309.436534 285.404081,310.822106 289.120027,311.745821 L289.120027,311.745821 L297.153027,313.783426 C299.939987,314.489796 301.920914,315.372759 303.095808,316.432314 C304.270703,317.491869 304.85815,318.863856 304.85815,320.548277 C304.85815,322.830395 303.929164,324.650656 302.071191,326.00906 C300.213218,327.367464 297.754136,328.046666 294.693945,328.046666 C290.595476,328.046666 286.947838,327.082199 283.751031,325.153266 C280.554225,323.224332 278.545975,320.656949 277.726281,317.451116 L277.726281,317.451116 L276.906587,317.777133 C277.780927,321.091639 279.871147,323.767694 283.177246,325.8053 C286.483344,327.842905 290.322244,328.861708 294.693945,328.861708 Z M353.547971,328.861708 C356.936039,328.861708 359.873276,327.910826 362.359681,326.00906 C364.846086,324.107295 366.526458,321.580664 367.400798,318.429167 L367.400798,318.429167 L367.728676,328.046666 L379.204391,328.046666 L379.204391,267 L367.400798,267 L367.400798,297.401077 C366.526458,294.24958 364.846086,291.736533 362.359681,289.861936 C359.873276,287.987338 356.963362,287.05004 353.62994,287.05004 C351.116212,287.05004 348.725438,287.647737 346.457618,288.843133 C344.189798,290.038528 342.236194,291.750117 340.596806,293.977899 C339.23065,295.879664 338.178709,298.066694 337.440985,300.538989 C336.70326,303.011284 336.334398,305.633004 336.334398,308.404147 C336.334398,311.120955 336.70326,313.674754 337.440985,316.065545 C338.178709,318.456335 339.257973,320.575445 340.678776,322.422874 C342.263517,324.433312 344.176137,326.00906 346.416633,327.150119 C348.65713,328.291179 351.034243,328.861708 353.547971,328.861708 Z M357.72841,326.335077 C354.94145,326.335077 352.769261,324.732161 351.211843,321.526328 C349.654424,318.320495 348.875715,313.86493 348.875715,308.159635 C348.875715,302.400003 349.681748,297.862934 351.293812,294.548429 C352.905877,291.233923 355.105389,289.576671 357.892349,289.576671 C359.258505,289.576671 360.556354,289.957024 361.785895,290.71773 C363.015436,291.478436 364.094699,292.565159 365.023686,293.977899 C365.734087,295.118958 366.294212,296.395858 366.704059,297.808598 C367.113906,299.221338 367.346152,300.688414 367.400798,302.209826 L367.400798,302.209826 L367.400798,313.701922 C367.346152,315.27767 367.113906,316.771915 366.704059,318.184654 C366.294212,319.597394 365.706764,320.874294 364.941717,322.015353 C364.01273,323.373757 362.919805,324.433312 361.662941,325.194018 C360.406077,325.954724 359.094566,326.335077 357.72841,326.335077 Z M398.139321,328.861708 C401.691328,328.861708 404.751519,327.856489 407.319894,325.846052 C409.888268,323.835614 411.527656,321.254647 412.238057,318.10315 L412.238057,318.10315 L413.057751,328.046666 L423.713772,328.046666 L423.713772,302.780356 C423.713772,297.618421 422.142692,293.706218 419.000532,291.043747 C415.858372,288.381276 411.227101,287.05004 405.10672,287.05004 C400.13391,287.05004 396.240364,288.041675 393.426081,290.024944 C390.611799,292.008214 389.204657,294.684269 389.204657,298.05311 C389.204657,299.46585 389.49155,300.74275 390.065336,301.883809 C390.639122,303.024868 391.472477,303.948583 392.565403,304.654953 L392.565403,304.654953 L393.057219,304.084423 C391.964294,303.269381 391.185584,302.400003 390.721091,301.476288 C390.256598,300.552573 390.024351,299.411514 390.024351,298.05311 C390.024351,295.173294 391.185584,292.809672 393.508051,290.962243 C395.830517,289.114814 398.74043,288.191099 402.237791,288.191099 C405.407274,288.191099 407.839033,289.046893 409.533067,290.758482 C411.227101,292.470071 412.074118,294.95595 412.074118,298.216119 L412.074118,298.216119 L412.074118,305.388491 L401.664005,307.181584 C396.254025,308.105298 392.305833,309.518038 389.819428,311.419804 C387.333023,313.321569 386.08982,315.766696 386.08982,318.755184 C386.08982,321.798009 387.196407,324.243135 389.409581,326.090564 C391.622754,327.937994 394.532668,328.861708 398.139321,328.861708 Z M403.385363,325.846052 C401.582036,325.846052 400.161233,325.058178 399.122954,323.482429 C398.084675,321.906681 397.565536,319.706067 397.565536,316.880587 C397.565536,313.946435 398.193968,311.732237 399.450832,310.237992 C400.707696,308.743748 402.756931,307.724945 405.598536,307.181584 L405.598536,307.181584 L412.074118,306.122029 L412.074118,315.98404 C411.691595,318.80952 410.680639,321.159559 409.041251,323.034156 C407.401863,324.908753 405.516567,325.846052 403.385363,325.846052 Z M447.320958,328.861708 C452.566999,328.861708 456.815746,327.571225 460.067199,324.990257 C463.318652,322.40929 464.944378,319.026865 464.944378,314.842981 C464.944378,311.854493 464.015391,309.436534 462.157418,307.589105 C460.299446,305.741676 457.184609,304.220264 452.812908,303.024868 L452.812908,303.024868 L444.779907,300.905758 C442.047594,300.199388 440.148636,299.357178 439.083034,298.379127 C438.017432,297.401077 437.484631,296.097009 437.484631,294.466924 C437.484631,292.510823 438.399956,290.921491 440.230605,289.698927 C442.061255,288.476364 444.452029,287.865082 447.402927,287.865082 C451.009581,287.865082 454.015125,288.571452 456.419561,289.984192 C458.823996,291.396932 460.572677,293.461706 461.665602,296.178513 L461.665602,296.178513 L462.485296,295.852496 C461.392371,293.027016 459.534398,290.85357 456.911377,289.332158 C454.288357,287.810746 451.118873,287.05004 447.402927,287.05004 C442.594056,287.05004 438.618541,288.313355 435.476381,290.839986 C432.33422,293.366617 430.76314,296.586034 430.76314,300.498237 C430.76314,303.378053 431.664804,305.741676 433.46813,307.589105 C435.271457,309.436534 438.031093,310.822106 441.747039,311.745821 L441.747039,311.745821 L449.78004,313.783426 C452.566999,314.489796 454.547926,315.372759 455.722821,316.432314 C456.897716,317.491869 457.485163,318.863856 457.485163,320.548277 C457.485163,322.830395 456.556177,324.650656 454.698204,326.00906 C452.840231,327.367464 450.381149,328.046666 447.320958,328.046666 C443.222488,328.046666 439.57485,327.082199 436.378044,325.153266 C433.181238,323.224332 431.172987,320.656949 430.353293,317.451116 L430.353293,317.451116 L429.533599,317.777133 C430.40794,321.091639 432.498159,323.767694 435.804258,325.8053 C439.110357,327.842905 442.949257,328.861708 447.320958,328.861708 Z M505.929075,328.861708 C511.175116,328.861708 515.423863,327.571225 518.675316,324.990257 C521.926769,322.40929 523.552495,319.026865 523.552495,314.842981 C523.552495,311.854493 522.623509,309.436534 520.765536,307.589105 C518.907563,305.741676 515.792726,304.220264 511.421025,303.024868 L511.421025,303.024868 L503.388024,300.905758 C500.655711,300.199388 498.756753,299.357178 497.691151,298.379127 C496.625549,297.401077 496.092748,296.097009 496.092748,294.466924 C496.092748,292.510823 497.008073,290.921491 498.838723,289.698927 C500.669372,288.476364 503.060146,287.865082 506.011045,287.865082 C509.617698,287.865082 512.623242,288.571452 515.027678,289.984192 C517.432114,291.396932 519.180794,293.461706 520.273719,296.178513 L520.273719,296.178513 L521.093413,295.852496 C520.000488,293.027016 518.142515,290.85357 515.519494,289.332158 C512.896474,287.810746 509.72699,287.05004 506.011045,287.05004 C501.202173,287.05004 497.226658,288.313355 494.084498,290.839986 C490.942338,293.366617 489.371257,296.586034 489.371257,300.498237 C489.371257,303.378053 490.272921,305.741676 492.076248,307.589105 C493.879574,309.436534 496.63921,310.822106 500.355156,311.745821 L500.355156,311.745821 L508.388157,313.783426 C511.175116,314.489796 513.156043,315.372759 514.330938,316.432314 C515.505833,317.491869 516.09328,318.863856 516.09328,320.548277 C516.09328,322.830395 515.164294,324.650656 513.306321,326.00906 C511.448348,327.367464 508.989266,328.046666 505.929075,328.046666 C501.830605,328.046666 498.182967,327.082199 494.986161,325.153266 C491.789355,323.224332 489.781104,320.656949 488.961411,317.451116 L488.961411,317.451116 L488.141717,317.777133 C489.016057,321.091639 491.106276,323.767694 494.412375,325.8053 C497.718474,327.842905 501.557374,328.861708 505.929075,328.861708 Z M548.225283,328.861708 C552.924861,328.861708 556.791084,327.707065 559.823952,325.397779 C562.85682,323.088492 564.810424,319.841907 565.684764,315.658023 L565.684764,315.658023 L564.86507,315.413511 C564.209315,318.999697 562.692881,321.838761 560.315768,323.930702 C557.938656,326.022644 555.192681,327.068615 552.077844,327.068615 C548.252606,327.068615 545.315369,325.438531 543.266134,322.178362 C541.2169,318.918193 540.192282,314.272452 540.192282,308.241139 C540.192282,302.209826 541.367177,297.455413 543.716966,293.977899 C546.066755,290.500385 549.208916,288.761629 553.143446,288.761629 C556.148991,288.761629 558.608073,289.712511 560.520692,291.614277 C562.433311,293.516042 563.389621,295.961169 563.389621,298.949657 C563.389621,300.471069 563.116389,301.815889 562.569927,302.984116 C562.023464,304.152343 561.231093,305.143978 560.192814,305.95902 L560.192814,305.95902 L560.684631,306.52955 C561.777556,305.768844 562.638235,304.709289 563.266667,303.350885 C563.895099,301.992481 564.209315,300.525405 564.209315,298.949657 C564.209315,295.363471 562.884143,292.483655 560.233799,290.310209 C557.583455,288.136763 554.017787,287.05004 549.536793,287.05004 C546.640541,287.05004 543.853582,287.579817 541.175915,288.639372 C538.498248,289.698927 536.148459,291.206755 534.126547,293.162857 C532.049989,295.173294 530.478909,297.482581 529.413307,300.090716 C528.347705,302.698851 527.814904,305.497163 527.814904,308.485651 C527.814904,311.365467 528.320381,314.041523 529.331337,316.513818 C530.342293,318.986113 531.804081,321.145975 533.7167,322.993404 C535.629319,324.895169 537.842493,326.348661 540.356221,327.35388 C542.869949,328.359099 545.49297,328.861708 548.225283,328.861708 Z M583.8,328.046666 L583.8,301.802305 C583.8,300.335229 584.018585,298.908905 584.455755,297.523333 C584.892925,296.137761 585.521357,294.874446 586.341051,293.733386 C587.270038,292.374983 588.349301,291.315428 589.578842,290.554722 C590.808383,289.794015 592.051586,289.413662 593.30845,289.413662 C595.330361,289.413662 596.833134,290.052112 597.816766,291.329012 C598.800399,292.605911 599.292216,294.548429 599.292216,297.156564 L599.292216,297.156564 L599.292216,328.046666 L611.095808,328.046666 L611.095808,300.987263 C611.095808,296.749043 609.907252,293.366617 607.53014,290.839986 C605.153027,288.313355 601.915236,287.05004 597.816766,287.05004 C594.319406,287.05004 591.327523,287.973754 588.841118,289.821184 C586.354713,291.668613 584.67434,294.222412 583.8,297.482581 L583.8,297.482581 L583.8,267 L571.996407,267 L571.996407,328.046666 L583.8,328.046666 Z M639.29328,328.861708 C642.189532,328.861708 644.949168,328.345515 647.572189,327.313128 C650.19521,326.280741 652.517676,324.813665 654.539587,322.9119 C656.616145,321.010134 658.200887,318.768768 659.293812,316.187801 C660.386738,313.606834 660.9332,310.876442 660.9332,307.996626 C660.9332,305.11681 660.386738,302.386418 659.293812,299.805451 C658.200887,297.224484 656.616145,294.95595 654.539587,292.999848 C652.517676,291.098083 650.19521,289.631007 647.572189,288.59862 C644.949168,287.566233 642.189532,287.05004 639.29328,287.05004 C636.397028,287.05004 633.62373,287.566233 630.973387,288.59862 C628.323043,289.631007 626.014238,291.098083 624.046973,292.999848 C621.970415,294.95595 620.385673,297.224484 619.292748,299.805451 C618.199823,302.386418 617.65336,305.11681 617.65336,307.996626 C617.65336,310.876442 618.199823,313.606834 619.292748,316.187801 C620.385673,318.768768 621.970415,321.010134 624.046973,322.9119 C626.014238,324.813665 628.323043,326.280741 630.973387,327.313128 C633.62373,328.345515 636.397028,328.861708 639.29328,328.861708 Z M639.29328,328.12817 C636.014504,328.12817 633.664715,326.538838 632.243912,323.360173 C630.823109,320.181508 630.112708,315.060326 630.112708,307.996626 C630.112708,300.87859 630.823109,295.73024 632.243912,292.551575 C633.664715,289.37291 636.014504,287.783578 639.29328,287.783578 C642.572056,287.783578 644.921845,289.37291 646.342648,292.551575 C647.763451,295.73024 648.473852,300.87859 648.473852,307.996626 C648.473852,315.060326 647.763451,320.181508 646.342648,323.360173 C644.921845,326.538838 642.572056,328.12817 639.29328,328.12817 Z M679.704192,328.046666 L679.704192,301.802305 C679.704192,300.335229 679.922777,298.908905 680.359947,297.523333 C680.797117,296.137761 681.425549,294.874446 682.245243,293.733386 C683.174229,292.374983 684.253493,291.315428 685.483034,290.554722 C686.712575,289.794015 687.955777,289.413662 689.212641,289.413662 C691.234553,289.413662 692.737325,290.052112 693.720958,291.329012 C694.704591,292.605911 695.196407,294.548429 695.196407,297.156564 L695.196407,297.156564 L695.196407,328.046666 L707,328.046666 L707,300.987263 C707,296.749043 705.811444,293.366617 703.434331,290.839986 C701.057219,288.313355 697.819428,287.05004 693.720958,287.05004 C690.223597,287.05004 687.231714,287.973754 684.745309,289.821184 C682.258904,291.668613 680.578532,294.222412 679.704192,297.482581 L679.704192,297.482581 L679.376314,287.865082 L667.900599,287.865082 L667.900599,328.046666 L679.704192,328.046666 Z M168.584032,416.184958 L168.584032,415.369915 L144.157152,415.369915 L167.846307,376.329391 L167.846307,376.003374 L132.27159,376.003374 L132.27159,376.818416 L154.813174,376.818416 L130.87811,415.858941 L130.87811,416.184958 L168.584032,416.184958 Z M189.896075,416.755487 L201.28982,390.022101 L213.257352,416.755487 L213.58523,416.755487 L230.798802,376.003374 L229.897139,376.003374 L218.421424,403.225786 L207.191617,376.003374 L195.060146,376.003374 L200.879973,389.04405 L194.814238,403.225786 L182.928676,376.003374 L170.715236,376.003374 L189.568197,416.755487 L189.896075,416.755487 Z M247.848436,368.912506 L247.848436,357.175897 L235.962874,357.175897 L235.962874,368.912506 L247.848436,368.912506 Z M247.848436,416.184958 L247.848436,376.003374 L236.044844,376.003374 L236.044844,416.184958 L247.848436,416.184958 Z M271.7835,417 C277.029541,417 281.278288,415.709516 284.529741,413.128549 C287.781193,410.547582 289.406919,407.165157 289.406919,402.981273 C289.406919,399.992785 288.477933,397.574826 286.61996,395.727397 C284.761987,393.879968 281.64715,392.358555 277.275449,391.16316 L277.275449,391.16316 L269.242448,389.04405 C266.510135,388.33768 264.611178,387.49547 263.545576,386.517419 C262.479973,385.539368 261.947172,384.235301 261.947172,382.605216 C261.947172,380.649115 262.862497,379.059782 264.693147,377.837219 C266.523797,376.614656 268.914571,376.003374 271.865469,376.003374 C275.472122,376.003374 278.477667,376.709744 280.882102,378.122484 C283.286538,379.535224 285.035218,381.599997 286.128144,384.316805 L286.128144,384.316805 L286.947838,383.990788 C285.854912,381.165308 283.996939,378.991862 281.373919,377.47045 C278.750898,375.949038 275.581415,375.188332 271.865469,375.188332 C267.056598,375.188332 263.081082,376.451647 259.938922,378.978278 C256.796762,381.504909 255.225682,384.724326 255.225682,388.636529 C255.225682,391.516345 256.127345,393.879968 257.930672,395.727397 C259.733999,397.574826 262.493635,398.960398 266.209581,399.884112 L266.209581,399.884112 L274.242582,401.921718 C277.029541,402.628088 279.010468,403.51105 280.185363,404.570605 C281.360257,405.63016 281.947705,407.002148 281.947705,408.686569 C281.947705,410.968687 281.018718,412.788948 279.160745,414.147352 C277.302772,415.505756 274.84369,416.184958 271.7835,416.184958 C267.68503,416.184958 264.037392,415.220491 260.840585,413.291558 C257.643779,411.362624 255.635529,408.795241 254.815835,405.589408 L254.815835,405.589408 L253.996141,405.915425 C254.870481,409.22993 256.960701,411.905986 260.2668,413.943591 C263.572899,415.981197 267.411799,417 271.7835,417 Z M314.079707,417 C318.779286,417 322.645509,415.845357 325.678377,413.53607 C328.711244,411.226784 330.664848,407.980199 331.539188,403.796315 L331.539188,403.796315 L330.719494,403.551803 C330.063739,407.137989 328.547305,409.977052 326.170193,412.068994 C323.793081,414.160936 321.047106,415.206907 317.932269,415.206907 C314.10703,415.206907 311.169794,413.576822 309.120559,410.316653 C307.071324,407.056484 306.046707,402.410743 306.046707,396.379431 C306.046707,390.348118 307.221601,385.593705 309.571391,382.116191 C311.92118,378.638677 315.06334,376.89992 318.997871,376.89992 C322.003415,376.89992 324.462497,377.850803 326.375116,379.752568 C328.287736,381.654334 329.244045,384.09946 329.244045,387.087949 C329.244045,388.609361 328.970814,389.954181 328.424351,391.122408 C327.877889,392.290635 327.085518,393.28227 326.047239,394.097312 L326.047239,394.097312 L326.539055,394.667842 C327.63198,393.907136 328.492659,392.847581 329.121091,391.489177 C329.749523,390.130773 330.063739,388.663697 330.063739,387.087949 C330.063739,383.501763 328.738567,380.621947 326.088224,378.448501 C323.43788,376.275055 319.872211,375.188332 315.391218,375.188332 C312.494966,375.188332 309.708006,375.718109 307.030339,376.777664 C304.352672,377.837219 302.002883,379.345047 299.980971,381.301149 C297.904413,383.311586 296.333333,385.620873 295.267731,388.229008 C294.202129,390.837143 293.669328,393.635455 293.669328,396.623943 C293.669328,399.503759 294.174806,402.179815 295.185762,404.65211 C296.196718,407.124405 297.658505,409.284267 299.571124,411.131696 C301.483744,413.033461 303.696917,414.486953 306.210645,415.492172 C308.724373,416.497391 311.347394,417 314.079707,417 Z M349.654424,416.184958 L349.654424,389.940597 C349.654424,388.473521 349.87301,387.047197 350.31018,385.661625 C350.74735,384.276053 351.375782,383.012737 352.195476,381.871678 C353.124462,380.513274 354.203726,379.453719 355.433267,378.693013 C356.662808,377.932307 357.90601,377.551954 359.162874,377.551954 C361.184786,377.551954 362.687558,378.190404 363.671191,379.467304 C364.654824,380.744203 365.14664,382.68672 365.14664,385.294856 L365.14664,385.294856 L365.14664,416.184958 L376.950233,416.184958 L376.950233,389.125554 C376.950233,384.887335 375.761677,381.504909 373.384564,378.978278 C371.007452,376.451647 367.769661,375.188332 363.671191,375.188332 C360.17383,375.188332 357.181947,376.112046 354.695542,377.959475 C352.209137,379.806904 350.528765,382.360704 349.654424,385.620873 L349.654424,385.620873 L349.654424,355.138292 L337.850832,355.138292 L337.850832,416.184958 L349.654424,416.184958 Z M404.573919,417 C409.437436,417 413.48126,415.845357 416.705389,413.53607 C419.929519,411.226784 422.088046,407.980199 423.180971,403.796315 L423.180971,403.796315 L422.361277,403.551803 C421.432291,407.246661 419.669949,410.153645 417.074251,412.272755 C414.478554,414.391865 411.459348,415.45142 408.016633,415.45142 C403.97281,415.45142 400.953604,413.902839 398.959015,410.805679 C396.964427,407.708518 395.967132,403.035609 395.967132,396.786952 L395.967132,396.786952 L395.967132,394.504833 L423.42688,394.504833 C423.42688,391.788026 422.976048,389.234227 422.074385,386.843436 C421.172721,384.452645 419.902196,382.387872 418.262808,380.649115 C416.514127,378.856022 414.464892,377.497618 412.115103,376.573903 C409.765314,375.650189 407.169616,375.188332 404.328011,375.188332 C401.486405,375.188332 398.767753,375.718109 396.172056,376.777664 C393.576358,377.837219 391.3222,379.345047 389.409581,381.301149 C387.496962,383.25725 386.035174,385.525784 385.024218,388.106752 C384.013262,390.687719 383.507784,393.472447 383.507784,396.460935 C383.507784,399.340751 384.040585,402.03039 385.106188,404.529853 C386.17179,407.029316 387.688224,409.22993 389.655489,411.131696 C391.622754,412.979125 393.917898,414.419033 396.540918,415.45142 C399.163939,416.483807 401.841606,417 404.573919,417 Z M411.869195,393.689791 L395.967132,393.689791 C396.131071,387.658478 396.896119,383.18933 398.262275,380.282346 C399.628432,377.375362 401.650344,375.92187 404.328011,375.92187 C407.005678,375.92187 408.931958,377.266689 410.106853,379.956329 C411.281748,382.645968 411.869195,387.223789 411.869195,393.689791 L411.869195,393.689791 Z M442.197871,416.184958 L442.197871,389.940597 C442.197871,388.473521 442.416456,387.047197 442.853626,385.661625 C443.290796,384.276053 443.919228,383.012737 444.738922,381.871678 C445.667909,380.513274 446.747172,379.453719 447.976713,378.693013 C449.206254,377.932307 450.449457,377.551954 451.706321,377.551954 C453.728232,377.551954 455.231005,378.190404 456.214637,379.467304 C457.19827,380.744203 457.690086,382.68672 457.690086,385.294856 L457.690086,385.294856 L457.690086,416.184958 L469.493679,416.184958 L469.493679,389.125554 C469.493679,384.887335 468.305123,381.504909 465.928011,378.978278 C463.550898,376.451647 460.313107,375.188332 456.214637,375.188332 C452.717277,375.188332 449.725394,376.112046 447.238989,377.959475 C444.752584,379.806904 443.072211,382.360704 442.197871,385.620873 L442.197871,385.620873 L441.869993,376.003374 L430.394278,376.003374 L430.394278,416.184958 L442.197871,416.184958 Z M511.462009,417 C514.904724,417 517.814637,416.089869 520.19175,414.269608 C522.568862,412.449347 524.221912,409.881964 525.150898,406.567459 L525.150898,406.567459 L525.478776,416.184958 L536.954491,416.184958 L536.954491,376.003374 L525.150898,376.003374 L525.150898,402.247735 C525.096252,403.714811 524.877667,405.127551 524.495143,406.485955 C524.112619,407.844359 523.538833,409.09409 522.773786,410.235149 C521.899446,411.647889 520.861167,412.734612 519.658949,413.495318 C518.456731,414.256024 517.22719,414.636377 515.970326,414.636377 C514.003061,414.636377 512.527611,413.97076 511.543979,412.639524 C510.560346,411.308288 510.06853,409.365771 510.06853,406.811972 L510.06853,406.811972 L510.06853,376.003374 L498.264937,376.003374 L498.264937,402.981273 C498.264937,407.219493 499.439831,410.615502 501.789621,413.169301 C504.13941,415.7231 507.36354,417 511.462009,417 Z M558.512442,416.184958 L558.512442,389.940597 C558.512442,388.473521 558.731027,387.047197 559.168197,385.661625 C559.605367,384.276053 560.233799,383.012737 561.053493,381.871678 C561.982479,380.513274 563.061743,379.453719 564.291284,378.693013 C565.520825,377.932307 566.764028,377.551954 568.020892,377.551954 C570.042803,377.551954 571.545576,378.190404 572.529208,379.467304 C573.512841,380.744203 574.004657,382.68672 574.004657,385.294856 L574.004657,385.294856 L574.004657,416.184958 L585.80825,416.184958 L585.80825,389.125554 C585.80825,384.887335 584.619694,381.504909 582.242582,378.978278 C579.865469,376.451647 576.627678,375.188332 572.529208,375.188332 C569.031847,375.188332 566.039965,376.112046 563.55356,377.959475 C561.067155,379.806904 559.386782,382.360704 558.512442,385.620873 L558.512442,385.620873 L558.184564,376.003374 L546.708849,376.003374 L546.708849,416.184958 L558.512442,416.184958 Z M609.333466,417 C614.579508,417 618.828255,415.709516 622.079707,413.128549 C625.33116,410.547582 626.956886,407.165157 626.956886,402.981273 C626.956886,399.992785 626.0279,397.574826 624.169927,395.727397 C622.311954,393.879968 619.197117,392.358555 614.825416,391.16316 L614.825416,391.16316 L606.792415,389.04405 C604.060102,388.33768 602.161144,387.49547 601.095542,386.517419 C600.02994,385.539368 599.497139,384.235301 599.497139,382.605216 C599.497139,380.649115 600.412464,379.059782 602.243114,377.837219 C604.073764,376.614656 606.464538,376.003374 609.415436,376.003374 C613.022089,376.003374 616.027634,376.709744 618.432069,378.122484 C620.836505,379.535224 622.585185,381.599997 623.67811,384.316805 L623.67811,384.316805 L624.497804,383.990788 C623.404879,381.165308 621.546906,378.991862 618.923886,377.47045 C616.300865,375.949038 613.131382,375.188332 609.415436,375.188332 C604.606565,375.188332 600.631049,376.451647 597.488889,378.978278 C594.346729,381.504909 592.775649,384.724326 592.775649,388.636529 C592.775649,391.516345 593.677312,393.879968 595.480639,395.727397 C597.283965,397.574826 600.043602,398.960398 603.759548,399.884112 L603.759548,399.884112 L611.792548,401.921718 C614.579508,402.628088 616.560435,403.51105 617.735329,404.570605 C618.910224,405.63016 619.497671,407.002148 619.497671,408.686569 C619.497671,410.968687 618.568685,412.788948 616.710712,414.147352 C614.852739,415.505756 612.393657,416.184958 609.333466,416.184958 C605.234997,416.184958 601.587359,415.220491 598.390552,413.291558 C595.193746,411.362624 593.185496,408.795241 592.365802,405.589408 L592.365802,405.589408 L591.546108,405.915425 C592.420448,409.22993 594.510668,411.905986 597.816766,413.943591 C601.122865,415.981197 604.961765,417 609.333466,417 Z M649.826347,397.928011 L649.826347,392.71174 C652.504014,392.548732 655.072389,392.018954 657.53147,391.122408 C659.990552,390.225861 662.14908,389.04405 664.007053,387.576974 C666.138257,385.892553 667.763983,383.922868 668.884232,381.667918 C670.00448,379.412967 670.564604,376.954257 670.564604,374.291785 C670.564604,371.792322 670.018141,369.510204 668.925216,367.44543 C667.832291,365.380656 666.247549,363.614731 664.170991,362.147655 C662.367665,360.897924 660.291107,359.947041 657.941317,359.295007 C655.591528,358.642974 653.0778,358.316957 650.400133,358.316957 C647.777112,358.316957 645.345354,358.62939 643.104857,359.254255 C640.86436,359.879121 638.897095,360.789252 637.203061,361.984647 C635.235795,363.397387 633.733023,365.12256 632.694744,367.160165 C631.656465,369.197771 631.137325,371.439137 631.137325,373.884264 C631.137325,376.546735 631.861388,378.88319 633.309514,380.893628 C634.75764,382.904065 636.547305,384.153797 638.67851,384.642822 L638.67851,384.642822 L639.006387,383.909284 C636.929829,383.365922 635.235795,382.184111 633.924285,380.36385 C632.612774,378.543589 631.957019,376.383727 631.957019,373.884264 C631.957019,371.81949 632.366866,369.876973 633.18656,368.056712 C634.006254,366.236451 635.153826,364.674286 636.629275,363.370219 C638.050078,362.120487 639.716789,361.169605 641.629408,360.517571 C643.542027,359.865537 645.591262,359.53952 647.777112,359.53952 C651.711643,359.53952 654.82648,360.558323 657.121623,362.595929 C659.416766,364.633534 660.564338,367.418262 660.564338,370.950112 C660.564338,374.155945 659.471413,376.913504 657.285562,379.222791 C655.099712,381.532077 652.340075,382.876897 649.006653,383.25725 L649.006653,383.25725 L649.006653,397.928011 L649.826347,397.928011 Z M656.383899,416.184958 L656.383899,403.388794 L643.678643,403.388794 L643.678643,416.184958 L656.383899,416.184958 Z" id="War’sdasschonzwischenuns?" stroke="#000000" stroke-width="0.95441042" fill="#000000" fill-rule="nonzero"></path>
    </g>
</svg>