<?xml version="1.0" encoding="UTF-8"?>
<svg width="800px" height="633px" viewBox="0 0 800 633" version="1.1" xmlns="http://www.w3.org/2000/svg" xmlns:xlink="http://www.w3.org/1999/xlink">
    <!-- Generator: Sketch 63.1 (92452) - https://sketch.com -->
    <title>claim_03</title>
    <desc>Created with Sketch.</desc>
    <g id="claim_03" stroke="none" stroke-width="1" fill="none" fill-rule="evenodd">
        <rect fill="#1A1A1A" x="0" y="0" width="800" height="633"></rect>
        <text id="IMPRESSIONEN" font-family="OpenSans-Bold, Open Sans" font-size="19.7226502" font-weight="bold" fill="#FAD1D1">
            <tspan x="326" y="179">IMPRESSIONEN</tspan>
        </text>
        <path d="M140.758799,288.010299 L146.069299,274.611499 L146.722899,273.059199 L146.722899,272.977499 L155.954999,249.6113 L172.049899,288.010299 L172.376699,288.010299 L195.007598,230.0033 L194.027198,230.0033 L177.523799,272.405599 L160.366799,230.0033 L147.784999,230.0033 L155.464799,248.3858 L146.232699,271.751999 L128.993999,230.0033 L116.003699,230.0033 L140.431999,288.010299 L140.758799,288.010299 Z M219.109098,288.010299 C223.956631,288.010299 227.987165,286.852883 231.200698,284.538049 C234.414231,282.223216 236.565664,278.968833 237.654998,274.774899 L237.654998,274.774899 L236.837998,274.529799 C235.912064,278.233533 234.155515,281.147499 231.568348,283.271699 C228.981181,285.395899 225.971898,286.457999 222.540498,286.457999 C218.509965,286.457999 215.500681,284.905699 213.512648,281.801099 C211.524615,278.696499 210.530598,274.012366 210.530598,267.748699 L210.530598,267.748699 L210.530598,265.4611 L237.900098,265.4611 C237.900098,262.737766 237.450748,260.177833 236.552048,257.7813 C235.653348,255.384766 234.386998,253.315033 232.752998,251.5721 C231.010065,249.7747 228.967565,248.413033 226.625498,247.4871 C224.283431,246.561166 221.696265,246.0982 218.863998,246.0982 C216.031731,246.0982 213.322015,246.62925 210.734848,247.69135 C208.147681,248.75345 205.900932,250.2649 203.994598,252.2257 C202.088265,254.1865 200.631282,256.460483 199.623648,259.04765 C198.616015,261.634816 198.112198,264.426233 198.112198,267.421899 C198.112198,270.308633 198.643248,273.004733 199.705348,275.510199 C200.767448,278.015666 202.278898,280.221566 204.239698,282.127899 C206.200498,283.979766 208.488098,285.423133 211.102498,286.457999 C213.716898,287.492866 216.385765,288.010299 219.109098,288.010299 Z M226.380398,264.6441 L210.530598,264.6441 C210.693998,258.5983 211.456531,254.118416 212.818198,251.20445 C214.179865,248.290483 216.195131,246.8335 218.863998,246.8335 C221.532865,246.8335 223.452815,248.18155 224.623848,250.87765 C225.794881,253.57375 226.380398,258.162566 226.380398,264.6441 L226.380398,264.6441 Z M256.609398,287.193299 L256.609398,260.8859 C256.609398,259.4153 256.827264,257.98555 257.262998,256.59665 C257.698731,255.20775 258.325098,253.9414 259.142098,252.7976 C260.068031,251.435933 261.143748,250.373833 262.369247,249.6113 C263.594747,248.848766 264.833864,248.4675 266.086597,248.4675 C268.101864,248.4675 269.599697,249.107483 270.580097,250.38745 C271.560497,251.667416 272.050697,253.6146 272.050697,256.229 L272.050697,256.229 L272.050697,287.193299 L283.815497,287.193299 L283.815497,260.0689 C283.815497,255.8205 282.630847,252.42995 280.261547,249.89725 C277.892247,247.36455 274.665097,246.0982 270.580097,246.0982 C267.094231,246.0982 264.112181,247.024133 261.633947,248.876 C259.155714,250.727866 257.480864,253.2878 256.609398,256.5558 L256.609398,256.5558 L256.282598,246.9152 L244.844598,246.9152 L244.844598,287.193299 L256.609398,287.193299 Z M304.975797,287.193299 L304.975797,260.8859 C304.975797,259.4153 305.193664,257.98555 305.629397,256.59665 C306.06513,255.20775 306.691497,253.9414 307.508497,252.7976 C308.43443,251.435933 309.510147,250.373833 310.735647,249.6113 C311.961147,248.848766 313.200264,248.4675 314.452997,248.4675 C316.468263,248.4675 317.966097,249.107483 318.946497,250.38745 C319.926897,251.667416 320.417097,253.6146 320.417097,256.229 L320.417097,256.229 L320.417097,287.193299 L332.181897,287.193299 L332.181897,260.0689 C332.181897,255.8205 330.997247,252.42995 328.627947,249.89725 C326.258647,247.36455 323.031497,246.0982 318.946497,246.0982 C315.46063,246.0982 312.47858,247.024133 310.000347,248.876 C307.522114,250.727866 305.847264,253.2878 304.975797,256.5558 L304.975797,256.5558 L304.648997,246.9152 L293.210997,246.9152 L293.210997,287.193299 L304.975797,287.193299 Z M373.031896,287.193299 L373.031896,260.8859 C373.031896,259.4153 373.249763,257.98555 373.685496,256.59665 C374.121229,255.20775 374.747596,253.9414 375.564596,252.7976 C376.490529,251.435933 377.566246,250.373833 378.791746,249.6113 C380.017246,248.848766 381.256363,248.4675 382.509096,248.4675 C384.524363,248.4675 386.022196,249.107483 387.002596,250.38745 C387.982996,251.667416 388.473196,253.6146 388.473196,256.229 L388.473196,256.229 L388.473196,287.193299 L400.237996,287.193299 L400.237996,260.0689 C400.237996,255.8205 399.053346,252.42995 396.684046,249.89725 C394.314746,247.36455 391.087596,246.0982 387.002596,246.0982 C383.516729,246.0982 380.534679,247.024133 378.056446,248.876 C375.578213,250.727866 373.903363,253.2878 373.031896,256.5558 L373.031896,256.5558 L372.705096,246.9152 L361.267096,246.9152 L361.267096,287.193299 L373.031896,287.193299 Z M421.398295,239.8073 L421.398295,228.0425 L409.551796,228.0425 L409.551796,239.8073 L421.398295,239.8073 Z M421.398295,287.193299 L421.398295,246.9152 L409.633496,246.9152 L409.633496,287.193299 L421.398295,287.193299 Z M449.339695,288.010299 C454.187228,288.010299 458.217762,286.852883 461.431295,284.538049 C464.644828,282.223216 466.796262,278.968833 467.885595,274.774899 L467.885595,274.774899 L467.068595,274.529799 C466.142662,278.233533 464.386112,281.147499 461.798945,283.271699 C459.211778,285.395899 456.202495,286.457999 452.771095,286.457999 C448.740562,286.457999 445.731279,284.905699 443.743245,281.801099 C441.755212,278.696499 440.761195,274.012366 440.761195,267.748699 L440.761195,267.748699 L440.761195,265.4611 L468.130695,265.4611 C468.130695,262.737766 467.681345,260.177833 466.782645,257.7813 C465.883945,255.384766 464.617595,253.315033 462.983595,251.5721 C461.240662,249.7747 459.198162,248.413033 456.856095,247.4871 C454.514028,246.561166 451.926862,246.0982 449.094595,246.0982 C446.262329,246.0982 443.552612,246.62925 440.965445,247.69135 C438.378279,248.75345 436.131529,250.2649 434.225195,252.2257 C432.318862,254.1865 430.861879,256.460483 429.854245,259.04765 C428.846612,261.634816 428.342795,264.426233 428.342795,267.421899 C428.342795,270.308633 428.873845,273.004733 429.935945,275.510199 C430.998045,278.015666 432.509495,280.221566 434.470295,282.127899 C436.431095,283.979766 438.718695,285.423133 441.333095,286.457999 C443.947495,287.492866 446.616362,288.010299 449.339695,288.010299 Z M456.610995,264.6441 L440.761195,264.6441 C440.924595,258.5983 441.687129,254.118416 443.048795,251.20445 C444.410462,248.290483 446.425729,246.8335 449.094595,246.8335 C451.763462,246.8335 453.683412,248.18155 454.854445,250.87765 C456.025478,253.57375 456.610995,258.162566 456.610995,264.6441 L456.610995,264.6441 Z M486.839995,287.193299 L486.839995,260.7225 C486.894461,259.2519 487.112328,257.849383 487.493595,256.51495 C487.874861,255.180516 488.392295,253.968633 489.045895,252.8793 C489.917361,251.5721 490.924995,250.537233 492.068795,249.7747 C493.212595,249.012166 494.410861,248.6309 495.663595,248.6309 C497.569928,248.6309 498.999678,249.270883 499.952845,250.55085 C500.906011,251.830816 501.382594,253.750766 501.382594,256.3107 L501.382594,256.3107 L501.382594,287.193299 L513.147394,287.193299 L513.147394,260.7225 C513.201861,259.2519 513.419728,257.849383 513.800994,256.51495 C514.182261,255.180516 514.699694,253.968633 515.353294,252.8793 C516.224761,251.5721 517.232394,250.537233 518.376194,249.7747 C519.519994,249.012166 520.718261,248.6309 521.970994,248.6309 C523.877328,248.6309 525.307078,249.270883 526.260244,250.55085 C527.213411,251.830816 527.689994,253.750766 527.689994,256.3107 L527.689994,256.3107 L527.689994,287.193299 L539.454794,287.193299 L539.454794,260.314 C539.454794,255.9022 538.338227,252.42995 536.105094,249.89725 C533.871961,247.36455 530.740127,246.0982 526.709594,246.0982 C523.169261,246.0982 520.200828,247.051366 517.804294,248.9577 C515.407761,250.864033 513.773761,253.560133 512.902294,257.046 C512.412094,253.6146 511.077661,250.932116 508.898994,248.99855 C506.720328,247.064983 503.888061,246.0982 500.402194,246.0982 C496.916328,246.0982 494.002361,246.9969 491.660295,248.7943 C489.318228,250.5917 487.711461,253.151633 486.839995,256.4741 L486.839995,256.4741 L486.513195,246.9152 L475.075195,246.9152 L475.075195,287.193299 L486.839995,287.193299 Z M557.918994,288.010299 C561.459327,288.010299 564.50946,287.002666 567.069394,284.987399 C569.629327,282.972133 571.263327,280.384966 571.971394,277.225899 L571.971394,277.225899 L572.788394,287.193299 L583.409393,287.193299 L583.409393,261.8663 C583.409393,256.691966 581.843477,252.770366 578.711644,250.1015 C575.57981,247.432633 570.96376,246.0982 564.863494,246.0982 C559.907027,246.0982 556.026277,247.092216 553.221244,249.08025 C550.416211,251.068283 549.013694,253.750766 549.013694,257.1277 C549.013694,258.543833 549.299644,259.8238 549.871544,260.9676 C550.443444,262.1114 551.274061,263.037333 552.363394,263.7454 L552.363394,263.7454 L552.853594,263.1735 C551.764261,262.3565 550.988111,261.485033 550.525144,260.5591 C550.062177,259.633166 549.830694,258.489366 549.830694,257.1277 C549.830694,254.240966 550.988111,251.871666 553.302944,250.0198 C555.617777,248.167933 558.518127,247.242 562.003994,247.242 C565.16306,247.242 567.586827,248.09985 569.275294,249.81555 C570.96376,251.53125 571.807994,254.0231 571.807994,257.2911 L571.807994,257.2911 L571.807994,264.4807 L561.432094,266.278099 C556.039894,267.204033 552.104677,268.620166 549.626444,270.526499 C547.148211,272.432833 545.909094,274.883833 545.909094,277.879499 C545.909094,280.929633 547.012044,283.380633 549.217944,285.232499 C551.423844,287.084366 554.324194,288.010299 557.918994,288.010299 Z M563.147794,284.987399 C561.350394,284.987399 559.93426,284.197633 558.899394,282.618099 C557.864527,281.038566 557.347094,278.832666 557.347094,276.000399 C557.347094,273.059199 557.97346,270.839683 559.226194,269.341849 C560.478927,267.844016 562.521427,266.822766 565.353694,266.278099 L565.353694,266.278099 L571.807994,265.216 L571.807994,275.101699 C571.426727,277.933966 570.419094,280.289649 568.785094,282.168749 C567.151094,284.047849 565.271994,284.987399 563.147794,284.987399 Z M604.651393,287.193299 L604.651393,260.8859 C604.651393,259.4153 604.86926,257.98555 605.304993,256.59665 C605.740727,255.20775 606.367093,253.9414 607.184093,252.7976 C608.110026,251.435933 609.185743,250.373833 610.411243,249.6113 C611.636743,248.848766 612.87586,248.4675 614.128593,248.4675 C616.14386,248.4675 617.641693,249.107483 618.622093,250.38745 C619.602493,251.667416 620.092693,253.6146 620.092693,256.229 L620.092693,256.229 L620.092693,287.193299 L631.857493,287.193299 L631.857493,260.0689 C631.857493,255.8205 630.672843,252.42995 628.303543,249.89725 C625.934243,247.36455 622.707093,246.0982 618.622093,246.0982 C615.136226,246.0982 612.154176,247.024133 609.675943,248.876 C607.19771,250.727866 605.52286,253.2878 604.651393,256.5558 L604.651393,256.5558 L604.324593,246.9152 L592.886593,246.9152 L592.886593,287.193299 L604.651393,287.193299 Z M655.550493,288.010299 C658.927426,288.010299 661.855009,287.057133 664.333242,285.150799 C666.811476,283.244466 668.486326,280.711766 669.357792,277.552699 L669.357792,277.552699 L669.684592,287.193299 L681.122592,287.193299 L681.122592,226 L669.357792,226 L669.357792,256.4741 C668.486326,253.315033 666.811476,250.79595 664.333242,248.91685 C661.855009,247.03775 658.954659,246.0982 655.632193,246.0982 C653.126726,246.0982 650.743809,246.697333 648.483443,247.8956 C646.223076,249.093866 644.275893,250.809566 642.641893,253.0427 C641.280226,254.949033 640.231743,257.141316 639.496443,259.61955 C638.761143,262.097783 638.393493,264.7258 638.393493,267.503599 C638.393493,270.226933 638.761143,272.786866 639.496443,275.183399 C640.231743,277.579933 641.307459,279.704133 642.723593,281.555999 C644.303126,283.571266 646.209459,285.150799 648.442593,286.294599 C650.675726,287.438399 653.045026,288.010299 655.550493,288.010299 Z M659.717192,285.477599 C656.939393,285.477599 654.774343,283.870833 653.222043,280.657299 C651.669743,277.443766 650.893593,272.977499 650.893593,267.258499 C650.893593,261.485033 651.696976,256.937066 653.303743,253.6146 C654.910509,250.292133 657.102793,248.6309 659.880592,248.6309 C661.242259,248.6309 662.535842,249.012166 663.761342,249.7747 C664.986842,250.537233 666.062559,251.626566 666.988492,253.0427 C667.696559,254.1865 668.254842,255.466466 668.663342,256.8826 C669.071842,258.298733 669.303326,259.769333 669.357792,261.2944 L669.357792,261.2944 L669.357792,272.814099 C669.303326,274.393633 669.071842,275.891466 668.663342,277.307599 C668.254842,278.723733 667.669326,280.003699 666.906792,281.147499 C665.980859,282.509166 664.891526,283.571266 663.638792,284.333799 C662.386059,285.096333 661.078859,285.477599 659.717192,285.477599 Z M99.5819995,375.543298 L99.5819995,374.726298 L75.2353998,374.726298 L98.8466995,335.591999 L98.8466995,335.265199 L63.3889,335.265199 L63.3889,336.082199 L85.8563997,336.082199 L62,375.216498 L62,375.543298 L99.5819995,375.543298 Z M119.026599,376.360298 C122.457999,376.360298 125.358349,375.447981 127.727649,373.623348 C130.096949,371.798715 131.744566,369.225165 132.670499,365.902698 L132.670499,365.902698 L132.997299,375.543298 L144.435299,375.543298 L144.435299,335.265199 L132.670499,335.265199 L132.670499,361.572598 C132.616032,363.043198 132.398166,364.459332 132.016899,365.820998 C131.635632,367.182665 131.063732,368.435398 130.301199,369.579198 C129.429732,370.995332 128.394866,372.084665 127.196599,372.847198 C125.998333,373.609731 124.772833,373.990998 123.520099,373.990998 C121.559299,373.990998 120.088699,373.323781 119.108299,371.989348 C118.127899,370.654915 117.637699,368.707732 117.637699,366.147798 L117.637699,366.147798 L117.637699,335.265199 L105.872899,335.265199 L105.872899,362.307898 C105.872899,366.556298 107.043933,369.960465 109.385999,372.520398 C111.728066,375.080331 114.941599,376.360298 119.026599,376.360298 Z M168.209999,376.360298 C173.438799,376.360298 177.673582,375.066715 180.914349,372.479548 C184.155115,369.892382 185.775498,366.501832 185.775498,362.307898 C185.775498,359.312232 184.849565,356.888465 182.997698,355.036598 C181.145832,353.184732 178.041232,351.659665 173.683899,350.461398 L173.683899,350.461398 L165.677299,348.337198 C162.953965,347.629132 161.061249,346.784898 159.999149,345.804498 C158.937049,344.824099 158.405999,343.516899 158.405999,341.882899 C158.405999,339.922099 159.318315,338.328949 161.142949,337.103449 C162.967582,335.877949 165.350499,335.265199 168.291699,335.265199 C171.886499,335.265199 174.882165,335.973265 177.278699,337.389399 C179.675232,338.805532 181.418165,340.875265 182.507498,343.598599 L182.507498,343.598599 L183.324498,343.271799 C182.235165,340.439532 180.383299,338.260865 177.768899,336.735799 C175.154499,335.210732 171.995432,334.448199 168.291699,334.448199 C163.498632,334.448199 159.536182,335.714549 156.404349,338.247249 C153.272516,340.779949 151.706599,344.007099 151.706599,347.928698 C151.706599,350.815432 152.605299,353.184732 154.402699,355.036598 C156.200099,356.888465 158.950665,358.277365 162.654399,359.203298 L162.654399,359.203298 L170.660999,361.245798 C173.438799,361.953865 175.413215,362.838948 176.584249,363.901048 C177.755282,364.963148 178.340799,366.338432 178.340799,368.026898 C178.340799,370.314498 177.414865,372.139131 175.562999,373.500798 C173.711132,374.862465 171.260132,375.543298 168.209999,375.543298 C164.124999,375.543298 160.489349,374.576515 157.303049,372.642948 C154.116749,370.709382 152.115099,368.135832 151.298099,364.922298 L151.298099,364.922298 L150.481099,365.249098 C151.352566,368.571565 153.435916,371.254048 156.731149,373.296548 C160.026382,375.339048 163.852665,376.360298 168.209999,376.360298 Z M210.367198,376.360298 C215.051331,376.360298 218.904848,375.202881 221.927748,372.888048 C224.950648,370.573215 226.897831,367.318832 227.769298,363.124898 L227.769298,363.124898 L226.952298,362.879798 C226.298698,366.474598 224.787248,369.320482 222.417948,371.417448 C220.048648,373.514415 217.311698,374.562898 214.207098,374.562898 C210.394431,374.562898 207.466848,372.928898 205.424348,369.660898 C203.381848,366.392898 202.360598,361.735998 202.360598,355.690198 C202.360598,349.644398 203.531632,344.878565 205.873698,341.392699 C208.215765,337.906832 211.347598,336.163899 215.269198,336.163899 C218.264865,336.163899 220.715865,337.117065 222.622198,339.023399 C224.528531,340.929732 225.481698,343.380732 225.481698,346.376398 C225.481698,347.901465 225.209365,349.249515 224.664698,350.420548 C224.120031,351.591582 223.330265,352.585598 222.295398,353.402598 L222.295398,353.402598 L222.785598,353.974498 C223.874931,353.211965 224.732781,352.149865 225.359148,350.788198 C225.985515,349.426532 226.298698,347.955932 226.298698,346.376398 C226.298698,342.781599 224.977881,339.894865 222.336248,337.716199 C219.694615,335.537532 216.140665,334.448199 211.674398,334.448199 C208.787665,334.448199 206.009865,334.979249 203.340998,336.041349 C200.672132,337.103449 198.330065,338.614899 196.314798,340.575699 C194.245065,342.590965 192.679148,344.905799 191.617048,347.520198 C190.554948,350.134598 190.023898,352.939632 190.023898,355.935298 C190.023898,358.822032 190.527715,361.504515 191.535348,363.982748 C192.542982,366.460982 193.999965,368.626032 195.906298,370.477898 C197.812632,372.384231 200.018532,373.841215 202.523998,374.848848 C205.029465,375.856481 207.643865,376.360298 210.367198,376.360298 Z M245.824998,375.543298 L245.824998,349.235898 C245.824998,347.765298 246.042864,346.335548 246.478598,344.946649 C246.914331,343.557749 247.540698,342.291399 248.357698,341.147599 C249.283631,339.785932 250.359348,338.723832 251.584848,337.961299 C252.810348,337.198765 254.049464,336.817499 255.302198,336.817499 C257.317464,336.817499 258.815298,337.457482 259.795698,338.737449 C260.776098,340.017415 261.266297,341.964599 261.266297,344.578999 L261.266297,344.578999 L261.266297,375.543298 L273.031097,375.543298 L273.031097,348.418898 C273.031097,344.170499 271.846447,340.779949 269.477147,338.247249 C267.107847,335.714549 263.880697,334.448199 259.795698,334.448199 C256.309831,334.448199 253.327781,335.374132 250.849548,337.225999 C248.371314,339.077865 246.696464,341.637799 245.824998,344.905799 L245.824998,344.905799 L245.824998,314.349999 L234.060198,314.349999 L234.060198,375.543298 L245.824998,375.543298 Z M291.495297,376.360298 C295.03563,376.360298 298.085764,375.352665 300.645697,373.337398 C303.20563,371.322132 304.83963,368.734965 305.547697,365.575898 L305.547697,365.575898 L306.364697,375.543298 L316.985697,375.543298 L316.985697,350.216298 C316.985697,345.041965 315.41978,341.120365 312.287947,338.451499 C309.156114,335.782632 304.540064,334.448199 298.439797,334.448199 C293.48333,334.448199 289.60258,335.442215 286.797547,337.430249 C283.992514,339.418282 282.589997,342.100765 282.589997,345.477699 C282.589997,346.893832 282.875947,348.173798 283.447847,349.317598 C284.019747,350.461398 284.850364,351.387332 285.939697,352.095398 L285.939697,352.095398 L286.429897,351.523498 C285.340564,350.706498 284.564414,349.835032 284.101447,348.909098 C283.638481,347.983165 283.406997,346.839365 283.406997,345.477699 C283.406997,342.590965 284.564414,340.221665 286.879247,338.369799 C289.19408,336.517932 292.09443,335.591999 295.580297,335.591999 C298.739364,335.591999 301.16313,336.449849 302.851597,338.165549 C304.540064,339.881249 305.384297,342.373099 305.384297,345.641098 L305.384297,345.641098 L305.384297,352.830698 L295.008397,354.628098 C289.616197,355.554032 285.680981,356.970165 283.202747,358.876498 C280.724514,360.782832 279.485397,363.233832 279.485397,366.229498 C279.485397,369.279632 280.588347,371.730632 282.794247,373.582498 C285.000147,375.434365 287.900497,376.360298 291.495297,376.360298 Z M296.724097,373.337398 C294.926697,373.337398 293.510564,372.547631 292.475697,370.968098 C291.44083,369.388565 290.923397,367.182665 290.923397,364.350398 C290.923397,361.409198 291.549764,359.189682 292.802497,357.691848 C294.05523,356.194015 296.09773,355.172765 298.929997,354.628098 L298.929997,354.628098 L305.384297,353.565998 L305.384297,363.451698 C305.00303,366.283965 303.995397,368.639648 302.361397,370.518748 C300.727397,372.397848 298.848297,373.337398 296.724097,373.337398 Z M339.208097,376.360298 C342.639496,376.360298 345.539846,375.447981 347.909146,373.623348 C350.278446,371.798715 351.926063,369.225165 352.851996,365.902698 L352.851996,365.902698 L353.178796,375.543298 L364.616796,375.543298 L364.616796,335.265199 L352.851996,335.265199 L352.851996,361.572598 C352.79753,363.043198 352.579663,364.459332 352.198396,365.820998 C351.81713,367.182665 351.24523,368.435398 350.482696,369.579198 C349.61123,370.995332 348.576363,372.084665 347.378096,372.847198 C346.17983,373.609731 344.95433,373.990998 343.701596,373.990998 C341.740796,373.990998 340.270197,373.323781 339.289797,371.989348 C338.309397,370.654915 337.819197,368.707732 337.819197,366.147798 L337.819197,366.147798 L337.819197,335.265199 L326.054397,335.265199 L326.054397,362.307898 C326.054397,366.556298 327.22543,369.960465 329.567497,372.520398 C331.909563,375.080331 335.123097,376.360298 339.208097,376.360298 Z M388.309796,376.360298 C392.612663,376.360298 395.907896,375.121181 398.195496,372.642948 C400.483096,370.164715 401.708596,366.474598 401.871996,361.572598 L401.871996,361.572598 L400.973296,361.490898 C400.918829,365.521432 400.060979,368.707732 398.399746,371.049798 C396.738512,373.391865 394.573462,374.562898 391.904596,374.562898 C390.216129,374.562898 388.936163,373.990998 388.064696,372.847198 C387.193229,371.703398 386.757496,370.042165 386.757496,367.863498 L386.757496,367.863498 L386.757496,336.082199 L400.074596,336.082199 L400.483096,335.265199 L386.757496,335.265199 L386.757496,321.948099 L375.074396,326.278199 L375.074396,335.265199 L369.518796,335.265199 L369.518796,336.082199 L375.074396,336.082199 L375.074396,363.124898 C375.074396,367.318832 376.245429,370.573215 378.587496,372.888048 C380.929563,375.202881 384.170329,376.360298 388.309796,376.360298 Z M406.038696,389.350598 C410.668362,389.350598 414.140612,388.247648 416.455446,386.041748 C418.770279,383.835848 419.927696,380.526998 419.927696,376.115198 L419.927696,376.115198 L419.927696,362.716398 L407.264196,362.716398 L407.264196,375.543298 L419.110696,375.543298 L419.110696,376.196898 C419.110696,380.336365 418.021362,383.427348 415.842696,385.469848 C413.664029,387.512348 410.396029,388.533598 406.038696,388.533598 L406.038696,388.533598 L406.038696,389.350598 Z M460.777695,375.543298 L460.777695,349.072498 C460.832162,347.601898 461.050028,346.199382 461.431295,344.864949 C461.812562,343.530515 462.329995,342.318632 462.983595,341.229299 C463.855062,339.922099 464.862695,338.887232 466.006495,338.124699 C467.150295,337.362165 468.348562,336.980899 469.601295,336.980899 C471.507628,336.980899 472.937378,337.620882 473.890545,338.900849 C474.843711,340.180815 475.320295,342.100765 475.320295,344.660699 L475.320295,344.660699 L475.320295,375.543298 L487.085095,375.543298 L487.085095,349.072498 C487.139561,347.601898 487.357428,346.199382 487.738695,344.864949 C488.119961,343.530515 488.637395,342.318632 489.290995,341.229299 C490.162461,339.922099 491.170095,338.887232 492.313895,338.124699 C493.457695,337.362165 494.655961,336.980899 495.908695,336.980899 C497.815028,336.980899 499.244778,337.620882 500.197945,338.900849 C501.151111,340.180815 501.627694,342.100765 501.627694,344.660699 L501.627694,344.660699 L501.627694,375.543298 L513.392494,375.543298 L513.392494,348.663998 C513.392494,344.252199 512.275928,340.779949 510.042794,338.247249 C507.809661,335.714549 504.677828,334.448199 500.647294,334.448199 C497.106961,334.448199 494.138528,335.401365 491.741995,337.307699 C489.345461,339.214032 487.711461,341.910132 486.839995,345.395999 C486.349795,341.964599 485.015361,339.282115 482.836695,337.348549 C480.658028,335.414982 477.825761,334.448199 474.339895,334.448199 C470.854028,334.448199 467.940062,335.346899 465.597995,337.144299 C463.255928,338.941699 461.649162,341.501632 460.777695,344.824099 L460.777695,344.824099 L460.450895,335.265199 L449.012895,335.265199 L449.012895,375.543298 L460.777695,375.543298 Z M531.856694,376.360298 C535.397027,376.360298 538.447161,375.352665 541.007094,373.337398 C543.567027,371.322132 545.201027,368.734965 545.909094,365.575898 L545.909094,365.575898 L546.726094,375.543298 L557.347094,375.543298 L557.347094,350.216298 C557.347094,345.041965 555.781177,341.120365 552.649344,338.451499 C549.517511,335.782632 544.901461,334.448199 538.801194,334.448199 C533.844727,334.448199 529.963977,335.442215 527.158944,337.430249 C524.353911,339.418282 522.951394,342.100765 522.951394,345.477699 C522.951394,346.893832 523.237344,348.173798 523.809244,349.317598 C524.381144,350.461398 525.211761,351.387332 526.301094,352.095398 L526.301094,352.095398 L526.791294,351.523498 C525.701961,350.706498 524.925811,349.835032 524.462844,348.909098 C523.999878,347.983165 523.768394,346.839365 523.768394,345.477699 C523.768394,342.590965 524.925811,340.221665 527.240644,338.369799 C529.555477,336.517932 532.455827,335.591999 535.941694,335.591999 C539.100761,335.591999 541.524527,336.449849 543.212994,338.165549 C544.901461,339.881249 545.745694,342.373099 545.745694,345.641098 L545.745694,345.641098 L545.745694,352.830698 L535.369794,354.628098 C529.977594,355.554032 526.042378,356.970165 523.564144,358.876498 C521.085911,360.782832 519.846794,363.233832 519.846794,366.229498 C519.846794,369.279632 520.949744,371.730632 523.155644,373.582498 C525.361544,375.434365 528.261894,376.360298 531.856694,376.360298 Z M537.085494,373.337398 C535.288094,373.337398 533.871961,372.547631 532.837094,370.968098 C531.802227,369.388565 531.284794,367.182665 531.284794,364.350398 C531.284794,361.409198 531.911161,359.189682 533.163894,357.691848 C534.416627,356.194015 536.459127,355.172765 539.291394,354.628098 L539.291394,354.628098 L545.745694,353.565998 L545.745694,363.451698 C545.364427,366.283965 544.356794,368.639648 542.722794,370.518748 C541.088794,372.397848 539.209694,373.337398 537.085494,373.337398 Z M584.308093,376.360298 C588.992227,376.360298 592.845743,375.202881 595.868643,372.888048 C598.891543,370.573215 600.838727,367.318832 601.710193,363.124898 L601.710193,363.124898 L600.893193,362.879798 C600.239593,366.474598 598.728143,369.320482 596.358843,371.417448 C593.989543,373.514415 591.252593,374.562898 588.147993,374.562898 C584.335327,374.562898 581.407743,372.928898 579.365244,369.660898 C577.322744,366.392898 576.301494,361.735998 576.301494,355.690198 C576.301494,349.644398 577.472527,344.878565 579.814594,341.392699 C582.15666,337.906832 585.288493,336.163899 589.210093,336.163899 C592.20576,336.163899 594.65676,337.117065 596.563093,339.023399 C598.469427,340.929732 599.422593,343.380732 599.422593,346.376398 C599.422593,347.901465 599.15026,349.249515 598.605593,350.420548 C598.060927,351.591582 597.27116,352.585598 596.236293,353.402598 L596.236293,353.402598 L596.726493,353.974498 C597.815827,353.211965 598.673677,352.149865 599.300043,350.788198 C599.92641,349.426532 600.239593,347.955932 600.239593,346.376398 C600.239593,342.781599 598.918777,339.894865 596.277143,337.716199 C593.63551,335.537532 590.08156,334.448199 585.615293,334.448199 C582.72856,334.448199 579.95076,334.979249 577.281894,336.041349 C574.613027,337.103449 572.27096,338.614899 570.255694,340.575699 C568.18596,342.590965 566.620044,344.905799 565.557944,347.520198 C564.495844,350.134598 563.964794,352.939632 563.964794,355.935298 C563.964794,358.822032 564.46861,361.504515 565.476244,363.982748 C566.483877,366.460982 567.94086,368.626032 569.847194,370.477898 C571.753527,372.384231 573.959427,373.841215 576.464894,374.848848 C578.97036,375.856481 581.58476,376.360298 584.308093,376.360298 Z M619.765893,375.543298 L619.765893,349.235898 C619.765893,347.765298 619.98376,346.335548 620.419493,344.946649 C620.855226,343.557749 621.481593,342.291399 622.298593,341.147599 C623.224526,339.785932 624.300243,338.723832 625.525743,337.961299 C626.751243,337.198765 627.99036,336.817499 629.243093,336.817499 C631.25836,336.817499 632.756193,337.457482 633.736593,338.737449 C634.716993,340.017415 635.207193,341.964599 635.207193,344.578999 L635.207193,344.578999 L635.207193,375.543298 L646.971993,375.543298 L646.971993,348.418898 C646.971993,344.170499 645.787343,340.779949 643.418043,338.247249 C641.048743,335.714549 637.821593,334.448199 633.736593,334.448199 C630.250726,334.448199 627.268676,335.374132 624.790443,337.225999 C622.31221,339.077865 620.63736,341.637799 619.765893,344.905799 L619.765893,344.905799 L619.765893,314.349999 L608.001093,314.349999 L608.001093,375.543298 L619.765893,375.543298 Z M670.338192,376.360298 C674.641059,376.360298 677.936292,375.121181 680.223892,372.642948 C682.511492,370.164715 683.736992,366.474598 683.900392,361.572598 L683.900392,361.572598 L683.001692,361.490898 C682.947226,365.521432 682.089376,368.707732 680.428142,371.049798 C678.766909,373.391865 676.601859,374.562898 673.932992,374.562898 C672.244526,374.562898 670.964559,373.990998 670.093092,372.847198 C669.221626,371.703398 668.785892,370.042165 668.785892,367.863498 L668.785892,367.863498 L668.785892,336.082199 L682.102992,336.082199 L682.511492,335.265199 L668.785892,335.265199 L668.785892,321.948099 L657.102793,326.278199 L657.102793,335.265199 L651.547193,335.265199 L651.547193,336.082199 L657.102793,336.082199 L657.102793,363.124898 C657.102793,367.318832 658.273826,370.573215 660.615892,372.888048 C662.957959,375.202881 666.198726,376.360298 670.338192,376.360298 Z M693.704392,342.373099 L698.361292,318.353299 L688.638992,318.353299 L693.295892,342.373099 L693.704392,342.373099 Z M721.155592,376.360298 C726.384392,376.360298 730.619175,375.066715 733.859942,372.479548 C737.100708,369.892382 738.721092,366.501832 738.721092,362.307898 C738.721092,359.312232 737.795158,356.888465 735.943292,355.036598 C734.091425,353.184732 730.986825,351.659665 726.629492,350.461398 L726.629492,350.461398 L718.622892,348.337198 C715.899558,347.629132 714.006842,346.784898 712.944742,345.804498 C711.882642,344.824099 711.351592,343.516899 711.351592,341.882899 C711.351592,339.922099 712.263909,338.328949 714.088542,337.103449 C715.913175,335.877949 718.296092,335.265199 721.237292,335.265199 C724.832092,335.265199 727.827758,335.973265 730.224292,337.389399 C732.620825,338.805532 734.363758,340.875265 735.453092,343.598599 L735.453092,343.598599 L736.270092,343.271799 C735.180758,340.439532 733.328892,338.260865 730.714492,336.735799 C728.100092,335.210732 724.941025,334.448199 721.237292,334.448199 C716.444225,334.448199 712.481775,335.714549 709.349942,338.247249 C706.218109,340.779949 704.652192,344.007099 704.652192,347.928698 C704.652192,350.815432 705.550892,353.184732 707.348292,355.036598 C709.145692,356.888465 711.896259,358.277365 715.599992,359.203298 L715.599992,359.203298 L723.606592,361.245798 C726.384392,361.953865 728.358808,362.838948 729.529842,363.901048 C730.700875,364.963148 731.286392,366.338432 731.286392,368.026898 C731.286392,370.314498 730.360458,372.139131 728.508592,373.500798 C726.656725,374.862465 724.205725,375.543298 721.155592,375.543298 C717.070592,375.543298 713.434942,374.576515 710.248642,372.642948 C707.062342,370.709382 705.060692,368.135832 704.243692,364.922298 L704.243692,364.922298 L703.426692,365.249098 C704.298159,368.571565 706.381509,371.254048 709.676742,373.296548 C712.971975,375.339048 716.798258,376.360298 721.155592,376.360298 Z M216.412998,463.893297 L216.412998,449.759197 L221.314998,445.347397 L233.161498,463.893297 L246.151798,463.893297 L229.730098,437.667597 L245.089698,423.615198 L244.027598,423.615198 L216.412998,448.778797 L216.412998,402.699998 L204.648198,402.699998 L204.648198,463.893297 L216.412998,463.893297 Z M269.926497,464.710297 C274.774031,464.710297 278.804564,463.55288 282.018097,461.238047 C285.231631,458.923214 287.383064,455.66883 288.472397,451.474897 L288.472397,451.474897 L287.655397,451.229797 C286.729464,454.93353 284.972914,457.847497 282.385747,459.971697 C279.798581,462.095897 276.789297,463.157997 273.357897,463.157997 C269.327364,463.157997 266.318081,461.605697 264.330047,458.501097 C262.342014,455.396497 261.347997,450.712364 261.347997,444.448697 L261.347997,444.448697 L261.347997,442.161097 L288.717497,442.161097 C288.717497,439.437764 288.268147,436.877831 287.369447,434.481297 C286.470747,432.084764 285.204397,430.015031 283.570397,428.272097 C281.827464,426.474697 279.784964,425.113031 277.442897,424.187098 C275.100831,423.261164 272.513664,422.798198 269.681397,422.798198 C266.849131,422.798198 264.139414,423.329248 261.552247,424.391348 C258.965081,425.453447 256.718331,426.964897 254.811998,428.925697 C252.905664,430.886497 251.448681,433.160481 250.441048,435.747647 C249.433414,438.334814 248.929598,441.126231 248.929598,444.121897 C248.929598,447.008631 249.460648,449.704731 250.522748,452.210197 C251.584848,454.715664 253.096298,456.921564 255.057098,458.827897 C257.017898,460.679764 259.305498,462.12313 261.919897,463.157997 C264.534297,464.192864 267.203164,464.710297 269.926497,464.710297 Z M277.197797,441.344097 L261.347997,441.344097 C261.511397,435.298297 262.273931,430.818414 263.635597,427.904447 C264.997264,424.990481 267.012531,423.533498 269.681397,423.533498 C272.350264,423.533498 274.270214,424.881548 275.441247,427.577647 C276.612281,430.273747 277.197797,434.862564 277.197797,441.344097 L277.197797,441.344097 Z M307.426797,416.507298 L307.426797,404.742498 L295.580297,404.742498 L295.580297,416.507298 L307.426797,416.507298 Z M307.426797,463.893297 L307.426797,423.615198 L295.661997,423.615198 L295.661997,463.893297 L307.426797,463.893297 Z M328.995597,463.893297 L328.995597,437.585897 C328.995597,436.115297 329.213463,434.685547 329.649197,433.296647 C330.08493,431.907747 330.711297,430.641397 331.528297,429.497597 C332.45423,428.135931 333.529947,427.073831 334.755447,426.311297 C335.980947,425.548764 337.220063,425.167498 338.472797,425.167498 C340.488063,425.167498 341.985896,425.807481 342.966296,427.087447 C343.946696,428.367414 344.436896,430.314597 344.436896,432.928997 L344.436896,432.928997 L344.436896,463.893297 L356.201696,463.893297 L356.201696,436.768897 C356.201696,432.520497 355.017046,429.129947 352.647746,426.597247 C350.278446,424.064548 347.051296,422.798198 342.966296,422.798198 C339.48043,422.798198 336.49838,423.724131 334.020147,425.575997 C331.541913,427.427864 329.867063,429.987797 328.995597,433.255797 L328.995597,433.255797 L328.668797,423.615198 L317.230797,423.615198 L317.230797,463.893297 L328.995597,463.893297 Z M405.303396,464.710297 C408.299062,464.710297 411.117712,464.315414 413.759346,463.525647 C416.400979,462.73588 418.756662,461.605697 420.826395,460.135097 C423.168462,458.44663 424.952245,456.417747 426.177745,454.048447 C427.403245,451.679147 428.015995,449.078364 428.015995,446.246097 C428.015995,442.161097 426.749645,438.797781 424.216945,436.156147 C421.684245,433.514514 417.694562,431.458397 412.247896,429.987797 L412.247896,429.987797 L403.342596,427.536797 C400.946062,426.883197 399.135046,426.338531 397.909546,425.902797 C396.684046,425.467064 395.662796,424.976864 394.845796,424.432198 C393.375196,423.615198 392.299479,422.593948 391.618646,421.368448 C390.937813,420.142948 390.597396,418.685964 390.597396,416.997498 C390.597396,413.892898 391.822896,411.414664 394.273896,409.562798 C396.724896,407.710931 399.992896,406.784998 404.077896,406.784998 C408.870962,406.784998 413.078512,407.819864 416.700546,409.889598 C420.322579,411.959331 422.950595,414.818831 424.584595,418.468098 L424.584595,418.468098 L425.401595,417.896198 C423.658662,414.137998 420.908095,411.196798 417.149896,409.072598 C413.391696,406.948398 408.979896,405.886298 403.914496,405.886298 C401.136696,405.886298 398.522296,406.253948 396.071296,406.989248 C393.620296,407.724548 391.468863,408.773031 389.616996,410.134698 C387.438329,411.714231 385.777096,413.620564 384.633296,415.853698 C383.489496,418.086831 382.917596,420.510598 382.917596,423.124998 C382.917596,427.155531 384.211179,430.464381 386.798346,433.051547 C389.385513,435.638714 393.484129,437.667597 399.094196,439.138197 L399.094196,439.138197 L408.081196,441.589197 C412.492996,442.787464 415.583979,444.230831 417.354146,445.919297 C419.124312,447.607764 420.009396,449.813664 420.009396,452.536997 C420.009396,455.968397 418.647729,458.705347 415.924396,460.747847 C413.201062,462.790347 409.524562,463.811597 404.894896,463.811597 C399.666096,463.811597 395.036429,462.681414 391.005896,460.421047 C386.975363,458.16068 384.061396,455.069697 382.263996,451.148097 L382.263996,451.148097 L381.446996,451.638297 C383.407796,455.777764 386.471546,458.991297 390.638246,461.278897 C394.804946,463.566497 399.693329,464.710297 405.303396,464.710297 Z M446.806995,481.458797 L446.806995,454.416097 C447.678462,457.575164 449.339695,460.08063 451.790695,461.932497 C454.241695,463.784364 457.128428,464.710297 460.450895,464.710297 C463.010828,464.710297 465.420978,464.111164 467.681345,462.912897 C469.941712,461.71463 471.861662,459.99893 473.441195,457.765797 C474.857328,455.859464 475.933045,453.66718 476.668345,451.188947 C477.403645,448.710714 477.771295,446.082697 477.771295,443.304897 C477.771295,440.581564 477.403645,438.021631 476.668345,435.625097 C475.933045,433.228564 474.857328,431.131597 473.441195,429.334197 C471.807195,427.264464 469.873628,425.657697 467.640495,424.513898 C465.407362,423.370098 463.065295,422.798198 460.614295,422.798198 C457.237362,422.798198 454.309778,423.737748 451.831545,425.616847 C449.353312,427.495947 447.678462,430.042264 446.806995,433.255797 L446.806995,433.255797 L446.480195,423.615198 L435.042195,423.615198 L435.042195,481.458797 L446.806995,481.458797 Z M456.284195,462.177597 C453.724262,462.177597 451.518362,460.952097 449.666495,458.501097 C447.814628,456.050097 446.834229,453.05443 446.725295,449.514097 L446.725295,449.514097 L446.725295,438.076097 C446.779762,436.496564 447.024862,434.998731 447.460595,433.582597 C447.896328,432.166464 448.495462,430.886497 449.257995,429.742697 C450.183928,428.326564 451.273262,427.237231 452.525995,426.474697 C453.778728,425.712164 455.085928,425.330897 456.447595,425.330897 C459.225395,425.330897 461.390445,426.937664 462.942745,430.151197 C464.495045,433.364731 465.271195,437.830997 465.271195,443.549997 C465.271195,449.268997 464.467812,453.803347 462.861045,457.153047 C461.254278,460.502747 459.061995,462.177597 456.284195,462.177597 Z M493.784495,464.710297 C497.324828,464.710297 500.374961,463.702664 502.934894,461.687397 C505.494828,459.67213 507.128828,457.084964 507.836894,453.925897 L507.836894,453.925897 L508.653894,463.893297 L519.274894,463.893297 L519.274894,438.566297 C519.274894,433.391964 517.708978,429.470364 514.577144,426.801497 C511.445311,424.132631 506.829261,422.798198 500.728994,422.798198 C495.772528,422.798198 491.891778,423.792214 489.086745,425.780247 C486.281711,427.768281 484.879195,430.450764 484.879195,433.827697 C484.879195,435.243831 485.165145,436.523797 485.737045,437.667597 C486.308945,438.811397 487.139561,439.737331 488.228895,440.445397 L488.228895,440.445397 L488.719095,439.873497 C487.629761,439.056497 486.853611,438.185031 486.390645,437.259097 C485.927678,436.333164 485.696195,435.189364 485.696195,433.827697 C485.696195,430.940964 486.853611,428.571664 489.168445,426.719797 C491.483278,424.867931 494.383628,423.941998 497.869495,423.941998 C501.028561,423.941998 503.452328,424.799848 505.140794,426.515547 C506.829261,428.231247 507.673494,430.723097 507.673494,433.991097 L507.673494,433.991097 L507.673494,441.180697 L497.297595,442.978097 C491.905395,443.904031 487.970178,445.320164 485.491945,447.226497 C483.013711,449.132831 481.774595,451.583831 481.774595,454.579497 C481.774595,457.62963 482.877545,460.08063 485.083445,461.932497 C487.289345,463.784364 490.189695,464.710297 493.784495,464.710297 Z M499.013295,461.687397 C497.215895,461.687397 495.799761,460.89763 494.764895,459.318097 C493.730028,457.738564 493.212595,455.532664 493.212595,452.700397 C493.212595,449.759197 493.838961,447.539681 495.091695,446.041847 C496.344428,444.544014 498.386928,443.522764 501.219194,442.978097 L501.219194,442.978097 L507.673494,441.915997 L507.673494,451.801697 C507.292228,454.633964 506.284594,456.989647 504.650594,458.868747 C503.016594,460.747847 501.137494,461.687397 499.013295,461.687397 Z M542.804494,464.710297 C548.033294,464.710297 552.268077,463.416714 555.508844,460.829547 C558.74961,458.24238 560.369994,454.85183 560.369994,450.657897 C560.369994,447.662231 559.44406,445.238464 557.592194,443.386597 C555.740327,441.534731 552.635727,440.009664 548.278394,438.811397 L548.278394,438.811397 L540.271794,436.687197 C537.548461,435.979131 535.655744,435.134897 534.593644,434.154497 C533.531544,433.174097 533.000494,431.866897 533.000494,430.232897 C533.000494,428.272097 533.912811,426.678947 535.737444,425.453447 C537.562077,424.227948 539.944994,423.615198 542.886194,423.615198 C546.480994,423.615198 549.476661,424.323264 551.873194,425.739397 C554.269727,427.155531 556.01266,429.225264 557.101994,431.948597 L557.101994,431.948597 L557.918994,431.621797 C556.82966,428.789531 554.977794,426.610864 552.363394,425.085798 C549.748994,423.560731 546.589927,422.798198 542.886194,422.798198 C538.093127,422.798198 534.130677,424.064548 530.998844,426.597247 C527.867011,429.129947 526.301094,432.357097 526.301094,436.278697 C526.301094,439.165431 527.199794,441.534731 528.997194,443.386597 C530.794594,445.238464 533.545161,446.627364 537.248894,447.553297 L537.248894,447.553297 L545.255494,449.595797 C548.033294,450.303864 550.007711,451.188947 551.178744,452.251047 C552.349777,453.313147 552.935294,454.68843 552.935294,456.376897 C552.935294,458.664497 552.009361,460.48913 550.157494,461.850797 C548.305627,463.212464 545.854627,463.893297 542.804494,463.893297 C538.719494,463.893297 535.083844,462.926514 531.897544,460.992947 C528.711244,459.05938 526.709594,456.48583 525.892594,453.272297 L525.892594,453.272297 L525.075594,453.599097 C525.947061,456.921564 528.030411,459.604047 531.325644,461.646547 C534.620877,463.689047 538.447161,464.710297 542.804494,464.710297 Z M581.530293,464.710297 C586.759093,464.710297 590.993877,463.416714 594.234643,460.829547 C597.47541,458.24238 599.095793,454.85183 599.095793,450.657897 C599.095793,447.662231 598.16986,445.238464 596.317993,443.386597 C594.466127,441.534731 591.361527,440.009664 587.004193,438.811397 L587.004193,438.811397 L578.997594,436.687197 C576.27426,435.979131 574.381544,435.134897 573.319444,434.154497 C572.257344,433.174097 571.726294,431.866897 571.726294,430.232897 C571.726294,428.272097 572.63861,426.678947 574.463244,425.453447 C576.287877,424.227948 578.670794,423.615198 581.611993,423.615198 C585.206793,423.615198 588.20246,424.323264 590.598993,425.739397 C592.995527,427.155531 594.73846,429.225264 595.827793,431.948597 L595.827793,431.948597 L596.644793,431.621797 C595.55546,428.789531 593.703593,426.610864 591.089193,425.085798 C588.474793,423.560731 585.315727,422.798198 581.611993,422.798198 C576.818927,422.798198 572.856477,424.064548 569.724644,426.597247 C566.59281,429.129947 565.026894,432.357097 565.026894,436.278697 C565.026894,439.165431 565.925594,441.534731 567.722994,443.386597 C569.520394,445.238464 572.27096,446.627364 575.974694,447.553297 L575.974694,447.553297 L583.981293,449.595797 C586.759093,450.303864 588.73351,451.188947 589.904543,452.251047 C591.075577,453.313147 591.661093,454.68843 591.661093,456.376897 C591.661093,458.664497 590.73516,460.48913 588.883293,461.850797 C587.031427,463.212464 584.580427,463.893297 581.530293,463.893297 C577.445294,463.893297 573.809644,462.926514 570.623344,460.992947 C567.437044,459.05938 565.435394,456.48583 564.618394,453.272297 L564.618394,453.272297 L563.801394,453.599097 C564.67286,456.921564 566.75621,459.604047 570.051444,461.646547 C573.346677,463.689047 577.17296,464.710297 581.530293,464.710297 Z" id="Wennniemandzuschaut,macht'skeinSpass" stroke="#FAD1D1" stroke-width="0.887601698" fill="#FAD1D1" fill-rule="nonzero"></path>
    </g>
</svg>